%TF.GenerationSoftware,KiCad,Pcbnew,(6.0.2)*%
%TF.CreationDate,2023-05-20T08:16:15+01:00*%
%TF.ProjectId,Main Board,4d61696e-2042-46f6-9172-642e6b696361,rev?*%
%TF.SameCoordinates,Original*%
%TF.FileFunction,Copper,L2,Inr*%
%TF.FilePolarity,Positive*%
%FSLAX46Y46*%
G04 Gerber Fmt 4.6, Leading zero omitted, Abs format (unit mm)*
G04 Created by KiCad (PCBNEW (6.0.2)) date 2023-05-20 08:16:15*
%MOMM*%
%LPD*%
G01*
G04 APERTURE LIST*
%TA.AperFunction,ComponentPad*%
%ADD10R,1.700000X1.700000*%
%TD*%
%TA.AperFunction,ComponentPad*%
%ADD11O,1.700000X1.700000*%
%TD*%
%TA.AperFunction,ComponentPad*%
%ADD12C,1.500000*%
%TD*%
%TA.AperFunction,ComponentPad*%
%ADD13R,2.170000X2.170000*%
%TD*%
%TA.AperFunction,ComponentPad*%
%ADD14C,2.500000*%
%TD*%
%TA.AperFunction,ViaPad*%
%ADD15C,0.800000*%
%TD*%
G04 APERTURE END LIST*
D10*
%TO.N,MOSI*%
%TO.C,J2*%
X155682233Y-112727233D03*
D11*
%TO.N,+3V3*%
X155682233Y-110187233D03*
%TO.N,CLK*%
X158222233Y-112727233D03*
%TO.N,MISO*%
X158222233Y-110187233D03*
%TO.N,RESET*%
X160762233Y-112727233D03*
%TO.N,GND*%
X160762233Y-110187233D03*
%TD*%
D12*
%TO.N,/XTAL1*%
%TO.C,Y1*%
X163212233Y-93042233D03*
%TO.N,/XTAL2*%
X158332233Y-93042233D03*
%TD*%
D10*
%TO.N,+170VDC*%
%TO.C,J3*%
X116312233Y-82882233D03*
D11*
%TO.N,GND*%
X116312233Y-85422233D03*
%TO.N,CONFIG*%
X116312233Y-87962233D03*
%TO.N,+12V*%
X116312233Y-90502233D03*
%TO.N,POLARITY_COND*%
X116312233Y-93042233D03*
%TO.N,SHIFT_CLK_COND*%
X116312233Y-95582233D03*
%TO.N,LATCH_EN_COND*%
X116312233Y-98122233D03*
%TO.N,DATA_IN_COND*%
X116312233Y-100662233D03*
%TO.N,BLANKING_COND*%
X116312233Y-103202233D03*
%TO.N,GND*%
X116312233Y-105742233D03*
%TD*%
D13*
%TO.N,GND*%
%TO.C,BAT1*%
X172827233Y-93677233D03*
D14*
%TO.N,Net-(BAT1-PadPos)*%
X172827233Y-113677233D03*
%TD*%
D15*
%TO.N,GND*%
X124460000Y-95250000D03*
%TO.N,/VBUS*%
X154940000Y-88265000D03*
X153670000Y-88265000D03*
X152400000Y-88265000D03*
%TO.N,GND*%
X170053000Y-106299000D03*
X149733000Y-97409000D03*
X121920000Y-109220000D03*
X175895000Y-96520000D03*
X146685000Y-99695000D03*
X184785000Y-105410000D03*
X134620000Y-78105000D03*
X139827000Y-100965000D03*
X167005000Y-72390000D03*
X162433000Y-89027000D03*
X158115000Y-99695000D03*
X147701000Y-93345000D03*
X132080000Y-72390000D03*
X137160000Y-83820000D03*
X128270000Y-81280000D03*
X132080000Y-112395000D03*
X156210000Y-72390000D03*
X121920000Y-112395000D03*
X132991517Y-99997767D03*
X179197000Y-72517000D03*
X162560000Y-79756000D03*
X179451000Y-107950000D03*
X179832000Y-96774000D03*
X163576000Y-72644000D03*
X173355000Y-110490000D03*
X150495000Y-85090000D03*
X151003000Y-91694000D03*
X124587000Y-89154000D03*
X144145000Y-83185000D03*
X178435000Y-113665000D03*
X128270000Y-95885000D03*
X184785000Y-92075000D03*
X144018000Y-112776000D03*
X156845000Y-88265000D03*
X148590000Y-74930000D03*
X121920000Y-72390000D03*
X146685000Y-106680000D03*
X153035000Y-76835000D03*
X168783000Y-86106000D03*
X132080000Y-109220000D03*
X179578000Y-100076000D03*
X137033000Y-112776000D03*
X168910000Y-103505000D03*
X179324000Y-86106000D03*
%TO.N,Net-(BAT1-PadPos)*%
X181102000Y-96774000D03*
%TO.N,+3V3*%
X181991000Y-84455000D03*
X166751000Y-86868000D03*
X171196000Y-95885000D03*
X142748000Y-103886000D03*
X177165000Y-91694000D03*
X171196000Y-80137000D03*
X167767000Y-81153000D03*
%TO.N,+12V*%
X172481733Y-86741000D03*
X159131000Y-76200000D03*
X148844000Y-78359000D03*
X146812000Y-95504000D03*
%TO.N,CLK*%
X167513000Y-109982000D03*
%TO.N,RESET*%
X171323000Y-101600000D03*
%TO.N,SHIFT_CLK_COND*%
X138557000Y-106680000D03*
X133096000Y-105156000D03*
%TO.N,CONFIG*%
X169926000Y-101346000D03*
%TO.N,/VBUS_FET_EN*%
X166370000Y-79375000D03*
X168275000Y-83820000D03*
%TO.N,SCL*%
X183515000Y-97155000D03*
X175260000Y-102235000D03*
%TO.N,SHDN*%
X161036000Y-97536000D03*
X171196000Y-106172000D03*
%TO.N,/CC1*%
X176530000Y-83185000D03*
X179070000Y-83185000D03*
%TO.N,DATA_IN*%
X154432000Y-106680000D03*
X137668000Y-110236000D03*
%TO.N,/VBUS*%
X176530000Y-78232000D03*
%TD*%
%TA.AperFunction,Conductor*%
%TO.N,GND*%
G36*
X174076441Y-71195235D02*
G01*
X174122934Y-71248891D01*
X174133038Y-71319165D01*
X174126418Y-71345152D01*
X174124793Y-71349521D01*
X174121464Y-71356041D01*
X174079425Y-71527843D01*
X174078733Y-71538997D01*
X174078733Y-72366526D01*
X174094051Y-72497914D01*
X174096546Y-72504789D01*
X174096547Y-72504791D01*
X174114141Y-72553260D01*
X174154400Y-72664170D01*
X174158411Y-72670287D01*
X174158412Y-72670290D01*
X174237220Y-72790492D01*
X174251377Y-72812085D01*
X174379780Y-72933723D01*
X174532723Y-73022559D01*
X174539727Y-73024680D01*
X174539731Y-73024682D01*
X174670721Y-73064354D01*
X174702000Y-73073828D01*
X174878531Y-73084780D01*
X174885747Y-73083540D01*
X174885749Y-73083540D01*
X175045631Y-73056067D01*
X175045632Y-73056067D01*
X175052847Y-73054827D01*
X175215597Y-72985576D01*
X175221485Y-72981243D01*
X175221490Y-72981240D01*
X175352156Y-72885079D01*
X175358051Y-72880741D01*
X175362790Y-72875163D01*
X175362793Y-72875160D01*
X175467827Y-72751527D01*
X175467830Y-72751523D01*
X175472566Y-72745948D01*
X175553002Y-72588425D01*
X175562322Y-72550339D01*
X175593706Y-72422077D01*
X175595041Y-72416623D01*
X175595733Y-72405469D01*
X175595733Y-71577940D01*
X175580415Y-71446552D01*
X175577919Y-71439674D01*
X175577917Y-71439668D01*
X175543272Y-71344225D01*
X175538830Y-71273368D01*
X175573402Y-71211357D01*
X175636011Y-71177882D01*
X175661710Y-71175233D01*
X182648320Y-71175233D01*
X182716441Y-71195235D01*
X182762934Y-71248891D01*
X182773038Y-71319165D01*
X182766418Y-71345152D01*
X182764793Y-71349521D01*
X182761464Y-71356041D01*
X182719425Y-71527843D01*
X182718733Y-71538997D01*
X182718733Y-72366526D01*
X182734051Y-72497914D01*
X182736546Y-72504789D01*
X182736547Y-72504791D01*
X182754141Y-72553260D01*
X182794400Y-72664170D01*
X182798411Y-72670287D01*
X182798412Y-72670290D01*
X182877220Y-72790492D01*
X182891377Y-72812085D01*
X183019780Y-72933723D01*
X183172723Y-73022559D01*
X183179727Y-73024680D01*
X183179731Y-73024682D01*
X183310721Y-73064354D01*
X183342000Y-73073828D01*
X183518531Y-73084780D01*
X183525747Y-73083540D01*
X183525749Y-73083540D01*
X183685631Y-73056067D01*
X183685632Y-73056067D01*
X183692847Y-73054827D01*
X183855597Y-72985576D01*
X183861485Y-72981243D01*
X183861490Y-72981240D01*
X183992156Y-72885079D01*
X183998051Y-72880741D01*
X184002790Y-72875163D01*
X184002793Y-72875160D01*
X184107827Y-72751527D01*
X184107830Y-72751523D01*
X184112566Y-72745948D01*
X184193002Y-72588425D01*
X184202322Y-72550339D01*
X184233706Y-72422077D01*
X184235041Y-72416623D01*
X184235733Y-72405469D01*
X184235733Y-71577940D01*
X184232529Y-71550460D01*
X184244510Y-71480483D01*
X184292421Y-71428090D01*
X184361052Y-71409917D01*
X184428614Y-71431734D01*
X184446777Y-71446777D01*
X185516881Y-72516881D01*
X185547099Y-72565475D01*
X185573702Y-72643846D01*
X185577968Y-72659766D01*
X185625580Y-72899127D01*
X185627731Y-72915467D01*
X185641497Y-73125501D01*
X185640472Y-73148537D01*
X185640429Y-73152087D01*
X185639047Y-73160963D01*
X185640871Y-73174911D01*
X185643169Y-73192484D01*
X185644233Y-73208822D01*
X185644233Y-113117905D01*
X185642733Y-113137289D01*
X185639047Y-113160963D01*
X185641174Y-113177232D01*
X185641967Y-113201799D01*
X185634111Y-113321669D01*
X185609697Y-113388336D01*
X185597476Y-113402524D01*
X184036905Y-114963095D01*
X183974593Y-114997121D01*
X183947810Y-115000000D01*
X174284324Y-115000000D01*
X174216203Y-114979998D01*
X174169710Y-114926342D01*
X174159606Y-114856068D01*
X174189592Y-114790922D01*
X174232490Y-114742007D01*
X174232494Y-114742002D01*
X174235572Y-114738492D01*
X174376966Y-114518670D01*
X174484316Y-114280362D01*
X174522800Y-114143909D01*
X174553993Y-114033309D01*
X174553994Y-114033306D01*
X174555263Y-114028805D01*
X174572269Y-113895125D01*
X174587849Y-113772654D01*
X174587849Y-113772650D01*
X174588247Y-113769524D01*
X174590664Y-113677233D01*
X174588262Y-113644904D01*
X174571640Y-113421233D01*
X174571639Y-113421229D01*
X174571294Y-113416581D01*
X174568114Y-113402524D01*
X174524438Y-113209508D01*
X174513610Y-113161656D01*
X174511917Y-113157302D01*
X174420573Y-112922409D01*
X174420572Y-112922406D01*
X174418880Y-112918056D01*
X174289184Y-112691135D01*
X174127371Y-112485876D01*
X173936996Y-112306790D01*
X173722242Y-112157809D01*
X173716108Y-112154784D01*
X173671332Y-112132703D01*
X180890743Y-112132703D01*
X180928268Y-112417734D01*
X181004129Y-112695036D01*
X181005813Y-112698984D01*
X181099256Y-112918056D01*
X181116923Y-112959476D01*
X181128693Y-112979142D01*
X181259646Y-113197948D01*
X181264561Y-113206161D01*
X181444313Y-113430528D01*
X181461397Y-113446740D01*
X181649631Y-113625367D01*
X181652851Y-113628423D01*
X181886317Y-113796186D01*
X181890112Y-113798195D01*
X181890113Y-113798196D01*
X181911869Y-113809715D01*
X182140392Y-113930712D01*
X182164699Y-113939607D01*
X182405829Y-114027848D01*
X182410373Y-114029511D01*
X182691264Y-114090755D01*
X182719841Y-114093004D01*
X182914282Y-114108307D01*
X182914291Y-114108307D01*
X182916739Y-114108500D01*
X183072271Y-114108500D01*
X183074407Y-114108354D01*
X183074418Y-114108354D01*
X183282548Y-114094165D01*
X183282554Y-114094164D01*
X183286825Y-114093873D01*
X183291020Y-114093004D01*
X183291022Y-114093004D01*
X183454661Y-114059116D01*
X183568342Y-114035574D01*
X183839343Y-113939607D01*
X183940359Y-113887469D01*
X184091005Y-113809715D01*
X184091006Y-113809715D01*
X184094812Y-113807750D01*
X184098313Y-113805289D01*
X184098317Y-113805287D01*
X184212418Y-113725095D01*
X184330023Y-113642441D01*
X184453261Y-113527921D01*
X184537479Y-113449661D01*
X184537481Y-113449658D01*
X184540622Y-113446740D01*
X184722713Y-113224268D01*
X184872927Y-112979142D01*
X184988483Y-112715898D01*
X185067244Y-112439406D01*
X185107751Y-112154784D01*
X185107845Y-112136951D01*
X185109235Y-111871583D01*
X185109235Y-111871576D01*
X185109257Y-111867297D01*
X185103593Y-111824270D01*
X185072663Y-111589337D01*
X185071732Y-111582266D01*
X185058427Y-111533629D01*
X185040434Y-111467858D01*
X184995871Y-111304964D01*
X184910491Y-111104794D01*
X184884763Y-111044476D01*
X184884761Y-111044472D01*
X184883077Y-111040524D01*
X184794937Y-110893253D01*
X184737643Y-110797521D01*
X184737640Y-110797517D01*
X184735439Y-110793839D01*
X184555687Y-110569472D01*
X184404423Y-110425928D01*
X184350258Y-110374527D01*
X184350255Y-110374525D01*
X184347149Y-110371577D01*
X184113683Y-110203814D01*
X184091843Y-110192250D01*
X184053461Y-110171928D01*
X183859608Y-110069288D01*
X183639022Y-109988565D01*
X183593658Y-109971964D01*
X183593656Y-109971963D01*
X183589627Y-109970489D01*
X183308736Y-109909245D01*
X183277685Y-109906801D01*
X183085718Y-109891693D01*
X183085709Y-109891693D01*
X183083261Y-109891500D01*
X182927729Y-109891500D01*
X182925593Y-109891646D01*
X182925582Y-109891646D01*
X182717452Y-109905835D01*
X182717446Y-109905836D01*
X182713175Y-109906127D01*
X182708980Y-109906996D01*
X182708978Y-109906996D01*
X182582284Y-109933233D01*
X182431658Y-109964426D01*
X182160657Y-110060393D01*
X181905188Y-110192250D01*
X181901687Y-110194711D01*
X181901683Y-110194713D01*
X181891594Y-110201804D01*
X181669977Y-110357559D01*
X181603466Y-110419365D01*
X181491025Y-110523852D01*
X181459378Y-110553260D01*
X181277287Y-110775732D01*
X181127073Y-111020858D01*
X181125347Y-111024791D01*
X181125346Y-111024792D01*
X181103583Y-111074370D01*
X181011517Y-111284102D01*
X180932756Y-111560594D01*
X180892249Y-111845216D01*
X180892227Y-111849505D01*
X180892226Y-111849512D01*
X180891003Y-112083073D01*
X180890743Y-112132703D01*
X173671332Y-112132703D01*
X173492014Y-112044273D01*
X173492011Y-112044272D01*
X173487826Y-112042208D01*
X173441682Y-112027437D01*
X173243356Y-111963953D01*
X173238898Y-111962526D01*
X172980926Y-111920512D01*
X172867175Y-111919023D01*
X172724255Y-111917152D01*
X172724252Y-111917152D01*
X172719578Y-111917091D01*
X172460595Y-111952337D01*
X172209666Y-112025476D01*
X172205413Y-112027436D01*
X172205412Y-112027437D01*
X172168892Y-112044273D01*
X171972305Y-112134901D01*
X171935493Y-112159036D01*
X171757637Y-112275643D01*
X171757632Y-112275647D01*
X171753724Y-112278209D01*
X171558727Y-112452251D01*
X171391596Y-112653203D01*
X171389167Y-112657206D01*
X171308299Y-112790473D01*
X171256004Y-112876652D01*
X171154930Y-113117688D01*
X171090592Y-113371016D01*
X171090124Y-113375667D01*
X171090123Y-113375671D01*
X171084303Y-113433475D01*
X171064406Y-113631072D01*
X171064630Y-113635738D01*
X171064630Y-113635744D01*
X171070676Y-113761607D01*
X171076946Y-113892141D01*
X171127937Y-114148489D01*
X171216259Y-114394485D01*
X171218475Y-114398609D01*
X171282986Y-114518670D01*
X171339970Y-114624724D01*
X171342765Y-114628467D01*
X171342767Y-114628470D01*
X171469818Y-114798611D01*
X171494550Y-114865161D01*
X171479376Y-114934517D01*
X171429114Y-114984659D01*
X171368860Y-115000000D01*
X116052190Y-115000000D01*
X115984069Y-114979998D01*
X115963095Y-114963095D01*
X114197138Y-113197138D01*
X114163112Y-113134826D01*
X114160233Y-113108043D01*
X114160233Y-112132703D01*
X114890743Y-112132703D01*
X114928268Y-112417734D01*
X115004129Y-112695036D01*
X115005813Y-112698984D01*
X115099256Y-112918056D01*
X115116923Y-112959476D01*
X115128693Y-112979142D01*
X115259646Y-113197948D01*
X115264561Y-113206161D01*
X115444313Y-113430528D01*
X115461397Y-113446740D01*
X115649631Y-113625367D01*
X115652851Y-113628423D01*
X115886317Y-113796186D01*
X115890112Y-113798195D01*
X115890113Y-113798196D01*
X115911869Y-113809715D01*
X116140392Y-113930712D01*
X116164699Y-113939607D01*
X116405829Y-114027848D01*
X116410373Y-114029511D01*
X116691264Y-114090755D01*
X116719841Y-114093004D01*
X116914282Y-114108307D01*
X116914291Y-114108307D01*
X116916739Y-114108500D01*
X117072271Y-114108500D01*
X117074407Y-114108354D01*
X117074418Y-114108354D01*
X117282548Y-114094165D01*
X117282554Y-114094164D01*
X117286825Y-114093873D01*
X117291020Y-114093004D01*
X117291022Y-114093004D01*
X117454661Y-114059116D01*
X117568342Y-114035574D01*
X117839343Y-113939607D01*
X117940359Y-113887469D01*
X118091005Y-113809715D01*
X118091006Y-113809715D01*
X118094812Y-113807750D01*
X118098313Y-113805289D01*
X118098317Y-113805287D01*
X118212418Y-113725095D01*
X118330023Y-113642441D01*
X118453261Y-113527921D01*
X118537479Y-113449661D01*
X118537481Y-113449658D01*
X118540622Y-113446740D01*
X118722713Y-113224268D01*
X118872927Y-112979142D01*
X118988483Y-112715898D01*
X119067244Y-112439406D01*
X119107751Y-112154784D01*
X119107845Y-112136951D01*
X119109235Y-111871583D01*
X119109235Y-111871576D01*
X119109257Y-111867297D01*
X119103593Y-111824270D01*
X119072663Y-111589337D01*
X119071732Y-111582266D01*
X119058427Y-111533629D01*
X119040434Y-111467858D01*
X118995871Y-111304964D01*
X118910491Y-111104794D01*
X118884763Y-111044476D01*
X118884761Y-111044472D01*
X118883077Y-111040524D01*
X118794937Y-110893253D01*
X118737643Y-110797521D01*
X118737640Y-110797517D01*
X118735439Y-110793839D01*
X118555687Y-110569472D01*
X118404423Y-110425928D01*
X118350258Y-110374527D01*
X118350255Y-110374525D01*
X118347149Y-110371577D01*
X118158474Y-110236000D01*
X136754496Y-110236000D01*
X136755186Y-110242565D01*
X136769056Y-110374527D01*
X136774458Y-110425928D01*
X136833473Y-110607556D01*
X136928960Y-110772944D01*
X136933378Y-110777851D01*
X136933379Y-110777852D01*
X137052325Y-110909955D01*
X137056747Y-110914866D01*
X137211248Y-111027118D01*
X137217276Y-111029802D01*
X137217278Y-111029803D01*
X137316648Y-111074045D01*
X137385712Y-111104794D01*
X137479112Y-111124647D01*
X137566056Y-111143128D01*
X137566061Y-111143128D01*
X137572513Y-111144500D01*
X137763487Y-111144500D01*
X137769939Y-111143128D01*
X137769944Y-111143128D01*
X137856888Y-111124647D01*
X137950288Y-111104794D01*
X138019352Y-111074045D01*
X138118722Y-111029803D01*
X138118724Y-111029802D01*
X138124752Y-111027118D01*
X138279253Y-110914866D01*
X138283675Y-110909955D01*
X138402621Y-110777852D01*
X138402622Y-110777851D01*
X138407040Y-110772944D01*
X138502527Y-110607556D01*
X138561542Y-110425928D01*
X138566945Y-110374527D01*
X138580814Y-110242565D01*
X138581504Y-110236000D01*
X138572878Y-110153928D01*
X154319484Y-110153928D01*
X154319781Y-110159081D01*
X154319781Y-110159084D01*
X154325244Y-110253823D01*
X154332343Y-110376948D01*
X154333480Y-110381994D01*
X154333481Y-110382000D01*
X154343381Y-110425928D01*
X154381455Y-110594872D01*
X154442906Y-110746209D01*
X154462247Y-110793839D01*
X154465499Y-110801849D01*
X154516096Y-110884416D01*
X154579524Y-110987921D01*
X154582220Y-110992321D01*
X154728483Y-111161171D01*
X154732463Y-111164475D01*
X154737214Y-111168420D01*
X154776849Y-111227323D01*
X154778346Y-111298304D01*
X154741230Y-111358826D01*
X154700958Y-111383345D01*
X154653362Y-111401188D01*
X154585528Y-111426618D01*
X154468972Y-111513972D01*
X154381618Y-111630528D01*
X154330488Y-111766917D01*
X154323733Y-111829099D01*
X154323733Y-113625367D01*
X154330488Y-113687549D01*
X154381618Y-113823938D01*
X154468972Y-113940494D01*
X154585528Y-114027848D01*
X154721917Y-114078978D01*
X154784099Y-114085733D01*
X156580367Y-114085733D01*
X156642549Y-114078978D01*
X156778938Y-114027848D01*
X156895494Y-113940494D01*
X156982848Y-113823938D01*
X156994192Y-113793679D01*
X157026831Y-113706615D01*
X157069473Y-113649851D01*
X157136035Y-113625151D01*
X157205383Y-113640359D01*
X157240050Y-113668347D01*
X157268483Y-113701171D01*
X157440359Y-113843865D01*
X157633233Y-113956571D01*
X157841925Y-114036263D01*
X157846993Y-114037294D01*
X157846996Y-114037295D01*
X157954250Y-114059116D01*
X158060830Y-114080800D01*
X158066005Y-114080990D01*
X158066007Y-114080990D01*
X158278906Y-114088797D01*
X158278910Y-114088797D01*
X158284070Y-114088986D01*
X158289190Y-114088330D01*
X158289192Y-114088330D01*
X158500521Y-114061258D01*
X158500522Y-114061258D01*
X158505649Y-114060601D01*
X158510599Y-114059116D01*
X158714662Y-113997894D01*
X158714667Y-113997892D01*
X158719617Y-113996407D01*
X158920227Y-113898129D01*
X159102093Y-113768406D01*
X159260329Y-113610722D01*
X159390686Y-113429310D01*
X159392009Y-113430261D01*
X159438878Y-113387090D01*
X159508813Y-113374858D01*
X159574259Y-113402377D01*
X159602108Y-113434227D01*
X159662220Y-113532321D01*
X159808483Y-113701171D01*
X159980359Y-113843865D01*
X160173233Y-113956571D01*
X160381925Y-114036263D01*
X160386993Y-114037294D01*
X160386996Y-114037295D01*
X160494250Y-114059116D01*
X160600830Y-114080800D01*
X160606005Y-114080990D01*
X160606007Y-114080990D01*
X160818906Y-114088797D01*
X160818910Y-114088797D01*
X160824070Y-114088986D01*
X160829190Y-114088330D01*
X160829192Y-114088330D01*
X161040521Y-114061258D01*
X161040522Y-114061258D01*
X161045649Y-114060601D01*
X161050599Y-114059116D01*
X161254662Y-113997894D01*
X161254667Y-113997892D01*
X161259617Y-113996407D01*
X161460227Y-113898129D01*
X161642093Y-113768406D01*
X161800329Y-113610722D01*
X161930686Y-113429310D01*
X161943925Y-113402524D01*
X162027369Y-113233686D01*
X162027370Y-113233684D01*
X162029663Y-113229044D01*
X162094603Y-113015302D01*
X162123762Y-112793823D01*
X162125389Y-112727233D01*
X162107085Y-112504594D01*
X162052664Y-112287935D01*
X161963587Y-112083073D01*
X161885602Y-111962526D01*
X161845055Y-111899850D01*
X161845053Y-111899847D01*
X161842247Y-111895510D01*
X161691903Y-111730284D01*
X161687852Y-111727085D01*
X161687848Y-111727081D01*
X161520647Y-111595033D01*
X161520643Y-111595031D01*
X161516592Y-111591831D01*
X161474802Y-111568762D01*
X161424831Y-111518330D01*
X161410059Y-111448887D01*
X161435175Y-111382481D01*
X161462527Y-111355874D01*
X161637561Y-111231025D01*
X161645433Y-111224372D01*
X161796285Y-111074045D01*
X161802963Y-111066198D01*
X161927236Y-110893253D01*
X161932546Y-110884416D01*
X162026903Y-110693500D01*
X162030702Y-110683905D01*
X162092610Y-110480143D01*
X162094788Y-110470070D01*
X162096219Y-110459195D01*
X162094008Y-110445011D01*
X162080850Y-110441233D01*
X160634233Y-110441233D01*
X160566112Y-110421231D01*
X160519619Y-110367575D01*
X160508233Y-110315233D01*
X160508233Y-109982000D01*
X166599496Y-109982000D01*
X166600186Y-109988565D01*
X166617027Y-110148795D01*
X166619458Y-110171928D01*
X166678473Y-110353556D01*
X166773960Y-110518944D01*
X166778378Y-110523851D01*
X166778379Y-110523852D01*
X166897325Y-110655955D01*
X166901747Y-110660866D01*
X167056248Y-110773118D01*
X167062276Y-110775802D01*
X167062278Y-110775803D01*
X167224681Y-110848109D01*
X167230712Y-110850794D01*
X167324112Y-110870647D01*
X167411056Y-110889128D01*
X167411061Y-110889128D01*
X167417513Y-110890500D01*
X167608487Y-110890500D01*
X167614939Y-110889128D01*
X167614944Y-110889128D01*
X167701888Y-110870647D01*
X167795288Y-110850794D01*
X167801319Y-110848109D01*
X167963722Y-110775803D01*
X167963724Y-110775802D01*
X167969752Y-110773118D01*
X168124253Y-110660866D01*
X168128675Y-110655955D01*
X168247621Y-110523852D01*
X168247622Y-110523851D01*
X168252040Y-110518944D01*
X168347527Y-110353556D01*
X168406542Y-110171928D01*
X168408974Y-110148795D01*
X168425814Y-109988565D01*
X168426504Y-109982000D01*
X168418499Y-109905835D01*
X168407232Y-109798635D01*
X168407232Y-109798633D01*
X168406542Y-109792072D01*
X168347527Y-109610444D01*
X168252040Y-109445056D01*
X168175599Y-109360159D01*
X168128675Y-109308045D01*
X168128674Y-109308044D01*
X168124253Y-109303134D01*
X167969752Y-109190882D01*
X167963724Y-109188198D01*
X167963722Y-109188197D01*
X167801319Y-109115891D01*
X167801318Y-109115891D01*
X167795288Y-109113206D01*
X167701887Y-109093353D01*
X167614944Y-109074872D01*
X167614939Y-109074872D01*
X167608487Y-109073500D01*
X167417513Y-109073500D01*
X167411061Y-109074872D01*
X167411056Y-109074872D01*
X167324113Y-109093353D01*
X167230712Y-109113206D01*
X167224682Y-109115891D01*
X167224681Y-109115891D01*
X167062278Y-109188197D01*
X167062276Y-109188198D01*
X167056248Y-109190882D01*
X166901747Y-109303134D01*
X166897326Y-109308044D01*
X166897325Y-109308045D01*
X166850402Y-109360159D01*
X166773960Y-109445056D01*
X166678473Y-109610444D01*
X166619458Y-109792072D01*
X166618768Y-109798633D01*
X166618768Y-109798635D01*
X166607501Y-109905835D01*
X166599496Y-109982000D01*
X160508233Y-109982000D01*
X160508233Y-109915118D01*
X161016233Y-109915118D01*
X161020708Y-109930357D01*
X161022098Y-109931562D01*
X161029781Y-109933233D01*
X162080577Y-109933233D01*
X162094108Y-109929260D01*
X162095413Y-109920180D01*
X162053447Y-109753108D01*
X162050127Y-109743357D01*
X161965205Y-109548047D01*
X161960338Y-109538972D01*
X161844659Y-109360159D01*
X161838369Y-109351990D01*
X161695039Y-109194473D01*
X161687506Y-109187448D01*
X161520372Y-109055455D01*
X161511785Y-109049750D01*
X161325350Y-108946832D01*
X161315938Y-108942602D01*
X161115192Y-108871513D01*
X161105221Y-108868879D01*
X161034070Y-108856205D01*
X161020773Y-108857665D01*
X161016233Y-108872222D01*
X161016233Y-109915118D01*
X160508233Y-109915118D01*
X160508233Y-108870335D01*
X160504315Y-108856991D01*
X160490039Y-108855004D01*
X160451557Y-108860893D01*
X160441521Y-108863284D01*
X160239101Y-108929445D01*
X160229592Y-108933442D01*
X160040696Y-109031775D01*
X160031971Y-109037269D01*
X159861666Y-109165138D01*
X159853959Y-109171981D01*
X159706823Y-109325950D01*
X159700342Y-109333955D01*
X159595731Y-109487307D01*
X159540820Y-109532309D01*
X159470295Y-109540480D01*
X159406548Y-109509226D01*
X159385851Y-109484742D01*
X159305055Y-109359850D01*
X159305053Y-109359847D01*
X159302247Y-109355510D01*
X159151903Y-109190284D01*
X159147852Y-109187085D01*
X159147848Y-109187081D01*
X158980647Y-109055033D01*
X158980643Y-109055031D01*
X158976592Y-109051831D01*
X158940261Y-109031775D01*
X158924369Y-109023002D01*
X158781022Y-108943871D01*
X158776153Y-108942147D01*
X158776149Y-108942145D01*
X158575320Y-108871028D01*
X158575316Y-108871027D01*
X158570445Y-108869302D01*
X158565352Y-108868395D01*
X158565349Y-108868394D01*
X158355606Y-108831033D01*
X158355600Y-108831032D01*
X158350517Y-108830127D01*
X158276685Y-108829225D01*
X158132314Y-108827461D01*
X158132312Y-108827461D01*
X158127144Y-108827398D01*
X157906324Y-108861188D01*
X157693989Y-108930590D01*
X157495840Y-109033740D01*
X157491707Y-109036843D01*
X157491704Y-109036845D01*
X157321333Y-109164763D01*
X157317198Y-109167868D01*
X157313626Y-109171606D01*
X157183242Y-109308045D01*
X157162862Y-109329371D01*
X157055434Y-109486854D01*
X157000526Y-109531854D01*
X156930001Y-109540025D01*
X156866254Y-109508771D01*
X156845557Y-109484287D01*
X156765055Y-109359850D01*
X156765053Y-109359847D01*
X156762247Y-109355510D01*
X156611903Y-109190284D01*
X156607852Y-109187085D01*
X156607848Y-109187081D01*
X156440647Y-109055033D01*
X156440643Y-109055031D01*
X156436592Y-109051831D01*
X156400261Y-109031775D01*
X156384369Y-109023002D01*
X156241022Y-108943871D01*
X156236153Y-108942147D01*
X156236149Y-108942145D01*
X156035320Y-108871028D01*
X156035316Y-108871027D01*
X156030445Y-108869302D01*
X156025352Y-108868395D01*
X156025349Y-108868394D01*
X155815606Y-108831033D01*
X155815600Y-108831032D01*
X155810517Y-108830127D01*
X155736685Y-108829225D01*
X155592314Y-108827461D01*
X155592312Y-108827461D01*
X155587144Y-108827398D01*
X155366324Y-108861188D01*
X155153989Y-108930590D01*
X154955840Y-109033740D01*
X154951707Y-109036843D01*
X154951704Y-109036845D01*
X154781333Y-109164763D01*
X154777198Y-109167868D01*
X154773626Y-109171606D01*
X154643242Y-109308045D01*
X154622862Y-109329371D01*
X154496976Y-109513913D01*
X154481132Y-109548047D01*
X154408382Y-109704774D01*
X154402921Y-109716538D01*
X154343222Y-109931803D01*
X154319484Y-110153928D01*
X138572878Y-110153928D01*
X138562232Y-110052635D01*
X138562232Y-110052633D01*
X138561542Y-110046072D01*
X138502527Y-109864444D01*
X138407040Y-109699056D01*
X138327254Y-109610444D01*
X138283675Y-109562045D01*
X138283674Y-109562044D01*
X138279253Y-109557134D01*
X138124752Y-109444882D01*
X138118724Y-109442198D01*
X138118722Y-109442197D01*
X137956319Y-109369891D01*
X137956318Y-109369891D01*
X137950288Y-109367206D01*
X137856888Y-109347353D01*
X137769944Y-109328872D01*
X137769939Y-109328872D01*
X137763487Y-109327500D01*
X137572513Y-109327500D01*
X137566061Y-109328872D01*
X137566056Y-109328872D01*
X137479113Y-109347353D01*
X137385712Y-109367206D01*
X137379682Y-109369891D01*
X137379681Y-109369891D01*
X137217278Y-109442197D01*
X137217276Y-109442198D01*
X137211248Y-109444882D01*
X137056747Y-109557134D01*
X137052326Y-109562044D01*
X137052325Y-109562045D01*
X137008747Y-109610444D01*
X136928960Y-109699056D01*
X136833473Y-109864444D01*
X136774458Y-110046072D01*
X136773768Y-110052633D01*
X136773768Y-110052635D01*
X136763122Y-110153928D01*
X136754496Y-110236000D01*
X118158474Y-110236000D01*
X118113683Y-110203814D01*
X118091843Y-110192250D01*
X118053461Y-110171928D01*
X117859608Y-110069288D01*
X117639022Y-109988565D01*
X117593658Y-109971964D01*
X117593656Y-109971963D01*
X117589627Y-109970489D01*
X117308736Y-109909245D01*
X117277685Y-109906801D01*
X117085718Y-109891693D01*
X117085709Y-109891693D01*
X117083261Y-109891500D01*
X116927729Y-109891500D01*
X116925593Y-109891646D01*
X116925582Y-109891646D01*
X116717452Y-109905835D01*
X116717446Y-109905836D01*
X116713175Y-109906127D01*
X116708980Y-109906996D01*
X116708978Y-109906996D01*
X116582284Y-109933233D01*
X116431658Y-109964426D01*
X116160657Y-110060393D01*
X115905188Y-110192250D01*
X115901687Y-110194711D01*
X115901683Y-110194713D01*
X115891594Y-110201804D01*
X115669977Y-110357559D01*
X115603466Y-110419365D01*
X115491025Y-110523852D01*
X115459378Y-110553260D01*
X115277287Y-110775732D01*
X115127073Y-111020858D01*
X115125347Y-111024791D01*
X115125346Y-111024792D01*
X115103583Y-111074370D01*
X115011517Y-111284102D01*
X114932756Y-111560594D01*
X114892249Y-111845216D01*
X114892227Y-111849505D01*
X114892226Y-111849512D01*
X114891003Y-112083073D01*
X114890743Y-112132703D01*
X114160233Y-112132703D01*
X114160233Y-106010199D01*
X114980490Y-106010199D01*
X115010798Y-106144679D01*
X115013878Y-106154508D01*
X115094003Y-106351836D01*
X115098646Y-106361027D01*
X115209927Y-106542621D01*
X115216010Y-106550932D01*
X115355446Y-106711900D01*
X115362813Y-106719116D01*
X115526667Y-106855149D01*
X115535114Y-106861064D01*
X115718989Y-106968512D01*
X115728275Y-106972962D01*
X115927234Y-107048936D01*
X115937132Y-107051812D01*
X116040483Y-107072839D01*
X116054532Y-107071643D01*
X116058233Y-107061298D01*
X116058233Y-107060750D01*
X116566233Y-107060750D01*
X116570297Y-107074592D01*
X116583711Y-107076626D01*
X116590417Y-107075767D01*
X116600495Y-107073625D01*
X116804488Y-107012424D01*
X116814075Y-107008666D01*
X117005328Y-106914972D01*
X117014178Y-106909697D01*
X117187561Y-106786025D01*
X117195433Y-106779372D01*
X117295152Y-106680000D01*
X137643496Y-106680000D01*
X137644186Y-106686565D01*
X137661905Y-106855149D01*
X137663458Y-106869928D01*
X137722473Y-107051556D01*
X137725776Y-107057278D01*
X137725777Y-107057279D01*
X137735773Y-107074592D01*
X137817960Y-107216944D01*
X137945747Y-107358866D01*
X138100248Y-107471118D01*
X138106276Y-107473802D01*
X138106278Y-107473803D01*
X138268681Y-107546109D01*
X138274712Y-107548794D01*
X138368113Y-107568647D01*
X138455056Y-107587128D01*
X138455061Y-107587128D01*
X138461513Y-107588500D01*
X138652487Y-107588500D01*
X138658939Y-107587128D01*
X138658944Y-107587128D01*
X138745888Y-107568647D01*
X138839288Y-107548794D01*
X138845319Y-107546109D01*
X139007722Y-107473803D01*
X139007724Y-107473802D01*
X139013752Y-107471118D01*
X139168253Y-107358866D01*
X139296040Y-107216944D01*
X139378227Y-107074592D01*
X139388223Y-107057279D01*
X139388224Y-107057278D01*
X139391527Y-107051556D01*
X139450542Y-106869928D01*
X139452096Y-106855149D01*
X139469814Y-106686565D01*
X139470504Y-106680000D01*
X153518496Y-106680000D01*
X153519186Y-106686565D01*
X153536905Y-106855149D01*
X153538458Y-106869928D01*
X153597473Y-107051556D01*
X153600776Y-107057278D01*
X153600777Y-107057279D01*
X153610773Y-107074592D01*
X153692960Y-107216944D01*
X153820747Y-107358866D01*
X153975248Y-107471118D01*
X153981276Y-107473802D01*
X153981278Y-107473803D01*
X154143681Y-107546109D01*
X154149712Y-107548794D01*
X154243113Y-107568647D01*
X154330056Y-107587128D01*
X154330061Y-107587128D01*
X154336513Y-107588500D01*
X154527487Y-107588500D01*
X154533939Y-107587128D01*
X154533944Y-107587128D01*
X154620888Y-107568647D01*
X154714288Y-107548794D01*
X154720319Y-107546109D01*
X154882722Y-107473803D01*
X154882724Y-107473802D01*
X154888752Y-107471118D01*
X155043253Y-107358866D01*
X155171040Y-107216944D01*
X155253227Y-107074592D01*
X155263223Y-107057279D01*
X155263224Y-107057278D01*
X155266527Y-107051556D01*
X155325542Y-106869928D01*
X155327096Y-106855149D01*
X155344814Y-106686565D01*
X155345504Y-106680000D01*
X155344814Y-106673435D01*
X155326232Y-106496635D01*
X155326232Y-106496633D01*
X155325542Y-106490072D01*
X155266527Y-106308444D01*
X155187751Y-106172000D01*
X170282496Y-106172000D01*
X170302458Y-106361928D01*
X170361473Y-106543556D01*
X170364776Y-106549278D01*
X170364777Y-106549279D01*
X170398686Y-106608010D01*
X170456960Y-106708944D01*
X170461378Y-106713851D01*
X170461379Y-106713852D01*
X170526364Y-106786025D01*
X170584747Y-106850866D01*
X170739248Y-106963118D01*
X170745276Y-106965802D01*
X170745278Y-106965803D01*
X170907681Y-107038109D01*
X170913712Y-107040794D01*
X171007113Y-107060647D01*
X171094056Y-107079128D01*
X171094061Y-107079128D01*
X171100513Y-107080500D01*
X171291487Y-107080500D01*
X171297939Y-107079128D01*
X171297944Y-107079128D01*
X171384888Y-107060647D01*
X171478288Y-107040794D01*
X171484319Y-107038109D01*
X171646722Y-106965803D01*
X171646724Y-106965802D01*
X171652752Y-106963118D01*
X171807253Y-106850866D01*
X171865636Y-106786025D01*
X171930621Y-106713852D01*
X171930622Y-106713851D01*
X171935040Y-106708944D01*
X171993314Y-106608010D01*
X172027223Y-106549279D01*
X172027224Y-106549278D01*
X172030527Y-106543556D01*
X172089542Y-106361928D01*
X172109504Y-106172000D01*
X172107063Y-106148774D01*
X172090232Y-105988635D01*
X172090232Y-105988633D01*
X172089542Y-105982072D01*
X172030527Y-105800444D01*
X171935040Y-105635056D01*
X171807253Y-105493134D01*
X171652752Y-105380882D01*
X171646724Y-105378198D01*
X171646722Y-105378197D01*
X171484319Y-105305891D01*
X171484318Y-105305891D01*
X171478288Y-105303206D01*
X171384888Y-105283353D01*
X171297944Y-105264872D01*
X171297939Y-105264872D01*
X171291487Y-105263500D01*
X171100513Y-105263500D01*
X171094061Y-105264872D01*
X171094056Y-105264872D01*
X171007113Y-105283353D01*
X170913712Y-105303206D01*
X170907682Y-105305891D01*
X170907681Y-105305891D01*
X170745278Y-105378197D01*
X170745276Y-105378198D01*
X170739248Y-105380882D01*
X170584747Y-105493134D01*
X170456960Y-105635056D01*
X170361473Y-105800444D01*
X170302458Y-105982072D01*
X170301768Y-105988633D01*
X170301768Y-105988635D01*
X170284937Y-106148774D01*
X170282496Y-106172000D01*
X155187751Y-106172000D01*
X155171040Y-106143056D01*
X155043253Y-106001134D01*
X154888752Y-105888882D01*
X154882724Y-105886198D01*
X154882722Y-105886197D01*
X154720319Y-105813891D01*
X154720318Y-105813891D01*
X154714288Y-105811206D01*
X154620888Y-105791353D01*
X154533944Y-105772872D01*
X154533939Y-105772872D01*
X154527487Y-105771500D01*
X154336513Y-105771500D01*
X154330061Y-105772872D01*
X154330056Y-105772872D01*
X154243113Y-105791353D01*
X154149712Y-105811206D01*
X154143682Y-105813891D01*
X154143681Y-105813891D01*
X153981278Y-105886197D01*
X153981276Y-105886198D01*
X153975248Y-105888882D01*
X153820747Y-106001134D01*
X153692960Y-106143056D01*
X153597473Y-106308444D01*
X153538458Y-106490072D01*
X153537768Y-106496633D01*
X153537768Y-106496635D01*
X153519186Y-106673435D01*
X153518496Y-106680000D01*
X139470504Y-106680000D01*
X139469814Y-106673435D01*
X139451232Y-106496635D01*
X139451232Y-106496633D01*
X139450542Y-106490072D01*
X139391527Y-106308444D01*
X139296040Y-106143056D01*
X139168253Y-106001134D01*
X139013752Y-105888882D01*
X139007724Y-105886198D01*
X139007722Y-105886197D01*
X138845319Y-105813891D01*
X138845318Y-105813891D01*
X138839288Y-105811206D01*
X138745888Y-105791353D01*
X138658944Y-105772872D01*
X138658939Y-105772872D01*
X138652487Y-105771500D01*
X138461513Y-105771500D01*
X138455061Y-105772872D01*
X138455056Y-105772872D01*
X138368113Y-105791353D01*
X138274712Y-105811206D01*
X138268682Y-105813891D01*
X138268681Y-105813891D01*
X138106278Y-105886197D01*
X138106276Y-105886198D01*
X138100248Y-105888882D01*
X137945747Y-106001134D01*
X137817960Y-106143056D01*
X137722473Y-106308444D01*
X137663458Y-106490072D01*
X137662768Y-106496633D01*
X137662768Y-106496635D01*
X137644186Y-106673435D01*
X137643496Y-106680000D01*
X117295152Y-106680000D01*
X117346285Y-106629045D01*
X117352963Y-106621198D01*
X117477236Y-106448253D01*
X117482546Y-106439416D01*
X117576903Y-106248500D01*
X117580702Y-106238905D01*
X117642610Y-106035143D01*
X117644788Y-106025070D01*
X117646219Y-106014195D01*
X117644008Y-106000011D01*
X117630850Y-105996233D01*
X116584348Y-105996233D01*
X116569109Y-106000708D01*
X116567904Y-106002098D01*
X116566233Y-106009781D01*
X116566233Y-107060750D01*
X116058233Y-107060750D01*
X116058233Y-106014348D01*
X116053758Y-105999109D01*
X116052368Y-105997904D01*
X116044685Y-105996233D01*
X114995458Y-105996233D01*
X114981927Y-106000206D01*
X114980490Y-106010199D01*
X114160233Y-106010199D01*
X114160233Y-103168928D01*
X114949484Y-103168928D01*
X114949781Y-103174081D01*
X114949781Y-103174084D01*
X114955244Y-103268823D01*
X114962343Y-103391948D01*
X114963480Y-103396994D01*
X114963481Y-103397000D01*
X114983352Y-103485172D01*
X115011455Y-103609872D01*
X115095499Y-103816849D01*
X115212220Y-104007321D01*
X115358483Y-104176171D01*
X115530359Y-104318865D01*
X115604188Y-104362007D01*
X115652912Y-104413645D01*
X115665983Y-104483428D01*
X115639252Y-104549200D01*
X115598795Y-104582560D01*
X115590690Y-104586779D01*
X115581971Y-104592269D01*
X115411666Y-104720138D01*
X115403959Y-104726981D01*
X115256823Y-104880950D01*
X115250337Y-104888960D01*
X115130331Y-105064882D01*
X115125233Y-105073856D01*
X115035571Y-105267016D01*
X115032008Y-105276703D01*
X114976622Y-105476416D01*
X114978145Y-105484840D01*
X114990525Y-105488233D01*
X117630577Y-105488233D01*
X117644108Y-105484260D01*
X117645413Y-105475180D01*
X117603447Y-105308108D01*
X117600127Y-105298357D01*
X117538229Y-105156000D01*
X132182496Y-105156000D01*
X132183186Y-105162565D01*
X132197824Y-105301834D01*
X132202458Y-105345928D01*
X132261473Y-105527556D01*
X132356960Y-105692944D01*
X132484747Y-105834866D01*
X132639248Y-105947118D01*
X132645276Y-105949802D01*
X132645278Y-105949803D01*
X132807681Y-106022109D01*
X132813712Y-106024794D01*
X132907113Y-106044647D01*
X132994056Y-106063128D01*
X132994061Y-106063128D01*
X133000513Y-106064500D01*
X133191487Y-106064500D01*
X133197939Y-106063128D01*
X133197944Y-106063128D01*
X133284887Y-106044647D01*
X133378288Y-106024794D01*
X133384319Y-106022109D01*
X133546722Y-105949803D01*
X133546724Y-105949802D01*
X133552752Y-105947118D01*
X133707253Y-105834866D01*
X133835040Y-105692944D01*
X133930527Y-105527556D01*
X133989542Y-105345928D01*
X133994177Y-105301834D01*
X134008814Y-105162565D01*
X134009504Y-105156000D01*
X134008814Y-105149435D01*
X133990232Y-104972635D01*
X133990232Y-104972633D01*
X133989542Y-104966072D01*
X133930527Y-104784444D01*
X133910337Y-104749473D01*
X133838341Y-104624774D01*
X133835040Y-104619056D01*
X133789744Y-104568749D01*
X133711675Y-104482045D01*
X133711674Y-104482044D01*
X133707253Y-104477134D01*
X133552752Y-104364882D01*
X133546724Y-104362198D01*
X133546722Y-104362197D01*
X133384319Y-104289891D01*
X133384318Y-104289891D01*
X133378288Y-104287206D01*
X133265721Y-104263279D01*
X133197944Y-104248872D01*
X133197939Y-104248872D01*
X133191487Y-104247500D01*
X133000513Y-104247500D01*
X132994061Y-104248872D01*
X132994056Y-104248872D01*
X132926279Y-104263279D01*
X132813712Y-104287206D01*
X132807682Y-104289891D01*
X132807681Y-104289891D01*
X132645278Y-104362197D01*
X132645276Y-104362198D01*
X132639248Y-104364882D01*
X132484747Y-104477134D01*
X132480326Y-104482044D01*
X132480325Y-104482045D01*
X132402257Y-104568749D01*
X132356960Y-104619056D01*
X132353659Y-104624774D01*
X132281664Y-104749473D01*
X132261473Y-104784444D01*
X132202458Y-104966072D01*
X132201768Y-104972633D01*
X132201768Y-104972635D01*
X132183186Y-105149435D01*
X132182496Y-105156000D01*
X117538229Y-105156000D01*
X117515205Y-105103047D01*
X117510338Y-105093972D01*
X117394659Y-104915159D01*
X117388369Y-104906990D01*
X117245039Y-104749473D01*
X117237506Y-104742448D01*
X117070372Y-104610455D01*
X117061789Y-104604753D01*
X117024835Y-104584353D01*
X116974864Y-104533920D01*
X116960092Y-104464478D01*
X116985208Y-104398072D01*
X117012560Y-104371465D01*
X117036030Y-104354724D01*
X117192093Y-104243406D01*
X117350329Y-104085722D01*
X117409827Y-104002922D01*
X117477668Y-103908510D01*
X117480686Y-103904310D01*
X117489736Y-103886000D01*
X141834496Y-103886000D01*
X141854458Y-104075928D01*
X141913473Y-104257556D01*
X142008960Y-104422944D01*
X142013378Y-104427851D01*
X142013379Y-104427852D01*
X142057753Y-104477134D01*
X142136747Y-104564866D01*
X142291248Y-104677118D01*
X142297276Y-104679802D01*
X142297278Y-104679803D01*
X142459681Y-104752109D01*
X142465712Y-104754794D01*
X142559112Y-104774647D01*
X142646056Y-104793128D01*
X142646061Y-104793128D01*
X142652513Y-104794500D01*
X142843487Y-104794500D01*
X142849939Y-104793128D01*
X142849944Y-104793128D01*
X142936888Y-104774647D01*
X143030288Y-104754794D01*
X143036319Y-104752109D01*
X143198722Y-104679803D01*
X143198724Y-104679802D01*
X143204752Y-104677118D01*
X143359253Y-104564866D01*
X143438247Y-104477134D01*
X143482621Y-104427852D01*
X143482622Y-104427851D01*
X143487040Y-104422944D01*
X143582527Y-104257556D01*
X143641542Y-104075928D01*
X143661504Y-103886000D01*
X143641542Y-103696072D01*
X143582527Y-103514444D01*
X143487040Y-103349056D01*
X143359253Y-103207134D01*
X143218907Y-103105166D01*
X143210094Y-103098763D01*
X143210093Y-103098762D01*
X143204752Y-103094882D01*
X143198724Y-103092198D01*
X143198722Y-103092197D01*
X143036319Y-103019891D01*
X143036318Y-103019891D01*
X143030288Y-103017206D01*
X142936887Y-102997353D01*
X142849944Y-102978872D01*
X142849939Y-102978872D01*
X142843487Y-102977500D01*
X142652513Y-102977500D01*
X142646061Y-102978872D01*
X142646056Y-102978872D01*
X142559113Y-102997353D01*
X142465712Y-103017206D01*
X142459682Y-103019891D01*
X142459681Y-103019891D01*
X142297278Y-103092197D01*
X142297276Y-103092198D01*
X142291248Y-103094882D01*
X142285907Y-103098762D01*
X142285906Y-103098763D01*
X142277093Y-103105166D01*
X142136747Y-103207134D01*
X142008960Y-103349056D01*
X141913473Y-103514444D01*
X141854458Y-103696072D01*
X141834496Y-103886000D01*
X117489736Y-103886000D01*
X117577369Y-103708686D01*
X117577370Y-103708684D01*
X117579663Y-103704044D01*
X117644603Y-103490302D01*
X117673762Y-103268823D01*
X117675389Y-103202233D01*
X117657085Y-102979594D01*
X117602664Y-102762935D01*
X117513587Y-102558073D01*
X117392247Y-102370510D01*
X117241903Y-102205284D01*
X117237852Y-102202085D01*
X117237848Y-102202081D01*
X117070647Y-102070033D01*
X117070643Y-102070031D01*
X117066592Y-102066831D01*
X117025286Y-102044029D01*
X116975317Y-101993597D01*
X116960545Y-101924154D01*
X116985661Y-101857749D01*
X117013013Y-101831142D01*
X117079994Y-101783365D01*
X117192093Y-101703406D01*
X117350329Y-101545722D01*
X117409827Y-101462922D01*
X117477668Y-101368510D01*
X117480686Y-101364310D01*
X117489736Y-101346000D01*
X169012496Y-101346000D01*
X169013186Y-101352565D01*
X169023192Y-101447763D01*
X169032458Y-101535928D01*
X169091473Y-101717556D01*
X169186960Y-101882944D01*
X169191378Y-101887851D01*
X169191379Y-101887852D01*
X169286592Y-101993597D01*
X169314747Y-102024866D01*
X169469248Y-102137118D01*
X169475276Y-102139802D01*
X169475278Y-102139803D01*
X169637681Y-102212109D01*
X169643712Y-102214794D01*
X169707888Y-102228435D01*
X169824056Y-102253128D01*
X169824061Y-102253128D01*
X169830513Y-102254500D01*
X170021487Y-102254500D01*
X170027939Y-102253128D01*
X170027944Y-102253128D01*
X170144112Y-102228435D01*
X170208288Y-102214794D01*
X170214319Y-102212109D01*
X170376722Y-102139803D01*
X170376724Y-102139802D01*
X170382752Y-102137118D01*
X170388090Y-102133240D01*
X170388093Y-102133238D01*
X170413151Y-102115032D01*
X170480019Y-102091174D01*
X170549170Y-102107256D01*
X170583213Y-102137617D01*
X170583960Y-102136944D01*
X170645494Y-102205284D01*
X170711747Y-102278866D01*
X170796763Y-102340634D01*
X170837884Y-102370510D01*
X170866248Y-102391118D01*
X170872276Y-102393802D01*
X170872278Y-102393803D01*
X171034681Y-102466109D01*
X171040712Y-102468794D01*
X171134113Y-102488647D01*
X171221056Y-102507128D01*
X171221061Y-102507128D01*
X171227513Y-102508500D01*
X171418487Y-102508500D01*
X171424939Y-102507128D01*
X171424944Y-102507128D01*
X171511888Y-102488647D01*
X171605288Y-102468794D01*
X171611319Y-102466109D01*
X171773722Y-102393803D01*
X171773724Y-102393802D01*
X171779752Y-102391118D01*
X171808117Y-102370510D01*
X171849237Y-102340634D01*
X171934253Y-102278866D01*
X171973750Y-102235000D01*
X174346496Y-102235000D01*
X174347186Y-102241565D01*
X174363187Y-102393803D01*
X174366458Y-102424928D01*
X174425473Y-102606556D01*
X174520960Y-102771944D01*
X174648747Y-102913866D01*
X174746317Y-102984755D01*
X174790982Y-103017206D01*
X174803248Y-103026118D01*
X174809276Y-103028802D01*
X174809278Y-103028803D01*
X174957695Y-103094882D01*
X174977712Y-103103794D01*
X175071113Y-103123647D01*
X175158056Y-103142128D01*
X175158061Y-103142128D01*
X175164513Y-103143500D01*
X175355487Y-103143500D01*
X175361939Y-103142128D01*
X175361944Y-103142128D01*
X175448888Y-103123647D01*
X175542288Y-103103794D01*
X175562305Y-103094882D01*
X175710722Y-103028803D01*
X175710724Y-103028802D01*
X175716752Y-103026118D01*
X175729019Y-103017206D01*
X175773683Y-102984755D01*
X175871253Y-102913866D01*
X175999040Y-102771944D01*
X176094527Y-102606556D01*
X176153542Y-102424928D01*
X176156814Y-102393803D01*
X176172814Y-102241565D01*
X176173504Y-102235000D01*
X176172814Y-102228435D01*
X176154232Y-102051635D01*
X176154232Y-102051633D01*
X176153542Y-102045072D01*
X176094527Y-101863444D01*
X175999040Y-101698056D01*
X175871253Y-101556134D01*
X175716752Y-101443882D01*
X175710724Y-101441198D01*
X175710722Y-101441197D01*
X175548319Y-101368891D01*
X175548318Y-101368891D01*
X175542288Y-101366206D01*
X175447227Y-101346000D01*
X175361944Y-101327872D01*
X175361939Y-101327872D01*
X175355487Y-101326500D01*
X175164513Y-101326500D01*
X175158061Y-101327872D01*
X175158056Y-101327872D01*
X175072773Y-101346000D01*
X174977712Y-101366206D01*
X174971682Y-101368891D01*
X174971681Y-101368891D01*
X174809278Y-101441197D01*
X174809276Y-101441198D01*
X174803248Y-101443882D01*
X174648747Y-101556134D01*
X174520960Y-101698056D01*
X174425473Y-101863444D01*
X174366458Y-102045072D01*
X174365768Y-102051633D01*
X174365768Y-102051635D01*
X174347186Y-102228435D01*
X174346496Y-102235000D01*
X171973750Y-102235000D01*
X171997068Y-102209103D01*
X172057621Y-102141852D01*
X172057622Y-102141851D01*
X172062040Y-102136944D01*
X172157527Y-101971556D01*
X172216542Y-101789928D01*
X172217431Y-101781475D01*
X172235814Y-101606565D01*
X172236504Y-101600000D01*
X172222097Y-101462922D01*
X172217232Y-101416635D01*
X172217232Y-101416633D01*
X172216542Y-101410072D01*
X172157527Y-101228444D01*
X172062040Y-101063056D01*
X171982254Y-100974444D01*
X171938675Y-100926045D01*
X171938674Y-100926044D01*
X171934253Y-100921134D01*
X171779752Y-100808882D01*
X171773724Y-100806198D01*
X171773722Y-100806197D01*
X171611319Y-100733891D01*
X171611318Y-100733891D01*
X171605288Y-100731206D01*
X171511888Y-100711353D01*
X171424944Y-100692872D01*
X171424939Y-100692872D01*
X171418487Y-100691500D01*
X171227513Y-100691500D01*
X171221061Y-100692872D01*
X171221056Y-100692872D01*
X171134112Y-100711353D01*
X171040712Y-100731206D01*
X171034682Y-100733891D01*
X171034681Y-100733891D01*
X170872278Y-100806197D01*
X170872276Y-100806198D01*
X170866248Y-100808882D01*
X170860910Y-100812760D01*
X170860907Y-100812762D01*
X170835849Y-100830968D01*
X170768981Y-100854826D01*
X170699830Y-100838744D01*
X170665787Y-100808383D01*
X170665040Y-100809056D01*
X170541675Y-100672045D01*
X170541674Y-100672044D01*
X170537253Y-100667134D01*
X170382752Y-100554882D01*
X170376724Y-100552198D01*
X170376722Y-100552197D01*
X170214319Y-100479891D01*
X170214318Y-100479891D01*
X170208288Y-100477206D01*
X170114888Y-100457353D01*
X170027944Y-100438872D01*
X170027939Y-100438872D01*
X170021487Y-100437500D01*
X169830513Y-100437500D01*
X169824061Y-100438872D01*
X169824056Y-100438872D01*
X169737112Y-100457353D01*
X169643712Y-100477206D01*
X169637682Y-100479891D01*
X169637681Y-100479891D01*
X169475278Y-100552197D01*
X169475276Y-100552198D01*
X169469248Y-100554882D01*
X169314747Y-100667134D01*
X169186960Y-100809056D01*
X169091473Y-100974444D01*
X169032458Y-101156072D01*
X169031768Y-101162633D01*
X169031768Y-101162635D01*
X169014401Y-101327872D01*
X169012496Y-101346000D01*
X117489736Y-101346000D01*
X117577369Y-101168686D01*
X117577370Y-101168684D01*
X117579663Y-101164044D01*
X117644603Y-100950302D01*
X117673762Y-100728823D01*
X117673844Y-100725473D01*
X117675307Y-100665598D01*
X117675307Y-100665594D01*
X117675389Y-100662233D01*
X117657085Y-100439594D01*
X117602664Y-100222935D01*
X117513587Y-100018073D01*
X117392247Y-99830510D01*
X117241903Y-99665284D01*
X117237852Y-99662085D01*
X117237848Y-99662081D01*
X117070647Y-99530033D01*
X117070643Y-99530031D01*
X117066592Y-99526831D01*
X117025286Y-99504029D01*
X116975317Y-99453597D01*
X116960545Y-99384154D01*
X116985661Y-99317749D01*
X117013013Y-99291142D01*
X117056836Y-99259883D01*
X117192093Y-99163406D01*
X117350329Y-99005722D01*
X117409827Y-98922922D01*
X117477668Y-98828510D01*
X117480686Y-98824310D01*
X117579663Y-98624044D01*
X117644603Y-98410302D01*
X117673762Y-98188823D01*
X117675389Y-98122233D01*
X117657085Y-97899594D01*
X117602664Y-97682935D01*
X117538775Y-97536000D01*
X160122496Y-97536000D01*
X160123186Y-97542565D01*
X160137894Y-97682500D01*
X160142458Y-97725928D01*
X160201473Y-97907556D01*
X160296960Y-98072944D01*
X160301378Y-98077851D01*
X160301379Y-98077852D01*
X160338320Y-98118879D01*
X160424747Y-98214866D01*
X160579248Y-98327118D01*
X160585276Y-98329802D01*
X160585278Y-98329803D01*
X160747681Y-98402109D01*
X160753712Y-98404794D01*
X160847112Y-98424647D01*
X160934056Y-98443128D01*
X160934061Y-98443128D01*
X160940513Y-98444500D01*
X161131487Y-98444500D01*
X161137939Y-98443128D01*
X161137944Y-98443128D01*
X161224888Y-98424647D01*
X161318288Y-98404794D01*
X161324319Y-98402109D01*
X161486722Y-98329803D01*
X161486724Y-98329802D01*
X161492752Y-98327118D01*
X161647253Y-98214866D01*
X161733680Y-98118879D01*
X161770621Y-98077852D01*
X161770622Y-98077851D01*
X161775040Y-98072944D01*
X161870527Y-97907556D01*
X161929542Y-97725928D01*
X161934107Y-97682500D01*
X161948814Y-97542565D01*
X161949504Y-97536000D01*
X161942959Y-97473725D01*
X161930232Y-97352635D01*
X161930232Y-97352633D01*
X161929542Y-97346072D01*
X161870527Y-97164444D01*
X161865075Y-97155000D01*
X161778341Y-97004774D01*
X161775040Y-96999056D01*
X161749064Y-96970206D01*
X161651675Y-96862045D01*
X161651674Y-96862044D01*
X161647253Y-96857134D01*
X161532829Y-96774000D01*
X161498094Y-96748763D01*
X161498093Y-96748762D01*
X161492752Y-96744882D01*
X161486724Y-96742198D01*
X161486722Y-96742197D01*
X161324319Y-96669891D01*
X161324318Y-96669891D01*
X161318288Y-96667206D01*
X161224888Y-96647353D01*
X161137944Y-96628872D01*
X161137939Y-96628872D01*
X161131487Y-96627500D01*
X160940513Y-96627500D01*
X160934061Y-96628872D01*
X160934056Y-96628872D01*
X160847112Y-96647353D01*
X160753712Y-96667206D01*
X160747682Y-96669891D01*
X160747681Y-96669891D01*
X160585278Y-96742197D01*
X160585276Y-96742198D01*
X160579248Y-96744882D01*
X160573907Y-96748762D01*
X160573906Y-96748763D01*
X160539171Y-96774000D01*
X160424747Y-96857134D01*
X160420326Y-96862044D01*
X160420325Y-96862045D01*
X160322937Y-96970206D01*
X160296960Y-96999056D01*
X160293659Y-97004774D01*
X160206926Y-97155000D01*
X160201473Y-97164444D01*
X160142458Y-97346072D01*
X160141768Y-97352633D01*
X160141768Y-97352635D01*
X160129041Y-97473725D01*
X160122496Y-97536000D01*
X117538775Y-97536000D01*
X117513587Y-97478073D01*
X117474139Y-97417095D01*
X117395055Y-97294850D01*
X117395053Y-97294847D01*
X117392247Y-97290510D01*
X117241903Y-97125284D01*
X117237852Y-97122085D01*
X117237848Y-97122081D01*
X117070647Y-96990033D01*
X117070643Y-96990031D01*
X117066592Y-96986831D01*
X117025286Y-96964029D01*
X116975317Y-96913597D01*
X116960545Y-96844154D01*
X116985661Y-96777749D01*
X117013013Y-96751142D01*
X117056836Y-96719883D01*
X117192093Y-96623406D01*
X117350329Y-96465722D01*
X117391283Y-96408729D01*
X117477668Y-96288510D01*
X117480686Y-96284310D01*
X117491575Y-96262279D01*
X117577369Y-96088686D01*
X117577370Y-96088684D01*
X117579663Y-96084044D01*
X117638143Y-95891565D01*
X117643098Y-95875256D01*
X117643098Y-95875254D01*
X117644603Y-95870302D01*
X117673762Y-95648823D01*
X117675389Y-95582233D01*
X117668957Y-95504000D01*
X145898496Y-95504000D01*
X145899186Y-95510565D01*
X145906719Y-95582233D01*
X145918458Y-95693928D01*
X145977473Y-95875556D01*
X145980776Y-95881278D01*
X145980777Y-95881279D01*
X145986716Y-95891565D01*
X146072960Y-96040944D01*
X146077378Y-96045851D01*
X146077379Y-96045852D01*
X146121753Y-96095134D01*
X146200747Y-96182866D01*
X146268578Y-96232148D01*
X146342982Y-96286206D01*
X146355248Y-96295118D01*
X146361276Y-96297802D01*
X146361278Y-96297803D01*
X146509695Y-96363882D01*
X146529712Y-96372794D01*
X146598056Y-96387321D01*
X146710056Y-96411128D01*
X146710061Y-96411128D01*
X146716513Y-96412500D01*
X146907487Y-96412500D01*
X146913939Y-96411128D01*
X146913944Y-96411128D01*
X147025944Y-96387321D01*
X147094288Y-96372794D01*
X147114305Y-96363882D01*
X147262722Y-96297803D01*
X147262724Y-96297802D01*
X147268752Y-96295118D01*
X147281019Y-96286206D01*
X147355422Y-96232148D01*
X147423253Y-96182866D01*
X147502247Y-96095134D01*
X147546621Y-96045852D01*
X147546622Y-96045851D01*
X147551040Y-96040944D01*
X147637284Y-95891565D01*
X147641075Y-95885000D01*
X170282496Y-95885000D01*
X170283186Y-95891565D01*
X170293192Y-95986763D01*
X170302458Y-96074928D01*
X170361473Y-96256556D01*
X170456960Y-96421944D01*
X170461378Y-96426851D01*
X170461379Y-96426852D01*
X170577818Y-96556171D01*
X170584747Y-96563866D01*
X170667203Y-96623774D01*
X170726982Y-96667206D01*
X170739248Y-96676118D01*
X170745276Y-96678802D01*
X170745278Y-96678803D01*
X170893695Y-96744882D01*
X170913712Y-96753794D01*
X170977888Y-96767435D01*
X171094056Y-96792128D01*
X171094061Y-96792128D01*
X171100513Y-96793500D01*
X171291487Y-96793500D01*
X171297939Y-96792128D01*
X171297944Y-96792128D01*
X171383227Y-96774000D01*
X180188496Y-96774000D01*
X180189186Y-96780565D01*
X180204777Y-96928902D01*
X180208458Y-96963928D01*
X180267473Y-97145556D01*
X180270776Y-97151278D01*
X180270777Y-97151279D01*
X180275074Y-97158721D01*
X180362960Y-97310944D01*
X180367378Y-97315851D01*
X180367379Y-97315852D01*
X180393559Y-97344928D01*
X180490747Y-97452866D01*
X180531979Y-97482823D01*
X180614207Y-97542565D01*
X180645248Y-97565118D01*
X180651276Y-97567802D01*
X180651278Y-97567803D01*
X180813681Y-97640109D01*
X180819712Y-97642794D01*
X180913113Y-97662647D01*
X181000056Y-97681128D01*
X181000061Y-97681128D01*
X181006513Y-97682500D01*
X181197487Y-97682500D01*
X181203939Y-97681128D01*
X181203944Y-97681128D01*
X181290887Y-97662647D01*
X181384288Y-97642794D01*
X181390319Y-97640109D01*
X181552722Y-97567803D01*
X181552724Y-97567802D01*
X181558752Y-97565118D01*
X181589794Y-97542565D01*
X181672021Y-97482823D01*
X181713253Y-97452866D01*
X181810441Y-97344928D01*
X181836621Y-97315852D01*
X181836622Y-97315851D01*
X181841040Y-97310944D01*
X181928926Y-97158721D01*
X181931075Y-97155000D01*
X182601496Y-97155000D01*
X182602186Y-97161565D01*
X182616195Y-97294850D01*
X182621458Y-97344928D01*
X182680473Y-97526556D01*
X182683776Y-97532278D01*
X182683777Y-97532279D01*
X182689716Y-97542565D01*
X182775960Y-97691944D01*
X182903747Y-97833866D01*
X183058248Y-97946118D01*
X183064276Y-97948802D01*
X183064278Y-97948803D01*
X183226681Y-98021109D01*
X183232712Y-98023794D01*
X183326112Y-98043647D01*
X183413056Y-98062128D01*
X183413061Y-98062128D01*
X183419513Y-98063500D01*
X183610487Y-98063500D01*
X183616939Y-98062128D01*
X183616944Y-98062128D01*
X183703887Y-98043647D01*
X183797288Y-98023794D01*
X183803319Y-98021109D01*
X183965722Y-97948803D01*
X183965724Y-97948802D01*
X183971752Y-97946118D01*
X184126253Y-97833866D01*
X184254040Y-97691944D01*
X184340284Y-97542565D01*
X184346223Y-97532279D01*
X184346224Y-97532278D01*
X184349527Y-97526556D01*
X184408542Y-97344928D01*
X184413806Y-97294850D01*
X184427814Y-97161565D01*
X184428504Y-97155000D01*
X184411598Y-96994148D01*
X184409232Y-96971635D01*
X184409232Y-96971633D01*
X184408542Y-96965072D01*
X184349527Y-96783444D01*
X184344075Y-96774000D01*
X184281625Y-96665834D01*
X184254040Y-96618056D01*
X184208744Y-96567749D01*
X184130675Y-96481045D01*
X184130674Y-96481044D01*
X184126253Y-96476134D01*
X183985907Y-96374166D01*
X183977094Y-96367763D01*
X183977093Y-96367762D01*
X183971752Y-96363882D01*
X183965724Y-96361198D01*
X183965722Y-96361197D01*
X183803319Y-96288891D01*
X183803318Y-96288891D01*
X183797288Y-96286206D01*
X183684721Y-96262279D01*
X183616944Y-96247872D01*
X183616939Y-96247872D01*
X183610487Y-96246500D01*
X183419513Y-96246500D01*
X183413061Y-96247872D01*
X183413056Y-96247872D01*
X183345279Y-96262279D01*
X183232712Y-96286206D01*
X183226682Y-96288891D01*
X183226681Y-96288891D01*
X183064278Y-96361197D01*
X183064276Y-96361198D01*
X183058248Y-96363882D01*
X183052907Y-96367762D01*
X183052906Y-96367763D01*
X183044093Y-96374166D01*
X182903747Y-96476134D01*
X182899326Y-96481044D01*
X182899325Y-96481045D01*
X182821257Y-96567749D01*
X182775960Y-96618056D01*
X182748375Y-96665834D01*
X182685926Y-96774000D01*
X182680473Y-96783444D01*
X182621458Y-96965072D01*
X182620768Y-96971633D01*
X182620768Y-96971635D01*
X182618402Y-96994148D01*
X182601496Y-97155000D01*
X181931075Y-97155000D01*
X181933223Y-97151279D01*
X181933224Y-97151278D01*
X181936527Y-97145556D01*
X181995542Y-96963928D01*
X181999224Y-96928902D01*
X182014814Y-96780565D01*
X182015504Y-96774000D01*
X182014814Y-96767435D01*
X181996232Y-96590635D01*
X181996232Y-96590633D01*
X181995542Y-96584072D01*
X181936527Y-96402444D01*
X181841040Y-96237056D01*
X181804838Y-96196849D01*
X181717675Y-96100045D01*
X181717674Y-96100044D01*
X181713253Y-96095134D01*
X181558752Y-95982882D01*
X181552724Y-95980198D01*
X181552722Y-95980197D01*
X181390319Y-95907891D01*
X181390318Y-95907891D01*
X181384288Y-95905206D01*
X181271721Y-95881279D01*
X181203944Y-95866872D01*
X181203939Y-95866872D01*
X181197487Y-95865500D01*
X181006513Y-95865500D01*
X181000061Y-95866872D01*
X181000056Y-95866872D01*
X180932279Y-95881279D01*
X180819712Y-95905206D01*
X180813682Y-95907891D01*
X180813681Y-95907891D01*
X180651278Y-95980197D01*
X180651276Y-95980198D01*
X180645248Y-95982882D01*
X180490747Y-96095134D01*
X180486326Y-96100044D01*
X180486325Y-96100045D01*
X180399163Y-96196849D01*
X180362960Y-96237056D01*
X180267473Y-96402444D01*
X180208458Y-96584072D01*
X180207768Y-96590633D01*
X180207768Y-96590635D01*
X180189186Y-96767435D01*
X180188496Y-96774000D01*
X171383227Y-96774000D01*
X171414112Y-96767435D01*
X171478288Y-96753794D01*
X171498305Y-96744882D01*
X171646722Y-96678803D01*
X171646724Y-96678802D01*
X171652752Y-96676118D01*
X171665019Y-96667206D01*
X171724797Y-96623774D01*
X171807253Y-96563866D01*
X171814182Y-96556171D01*
X171930621Y-96426852D01*
X171930622Y-96426851D01*
X171935040Y-96421944D01*
X172030527Y-96256556D01*
X172089542Y-96074928D01*
X172098809Y-95986763D01*
X172108814Y-95891565D01*
X172109504Y-95885000D01*
X172107599Y-95866872D01*
X172090232Y-95701635D01*
X172090232Y-95701633D01*
X172089542Y-95695072D01*
X172030527Y-95513444D01*
X172025075Y-95504000D01*
X171999228Y-95459233D01*
X171982490Y-95390238D01*
X172005710Y-95323146D01*
X172061517Y-95279259D01*
X172108347Y-95270233D01*
X172555118Y-95270233D01*
X172570357Y-95265758D01*
X172571562Y-95264368D01*
X172573233Y-95256685D01*
X172573233Y-95252117D01*
X173081233Y-95252117D01*
X173085708Y-95267356D01*
X173087098Y-95268561D01*
X173094781Y-95270232D01*
X173956902Y-95270232D01*
X173963723Y-95269862D01*
X174014585Y-95264338D01*
X174029837Y-95260712D01*
X174150287Y-95215557D01*
X174165882Y-95207019D01*
X174267957Y-95130518D01*
X174280518Y-95117957D01*
X174357019Y-95015882D01*
X174365557Y-95000287D01*
X174410711Y-94879839D01*
X174414338Y-94864584D01*
X174419864Y-94813719D01*
X174420233Y-94806905D01*
X174420233Y-93949348D01*
X174415758Y-93934109D01*
X174414368Y-93932904D01*
X174406685Y-93931233D01*
X173099348Y-93931233D01*
X173084109Y-93935708D01*
X173082904Y-93937098D01*
X173081233Y-93944781D01*
X173081233Y-95252117D01*
X172573233Y-95252117D01*
X172573233Y-93949348D01*
X172568758Y-93934109D01*
X172567368Y-93932904D01*
X172559685Y-93931233D01*
X171252349Y-93931233D01*
X171237110Y-93935708D01*
X171235905Y-93937098D01*
X171234234Y-93944781D01*
X171234234Y-94806902D01*
X171234604Y-94813726D01*
X171237120Y-94836896D01*
X171224590Y-94906778D01*
X171176268Y-94958792D01*
X171111857Y-94976500D01*
X171100513Y-94976500D01*
X171094061Y-94977872D01*
X171094056Y-94977872D01*
X171007113Y-94996353D01*
X170913712Y-95016206D01*
X170907682Y-95018891D01*
X170907681Y-95018891D01*
X170745278Y-95091197D01*
X170745276Y-95091198D01*
X170739248Y-95093882D01*
X170584747Y-95206134D01*
X170580326Y-95211044D01*
X170580325Y-95211045D01*
X170528538Y-95268561D01*
X170456960Y-95348056D01*
X170450299Y-95359594D01*
X170366926Y-95504000D01*
X170361473Y-95513444D01*
X170302458Y-95695072D01*
X170301768Y-95701633D01*
X170301768Y-95701635D01*
X170284401Y-95866872D01*
X170282496Y-95885000D01*
X147641075Y-95885000D01*
X147643223Y-95881279D01*
X147643224Y-95881278D01*
X147646527Y-95875556D01*
X147705542Y-95693928D01*
X147717282Y-95582233D01*
X147724814Y-95510565D01*
X147725504Y-95504000D01*
X147710869Y-95364755D01*
X147706232Y-95320635D01*
X147706232Y-95320633D01*
X147705542Y-95314072D01*
X147646527Y-95132444D01*
X147551040Y-94967056D01*
X147423253Y-94825134D01*
X147315285Y-94746690D01*
X147274094Y-94716763D01*
X147274093Y-94716762D01*
X147268752Y-94712882D01*
X147262724Y-94710198D01*
X147262722Y-94710197D01*
X147100319Y-94637891D01*
X147100318Y-94637891D01*
X147094288Y-94635206D01*
X147000887Y-94615353D01*
X146913944Y-94596872D01*
X146913939Y-94596872D01*
X146907487Y-94595500D01*
X146716513Y-94595500D01*
X146710061Y-94596872D01*
X146710056Y-94596872D01*
X146623113Y-94615353D01*
X146529712Y-94635206D01*
X146523682Y-94637891D01*
X146523681Y-94637891D01*
X146361278Y-94710197D01*
X146361276Y-94710198D01*
X146355248Y-94712882D01*
X146349907Y-94716762D01*
X146349906Y-94716763D01*
X146308715Y-94746690D01*
X146200747Y-94825134D01*
X146072960Y-94967056D01*
X145977473Y-95132444D01*
X145918458Y-95314072D01*
X145917768Y-95320633D01*
X145917768Y-95320635D01*
X145913131Y-95364755D01*
X145898496Y-95504000D01*
X117668957Y-95504000D01*
X117657085Y-95359594D01*
X117602664Y-95142935D01*
X117513587Y-94938073D01*
X117443701Y-94830045D01*
X117395055Y-94754850D01*
X117395053Y-94754847D01*
X117392247Y-94750510D01*
X117241903Y-94585284D01*
X117237852Y-94582085D01*
X117237848Y-94582081D01*
X117070647Y-94450033D01*
X117070643Y-94450031D01*
X117066592Y-94446831D01*
X117025286Y-94424029D01*
X116975317Y-94373597D01*
X116960545Y-94304154D01*
X116985661Y-94237749D01*
X117013013Y-94211142D01*
X117056836Y-94179883D01*
X117192093Y-94083406D01*
X117350329Y-93925722D01*
X117401672Y-93854271D01*
X117477668Y-93748510D01*
X117480686Y-93744310D01*
X117515492Y-93673886D01*
X117577369Y-93548686D01*
X117577370Y-93548684D01*
X117579663Y-93544044D01*
X117644603Y-93330302D01*
X117673762Y-93108823D01*
X117675389Y-93042233D01*
X157068926Y-93042233D01*
X157088118Y-93261604D01*
X157145113Y-93474309D01*
X157188648Y-93567671D01*
X157235851Y-93668899D01*
X157235854Y-93668904D01*
X157238177Y-93673886D01*
X157241333Y-93678393D01*
X157241334Y-93678395D01*
X157359618Y-93847321D01*
X157364484Y-93854271D01*
X157520195Y-94009982D01*
X157524704Y-94013139D01*
X157524706Y-94013141D01*
X157533749Y-94019473D01*
X157700579Y-94136289D01*
X157900157Y-94229353D01*
X158112862Y-94286348D01*
X158332233Y-94305540D01*
X158551604Y-94286348D01*
X158764309Y-94229353D01*
X158963887Y-94136289D01*
X159130717Y-94019473D01*
X159139760Y-94013141D01*
X159139762Y-94013139D01*
X159144271Y-94009982D01*
X159299982Y-93854271D01*
X159304849Y-93847321D01*
X159423132Y-93678395D01*
X159423133Y-93678393D01*
X159426289Y-93673886D01*
X159428612Y-93668904D01*
X159428615Y-93668899D01*
X159475818Y-93567671D01*
X159519353Y-93474309D01*
X159576348Y-93261604D01*
X159595540Y-93042233D01*
X161948926Y-93042233D01*
X161968118Y-93261604D01*
X162025113Y-93474309D01*
X162068648Y-93567671D01*
X162115851Y-93668899D01*
X162115854Y-93668904D01*
X162118177Y-93673886D01*
X162121333Y-93678393D01*
X162121334Y-93678395D01*
X162239618Y-93847321D01*
X162244484Y-93854271D01*
X162400195Y-94009982D01*
X162404704Y-94013139D01*
X162404706Y-94013141D01*
X162413749Y-94019473D01*
X162580579Y-94136289D01*
X162780157Y-94229353D01*
X162992862Y-94286348D01*
X163212233Y-94305540D01*
X163431604Y-94286348D01*
X163644309Y-94229353D01*
X163843887Y-94136289D01*
X164010717Y-94019473D01*
X164019760Y-94013141D01*
X164019762Y-94013139D01*
X164024271Y-94009982D01*
X164179982Y-93854271D01*
X164184849Y-93847321D01*
X164303132Y-93678395D01*
X164303133Y-93678393D01*
X164306289Y-93673886D01*
X164308612Y-93668904D01*
X164308615Y-93668899D01*
X164355818Y-93567671D01*
X164399353Y-93474309D01*
X164417893Y-93405118D01*
X171234233Y-93405118D01*
X171238708Y-93420357D01*
X171240098Y-93421562D01*
X171247781Y-93423233D01*
X172555118Y-93423233D01*
X172570357Y-93418758D01*
X172571562Y-93417368D01*
X172573233Y-93409685D01*
X172573233Y-93405118D01*
X173081233Y-93405118D01*
X173085708Y-93420357D01*
X173087098Y-93421562D01*
X173094781Y-93423233D01*
X174402117Y-93423233D01*
X174417356Y-93418758D01*
X174418561Y-93417368D01*
X174420232Y-93409685D01*
X174420232Y-92547564D01*
X174419862Y-92540743D01*
X174414338Y-92489881D01*
X174410712Y-92474629D01*
X174365557Y-92354179D01*
X174357019Y-92338584D01*
X174280518Y-92236509D01*
X174267957Y-92223948D01*
X174165882Y-92147447D01*
X174150287Y-92138909D01*
X174029839Y-92093755D01*
X174014584Y-92090128D01*
X173963719Y-92084602D01*
X173956905Y-92084233D01*
X173099348Y-92084233D01*
X173084109Y-92088708D01*
X173082904Y-92090098D01*
X173081233Y-92097781D01*
X173081233Y-93405118D01*
X172573233Y-93405118D01*
X172573233Y-92102349D01*
X172568758Y-92087110D01*
X172567368Y-92085905D01*
X172559685Y-92084234D01*
X171697564Y-92084234D01*
X171690743Y-92084604D01*
X171639881Y-92090128D01*
X171624629Y-92093754D01*
X171504179Y-92138909D01*
X171488584Y-92147447D01*
X171386509Y-92223948D01*
X171373948Y-92236509D01*
X171297447Y-92338584D01*
X171288909Y-92354179D01*
X171243755Y-92474627D01*
X171240128Y-92489882D01*
X171234602Y-92540747D01*
X171234233Y-92547561D01*
X171234233Y-93405118D01*
X164417893Y-93405118D01*
X164456348Y-93261604D01*
X164475540Y-93042233D01*
X164456348Y-92822862D01*
X164399353Y-92610157D01*
X164339237Y-92481237D01*
X164308615Y-92415567D01*
X164308612Y-92415562D01*
X164306289Y-92410580D01*
X164303132Y-92406071D01*
X164183141Y-92234706D01*
X164183139Y-92234703D01*
X164179982Y-92230195D01*
X164024271Y-92074484D01*
X163988024Y-92049103D01*
X163944992Y-92018972D01*
X163843887Y-91948177D01*
X163644309Y-91855113D01*
X163431604Y-91798118D01*
X163212233Y-91778926D01*
X162992862Y-91798118D01*
X162780157Y-91855113D01*
X162704900Y-91890206D01*
X162585567Y-91945851D01*
X162585562Y-91945854D01*
X162580580Y-91948177D01*
X162576073Y-91951333D01*
X162576071Y-91951334D01*
X162404706Y-92071325D01*
X162404703Y-92071327D01*
X162400195Y-92074484D01*
X162244484Y-92230195D01*
X162241327Y-92234703D01*
X162241325Y-92234706D01*
X162121334Y-92406071D01*
X162118177Y-92410580D01*
X162115854Y-92415562D01*
X162115851Y-92415567D01*
X162085229Y-92481237D01*
X162025113Y-92610157D01*
X161968118Y-92822862D01*
X161948926Y-93042233D01*
X159595540Y-93042233D01*
X159576348Y-92822862D01*
X159519353Y-92610157D01*
X159459237Y-92481237D01*
X159428615Y-92415567D01*
X159428612Y-92415562D01*
X159426289Y-92410580D01*
X159423132Y-92406071D01*
X159303141Y-92234706D01*
X159303139Y-92234703D01*
X159299982Y-92230195D01*
X159144271Y-92074484D01*
X159108024Y-92049103D01*
X159064992Y-92018972D01*
X158963887Y-91948177D01*
X158764309Y-91855113D01*
X158551604Y-91798118D01*
X158332233Y-91778926D01*
X158112862Y-91798118D01*
X157900157Y-91855113D01*
X157824900Y-91890206D01*
X157705567Y-91945851D01*
X157705562Y-91945854D01*
X157700580Y-91948177D01*
X157696073Y-91951333D01*
X157696071Y-91951334D01*
X157524706Y-92071325D01*
X157524703Y-92071327D01*
X157520195Y-92074484D01*
X157364484Y-92230195D01*
X157361327Y-92234703D01*
X157361325Y-92234706D01*
X157241334Y-92406071D01*
X157238177Y-92410580D01*
X157235854Y-92415562D01*
X157235851Y-92415567D01*
X157205229Y-92481237D01*
X157145113Y-92610157D01*
X157088118Y-92822862D01*
X157068926Y-93042233D01*
X117675389Y-93042233D01*
X117657085Y-92819594D01*
X117602664Y-92602935D01*
X117513587Y-92398073D01*
X117409067Y-92236509D01*
X117395055Y-92214850D01*
X117395053Y-92214847D01*
X117392247Y-92210510D01*
X117241903Y-92045284D01*
X117237852Y-92042085D01*
X117237848Y-92042081D01*
X117070647Y-91910033D01*
X117070643Y-91910031D01*
X117066592Y-91906831D01*
X117025286Y-91884029D01*
X116975317Y-91833597D01*
X116960545Y-91764154D01*
X116985661Y-91697749D01*
X116989515Y-91694000D01*
X176251496Y-91694000D01*
X176252186Y-91700565D01*
X176267777Y-91848902D01*
X176271458Y-91883928D01*
X176330473Y-92065556D01*
X176333776Y-92071278D01*
X176333777Y-92071279D01*
X176342917Y-92087110D01*
X176425960Y-92230944D01*
X176553747Y-92372866D01*
X176708248Y-92485118D01*
X176714276Y-92487802D01*
X176714278Y-92487803D01*
X176876681Y-92560109D01*
X176882712Y-92562794D01*
X176976113Y-92582647D01*
X177063056Y-92601128D01*
X177063061Y-92601128D01*
X177069513Y-92602500D01*
X177260487Y-92602500D01*
X177266939Y-92601128D01*
X177266944Y-92601128D01*
X177353887Y-92582647D01*
X177447288Y-92562794D01*
X177453319Y-92560109D01*
X177615722Y-92487803D01*
X177615724Y-92487802D01*
X177621752Y-92485118D01*
X177776253Y-92372866D01*
X177904040Y-92230944D01*
X177987083Y-92087110D01*
X177996223Y-92071279D01*
X177996224Y-92071278D01*
X177999527Y-92065556D01*
X178058542Y-91883928D01*
X178062224Y-91848902D01*
X178077814Y-91700565D01*
X178078504Y-91694000D01*
X178058542Y-91504072D01*
X177999527Y-91322444D01*
X177904040Y-91157056D01*
X177867838Y-91116849D01*
X177780675Y-91020045D01*
X177780674Y-91020044D01*
X177776253Y-91015134D01*
X177621752Y-90902882D01*
X177615724Y-90900198D01*
X177615722Y-90900197D01*
X177453319Y-90827891D01*
X177453318Y-90827891D01*
X177447288Y-90825206D01*
X177353888Y-90805353D01*
X177266944Y-90786872D01*
X177266939Y-90786872D01*
X177260487Y-90785500D01*
X177069513Y-90785500D01*
X177063061Y-90786872D01*
X177063056Y-90786872D01*
X176976112Y-90805353D01*
X176882712Y-90825206D01*
X176876682Y-90827891D01*
X176876681Y-90827891D01*
X176714278Y-90900197D01*
X176714276Y-90900198D01*
X176708248Y-90902882D01*
X176553747Y-91015134D01*
X176549326Y-91020044D01*
X176549325Y-91020045D01*
X176462163Y-91116849D01*
X176425960Y-91157056D01*
X176330473Y-91322444D01*
X176271458Y-91504072D01*
X176251496Y-91694000D01*
X116989515Y-91694000D01*
X117013013Y-91671142D01*
X117056836Y-91639883D01*
X117192093Y-91543406D01*
X117350329Y-91385722D01*
X117391283Y-91328729D01*
X117477668Y-91208510D01*
X117480686Y-91204310D01*
X117501215Y-91162774D01*
X117577369Y-91008686D01*
X117577370Y-91008684D01*
X117579663Y-91004044D01*
X117644603Y-90790302D01*
X117673762Y-90568823D01*
X117675389Y-90502233D01*
X117657085Y-90279594D01*
X117602664Y-90062935D01*
X117513587Y-89858073D01*
X117392247Y-89670510D01*
X117241903Y-89505284D01*
X117237852Y-89502085D01*
X117237848Y-89502081D01*
X117070647Y-89370033D01*
X117070643Y-89370031D01*
X117066592Y-89366831D01*
X117025286Y-89344029D01*
X116975317Y-89293597D01*
X116960545Y-89224154D01*
X116985661Y-89157749D01*
X117013013Y-89131142D01*
X117056836Y-89099883D01*
X117192093Y-89003406D01*
X117215159Y-88980421D01*
X117346668Y-88849370D01*
X117350329Y-88845722D01*
X117409827Y-88762922D01*
X117477668Y-88668510D01*
X117480686Y-88664310D01*
X117491575Y-88642279D01*
X117577369Y-88468686D01*
X117577370Y-88468684D01*
X117579663Y-88464044D01*
X117638143Y-88271565D01*
X117640138Y-88265000D01*
X151486496Y-88265000D01*
X151506458Y-88454928D01*
X151565473Y-88636556D01*
X151660960Y-88801944D01*
X151665378Y-88806851D01*
X151665379Y-88806852D01*
X151781818Y-88936171D01*
X151788747Y-88943866D01*
X151943248Y-89056118D01*
X151949276Y-89058802D01*
X151949278Y-89058803D01*
X152111681Y-89131109D01*
X152117712Y-89133794D01*
X152211113Y-89153647D01*
X152298056Y-89172128D01*
X152298061Y-89172128D01*
X152304513Y-89173500D01*
X152495487Y-89173500D01*
X152501939Y-89172128D01*
X152501944Y-89172128D01*
X152588887Y-89153647D01*
X152682288Y-89133794D01*
X152688319Y-89131109D01*
X152850722Y-89058803D01*
X152850724Y-89058802D01*
X152856752Y-89056118D01*
X152960940Y-88980421D01*
X153027806Y-88956563D01*
X153096958Y-88972643D01*
X153109056Y-88980418D01*
X153213248Y-89056118D01*
X153219276Y-89058802D01*
X153219278Y-89058803D01*
X153381681Y-89131109D01*
X153387712Y-89133794D01*
X153481113Y-89153647D01*
X153568056Y-89172128D01*
X153568061Y-89172128D01*
X153574513Y-89173500D01*
X153765487Y-89173500D01*
X153771939Y-89172128D01*
X153771944Y-89172128D01*
X153858887Y-89153647D01*
X153952288Y-89133794D01*
X153958319Y-89131109D01*
X154120722Y-89058803D01*
X154120724Y-89058802D01*
X154126752Y-89056118D01*
X154230940Y-88980421D01*
X154297806Y-88956563D01*
X154366958Y-88972643D01*
X154379056Y-88980418D01*
X154483248Y-89056118D01*
X154489276Y-89058802D01*
X154489278Y-89058803D01*
X154651681Y-89131109D01*
X154657712Y-89133794D01*
X154751113Y-89153647D01*
X154838056Y-89172128D01*
X154838061Y-89172128D01*
X154844513Y-89173500D01*
X155035487Y-89173500D01*
X155041939Y-89172128D01*
X155041944Y-89172128D01*
X155128887Y-89153647D01*
X155222288Y-89133794D01*
X155228319Y-89131109D01*
X155390722Y-89058803D01*
X155390724Y-89058802D01*
X155396752Y-89056118D01*
X155551253Y-88943866D01*
X155558182Y-88936171D01*
X155674621Y-88806852D01*
X155674622Y-88806851D01*
X155679040Y-88801944D01*
X155774527Y-88636556D01*
X155833542Y-88454928D01*
X155853504Y-88265000D01*
X155833542Y-88075072D01*
X155774527Y-87893444D01*
X155679040Y-87728056D01*
X155551253Y-87586134D01*
X155396752Y-87473882D01*
X155390724Y-87471198D01*
X155390722Y-87471197D01*
X155228319Y-87398891D01*
X155228318Y-87398891D01*
X155222288Y-87396206D01*
X155128887Y-87376353D01*
X155041944Y-87357872D01*
X155041939Y-87357872D01*
X155035487Y-87356500D01*
X154844513Y-87356500D01*
X154838061Y-87357872D01*
X154838056Y-87357872D01*
X154751113Y-87376353D01*
X154657712Y-87396206D01*
X154651682Y-87398891D01*
X154651681Y-87398891D01*
X154489278Y-87471197D01*
X154489276Y-87471198D01*
X154483248Y-87473882D01*
X154379060Y-87549579D01*
X154312194Y-87573437D01*
X154243042Y-87557357D01*
X154230944Y-87549582D01*
X154126752Y-87473882D01*
X154120724Y-87471198D01*
X154120722Y-87471197D01*
X153958319Y-87398891D01*
X153958318Y-87398891D01*
X153952288Y-87396206D01*
X153858887Y-87376353D01*
X153771944Y-87357872D01*
X153771939Y-87357872D01*
X153765487Y-87356500D01*
X153574513Y-87356500D01*
X153568061Y-87357872D01*
X153568056Y-87357872D01*
X153481113Y-87376353D01*
X153387712Y-87396206D01*
X153381682Y-87398891D01*
X153381681Y-87398891D01*
X153219278Y-87471197D01*
X153219276Y-87471198D01*
X153213248Y-87473882D01*
X153109060Y-87549579D01*
X153042194Y-87573437D01*
X152973042Y-87557357D01*
X152960944Y-87549582D01*
X152856752Y-87473882D01*
X152850724Y-87471198D01*
X152850722Y-87471197D01*
X152688319Y-87398891D01*
X152688318Y-87398891D01*
X152682288Y-87396206D01*
X152588887Y-87376353D01*
X152501944Y-87357872D01*
X152501939Y-87357872D01*
X152495487Y-87356500D01*
X152304513Y-87356500D01*
X152298061Y-87357872D01*
X152298056Y-87357872D01*
X152211113Y-87376353D01*
X152117712Y-87396206D01*
X152111682Y-87398891D01*
X152111681Y-87398891D01*
X151949278Y-87471197D01*
X151949276Y-87471198D01*
X151943248Y-87473882D01*
X151788747Y-87586134D01*
X151660960Y-87728056D01*
X151565473Y-87893444D01*
X151506458Y-88075072D01*
X151486496Y-88265000D01*
X117640138Y-88265000D01*
X117643098Y-88255256D01*
X117643098Y-88255254D01*
X117644603Y-88250302D01*
X117673762Y-88028823D01*
X117675389Y-87962233D01*
X117657085Y-87739594D01*
X117602664Y-87522935D01*
X117513587Y-87318073D01*
X117392247Y-87130510D01*
X117241903Y-86965284D01*
X117237852Y-86962085D01*
X117237848Y-86962081D01*
X117118721Y-86868000D01*
X165837496Y-86868000D01*
X165838186Y-86874565D01*
X165845039Y-86939763D01*
X165857458Y-87057928D01*
X165916473Y-87239556D01*
X166011960Y-87404944D01*
X166016378Y-87409851D01*
X166016379Y-87409852D01*
X166094424Y-87496530D01*
X166139747Y-87546866D01*
X166154187Y-87557357D01*
X166279122Y-87648128D01*
X166294248Y-87659118D01*
X166300276Y-87661802D01*
X166300278Y-87661803D01*
X166438062Y-87723148D01*
X166468712Y-87736794D01*
X166562112Y-87756647D01*
X166649056Y-87775128D01*
X166649061Y-87775128D01*
X166655513Y-87776500D01*
X166846487Y-87776500D01*
X166852939Y-87775128D01*
X166852944Y-87775128D01*
X166939887Y-87756647D01*
X167033288Y-87736794D01*
X167063938Y-87723148D01*
X167201722Y-87661803D01*
X167201724Y-87661802D01*
X167207752Y-87659118D01*
X167222879Y-87648128D01*
X167347813Y-87557357D01*
X167362253Y-87546866D01*
X167407576Y-87496530D01*
X167485621Y-87409852D01*
X167485622Y-87409851D01*
X167490040Y-87404944D01*
X167585527Y-87239556D01*
X167644542Y-87057928D01*
X167656962Y-86939763D01*
X167663814Y-86874565D01*
X167664504Y-86868000D01*
X167651156Y-86741000D01*
X171568229Y-86741000D01*
X171588191Y-86930928D01*
X171647206Y-87112556D01*
X171742693Y-87277944D01*
X171747111Y-87282851D01*
X171747112Y-87282852D01*
X171756797Y-87293608D01*
X171870480Y-87419866D01*
X171941131Y-87471197D01*
X172012342Y-87522935D01*
X172024981Y-87532118D01*
X172031009Y-87534802D01*
X172031011Y-87534803D01*
X172193414Y-87607109D01*
X172199445Y-87609794D01*
X172292846Y-87629647D01*
X172379789Y-87648128D01*
X172379794Y-87648128D01*
X172386246Y-87649500D01*
X172577220Y-87649500D01*
X172583672Y-87648128D01*
X172583677Y-87648128D01*
X172670620Y-87629647D01*
X172764021Y-87609794D01*
X172770052Y-87607109D01*
X172932455Y-87534803D01*
X172932457Y-87534802D01*
X172938485Y-87532118D01*
X172951125Y-87522935D01*
X173022335Y-87471197D01*
X173092986Y-87419866D01*
X173206669Y-87293608D01*
X173216354Y-87282852D01*
X173216355Y-87282851D01*
X173220773Y-87277944D01*
X173316260Y-87112556D01*
X173375275Y-86930928D01*
X173395237Y-86741000D01*
X173379458Y-86590874D01*
X173375965Y-86557635D01*
X173375965Y-86557633D01*
X173375275Y-86551072D01*
X173316260Y-86369444D01*
X173220773Y-86204056D01*
X173092986Y-86062134D01*
X172993890Y-85990136D01*
X172943827Y-85953763D01*
X172943826Y-85953762D01*
X172938485Y-85949882D01*
X172932457Y-85947198D01*
X172932455Y-85947197D01*
X172770052Y-85874891D01*
X172770051Y-85874891D01*
X172764021Y-85872206D01*
X172670621Y-85852353D01*
X172583677Y-85833872D01*
X172583672Y-85833872D01*
X172577220Y-85832500D01*
X172386246Y-85832500D01*
X172379794Y-85833872D01*
X172379789Y-85833872D01*
X172292845Y-85852353D01*
X172199445Y-85872206D01*
X172193415Y-85874891D01*
X172193414Y-85874891D01*
X172031011Y-85947197D01*
X172031009Y-85947198D01*
X172024981Y-85949882D01*
X172019640Y-85953762D01*
X172019639Y-85953763D01*
X171969576Y-85990136D01*
X171870480Y-86062134D01*
X171742693Y-86204056D01*
X171647206Y-86369444D01*
X171588191Y-86551072D01*
X171587501Y-86557633D01*
X171587501Y-86557635D01*
X171584008Y-86590874D01*
X171568229Y-86741000D01*
X167651156Y-86741000D01*
X167644542Y-86678072D01*
X167585527Y-86496444D01*
X167564124Y-86459372D01*
X167548314Y-86431990D01*
X167490040Y-86331056D01*
X167362253Y-86189134D01*
X167207752Y-86076882D01*
X167201724Y-86074198D01*
X167201722Y-86074197D01*
X167039319Y-86001891D01*
X167039318Y-86001891D01*
X167033288Y-85999206D01*
X166939888Y-85979353D01*
X166852944Y-85960872D01*
X166852939Y-85960872D01*
X166846487Y-85959500D01*
X166655513Y-85959500D01*
X166649061Y-85960872D01*
X166649056Y-85960872D01*
X166562112Y-85979353D01*
X166468712Y-85999206D01*
X166462682Y-86001891D01*
X166462681Y-86001891D01*
X166300278Y-86074197D01*
X166300276Y-86074198D01*
X166294248Y-86076882D01*
X166139747Y-86189134D01*
X166011960Y-86331056D01*
X165953686Y-86431990D01*
X165937877Y-86459372D01*
X165916473Y-86496444D01*
X165857458Y-86678072D01*
X165837496Y-86868000D01*
X117118721Y-86868000D01*
X117070647Y-86830033D01*
X117070643Y-86830031D01*
X117066592Y-86826831D01*
X117024802Y-86803762D01*
X116974831Y-86753330D01*
X116960059Y-86683887D01*
X116985175Y-86617481D01*
X117012527Y-86590874D01*
X117187561Y-86466025D01*
X117195433Y-86459372D01*
X117346285Y-86309045D01*
X117352963Y-86301198D01*
X117477236Y-86128253D01*
X117482546Y-86119416D01*
X117576903Y-85928500D01*
X117580702Y-85918905D01*
X117642610Y-85715143D01*
X117644788Y-85705070D01*
X117646219Y-85694195D01*
X117644008Y-85680011D01*
X117630850Y-85676233D01*
X114995458Y-85676233D01*
X114981927Y-85680206D01*
X114980490Y-85690199D01*
X115010798Y-85824679D01*
X115013878Y-85834508D01*
X115094003Y-86031836D01*
X115098646Y-86041027D01*
X115209927Y-86222621D01*
X115216010Y-86230932D01*
X115355446Y-86391900D01*
X115362813Y-86399116D01*
X115526667Y-86535149D01*
X115535114Y-86541064D01*
X115604202Y-86581436D01*
X115652926Y-86633075D01*
X115665997Y-86702858D01*
X115639266Y-86768629D01*
X115598817Y-86801985D01*
X115585840Y-86808740D01*
X115581707Y-86811843D01*
X115581704Y-86811845D01*
X115414739Y-86937206D01*
X115407198Y-86942868D01*
X115252862Y-87104371D01*
X115249948Y-87108643D01*
X115249947Y-87108644D01*
X115237637Y-87126690D01*
X115126976Y-87288913D01*
X115079948Y-87390226D01*
X115041117Y-87473882D01*
X115032921Y-87491538D01*
X114973222Y-87706803D01*
X114949484Y-87928928D01*
X114949781Y-87934081D01*
X114949781Y-87934084D01*
X114955244Y-88028823D01*
X114962343Y-88151948D01*
X114963480Y-88156994D01*
X114963481Y-88157000D01*
X114983352Y-88245172D01*
X115011455Y-88369872D01*
X115095499Y-88576849D01*
X115212220Y-88767321D01*
X115358483Y-88936171D01*
X115530359Y-89078865D01*
X115600828Y-89120044D01*
X115603678Y-89121709D01*
X115652402Y-89173347D01*
X115665473Y-89243130D01*
X115638742Y-89308902D01*
X115598288Y-89342260D01*
X115585840Y-89348740D01*
X115581707Y-89351843D01*
X115581704Y-89351845D01*
X115557480Y-89370033D01*
X115407198Y-89482868D01*
X115252862Y-89644371D01*
X115126976Y-89828913D01*
X115032921Y-90031538D01*
X114973222Y-90246803D01*
X114949484Y-90468928D01*
X114949781Y-90474081D01*
X114949781Y-90474084D01*
X114955244Y-90568823D01*
X114962343Y-90691948D01*
X114963480Y-90696994D01*
X114963481Y-90697000D01*
X114983352Y-90785172D01*
X115011455Y-90909872D01*
X115095499Y-91116849D01*
X115212220Y-91307321D01*
X115358483Y-91476171D01*
X115530359Y-91618865D01*
X115600828Y-91660044D01*
X115603678Y-91661709D01*
X115652402Y-91713347D01*
X115665473Y-91783130D01*
X115638742Y-91848902D01*
X115598288Y-91882260D01*
X115585840Y-91888740D01*
X115581707Y-91891843D01*
X115581704Y-91891845D01*
X115506677Y-91948177D01*
X115407198Y-92022868D01*
X115348556Y-92084233D01*
X115296307Y-92138909D01*
X115252862Y-92184371D01*
X115126976Y-92368913D01*
X115111236Y-92402823D01*
X115036980Y-92562794D01*
X115032921Y-92571538D01*
X114973222Y-92786803D01*
X114949484Y-93008928D01*
X114949781Y-93014081D01*
X114949781Y-93014084D01*
X114955244Y-93108823D01*
X114962343Y-93231948D01*
X114963480Y-93236994D01*
X114963481Y-93237000D01*
X114967792Y-93256127D01*
X115011455Y-93449872D01*
X115095499Y-93656849D01*
X115212220Y-93847321D01*
X115358483Y-94016171D01*
X115530359Y-94158865D01*
X115600828Y-94200044D01*
X115603678Y-94201709D01*
X115652402Y-94253347D01*
X115665473Y-94323130D01*
X115638742Y-94388902D01*
X115598288Y-94422260D01*
X115585840Y-94428740D01*
X115581707Y-94431843D01*
X115581704Y-94431845D01*
X115557480Y-94450033D01*
X115407198Y-94562868D01*
X115252862Y-94724371D01*
X115126976Y-94908913D01*
X115084562Y-95000287D01*
X115041117Y-95093882D01*
X115032921Y-95111538D01*
X114973222Y-95326803D01*
X114949484Y-95548928D01*
X114949781Y-95554081D01*
X114949781Y-95554084D01*
X114955244Y-95648823D01*
X114962343Y-95771948D01*
X114963480Y-95776994D01*
X114963481Y-95777000D01*
X114983352Y-95865172D01*
X115011455Y-95989872D01*
X115095499Y-96196849D01*
X115098198Y-96201253D01*
X115204159Y-96374166D01*
X115212220Y-96387321D01*
X115358483Y-96556171D01*
X115530359Y-96698865D01*
X115600828Y-96740044D01*
X115603678Y-96741709D01*
X115652402Y-96793347D01*
X115665473Y-96863130D01*
X115638742Y-96928902D01*
X115598288Y-96962260D01*
X115585840Y-96968740D01*
X115581707Y-96971843D01*
X115581704Y-96971845D01*
X115537847Y-97004774D01*
X115407198Y-97102868D01*
X115252862Y-97264371D01*
X115126976Y-97448913D01*
X115089599Y-97529435D01*
X115036980Y-97642794D01*
X115032921Y-97651538D01*
X114973222Y-97866803D01*
X114949484Y-98088928D01*
X114949781Y-98094081D01*
X114949781Y-98094084D01*
X114955244Y-98188823D01*
X114962343Y-98311948D01*
X114963480Y-98316994D01*
X114963481Y-98317000D01*
X114982662Y-98402109D01*
X115011455Y-98529872D01*
X115095499Y-98736849D01*
X115212220Y-98927321D01*
X115358483Y-99096171D01*
X115530359Y-99238865D01*
X115600828Y-99280044D01*
X115603678Y-99281709D01*
X115652402Y-99333347D01*
X115665473Y-99403130D01*
X115638742Y-99468902D01*
X115598288Y-99502260D01*
X115585840Y-99508740D01*
X115581707Y-99511843D01*
X115581704Y-99511845D01*
X115557480Y-99530033D01*
X115407198Y-99642868D01*
X115252862Y-99804371D01*
X115126976Y-99988913D01*
X115032921Y-100191538D01*
X114973222Y-100406803D01*
X114949484Y-100628928D01*
X114949781Y-100634081D01*
X114949781Y-100634084D01*
X114955244Y-100728823D01*
X114962343Y-100851948D01*
X114963480Y-100856994D01*
X114963481Y-100857000D01*
X114975858Y-100911920D01*
X115011455Y-101069872D01*
X115095499Y-101276849D01*
X115098198Y-101281253D01*
X115197857Y-101443882D01*
X115212220Y-101467321D01*
X115358483Y-101636171D01*
X115530359Y-101778865D01*
X115560035Y-101796206D01*
X115603678Y-101821709D01*
X115652402Y-101873347D01*
X115665473Y-101943130D01*
X115638742Y-102008902D01*
X115598288Y-102042260D01*
X115585840Y-102048740D01*
X115581707Y-102051843D01*
X115581704Y-102051845D01*
X115464555Y-102139803D01*
X115407198Y-102182868D01*
X115252862Y-102344371D01*
X115126976Y-102528913D01*
X115032921Y-102731538D01*
X114973222Y-102946803D01*
X114949484Y-103168928D01*
X114160233Y-103168928D01*
X114160233Y-83780367D01*
X114953733Y-83780367D01*
X114960488Y-83842549D01*
X115011618Y-83978938D01*
X115098972Y-84095494D01*
X115215528Y-84182848D01*
X115223937Y-84186000D01*
X115223938Y-84186001D01*
X115333193Y-84226959D01*
X115389958Y-84269600D01*
X115414658Y-84336162D01*
X115399451Y-84405511D01*
X115380058Y-84431992D01*
X115256823Y-84560950D01*
X115250337Y-84568960D01*
X115130331Y-84744882D01*
X115125233Y-84753856D01*
X115035571Y-84947016D01*
X115032008Y-84956703D01*
X114976622Y-85156416D01*
X114978145Y-85164840D01*
X114990525Y-85168233D01*
X117630577Y-85168233D01*
X117644108Y-85164260D01*
X117645413Y-85155180D01*
X117603447Y-84988108D01*
X117600127Y-84978357D01*
X117515205Y-84783047D01*
X117510338Y-84773972D01*
X117394659Y-84595159D01*
X117388369Y-84586990D01*
X117244526Y-84428910D01*
X117213474Y-84365064D01*
X117221868Y-84294566D01*
X117267045Y-84239797D01*
X117293489Y-84226128D01*
X117400530Y-84186000D01*
X117408938Y-84182848D01*
X117525494Y-84095494D01*
X117612848Y-83978938D01*
X117663978Y-83842549D01*
X117666428Y-83820000D01*
X167361496Y-83820000D01*
X167362186Y-83826565D01*
X167378187Y-83978803D01*
X167381458Y-84009928D01*
X167440473Y-84191556D01*
X167535960Y-84356944D01*
X167663747Y-84498866D01*
X167818248Y-84611118D01*
X167824276Y-84613802D01*
X167824278Y-84613803D01*
X167986681Y-84686109D01*
X167992712Y-84688794D01*
X168086113Y-84708647D01*
X168173056Y-84727128D01*
X168173061Y-84727128D01*
X168179513Y-84728500D01*
X168370487Y-84728500D01*
X168376939Y-84727128D01*
X168376944Y-84727128D01*
X168463887Y-84708647D01*
X168557288Y-84688794D01*
X168563319Y-84686109D01*
X168725722Y-84613803D01*
X168725724Y-84613802D01*
X168731752Y-84611118D01*
X168886253Y-84498866D01*
X168925750Y-84455000D01*
X181077496Y-84455000D01*
X181078186Y-84461565D01*
X181094187Y-84613803D01*
X181097458Y-84644928D01*
X181156473Y-84826556D01*
X181251960Y-84991944D01*
X181379747Y-85133866D01*
X181534248Y-85246118D01*
X181540276Y-85248802D01*
X181540278Y-85248803D01*
X181702681Y-85321109D01*
X181708712Y-85323794D01*
X181802112Y-85343647D01*
X181889056Y-85362128D01*
X181889061Y-85362128D01*
X181895513Y-85363500D01*
X182086487Y-85363500D01*
X182092939Y-85362128D01*
X182092944Y-85362128D01*
X182179888Y-85343647D01*
X182273288Y-85323794D01*
X182279319Y-85321109D01*
X182441722Y-85248803D01*
X182441724Y-85248802D01*
X182447752Y-85246118D01*
X182602253Y-85133866D01*
X182730040Y-84991944D01*
X182825527Y-84826556D01*
X182884542Y-84644928D01*
X182887814Y-84613803D01*
X182903814Y-84461565D01*
X182904504Y-84455000D01*
X182899303Y-84405511D01*
X182885232Y-84271635D01*
X182885232Y-84271633D01*
X182884542Y-84265072D01*
X182825527Y-84083444D01*
X182730040Y-83918056D01*
X182684744Y-83867749D01*
X182606675Y-83781045D01*
X182606674Y-83781044D01*
X182602253Y-83776134D01*
X182447752Y-83663882D01*
X182441724Y-83661198D01*
X182441722Y-83661197D01*
X182279319Y-83588891D01*
X182279318Y-83588891D01*
X182273288Y-83586206D01*
X182160721Y-83562279D01*
X182092944Y-83547872D01*
X182092939Y-83547872D01*
X182086487Y-83546500D01*
X181895513Y-83546500D01*
X181889061Y-83547872D01*
X181889056Y-83547872D01*
X181821279Y-83562279D01*
X181708712Y-83586206D01*
X181702682Y-83588891D01*
X181702681Y-83588891D01*
X181540278Y-83661197D01*
X181540276Y-83661198D01*
X181534248Y-83663882D01*
X181379747Y-83776134D01*
X181375326Y-83781044D01*
X181375325Y-83781045D01*
X181297257Y-83867749D01*
X181251960Y-83918056D01*
X181156473Y-84083444D01*
X181097458Y-84265072D01*
X181096768Y-84271633D01*
X181096768Y-84271635D01*
X181082697Y-84405511D01*
X181077496Y-84455000D01*
X168925750Y-84455000D01*
X169014040Y-84356944D01*
X169109527Y-84191556D01*
X169168542Y-84009928D01*
X169171814Y-83978803D01*
X169187814Y-83826565D01*
X169188504Y-83820000D01*
X169187814Y-83813435D01*
X169169232Y-83636635D01*
X169169232Y-83636633D01*
X169168542Y-83630072D01*
X169109527Y-83448444D01*
X169014040Y-83283056D01*
X168925750Y-83185000D01*
X175616496Y-83185000D01*
X175636458Y-83374928D01*
X175695473Y-83556556D01*
X175790960Y-83721944D01*
X175795378Y-83726851D01*
X175795379Y-83726852D01*
X175899553Y-83842549D01*
X175918747Y-83863866D01*
X176073248Y-83976118D01*
X176079276Y-83978802D01*
X176079278Y-83978803D01*
X176241681Y-84051109D01*
X176247712Y-84053794D01*
X176341112Y-84073647D01*
X176428056Y-84092128D01*
X176428061Y-84092128D01*
X176434513Y-84093500D01*
X176625487Y-84093500D01*
X176631939Y-84092128D01*
X176631944Y-84092128D01*
X176718887Y-84073647D01*
X176812288Y-84053794D01*
X176818319Y-84051109D01*
X176980722Y-83978803D01*
X176980724Y-83978802D01*
X176986752Y-83976118D01*
X177141253Y-83863866D01*
X177160447Y-83842549D01*
X177264621Y-83726852D01*
X177264622Y-83726851D01*
X177269040Y-83721944D01*
X177364527Y-83556556D01*
X177423542Y-83374928D01*
X177443504Y-83185000D01*
X178156496Y-83185000D01*
X178176458Y-83374928D01*
X178235473Y-83556556D01*
X178330960Y-83721944D01*
X178335378Y-83726851D01*
X178335379Y-83726852D01*
X178439553Y-83842549D01*
X178458747Y-83863866D01*
X178613248Y-83976118D01*
X178619276Y-83978802D01*
X178619278Y-83978803D01*
X178781681Y-84051109D01*
X178787712Y-84053794D01*
X178881112Y-84073647D01*
X178968056Y-84092128D01*
X178968061Y-84092128D01*
X178974513Y-84093500D01*
X179165487Y-84093500D01*
X179171939Y-84092128D01*
X179171944Y-84092128D01*
X179258887Y-84073647D01*
X179352288Y-84053794D01*
X179358319Y-84051109D01*
X179520722Y-83978803D01*
X179520724Y-83978802D01*
X179526752Y-83976118D01*
X179681253Y-83863866D01*
X179700447Y-83842549D01*
X179804621Y-83726852D01*
X179804622Y-83726851D01*
X179809040Y-83721944D01*
X179904527Y-83556556D01*
X179963542Y-83374928D01*
X179983504Y-83185000D01*
X179978485Y-83137251D01*
X179964232Y-83001635D01*
X179964232Y-83001633D01*
X179963542Y-82995072D01*
X179904527Y-82813444D01*
X179809040Y-82648056D01*
X179681253Y-82506134D01*
X179526752Y-82393882D01*
X179520724Y-82391198D01*
X179520722Y-82391197D01*
X179358319Y-82318891D01*
X179358318Y-82318891D01*
X179352288Y-82316206D01*
X179258888Y-82296353D01*
X179171944Y-82277872D01*
X179171939Y-82277872D01*
X179165487Y-82276500D01*
X178974513Y-82276500D01*
X178968061Y-82277872D01*
X178968056Y-82277872D01*
X178881112Y-82296353D01*
X178787712Y-82316206D01*
X178781682Y-82318891D01*
X178781681Y-82318891D01*
X178619278Y-82391197D01*
X178619276Y-82391198D01*
X178613248Y-82393882D01*
X178458747Y-82506134D01*
X178330960Y-82648056D01*
X178235473Y-82813444D01*
X178176458Y-82995072D01*
X178175768Y-83001633D01*
X178175768Y-83001635D01*
X178161515Y-83137251D01*
X178156496Y-83185000D01*
X177443504Y-83185000D01*
X177438485Y-83137251D01*
X177424232Y-83001635D01*
X177424232Y-83001633D01*
X177423542Y-82995072D01*
X177364527Y-82813444D01*
X177269040Y-82648056D01*
X177141253Y-82506134D01*
X176986752Y-82393882D01*
X176980724Y-82391198D01*
X176980722Y-82391197D01*
X176818319Y-82318891D01*
X176818318Y-82318891D01*
X176812288Y-82316206D01*
X176718888Y-82296353D01*
X176631944Y-82277872D01*
X176631939Y-82277872D01*
X176625487Y-82276500D01*
X176434513Y-82276500D01*
X176428061Y-82277872D01*
X176428056Y-82277872D01*
X176341112Y-82296353D01*
X176247712Y-82316206D01*
X176241682Y-82318891D01*
X176241681Y-82318891D01*
X176079278Y-82391197D01*
X176079276Y-82391198D01*
X176073248Y-82393882D01*
X175918747Y-82506134D01*
X175790960Y-82648056D01*
X175695473Y-82813444D01*
X175636458Y-82995072D01*
X175635768Y-83001633D01*
X175635768Y-83001635D01*
X175621515Y-83137251D01*
X175616496Y-83185000D01*
X168925750Y-83185000D01*
X168886253Y-83141134D01*
X168731752Y-83028882D01*
X168725724Y-83026198D01*
X168725722Y-83026197D01*
X168563319Y-82953891D01*
X168563318Y-82953891D01*
X168557288Y-82951206D01*
X168463888Y-82931353D01*
X168376944Y-82912872D01*
X168376939Y-82912872D01*
X168370487Y-82911500D01*
X168179513Y-82911500D01*
X168173061Y-82912872D01*
X168173056Y-82912872D01*
X168086112Y-82931353D01*
X167992712Y-82951206D01*
X167986682Y-82953891D01*
X167986681Y-82953891D01*
X167824278Y-83026197D01*
X167824276Y-83026198D01*
X167818248Y-83028882D01*
X167663747Y-83141134D01*
X167535960Y-83283056D01*
X167440473Y-83448444D01*
X167381458Y-83630072D01*
X167380768Y-83636633D01*
X167380768Y-83636635D01*
X167362186Y-83813435D01*
X167361496Y-83820000D01*
X117666428Y-83820000D01*
X117670733Y-83780367D01*
X117670733Y-81984099D01*
X117663978Y-81921917D01*
X117612848Y-81785528D01*
X117525494Y-81668972D01*
X117408938Y-81581618D01*
X117272549Y-81530488D01*
X117210367Y-81523733D01*
X115414099Y-81523733D01*
X115351917Y-81530488D01*
X115215528Y-81581618D01*
X115098972Y-81668972D01*
X115011618Y-81785528D01*
X114960488Y-81921917D01*
X114953733Y-81984099D01*
X114953733Y-83780367D01*
X114160233Y-83780367D01*
X114160233Y-81153000D01*
X166853496Y-81153000D01*
X166873458Y-81342928D01*
X166932473Y-81524556D01*
X167027960Y-81689944D01*
X167155747Y-81831866D01*
X167310248Y-81944118D01*
X167316276Y-81946802D01*
X167316278Y-81946803D01*
X167478681Y-82019109D01*
X167484712Y-82021794D01*
X167578112Y-82041647D01*
X167665056Y-82060128D01*
X167665061Y-82060128D01*
X167671513Y-82061500D01*
X167862487Y-82061500D01*
X167868939Y-82060128D01*
X167868944Y-82060128D01*
X167955887Y-82041647D01*
X168049288Y-82021794D01*
X168055319Y-82019109D01*
X168217722Y-81946803D01*
X168217724Y-81946802D01*
X168223752Y-81944118D01*
X168378253Y-81831866D01*
X168506040Y-81689944D01*
X168601527Y-81524556D01*
X168660542Y-81342928D01*
X168680504Y-81153000D01*
X168679814Y-81146435D01*
X168661232Y-80969635D01*
X168661232Y-80969633D01*
X168660542Y-80963072D01*
X168601527Y-80781444D01*
X168506040Y-80616056D01*
X168378253Y-80474134D01*
X168223752Y-80361882D01*
X168217724Y-80359198D01*
X168217722Y-80359197D01*
X168055319Y-80286891D01*
X168055318Y-80286891D01*
X168049288Y-80284206D01*
X167955888Y-80264353D01*
X167868944Y-80245872D01*
X167868939Y-80245872D01*
X167862487Y-80244500D01*
X167671513Y-80244500D01*
X167665061Y-80245872D01*
X167665056Y-80245872D01*
X167578112Y-80264353D01*
X167484712Y-80284206D01*
X167478682Y-80286891D01*
X167478681Y-80286891D01*
X167316278Y-80359197D01*
X167316276Y-80359198D01*
X167310248Y-80361882D01*
X167155747Y-80474134D01*
X167027960Y-80616056D01*
X166932473Y-80781444D01*
X166873458Y-80963072D01*
X166872768Y-80969633D01*
X166872768Y-80969635D01*
X166854186Y-81146435D01*
X166853496Y-81153000D01*
X114160233Y-81153000D01*
X114160233Y-79375000D01*
X165456496Y-79375000D01*
X165457186Y-79381565D01*
X165464826Y-79454251D01*
X165476458Y-79564928D01*
X165535473Y-79746556D01*
X165630960Y-79911944D01*
X165635378Y-79916851D01*
X165635379Y-79916852D01*
X165662589Y-79947072D01*
X165758747Y-80053866D01*
X165857843Y-80125864D01*
X165882207Y-80143565D01*
X165913248Y-80166118D01*
X165919276Y-80168802D01*
X165919278Y-80168803D01*
X166081681Y-80241109D01*
X166087712Y-80243794D01*
X166181113Y-80263647D01*
X166268056Y-80282128D01*
X166268061Y-80282128D01*
X166274513Y-80283500D01*
X166465487Y-80283500D01*
X166471939Y-80282128D01*
X166471944Y-80282128D01*
X166558887Y-80263647D01*
X166652288Y-80243794D01*
X166658319Y-80241109D01*
X166820722Y-80168803D01*
X166820724Y-80168802D01*
X166826752Y-80166118D01*
X166857794Y-80143565D01*
X166866830Y-80137000D01*
X170282496Y-80137000D01*
X170283186Y-80143565D01*
X170297894Y-80283500D01*
X170302458Y-80326928D01*
X170361473Y-80508556D01*
X170456960Y-80673944D01*
X170584747Y-80815866D01*
X170739248Y-80928118D01*
X170745276Y-80930802D01*
X170745278Y-80930803D01*
X170817756Y-80963072D01*
X170913712Y-81005794D01*
X171007112Y-81025647D01*
X171094056Y-81044128D01*
X171094061Y-81044128D01*
X171100513Y-81045500D01*
X171291487Y-81045500D01*
X171297939Y-81044128D01*
X171297944Y-81044128D01*
X171384888Y-81025647D01*
X171478288Y-81005794D01*
X171574244Y-80963072D01*
X171646722Y-80930803D01*
X171646724Y-80930802D01*
X171652752Y-80928118D01*
X171807253Y-80815866D01*
X171935040Y-80673944D01*
X172030527Y-80508556D01*
X172089542Y-80326928D01*
X172094107Y-80283500D01*
X172108814Y-80143565D01*
X172109504Y-80137000D01*
X172108814Y-80130435D01*
X172090232Y-79953635D01*
X172090232Y-79953633D01*
X172089542Y-79947072D01*
X172030527Y-79765444D01*
X171935040Y-79600056D01*
X171909064Y-79571206D01*
X171811675Y-79463045D01*
X171811674Y-79463044D01*
X171807253Y-79458134D01*
X171692829Y-79375000D01*
X171658094Y-79349763D01*
X171658093Y-79349762D01*
X171652752Y-79345882D01*
X171646724Y-79343198D01*
X171646722Y-79343197D01*
X171484319Y-79270891D01*
X171484318Y-79270891D01*
X171478288Y-79268206D01*
X171384888Y-79248353D01*
X171297944Y-79229872D01*
X171297939Y-79229872D01*
X171291487Y-79228500D01*
X171100513Y-79228500D01*
X171094061Y-79229872D01*
X171094056Y-79229872D01*
X171007113Y-79248353D01*
X170913712Y-79268206D01*
X170907682Y-79270891D01*
X170907681Y-79270891D01*
X170745278Y-79343197D01*
X170745276Y-79343198D01*
X170739248Y-79345882D01*
X170733907Y-79349762D01*
X170733906Y-79349763D01*
X170699171Y-79375000D01*
X170584747Y-79458134D01*
X170580326Y-79463044D01*
X170580325Y-79463045D01*
X170482937Y-79571206D01*
X170456960Y-79600056D01*
X170361473Y-79765444D01*
X170302458Y-79947072D01*
X170301768Y-79953633D01*
X170301768Y-79953635D01*
X170283186Y-80130435D01*
X170282496Y-80137000D01*
X166866830Y-80137000D01*
X166882157Y-80125864D01*
X166981253Y-80053866D01*
X167077411Y-79947072D01*
X167104621Y-79916852D01*
X167104622Y-79916851D01*
X167109040Y-79911944D01*
X167204527Y-79746556D01*
X167263542Y-79564928D01*
X167275175Y-79454251D01*
X167282814Y-79381565D01*
X167283504Y-79375000D01*
X167272280Y-79268206D01*
X167264232Y-79191635D01*
X167264232Y-79191633D01*
X167263542Y-79185072D01*
X167204527Y-79003444D01*
X167109040Y-78838056D01*
X166981253Y-78696134D01*
X166853831Y-78603556D01*
X166832094Y-78587763D01*
X166832093Y-78587762D01*
X166826752Y-78583882D01*
X166820724Y-78581198D01*
X166820722Y-78581197D01*
X166658319Y-78508891D01*
X166658318Y-78508891D01*
X166652288Y-78506206D01*
X166558888Y-78486353D01*
X166471944Y-78467872D01*
X166471939Y-78467872D01*
X166465487Y-78466500D01*
X166274513Y-78466500D01*
X166268061Y-78467872D01*
X166268056Y-78467872D01*
X166181112Y-78486353D01*
X166087712Y-78506206D01*
X166081682Y-78508891D01*
X166081681Y-78508891D01*
X165919278Y-78581197D01*
X165919276Y-78581198D01*
X165913248Y-78583882D01*
X165907907Y-78587762D01*
X165907906Y-78587763D01*
X165886169Y-78603556D01*
X165758747Y-78696134D01*
X165630960Y-78838056D01*
X165535473Y-79003444D01*
X165476458Y-79185072D01*
X165475768Y-79191633D01*
X165475768Y-79191635D01*
X165467720Y-79268206D01*
X165456496Y-79375000D01*
X114160233Y-79375000D01*
X114160233Y-78359000D01*
X147930496Y-78359000D01*
X147931186Y-78365565D01*
X147945824Y-78504834D01*
X147950458Y-78548928D01*
X148009473Y-78730556D01*
X148104960Y-78895944D01*
X148232747Y-79037866D01*
X148315664Y-79098109D01*
X148372122Y-79139128D01*
X148387248Y-79150118D01*
X148393276Y-79152802D01*
X148393278Y-79152803D01*
X148465756Y-79185072D01*
X148561712Y-79227794D01*
X148655113Y-79247647D01*
X148742056Y-79266128D01*
X148742061Y-79266128D01*
X148748513Y-79267500D01*
X148939487Y-79267500D01*
X148945939Y-79266128D01*
X148945944Y-79266128D01*
X149032887Y-79247647D01*
X149126288Y-79227794D01*
X149222244Y-79185072D01*
X149294722Y-79152803D01*
X149294724Y-79152802D01*
X149300752Y-79150118D01*
X149315879Y-79139128D01*
X149372336Y-79098109D01*
X149455253Y-79037866D01*
X149583040Y-78895944D01*
X149678527Y-78730556D01*
X149737542Y-78548928D01*
X149742177Y-78504834D01*
X149756814Y-78365565D01*
X149757504Y-78359000D01*
X149744156Y-78232000D01*
X175616496Y-78232000D01*
X175636458Y-78421928D01*
X175695473Y-78603556D01*
X175790960Y-78768944D01*
X175918747Y-78910866D01*
X176017843Y-78982864D01*
X176054820Y-79009729D01*
X176073248Y-79023118D01*
X176079276Y-79025802D01*
X176079278Y-79025803D01*
X176115094Y-79041749D01*
X176247712Y-79100794D01*
X176341113Y-79120647D01*
X176428056Y-79139128D01*
X176428061Y-79139128D01*
X176434513Y-79140500D01*
X176625487Y-79140500D01*
X176631939Y-79139128D01*
X176631944Y-79139128D01*
X176718887Y-79120647D01*
X176812288Y-79100794D01*
X176944906Y-79041749D01*
X176980722Y-79025803D01*
X176980724Y-79025802D01*
X176986752Y-79023118D01*
X177005181Y-79009729D01*
X177042157Y-78982864D01*
X177141253Y-78910866D01*
X177269040Y-78768944D01*
X177364527Y-78603556D01*
X177423542Y-78421928D01*
X177443504Y-78232000D01*
X177423542Y-78042072D01*
X177364527Y-77860444D01*
X177269040Y-77695056D01*
X177141253Y-77553134D01*
X177042157Y-77481136D01*
X176992094Y-77444763D01*
X176992093Y-77444762D01*
X176986752Y-77440882D01*
X176980724Y-77438198D01*
X176980722Y-77438197D01*
X176818319Y-77365891D01*
X176818318Y-77365891D01*
X176812288Y-77363206D01*
X176718888Y-77343353D01*
X176631944Y-77324872D01*
X176631939Y-77324872D01*
X176625487Y-77323500D01*
X176434513Y-77323500D01*
X176428061Y-77324872D01*
X176428056Y-77324872D01*
X176341112Y-77343353D01*
X176247712Y-77363206D01*
X176241682Y-77365891D01*
X176241681Y-77365891D01*
X176079278Y-77438197D01*
X176079276Y-77438198D01*
X176073248Y-77440882D01*
X176067907Y-77444762D01*
X176067906Y-77444763D01*
X176017843Y-77481136D01*
X175918747Y-77553134D01*
X175790960Y-77695056D01*
X175695473Y-77860444D01*
X175636458Y-78042072D01*
X175616496Y-78232000D01*
X149744156Y-78232000D01*
X149737542Y-78169072D01*
X149678527Y-77987444D01*
X149583040Y-77822056D01*
X149455253Y-77680134D01*
X149300752Y-77567882D01*
X149294724Y-77565198D01*
X149294722Y-77565197D01*
X149132319Y-77492891D01*
X149132318Y-77492891D01*
X149126288Y-77490206D01*
X149032888Y-77470353D01*
X148945944Y-77451872D01*
X148945939Y-77451872D01*
X148939487Y-77450500D01*
X148748513Y-77450500D01*
X148742061Y-77451872D01*
X148742056Y-77451872D01*
X148655112Y-77470353D01*
X148561712Y-77490206D01*
X148555682Y-77492891D01*
X148555681Y-77492891D01*
X148393278Y-77565197D01*
X148393276Y-77565198D01*
X148387248Y-77567882D01*
X148232747Y-77680134D01*
X148104960Y-77822056D01*
X148009473Y-77987444D01*
X147950458Y-78169072D01*
X147930496Y-78359000D01*
X114160233Y-78359000D01*
X114160233Y-76200000D01*
X158217496Y-76200000D01*
X158237458Y-76389928D01*
X158296473Y-76571556D01*
X158391960Y-76736944D01*
X158396378Y-76741851D01*
X158396379Y-76741852D01*
X158495522Y-76851961D01*
X158519747Y-76878866D01*
X158674248Y-76991118D01*
X158680276Y-76993802D01*
X158680278Y-76993803D01*
X158842681Y-77066109D01*
X158848712Y-77068794D01*
X158942113Y-77088647D01*
X159029056Y-77107128D01*
X159029061Y-77107128D01*
X159035513Y-77108500D01*
X159226487Y-77108500D01*
X159232939Y-77107128D01*
X159232944Y-77107128D01*
X159319887Y-77088647D01*
X159413288Y-77068794D01*
X159419319Y-77066109D01*
X159581722Y-76993803D01*
X159581724Y-76993802D01*
X159587752Y-76991118D01*
X159742253Y-76878866D01*
X159766478Y-76851961D01*
X159865621Y-76741852D01*
X159865622Y-76741851D01*
X159870040Y-76736944D01*
X159965527Y-76571556D01*
X160024542Y-76389928D01*
X160044504Y-76200000D01*
X160040986Y-76166526D01*
X174078733Y-76166526D01*
X174094051Y-76297914D01*
X174154400Y-76464170D01*
X174158411Y-76470287D01*
X174158412Y-76470290D01*
X174220684Y-76565271D01*
X174251377Y-76612085D01*
X174379780Y-76733723D01*
X174532723Y-76822559D01*
X174539727Y-76824680D01*
X174539731Y-76824682D01*
X174670721Y-76864354D01*
X174702000Y-76873828D01*
X174878531Y-76884780D01*
X174885747Y-76883540D01*
X174885749Y-76883540D01*
X175045631Y-76856067D01*
X175045632Y-76856067D01*
X175052847Y-76854827D01*
X175215597Y-76785576D01*
X175221485Y-76781243D01*
X175221490Y-76781240D01*
X175352156Y-76685079D01*
X175358051Y-76680741D01*
X175362790Y-76675163D01*
X175362793Y-76675160D01*
X175467827Y-76551527D01*
X175467830Y-76551523D01*
X175472566Y-76545948D01*
X175553002Y-76388425D01*
X175595041Y-76216623D01*
X175595733Y-76205469D01*
X175595733Y-76166526D01*
X182718733Y-76166526D01*
X182734051Y-76297914D01*
X182794400Y-76464170D01*
X182798411Y-76470287D01*
X182798412Y-76470290D01*
X182860684Y-76565271D01*
X182891377Y-76612085D01*
X183019780Y-76733723D01*
X183172723Y-76822559D01*
X183179727Y-76824680D01*
X183179731Y-76824682D01*
X183310721Y-76864354D01*
X183342000Y-76873828D01*
X183518531Y-76884780D01*
X183525747Y-76883540D01*
X183525749Y-76883540D01*
X183685631Y-76856067D01*
X183685632Y-76856067D01*
X183692847Y-76854827D01*
X183855597Y-76785576D01*
X183861485Y-76781243D01*
X183861490Y-76781240D01*
X183992156Y-76685079D01*
X183998051Y-76680741D01*
X184002790Y-76675163D01*
X184002793Y-76675160D01*
X184107827Y-76551527D01*
X184107830Y-76551523D01*
X184112566Y-76545948D01*
X184193002Y-76388425D01*
X184235041Y-76216623D01*
X184235733Y-76205469D01*
X184235733Y-75377940D01*
X184220415Y-75246552D01*
X184206969Y-75209508D01*
X184162562Y-75087172D01*
X184162562Y-75087171D01*
X184160066Y-75080296D01*
X184102793Y-74992939D01*
X184067101Y-74938500D01*
X184067100Y-74938499D01*
X184063089Y-74932381D01*
X183934686Y-74810743D01*
X183781743Y-74721907D01*
X183774739Y-74719786D01*
X183774735Y-74719784D01*
X183619472Y-74672760D01*
X183619473Y-74672760D01*
X183612466Y-74670638D01*
X183435935Y-74659686D01*
X183428719Y-74660926D01*
X183428717Y-74660926D01*
X183268835Y-74688399D01*
X183261619Y-74689639D01*
X183098869Y-74758890D01*
X183092981Y-74763223D01*
X183092976Y-74763226D01*
X182994649Y-74835588D01*
X182956415Y-74863725D01*
X182951676Y-74869303D01*
X182951673Y-74869306D01*
X182846639Y-74992939D01*
X182846636Y-74992943D01*
X182841900Y-74998518D01*
X182761464Y-75156041D01*
X182719425Y-75327843D01*
X182718733Y-75338997D01*
X182718733Y-76166526D01*
X175595733Y-76166526D01*
X175595733Y-75377940D01*
X175580415Y-75246552D01*
X175566969Y-75209508D01*
X175522562Y-75087172D01*
X175522562Y-75087171D01*
X175520066Y-75080296D01*
X175462793Y-74992939D01*
X175427101Y-74938500D01*
X175427100Y-74938499D01*
X175423089Y-74932381D01*
X175294686Y-74810743D01*
X175141743Y-74721907D01*
X175134739Y-74719786D01*
X175134735Y-74719784D01*
X174979472Y-74672760D01*
X174979473Y-74672760D01*
X174972466Y-74670638D01*
X174795935Y-74659686D01*
X174788719Y-74660926D01*
X174788717Y-74660926D01*
X174628835Y-74688399D01*
X174621619Y-74689639D01*
X174458869Y-74758890D01*
X174452981Y-74763223D01*
X174452976Y-74763226D01*
X174354649Y-74835588D01*
X174316415Y-74863725D01*
X174311676Y-74869303D01*
X174311673Y-74869306D01*
X174206639Y-74992939D01*
X174206636Y-74992943D01*
X174201900Y-74998518D01*
X174121464Y-75156041D01*
X174079425Y-75327843D01*
X174078733Y-75338997D01*
X174078733Y-76166526D01*
X160040986Y-76166526D01*
X160034867Y-76108307D01*
X160025232Y-76016635D01*
X160025232Y-76016633D01*
X160024542Y-76010072D01*
X159965527Y-75828444D01*
X159870040Y-75663056D01*
X159838857Y-75628423D01*
X159746675Y-75526045D01*
X159746674Y-75526044D01*
X159742253Y-75521134D01*
X159587752Y-75408882D01*
X159581724Y-75406198D01*
X159581722Y-75406197D01*
X159419319Y-75333891D01*
X159419318Y-75333891D01*
X159413288Y-75331206D01*
X159319887Y-75311353D01*
X159232944Y-75292872D01*
X159232939Y-75292872D01*
X159226487Y-75291500D01*
X159035513Y-75291500D01*
X159029061Y-75292872D01*
X159029056Y-75292872D01*
X158942113Y-75311353D01*
X158848712Y-75331206D01*
X158842682Y-75333891D01*
X158842681Y-75333891D01*
X158680278Y-75406197D01*
X158680276Y-75406198D01*
X158674248Y-75408882D01*
X158519747Y-75521134D01*
X158515326Y-75526044D01*
X158515325Y-75526045D01*
X158423144Y-75628423D01*
X158391960Y-75663056D01*
X158296473Y-75828444D01*
X158237458Y-76010072D01*
X158236768Y-76016633D01*
X158236768Y-76016635D01*
X158227133Y-76108307D01*
X158217496Y-76200000D01*
X114160233Y-76200000D01*
X114160233Y-74132703D01*
X114890743Y-74132703D01*
X114928268Y-74417734D01*
X115004129Y-74695036D01*
X115005813Y-74698984D01*
X115103220Y-74927349D01*
X115116923Y-74959476D01*
X115264561Y-75206161D01*
X115444313Y-75430528D01*
X115652851Y-75628423D01*
X115886317Y-75796186D01*
X115890112Y-75798195D01*
X115890113Y-75798196D01*
X115911869Y-75809715D01*
X116140392Y-75930712D01*
X116164699Y-75939607D01*
X116375188Y-76016635D01*
X116410373Y-76029511D01*
X116691264Y-76090755D01*
X116719841Y-76093004D01*
X116914282Y-76108307D01*
X116914291Y-76108307D01*
X116916739Y-76108500D01*
X117072271Y-76108500D01*
X117074407Y-76108354D01*
X117074418Y-76108354D01*
X117282548Y-76094165D01*
X117282554Y-76094164D01*
X117286825Y-76093873D01*
X117291020Y-76093004D01*
X117291022Y-76093004D01*
X117427584Y-76064723D01*
X117568342Y-76035574D01*
X117839343Y-75939607D01*
X118094812Y-75807750D01*
X118098313Y-75805289D01*
X118098317Y-75805287D01*
X118292555Y-75668774D01*
X118330023Y-75642441D01*
X118540622Y-75446740D01*
X118722713Y-75224268D01*
X118872927Y-74979142D01*
X118967708Y-74763226D01*
X118986757Y-74719830D01*
X118988483Y-74715898D01*
X119004496Y-74659686D01*
X119066068Y-74443534D01*
X119067244Y-74439406D01*
X119107751Y-74154784D01*
X119107845Y-74136951D01*
X119109235Y-73871583D01*
X119109235Y-73871576D01*
X119109257Y-73867297D01*
X119071732Y-73582266D01*
X118995871Y-73304964D01*
X118959818Y-73220440D01*
X118884763Y-73044476D01*
X118884761Y-73044472D01*
X118883077Y-73040524D01*
X118735439Y-72793839D01*
X118555687Y-72569472D01*
X118382294Y-72404928D01*
X118350258Y-72374527D01*
X118350255Y-72374525D01*
X118347149Y-72371577D01*
X118113683Y-72203814D01*
X118091843Y-72192250D01*
X118052148Y-72171233D01*
X117859608Y-72069288D01*
X117589627Y-71970489D01*
X117308736Y-71909245D01*
X117277685Y-71906801D01*
X117085718Y-71891693D01*
X117085709Y-71891693D01*
X117083261Y-71891500D01*
X116927729Y-71891500D01*
X116925593Y-71891646D01*
X116925582Y-71891646D01*
X116717452Y-71905835D01*
X116717446Y-71905836D01*
X116713175Y-71906127D01*
X116708980Y-71906996D01*
X116708978Y-71906996D01*
X116572416Y-71935277D01*
X116431658Y-71964426D01*
X116160657Y-72060393D01*
X115905188Y-72192250D01*
X115901687Y-72194711D01*
X115901683Y-72194713D01*
X115787582Y-72274905D01*
X115669977Y-72357559D01*
X115459378Y-72553260D01*
X115277287Y-72775732D01*
X115127073Y-73020858D01*
X115125347Y-73024791D01*
X115125346Y-73024792D01*
X115099013Y-73084780D01*
X115011517Y-73284102D01*
X114932756Y-73560594D01*
X114892249Y-73845216D01*
X114892227Y-73849505D01*
X114892226Y-73849512D01*
X114890765Y-74128417D01*
X114890743Y-74132703D01*
X114160233Y-74132703D01*
X114160233Y-73220440D01*
X114161979Y-73199536D01*
X114164497Y-73184568D01*
X114165304Y-73179772D01*
X114165457Y-73167233D01*
X114163735Y-73155208D01*
X114162732Y-73129104D01*
X114176735Y-72915469D01*
X114178886Y-72899128D01*
X114190801Y-72839228D01*
X114225285Y-72774715D01*
X115759715Y-71240285D01*
X115824228Y-71205801D01*
X115884128Y-71193886D01*
X115900469Y-71191735D01*
X116110501Y-71177969D01*
X116133537Y-71178994D01*
X116137087Y-71179037D01*
X116145963Y-71180419D01*
X116177485Y-71176297D01*
X116193822Y-71175233D01*
X174008320Y-71175233D01*
X174076441Y-71195235D01*
G37*
%TD.AperFunction*%
%TD*%
M02*
