M48
; DRILL file {KiCad (6.0.2)} date Sat May 20 08:16:20 2023
; FORMAT={-:-/ absolute / inch / decimal}
; #@! TF.CreationDate,2023-05-20T08:16:20+01:00
; #@! TF.GenerationSoftware,Kicad,Pcbnew,(6.0.2)
; #@! TF.FileFunction,Plated,1,4,PTH
FMAT,2
INCH
; #@! TA.AperFunction,Plated,PTH,ViaDrill
T1C0.0157
; #@! TA.AperFunction,Plated,PTH,ComponentDrill
T2C0.0315
; #@! TA.AperFunction,Plated,PTH,ComponentDrill
T3C0.0394
; #@! TA.AperFunction,Plated,PTH,ComponentDrill
T4C0.0461
; #@! TA.AperFunction,Plated,PTH,ComponentDrill
T5C0.0591
%
G90
G05
T1
X4.8Y-2.85
X4.8Y-4.3
X4.8Y-4.425
X4.9Y-3.75
X4.905Y-3.51
X5.05Y-3.2
X5.05Y-3.775
X5.2Y-2.85
X5.2Y-4.3
X5.2Y-4.425
X5.2359Y-3.9369
X5.24Y-4.14
X5.3Y-3.075
X5.395Y-4.44
X5.4Y-3.3
X5.42Y-4.34
X5.455Y-4.2
X5.505Y-3.975
X5.62Y-4.09
X5.67Y-4.44
X5.675Y-3.275
X5.775Y-3.925
X5.775Y-4.2
X5.78Y-3.76
X5.815Y-3.675
X5.85Y-2.95
X5.86Y-3.085
X5.895Y-3.835
X5.925Y-3.35
X5.945Y-3.61
X6.0Y-3.475
X6.025Y-3.025
X6.05Y-3.475
X6.08Y-4.2
X6.1Y-3.475
X6.15Y-2.85
X6.175Y-3.475
X6.225Y-3.925
X6.265Y-3.0
X6.34Y-3.84
X6.395Y-3.505
X6.4Y-3.14
X6.44Y-2.86
X6.55Y-3.125
X6.565Y-3.42
X6.575Y-2.85
X6.595Y-4.33
X6.605Y-3.195
X6.625Y-3.3
X6.645Y-3.39
X6.65Y-4.075
X6.69Y-3.99
X6.695Y-4.185
X6.74Y-3.155
X6.74Y-3.775
X6.74Y-4.18
X6.745Y-4.0
X6.7906Y-3.415
X6.825Y-4.35
X6.9Y-4.025
X6.925Y-3.8
X6.95Y-3.08
X6.95Y-3.275
X6.975Y-3.61
X7.025Y-4.475
X7.05Y-3.275
X7.055Y-2.855
X7.06Y-3.39
X7.065Y-4.25
X7.07Y-3.94
X7.08Y-3.81
X7.13Y-3.81
X7.165Y-3.325
X7.225Y-3.825
X7.275Y-3.625
X7.275Y-4.15
T2
X6.2336Y-3.6631
X6.4257Y-3.6631
T3
X4.5792Y-3.2631
X4.5792Y-3.3631
X4.5792Y-3.4631
X4.5792Y-3.5631
X4.5792Y-3.6631
X4.5792Y-3.7631
X4.5792Y-3.8631
X4.5792Y-3.9631
X4.5792Y-4.0631
X4.5792Y-4.1631
X6.1292Y-4.3381
X6.1292Y-4.4381
X6.2292Y-4.3381
X6.2292Y-4.4381
X6.3292Y-4.3381
X6.3292Y-4.4381
T4
X6.8042Y-3.6881
T5
X6.8042Y-4.4755
T0
M30
