%TF.GenerationSoftware,KiCad,Pcbnew,(6.0.2)*%
%TF.CreationDate,2023-05-20T08:16:15+01:00*%
%TF.ProjectId,Main Board,4d61696e-2042-46f6-9172-642e6b696361,rev?*%
%TF.SameCoordinates,Original*%
%TF.FileFunction,Copper,L1,Top*%
%TF.FilePolarity,Positive*%
%FSLAX46Y46*%
G04 Gerber Fmt 4.6, Leading zero omitted, Abs format (unit mm)*
G04 Created by KiCad (PCBNEW (6.0.2)) date 2023-05-20 08:16:15*
%MOMM*%
%LPD*%
G01*
G04 APERTURE LIST*
G04 Aperture macros list*
%AMRoundRect*
0 Rectangle with rounded corners*
0 $1 Rounding radius*
0 $2 $3 $4 $5 $6 $7 $8 $9 X,Y pos of 4 corners*
0 Add a 4 corners polygon primitive as box body*
4,1,4,$2,$3,$4,$5,$6,$7,$8,$9,$2,$3,0*
0 Add four circle primitives for the rounded corners*
1,1,$1+$1,$2,$3*
1,1,$1+$1,$4,$5*
1,1,$1+$1,$6,$7*
1,1,$1+$1,$8,$9*
0 Add four rect primitives between the rounded corners*
20,1,$1+$1,$2,$3,$4,$5,0*
20,1,$1+$1,$4,$5,$6,$7,0*
20,1,$1+$1,$6,$7,$8,$9,0*
20,1,$1+$1,$8,$9,$2,$3,0*%
G04 Aperture macros list end*
%TA.AperFunction,SMDPad,CuDef*%
%ADD10RoundRect,0.250000X-0.250000X-0.475000X0.250000X-0.475000X0.250000X0.475000X-0.250000X0.475000X0*%
%TD*%
%TA.AperFunction,SMDPad,CuDef*%
%ADD11R,2.150000X0.950000*%
%TD*%
%TA.AperFunction,SMDPad,CuDef*%
%ADD12R,2.150000X3.250000*%
%TD*%
%TA.AperFunction,SMDPad,CuDef*%
%ADD13RoundRect,0.250000X-0.262500X-0.450000X0.262500X-0.450000X0.262500X0.450000X-0.262500X0.450000X0*%
%TD*%
%TA.AperFunction,SMDPad,CuDef*%
%ADD14RoundRect,0.150000X0.825000X0.150000X-0.825000X0.150000X-0.825000X-0.150000X0.825000X-0.150000X0*%
%TD*%
%TA.AperFunction,SMDPad,CuDef*%
%ADD15RoundRect,0.250000X0.250000X0.475000X-0.250000X0.475000X-0.250000X-0.475000X0.250000X-0.475000X0*%
%TD*%
%TA.AperFunction,SMDPad,CuDef*%
%ADD16R,1.600000X1.300000*%
%TD*%
%TA.AperFunction,SMDPad,CuDef*%
%ADD17R,1.600000X2.000000*%
%TD*%
%TA.AperFunction,SMDPad,CuDef*%
%ADD18RoundRect,0.250000X-0.450000X0.262500X-0.450000X-0.262500X0.450000X-0.262500X0.450000X0.262500X0*%
%TD*%
%TA.AperFunction,SMDPad,CuDef*%
%ADD19R,2.000000X2.000000*%
%TD*%
%TA.AperFunction,SMDPad,CuDef*%
%ADD20RoundRect,0.250000X0.262500X0.450000X-0.262500X0.450000X-0.262500X-0.450000X0.262500X-0.450000X0*%
%TD*%
%TA.AperFunction,SMDPad,CuDef*%
%ADD21R,4.300000X4.000000*%
%TD*%
%TA.AperFunction,SMDPad,CuDef*%
%ADD22RoundRect,0.250000X0.450000X-0.262500X0.450000X0.262500X-0.450000X0.262500X-0.450000X-0.262500X0*%
%TD*%
%TA.AperFunction,WasherPad*%
%ADD23O,1.000000X1.700000*%
%TD*%
%TA.AperFunction,SMDPad,CuDef*%
%ADD24R,0.700000X1.600000*%
%TD*%
%TA.AperFunction,SMDPad,CuDef*%
%ADD25R,0.800000X1.600000*%
%TD*%
%TA.AperFunction,SMDPad,CuDef*%
%ADD26R,0.900000X1.600000*%
%TD*%
%TA.AperFunction,SMDPad,CuDef*%
%ADD27R,0.550000X1.500000*%
%TD*%
%TA.AperFunction,SMDPad,CuDef*%
%ADD28R,1.500000X0.550000*%
%TD*%
%TA.AperFunction,SMDPad,CuDef*%
%ADD29R,2.600000X2.600000*%
%TD*%
%TA.AperFunction,SMDPad,CuDef*%
%ADD30RoundRect,0.062500X-0.062500X-0.350000X0.062500X-0.350000X0.062500X0.350000X-0.062500X0.350000X0*%
%TD*%
%TA.AperFunction,SMDPad,CuDef*%
%ADD31RoundRect,0.062500X-0.350000X-0.062500X0.350000X-0.062500X0.350000X0.062500X-0.350000X0.062500X0*%
%TD*%
%TA.AperFunction,SMDPad,CuDef*%
%ADD32RoundRect,0.150000X0.150000X-0.725000X0.150000X0.725000X-0.150000X0.725000X-0.150000X-0.725000X0*%
%TD*%
%TA.AperFunction,SMDPad,CuDef*%
%ADD33RoundRect,0.250000X-0.625000X0.312500X-0.625000X-0.312500X0.625000X-0.312500X0.625000X0.312500X0*%
%TD*%
%TA.AperFunction,SMDPad,CuDef*%
%ADD34R,1.600000X0.800000*%
%TD*%
%TA.AperFunction,SMDPad,CuDef*%
%ADD35R,2.500000X2.300000*%
%TD*%
%TA.AperFunction,SMDPad,CuDef*%
%ADD36RoundRect,0.150000X-0.725000X-0.150000X0.725000X-0.150000X0.725000X0.150000X-0.725000X0.150000X0*%
%TD*%
%TA.AperFunction,ComponentPad*%
%ADD37R,1.700000X1.700000*%
%TD*%
%TA.AperFunction,ComponentPad*%
%ADD38O,1.700000X1.700000*%
%TD*%
%TA.AperFunction,SMDPad,CuDef*%
%ADD39RoundRect,0.150000X-0.150000X0.825000X-0.150000X-0.825000X0.150000X-0.825000X0.150000X0.825000X0*%
%TD*%
%TA.AperFunction,ComponentPad*%
%ADD40C,1.500000*%
%TD*%
%TA.AperFunction,SMDPad,CuDef*%
%ADD41RoundRect,0.250000X-0.700000X1.950000X-0.700000X-1.950000X0.700000X-1.950000X0.700000X1.950000X0*%
%TD*%
%TA.AperFunction,SMDPad,CuDef*%
%ADD42RoundRect,0.250000X-0.475000X0.250000X-0.475000X-0.250000X0.475000X-0.250000X0.475000X0.250000X0*%
%TD*%
%TA.AperFunction,ComponentPad*%
%ADD43R,2.170000X2.170000*%
%TD*%
%TA.AperFunction,ComponentPad*%
%ADD44C,2.500000*%
%TD*%
%TA.AperFunction,ViaPad*%
%ADD45C,0.800000*%
%TD*%
%TA.AperFunction,Conductor*%
%ADD46C,0.500000*%
%TD*%
%TA.AperFunction,Conductor*%
%ADD47C,1.000000*%
%TD*%
%TA.AperFunction,Conductor*%
%ADD48C,0.350000*%
%TD*%
%TA.AperFunction,Conductor*%
%ADD49C,0.250000*%
%TD*%
G04 APERTURE END LIST*
D10*
%TO.P,C4,1*%
%TO.N,/VBUS*%
X152142233Y-86622233D03*
%TO.P,C4,2*%
%TO.N,Net-(C4-Pad2)*%
X154042233Y-86622233D03*
%TD*%
D11*
%TO.P,Q2,1,G*%
%TO.N,Net-(Q2-Pad1)*%
X138897233Y-86501000D03*
D12*
%TO.P,Q2,2,D*%
%TO.N,Net-(D1-Pad2)*%
X133097233Y-84201000D03*
D11*
%TO.P,Q2,3,S*%
%TO.N,Net-(Q2-Pad3)*%
X138897233Y-81901000D03*
%TD*%
D13*
%TO.P,R14,1*%
%TO.N,+12V*%
X124820250Y-99949000D03*
%TO.P,R14,2*%
%TO.N,POLARITY_COND*%
X126645250Y-99949000D03*
%TD*%
D10*
%TO.P,C5,1*%
%TO.N,+3V3*%
X169287233Y-78437233D03*
%TO.P,C5,2*%
%TO.N,GND*%
X171187233Y-78437233D03*
%TD*%
D14*
%TO.P,Q1,1,S*%
%TO.N,Net-(Q1-Pad1)*%
X155567233Y-80342233D03*
%TO.P,Q1,2,G*%
%TO.N,Net-(Q1-Pad2)*%
X155567233Y-79072233D03*
%TO.P,Q1,3,S*%
%TO.N,Net-(Q1-Pad1)*%
X155567233Y-77802233D03*
%TO.P,Q1,4,G*%
%TO.N,Net-(Q1-Pad2)*%
X155567233Y-76532233D03*
%TO.P,Q1,5,D*%
%TO.N,+12V*%
X150617233Y-76532233D03*
%TO.P,Q1,6,G*%
X150617233Y-77802233D03*
%TO.P,Q1,7,D*%
%TO.N,/VBUS*%
X150617233Y-79072233D03*
%TO.P,Q1,8,G*%
X150617233Y-80342233D03*
%TD*%
D13*
%TO.P,R9,2*%
%TO.N,/VBUS_FET_EN*%
X165434733Y-77802233D03*
%TO.P,R9,1*%
%TO.N,Net-(C4-Pad2)*%
X163609733Y-77802233D03*
%TD*%
%TO.P,R8,1*%
%TO.N,Net-(Q1-Pad2)*%
X159164733Y-77802233D03*
%TO.P,R8,2*%
%TO.N,Net-(C4-Pad2)*%
X160989733Y-77802233D03*
%TD*%
D15*
%TO.P,C10,1*%
%TO.N,Net-(C10-Pad1)*%
X146152233Y-78486000D03*
%TO.P,C10,2*%
%TO.N,GND*%
X144252233Y-78486000D03*
%TD*%
D16*
%TO.P,RV1,1,1*%
%TO.N,FB*%
X144960000Y-75418000D03*
D17*
%TO.P,RV1,2,2*%
%TO.N,Net-(R21-Pad1)*%
X142060000Y-74168000D03*
D16*
%TO.P,RV1,3,3*%
X144960000Y-72918000D03*
%TD*%
D18*
%TO.P,R18,1*%
%TO.N,MINUTE_SET*%
X177907233Y-106734733D03*
%TO.P,R18,2*%
%TO.N,GND*%
X177907233Y-108559733D03*
%TD*%
%TO.P,R3,1*%
%TO.N,+3V3*%
X165100000Y-81264733D03*
%TO.P,R3,2*%
%TO.N,/VBUS_MIN*%
X165100000Y-83089733D03*
%TD*%
D15*
%TO.P,C1,1*%
%TO.N,/VBUS*%
X176587233Y-79637233D03*
%TO.P,C1,2*%
%TO.N,GND*%
X174687233Y-79637233D03*
%TD*%
%TO.P,C12,1*%
%TO.N,/XTAL2*%
X152822233Y-93042233D03*
%TO.P,C12,2*%
%TO.N,GND*%
X150922233Y-93042233D03*
%TD*%
D19*
%TO.P,TP2,1,1*%
%TO.N,GND*%
X146157233Y-112727233D03*
%TD*%
D20*
%TO.P,R17,1*%
%TO.N,SHDN*%
X152784733Y-97487233D03*
%TO.P,R17,2*%
%TO.N,GND*%
X150959733Y-97487233D03*
%TD*%
D21*
%TO.P,L1,1,1*%
%TO.N,+12V*%
X141952233Y-93306000D03*
%TO.P,L1,2,2*%
%TO.N,Net-(D1-Pad2)*%
X133852233Y-93306000D03*
%TD*%
D22*
%TO.P,R4,2*%
%TO.N,GND*%
X162560000Y-81264733D03*
%TO.P,R4,1*%
%TO.N,/VBUS_MIN*%
X162560000Y-83089733D03*
%TD*%
D10*
%TO.P,C17,1*%
%TO.N,+12V*%
X136637233Y-100967233D03*
%TO.P,C17,2*%
%TO.N,GND*%
X138537233Y-100967233D03*
%TD*%
D23*
%TO.P,U1,*%
%TO.N,*%
X174837233Y-75772233D03*
X183477233Y-75772233D03*
X174837233Y-71972233D03*
X183477233Y-71972233D03*
D24*
%TO.P,U1,A5,CC1*%
%TO.N,/CC1*%
X179657233Y-75952233D03*
D25*
%TO.P,U1,A9,VBUS*%
%TO.N,/VBUS*%
X177637233Y-75952233D03*
D26*
%TO.P,U1,A12,GND*%
%TO.N,GND*%
X176407233Y-75952233D03*
D24*
%TO.P,U1,B5,CC2*%
%TO.N,/CC2*%
X178657233Y-75952233D03*
D25*
%TO.P,U1,B9,VBUS*%
%TO.N,/VBUS*%
X180677233Y-75952233D03*
D26*
%TO.P,U1,B12,GND*%
%TO.N,GND*%
X181907233Y-75952233D03*
%TD*%
D27*
%TO.P,U4,1,PC6*%
%TO.N,RESET*%
X171817233Y-99537233D03*
%TO.P,U4,2,PD0*%
%TO.N,CONFIG*%
X171017233Y-99537233D03*
%TO.P,U4,3,PD1*%
%TO.N,unconnected-(U4-Pad3)*%
X170217233Y-99537233D03*
%TO.P,U4,4,PD2*%
%TO.N,unconnected-(U4-Pad4)*%
X169417233Y-99537233D03*
%TO.P,U4,5,PD3*%
%TO.N,unconnected-(U4-Pad5)*%
X168617233Y-99537233D03*
%TO.P,U4,6,PD4*%
%TO.N,unconnected-(U4-Pad6)*%
X167817233Y-99537233D03*
%TO.P,U4,7,VCC*%
%TO.N,+3V3*%
X167017233Y-99537233D03*
%TO.P,U4,8,GND*%
%TO.N,GND*%
X166217233Y-99537233D03*
D28*
%TO.P,U4,9,PB6*%
%TO.N,/XTAL1*%
X164717233Y-101037233D03*
%TO.P,U4,10,PB7*%
%TO.N,/XTAL2*%
X164717233Y-101837233D03*
%TO.P,U4,11,PD5*%
%TO.N,unconnected-(U4-Pad11)*%
X164717233Y-102637233D03*
%TO.P,U4,12,PD6*%
%TO.N,LATCH_EN*%
X164717233Y-103437233D03*
%TO.P,U4,13,PD7*%
%TO.N,OE*%
X164717233Y-104237233D03*
%TO.P,U4,14,PB0*%
%TO.N,SHIFT_CLK*%
X164717233Y-105037233D03*
%TO.P,U4,15,PB1*%
%TO.N,BLANKING*%
X164717233Y-105837233D03*
%TO.P,U4,16,PB2*%
%TO.N,DATA_IN*%
X164717233Y-106637233D03*
D27*
%TO.P,U4,17,PB3*%
%TO.N,MOSI*%
X166217233Y-108137233D03*
%TO.P,U4,18,PB4*%
%TO.N,MISO*%
X167017233Y-108137233D03*
%TO.P,U4,19,PB5*%
%TO.N,CLK*%
X167817233Y-108137233D03*
%TO.P,U4,20,AVCC*%
%TO.N,+3V3*%
X168617233Y-108137233D03*
%TO.P,U4,21,AREF*%
%TO.N,unconnected-(U4-Pad21)*%
X169417233Y-108137233D03*
%TO.P,U4,22,GND*%
%TO.N,GND*%
X170217233Y-108137233D03*
%TO.P,U4,23,PC0*%
%TO.N,SHDN*%
X171017233Y-108137233D03*
%TO.P,U4,24,PC1*%
%TO.N,unconnected-(U4-Pad24)*%
X171817233Y-108137233D03*
D28*
%TO.P,U4,25,PC2*%
%TO.N,MINUTE_SET*%
X173317233Y-106637233D03*
%TO.P,U4,26,PC3*%
%TO.N,HOUR_SET*%
X173317233Y-105837233D03*
%TO.P,U4,27,PC4*%
%TO.N,SDA*%
X173317233Y-105037233D03*
%TO.P,U4,28,PC5*%
%TO.N,SCL*%
X173317233Y-104237233D03*
%TO.P,U4,29*%
%TO.N,N/C*%
X173317233Y-103437233D03*
%TO.P,U4,30*%
X173317233Y-102637233D03*
%TO.P,U4,31*%
X173317233Y-101837233D03*
%TO.P,U4,32*%
X173317233Y-101037233D03*
%TD*%
D10*
%TO.P,C3,1*%
%TO.N,+3V3*%
X169287233Y-75897233D03*
%TO.P,C3,2*%
%TO.N,GND*%
X171187233Y-75897233D03*
%TD*%
D29*
%TO.P,U2,25,EPAD*%
%TO.N,GND*%
X171507233Y-83532233D03*
D30*
%TO.P,U2,24,VCCD*%
%TO.N,Net-(C6-Pad1)*%
X170257233Y-81594733D03*
%TO.P,U2,23,VDDD*%
%TO.N,+3V3*%
X170757233Y-81594733D03*
%TO.P,U2,22,VSS*%
%TO.N,GND*%
X171257233Y-81594733D03*
%TO.P,U2,21,DNU2*%
%TO.N,unconnected-(U2-Pad21)*%
X171757233Y-81594733D03*
%TO.P,U2,20,DNU1*%
%TO.N,unconnected-(U2-Pad20)*%
X172257233Y-81594733D03*
%TO.P,U2,19,GND*%
%TO.N,GND*%
X172757233Y-81594733D03*
D31*
%TO.P,U2,18,VBUS_IN*%
%TO.N,/VBUS*%
X173444733Y-82282233D03*
%TO.P,U2,17,D+*%
%TO.N,unconnected-(U2-Pad17)*%
X173444733Y-82782233D03*
%TO.P,U2,16,D-*%
%TO.N,unconnected-(U2-Pad16)*%
X173444733Y-83282233D03*
%TO.P,U2,15,CC1*%
%TO.N,/CC1*%
X173444733Y-83782233D03*
%TO.P,U2,14,CC2*%
%TO.N,/CC2*%
X173444733Y-84282233D03*
%TO.P,U2,13,HPI_SCL*%
%TO.N,SCL*%
X173444733Y-84782233D03*
D30*
%TO.P,U2,12,HPI_SDA*%
%TO.N,SDA*%
X172757233Y-85469733D03*
%TO.P,U2,11,VDC_OUT*%
%TO.N,+12V*%
X172257233Y-85469733D03*
%TO.P,U2,10,FLIP*%
%TO.N,/FLIP*%
X171757233Y-85469733D03*
%TO.P,U2,9,FAULT*%
%TO.N,unconnected-(U2-Pad9)*%
X171257233Y-85469733D03*
%TO.P,U2,8,GPIO_1*%
%TO.N,unconnected-(U2-Pad8)*%
X170757233Y-85469733D03*
%TO.P,U2,7,HPI_INT*%
%TO.N,unconnected-(U2-Pad7)*%
X170257233Y-85469733D03*
D31*
%TO.P,U2,6,ISNK_FINE*%
%TO.N,GND*%
X169569733Y-84782233D03*
%TO.P,U2,5,ISNK_COURSE*%
%TO.N,/ISNK_COURSE*%
X169569733Y-84282233D03*
%TO.P,U2,4,SAFE_PWR_EN*%
%TO.N,unconnected-(U2-Pad4)*%
X169569733Y-83782233D03*
%TO.P,U2,3,VBUS_FET_EN*%
%TO.N,/VBUS_FET_EN*%
X169569733Y-83282233D03*
%TO.P,U2,2,VBUS_MAX*%
%TO.N,/VBUS_MAX*%
X169569733Y-82782233D03*
%TO.P,U2,1,VBUS_MIN*%
%TO.N,/VBUS_MIN*%
X169569733Y-82282233D03*
%TD*%
D13*
%TO.P,R21,1*%
%TO.N,Net-(R21-Pad1)*%
X147654000Y-73406000D03*
%TO.P,R21,2*%
%TO.N,GND*%
X149479000Y-73406000D03*
%TD*%
D18*
%TO.P,R6,1*%
%TO.N,/ISNK_COURSE*%
X162560000Y-85779733D03*
%TO.P,R6,2*%
%TO.N,GND*%
X162560000Y-87604733D03*
%TD*%
D15*
%TO.P,C15,1*%
%TO.N,+3V3*%
X169967233Y-95885000D03*
%TO.P,C15,2*%
%TO.N,GND*%
X168067233Y-95885000D03*
%TD*%
D32*
%TO.P,U3,1,EXT*%
%TO.N,Net-(Q2-Pad1)*%
X142347233Y-86776000D03*
%TO.P,U3,2,V+*%
%TO.N,+12V*%
X143617233Y-86776000D03*
%TO.P,U3,3,FB*%
%TO.N,FB*%
X144887233Y-86776000D03*
%TO.P,U3,4,SHDN*%
%TO.N,SHDN*%
X146157233Y-86776000D03*
%TO.P,U3,5,REF*%
%TO.N,Net-(C10-Pad1)*%
X146157233Y-81626000D03*
%TO.P,U3,6,AGND*%
%TO.N,GND*%
X144887233Y-81626000D03*
%TO.P,U3,7,GND*%
X143617233Y-81626000D03*
%TO.P,U3,8,CS*%
%TO.N,Net-(Q2-Pad3)*%
X142347233Y-81626000D03*
%TD*%
D19*
%TO.P,TP1,1,1*%
%TO.N,/VBUS*%
X182987233Y-80977233D03*
%TD*%
%TO.P,TP4,1,1*%
%TO.N,+12V*%
X153142233Y-73357233D03*
%TD*%
D22*
%TO.P,R10,1*%
%TO.N,+3V3*%
X173990000Y-90144733D03*
%TO.P,R10,2*%
%TO.N,SDA*%
X173990000Y-88319733D03*
%TD*%
D10*
%TO.P,C2,1*%
%TO.N,+3V3*%
X169287233Y-73357233D03*
%TO.P,C2,2*%
%TO.N,GND*%
X171187233Y-73357233D03*
%TD*%
D19*
%TO.P,TP3,1,1*%
%TO.N,+3V3*%
X150602233Y-112727233D03*
%TD*%
D33*
%TO.P,R20,1*%
%TO.N,+170VDC*%
X138176000Y-72959500D03*
%TO.P,R20,2*%
%TO.N,FB*%
X138176000Y-75884500D03*
%TD*%
D22*
%TO.P,R5,1*%
%TO.N,+3V3*%
X165100000Y-87604733D03*
%TO.P,R5,2*%
%TO.N,/ISNK_COURSE*%
X165100000Y-85779733D03*
%TD*%
D34*
%TO.P,J1,1,Pin_1*%
%TO.N,+3V3*%
X180717233Y-101327233D03*
%TO.P,J1,2,Pin_2*%
%TO.N,HOUR_SET*%
X180717233Y-102577233D03*
%TO.P,J1,3,Pin_3*%
%TO.N,+3V3*%
X180717233Y-103827233D03*
%TO.P,J1,4,Pin_4*%
%TO.N,MINUTE_SET*%
X180717233Y-105077233D03*
%TD*%
D22*
%TO.P,R1,1*%
%TO.N,+3V3*%
X160020000Y-87604733D03*
%TO.P,R1,2*%
%TO.N,/VBUS_MAX*%
X160020000Y-85779733D03*
%TD*%
%TO.P,R12,1*%
%TO.N,+3V3*%
X170287233Y-90144733D03*
%TO.P,R12,2*%
%TO.N,/FLIP*%
X170287233Y-88319733D03*
%TD*%
D15*
%TO.P,C6,1*%
%TO.N,Net-(C6-Pad1)*%
X165522233Y-74627233D03*
%TO.P,C6,2*%
%TO.N,GND*%
X163622233Y-74627233D03*
%TD*%
D13*
%TO.P,R19,1*%
%TO.N,Net-(Q2-Pad3)*%
X139041500Y-78486000D03*
%TO.P,R19,2*%
%TO.N,GND*%
X140866500Y-78486000D03*
%TD*%
D19*
%TO.P,TP5,1,1*%
%TO.N,+170VDC*%
X121158000Y-79502000D03*
%TD*%
D22*
%TO.P,R11,1*%
%TO.N,+3V3*%
X177165000Y-90144733D03*
%TO.P,R11,2*%
%TO.N,SCL*%
X177165000Y-88319733D03*
%TD*%
D10*
%TO.P,C7,1*%
%TO.N,+12V*%
X159127233Y-74627233D03*
%TO.P,C7,2*%
%TO.N,Net-(C4-Pad2)*%
X161027233Y-74627233D03*
%TD*%
D13*
%TO.P,R7,1*%
%TO.N,/VBUS*%
X152179733Y-84082233D03*
%TO.P,R7,2*%
%TO.N,Net-(C4-Pad2)*%
X154004733Y-84082233D03*
%TD*%
%TO.P,R15,1*%
%TO.N,POLARITY_COND*%
X129900250Y-99949000D03*
%TO.P,R15,2*%
%TO.N,GND*%
X131725250Y-99949000D03*
%TD*%
D35*
%TO.P,D1,1,K*%
%TO.N,+170VDC*%
X125485000Y-77343000D03*
%TO.P,D1,2,A*%
%TO.N,Net-(D1-Pad2)*%
X129785000Y-77343000D03*
%TD*%
D36*
%TO.P,U5,1,VDD(B)*%
%TO.N,+12V*%
X135327233Y-103837233D03*
%TO.P,U5,2,nB0*%
%TO.N,unconnected-(U5-Pad2)*%
X135327233Y-105107233D03*
%TO.P,U5,3,B0*%
%TO.N,LATCH_EN_COND*%
X135327233Y-106377233D03*
%TO.P,U5,4,A0*%
%TO.N,LATCH_EN*%
X135327233Y-107647233D03*
%TO.P,U5,5,A1*%
%TO.N,DATA_IN*%
X135327233Y-108917233D03*
%TO.P,U5,6,B1*%
%TO.N,DATA_IN_COND*%
X135327233Y-110187233D03*
%TO.P,U5,7,nB1*%
%TO.N,unconnected-(U5-Pad7)*%
X135327233Y-111457233D03*
%TO.P,U5,8,VSS*%
%TO.N,GND*%
X135327233Y-112727233D03*
%TO.P,U5,9,nB2*%
%TO.N,unconnected-(U5-Pad9)*%
X140477233Y-112727233D03*
%TO.P,U5,10,B2*%
%TO.N,BLANKING_COND*%
X140477233Y-111457233D03*
%TO.P,U5,11,A2*%
%TO.N,BLANKING*%
X140477233Y-110187233D03*
%TO.P,U5,12,A3*%
%TO.N,SHIFT_CLK*%
X140477233Y-108917233D03*
%TO.P,U5,13,B3*%
%TO.N,SHIFT_CLK_COND*%
X140477233Y-107647233D03*
%TO.P,U5,14,nB3*%
%TO.N,unconnected-(U5-Pad14)*%
X140477233Y-106377233D03*
%TO.P,U5,15,OE*%
%TO.N,OE*%
X140477233Y-105107233D03*
%TO.P,U5,16,VDD(A)*%
%TO.N,+3V3*%
X140477233Y-103837233D03*
%TD*%
D15*
%TO.P,C11,1*%
%TO.N,GND*%
X169967233Y-93042233D03*
%TO.P,C11,2*%
%TO.N,/XTAL1*%
X168067233Y-93042233D03*
%TD*%
D37*
%TO.P,J2,1,Pin_1*%
%TO.N,MOSI*%
X155682233Y-112727233D03*
D38*
%TO.P,J2,2,Pin_2*%
%TO.N,+3V3*%
X155682233Y-110187233D03*
%TO.P,J2,3,Pin_3*%
%TO.N,CLK*%
X158222233Y-112727233D03*
%TO.P,J2,4,Pin_4*%
%TO.N,MISO*%
X158222233Y-110187233D03*
%TO.P,J2,5,Pin_5*%
%TO.N,RESET*%
X160762233Y-112727233D03*
%TO.P,J2,6,Pin_6*%
%TO.N,GND*%
X160762233Y-110187233D03*
%TD*%
D10*
%TO.P,C8,1*%
%TO.N,+12V*%
X145842233Y-93091000D03*
%TO.P,C8,2*%
%TO.N,GND*%
X147742233Y-93091000D03*
%TD*%
D39*
%TO.P,U6,1,32KHZ*%
%TO.N,unconnected-(U6-Pad1)*%
X183622233Y-89932233D03*
%TO.P,U6,2,VCC*%
%TO.N,+3V3*%
X182352233Y-89932233D03*
%TO.P,U6,3,~{INT}/SQW*%
%TO.N,unconnected-(U6-Pad3)*%
X181082233Y-89932233D03*
%TO.P,U6,4,~{RST}*%
%TO.N,unconnected-(U6-Pad4)*%
X179812233Y-89932233D03*
%TO.P,U6,5,GND*%
%TO.N,GND*%
X179812233Y-94882233D03*
%TO.P,U6,6,VBAT*%
%TO.N,Net-(BAT1-PadPos)*%
X181082233Y-94882233D03*
%TO.P,U6,7,SDA*%
%TO.N,SDA*%
X182352233Y-94882233D03*
%TO.P,U6,8,SCL*%
%TO.N,SCL*%
X183622233Y-94882233D03*
%TD*%
D40*
%TO.P,Y1,1,1*%
%TO.N,/XTAL1*%
X163212233Y-93042233D03*
%TO.P,Y1,2,2*%
%TO.N,/XTAL2*%
X158332233Y-93042233D03*
%TD*%
D22*
%TO.P,R16,1*%
%TO.N,HOUR_SET*%
X177907233Y-102209733D03*
%TO.P,R16,2*%
%TO.N,GND*%
X177907233Y-100384733D03*
%TD*%
D20*
%TO.P,R13,1*%
%TO.N,+3V3*%
X167389733Y-112727233D03*
%TO.P,R13,2*%
%TO.N,RESET*%
X165564733Y-112727233D03*
%TD*%
D15*
%TO.P,C16,1*%
%TO.N,+3V3*%
X182667233Y-86057233D03*
%TO.P,C16,2*%
%TO.N,GND*%
X180767233Y-86057233D03*
%TD*%
D41*
%TO.P,C13,1*%
%TO.N,+170VDC*%
X124567233Y-83592233D03*
%TO.P,C13,2*%
%TO.N,GND*%
X124567233Y-92292233D03*
%TD*%
D37*
%TO.P,J3,1,Pin_1*%
%TO.N,+170VDC*%
X116312233Y-82882233D03*
D38*
%TO.P,J3,2,Pin_2*%
%TO.N,GND*%
X116312233Y-85422233D03*
%TO.P,J3,3,Pin_3*%
%TO.N,CONFIG*%
X116312233Y-87962233D03*
%TO.P,J3,4,Pin_4*%
%TO.N,+12V*%
X116312233Y-90502233D03*
%TO.P,J3,5,Pin_5*%
%TO.N,POLARITY_COND*%
X116312233Y-93042233D03*
%TO.P,J3,6,Pin_6*%
%TO.N,SHIFT_CLK_COND*%
X116312233Y-95582233D03*
%TO.P,J3,7,Pin_7*%
%TO.N,LATCH_EN_COND*%
X116312233Y-98122233D03*
%TO.P,J3,8,Pin_8*%
%TO.N,DATA_IN_COND*%
X116312233Y-100662233D03*
%TO.P,J3,9,Pin_9*%
%TO.N,BLANKING_COND*%
X116312233Y-103202233D03*
%TO.P,J3,10,Pin_10*%
%TO.N,GND*%
X116312233Y-105742233D03*
%TD*%
D22*
%TO.P,R2,2*%
%TO.N,GND*%
X160020000Y-81264733D03*
%TO.P,R2,1*%
%TO.N,/VBUS_MAX*%
X160020000Y-83089733D03*
%TD*%
D42*
%TO.P,C14,1*%
%TO.N,+170VDC*%
X135128000Y-73472000D03*
%TO.P,C14,2*%
%TO.N,FB*%
X135128000Y-75372000D03*
%TD*%
D15*
%TO.P,C9,1*%
%TO.N,GND*%
X147742233Y-90551000D03*
%TO.P,C9,2*%
%TO.N,+12V*%
X145842233Y-90551000D03*
%TD*%
D43*
%TO.P,BAT1,Neg*%
%TO.N,GND*%
X172827233Y-93677233D03*
D44*
%TO.P,BAT1,Pos*%
%TO.N,Net-(BAT1-PadPos)*%
X172827233Y-113677233D03*
%TD*%
D45*
%TO.N,GND*%
X124460000Y-95250000D03*
%TO.N,/VBUS*%
X154940000Y-88265000D03*
X153670000Y-88265000D03*
X152400000Y-88265000D03*
%TO.N,GND*%
X170053000Y-106299000D03*
X149733000Y-97409000D03*
X121920000Y-109220000D03*
X175895000Y-96520000D03*
X146685000Y-99695000D03*
X184785000Y-105410000D03*
X134620000Y-78105000D03*
X139827000Y-100965000D03*
X167005000Y-72390000D03*
X162433000Y-89027000D03*
X158115000Y-99695000D03*
X147701000Y-93345000D03*
X132080000Y-72390000D03*
X137160000Y-83820000D03*
X128270000Y-81280000D03*
X132080000Y-112395000D03*
X156210000Y-72390000D03*
X121920000Y-112395000D03*
X132991517Y-99997767D03*
X179197000Y-72517000D03*
X162560000Y-79756000D03*
X179451000Y-107950000D03*
X179832000Y-96774000D03*
X163576000Y-72644000D03*
X173355000Y-110490000D03*
X150495000Y-85090000D03*
X151003000Y-91694000D03*
X124587000Y-89154000D03*
X144145000Y-83185000D03*
X178435000Y-113665000D03*
X128270000Y-95885000D03*
X184785000Y-92075000D03*
X144018000Y-112776000D03*
X156845000Y-88265000D03*
X148590000Y-74930000D03*
X121920000Y-72390000D03*
X146685000Y-106680000D03*
X153035000Y-76835000D03*
X168783000Y-86106000D03*
X132080000Y-109220000D03*
X179578000Y-100076000D03*
X137033000Y-112776000D03*
X168910000Y-103505000D03*
X179324000Y-86106000D03*
%TO.N,Net-(BAT1-PadPos)*%
X181102000Y-96774000D03*
%TO.N,+3V3*%
X181991000Y-84455000D03*
X166751000Y-86868000D03*
X171196000Y-95885000D03*
X142748000Y-103886000D03*
X177165000Y-91694000D03*
X171196000Y-80137000D03*
X167767000Y-81153000D03*
%TO.N,+12V*%
X172481733Y-86741000D03*
X159131000Y-76200000D03*
X148844000Y-78359000D03*
X146812000Y-95504000D03*
%TO.N,CLK*%
X167513000Y-109982000D03*
%TO.N,RESET*%
X171323000Y-101600000D03*
%TO.N,SHIFT_CLK_COND*%
X138557000Y-106680000D03*
X133096000Y-105156000D03*
%TO.N,CONFIG*%
X169926000Y-101346000D03*
%TO.N,/VBUS_FET_EN*%
X166370000Y-79375000D03*
X168275000Y-83820000D03*
%TO.N,SCL*%
X183515000Y-97155000D03*
X175260000Y-102235000D03*
%TO.N,SHDN*%
X161036000Y-97536000D03*
X171196000Y-106172000D03*
%TO.N,/CC1*%
X176530000Y-83185000D03*
X179070000Y-83185000D03*
%TO.N,DATA_IN*%
X154432000Y-106680000D03*
X137668000Y-110236000D03*
%TO.N,/VBUS*%
X176530000Y-78232000D03*
%TD*%
D46*
%TO.N,GND*%
X124567233Y-95142767D02*
X124460000Y-95250000D01*
X124567233Y-92292233D02*
X124567233Y-95142767D01*
D47*
%TO.N,+12V*%
X146812000Y-95377000D02*
X145842233Y-94407233D01*
X145842233Y-94407233D02*
X145842233Y-93091000D01*
X146812000Y-95504000D02*
X146812000Y-95377000D01*
D48*
X143617233Y-88326000D02*
X145842233Y-90551000D01*
X143617233Y-86776000D02*
X143617233Y-88326000D01*
D47*
%TO.N,/VBUS*%
X153670000Y-88265000D02*
X154940000Y-88265000D01*
X152654000Y-88265000D02*
X153670000Y-88265000D01*
D49*
%TO.N,GND*%
X171187233Y-75897233D02*
X171187233Y-78437233D01*
D48*
X169967233Y-93042233D02*
X172192233Y-93042233D01*
X172757233Y-81594733D02*
X172757233Y-80607767D01*
X173727767Y-79637233D02*
X174687233Y-79637233D01*
D46*
X144252233Y-78486000D02*
X144252233Y-79521767D01*
X144145000Y-83185000D02*
X144145000Y-82153767D01*
D48*
X150922233Y-91774767D02*
X151003000Y-91694000D01*
D49*
X163622233Y-72690233D02*
X163576000Y-72644000D01*
D48*
X149811233Y-97487233D02*
X149733000Y-97409000D01*
X174687233Y-78931767D02*
X176407233Y-77211767D01*
X181907233Y-74592233D02*
X181907233Y-75952233D01*
D49*
X162560000Y-88900000D02*
X162433000Y-89027000D01*
D48*
X168067233Y-95885000D02*
X168067233Y-94942233D01*
D49*
X149479000Y-74041000D02*
X148590000Y-74930000D01*
X171187233Y-73357233D02*
X171187233Y-75897233D01*
X169569733Y-85319267D02*
X168783000Y-86106000D01*
D48*
X144066767Y-112727233D02*
X144018000Y-112776000D01*
D46*
X124567233Y-89173767D02*
X124587000Y-89154000D01*
D49*
X149479000Y-73406000D02*
X149479000Y-74041000D01*
X170217233Y-106463233D02*
X170053000Y-106299000D01*
D48*
X150959733Y-97487233D02*
X149811233Y-97487233D01*
D49*
X162560000Y-87604733D02*
X162560000Y-88900000D01*
D48*
X176407233Y-77211767D02*
X176407233Y-75952233D01*
X139824767Y-100967233D02*
X139827000Y-100965000D01*
D49*
X171528233Y-78437233D02*
X173228000Y-80137000D01*
D48*
X147742233Y-93303767D02*
X147742233Y-90551000D01*
D49*
X178841267Y-108559733D02*
X179451000Y-107950000D01*
D48*
X166217233Y-99537233D02*
X166217233Y-97942767D01*
D49*
X171257233Y-81594733D02*
X171257233Y-83282233D01*
D48*
X173228000Y-80137000D02*
X173727767Y-79637233D01*
D49*
X179269267Y-100384733D02*
X179578000Y-100076000D01*
X179372767Y-86057233D02*
X179324000Y-86106000D01*
D48*
X176407233Y-74417767D02*
X177204520Y-73620480D01*
X168067233Y-94942233D02*
X169967233Y-93042233D01*
X176407233Y-75952233D02*
X176407233Y-74417767D01*
D46*
X144145000Y-82153767D02*
X143617233Y-81626000D01*
X144252233Y-79521767D02*
X143617233Y-80156767D01*
D48*
X162560000Y-81264733D02*
X162560000Y-79756000D01*
D49*
X180767233Y-86057233D02*
X179372767Y-86057233D01*
X170217233Y-108137233D02*
X170217233Y-106463233D01*
D46*
X144145000Y-82368233D02*
X144887233Y-81626000D01*
X124567233Y-92292233D02*
X124567233Y-89173767D01*
D48*
X180935480Y-73620480D02*
X181907233Y-74592233D01*
X160020000Y-81264733D02*
X162560000Y-81264733D01*
X146157233Y-112727233D02*
X144066767Y-112727233D01*
D46*
X144145000Y-83185000D02*
X144145000Y-82368233D01*
D48*
X135327233Y-112727233D02*
X136984233Y-112727233D01*
D49*
X171257233Y-83282233D02*
X171507233Y-83532233D01*
D48*
X138537233Y-100967233D02*
X139824767Y-100967233D01*
X179157480Y-72556520D02*
X179197000Y-72517000D01*
D49*
X170307713Y-84731753D02*
X171507233Y-83532233D01*
D48*
X150922233Y-93042233D02*
X150922233Y-91774767D01*
D49*
X179812233Y-96754233D02*
X179832000Y-96774000D01*
X177907233Y-100384733D02*
X179269267Y-100384733D01*
D48*
X168067233Y-96092767D02*
X168067233Y-95885000D01*
X179157480Y-73620480D02*
X179157480Y-72556520D01*
D49*
X169620213Y-84731753D02*
X170307713Y-84731753D01*
D48*
X147701000Y-93345000D02*
X147742233Y-93303767D01*
D49*
X169569733Y-84782233D02*
X169569733Y-85319267D01*
D48*
X179157480Y-73620480D02*
X180935480Y-73620480D01*
D49*
X177907233Y-108559733D02*
X178841267Y-108559733D01*
D48*
X177204520Y-73620480D02*
X179157480Y-73620480D01*
D49*
X171187233Y-78437233D02*
X171528233Y-78437233D01*
X179812233Y-94882233D02*
X179812233Y-96754233D01*
D48*
X131725250Y-99949000D02*
X132942750Y-99949000D01*
D49*
X163622233Y-74627233D02*
X163622233Y-72690233D01*
D46*
X140866500Y-78486000D02*
X144252233Y-78486000D01*
D48*
X166217233Y-97942767D02*
X168067233Y-96092767D01*
D49*
X169569733Y-84782233D02*
X169620213Y-84731753D01*
D46*
X143617233Y-80156767D02*
X143617233Y-81626000D01*
D48*
X172757233Y-80607767D02*
X173228000Y-80137000D01*
X174687233Y-79637233D02*
X174687233Y-78931767D01*
X136984233Y-112727233D02*
X137033000Y-112776000D01*
X172192233Y-93042233D02*
X172827233Y-93677233D01*
D49*
%TO.N,Net-(BAT1-PadPos)*%
X181102000Y-96774000D02*
X181102000Y-94902000D01*
X181102000Y-94902000D02*
X181082233Y-94882233D01*
D48*
%TO.N,+3V3*%
X183152767Y-101327233D02*
X180717233Y-101327233D01*
D49*
X170688000Y-80137000D02*
X171196000Y-80137000D01*
X170757233Y-81594733D02*
X170757233Y-80587233D01*
D48*
X168617233Y-110147767D02*
X168617233Y-108137233D01*
X169287233Y-75897233D02*
X169287233Y-78437233D01*
X167389733Y-111375267D02*
X168617233Y-110147767D01*
X167389733Y-112727233D02*
X167389733Y-111375267D01*
X165100000Y-90170000D02*
X170261966Y-90170000D01*
X182352233Y-89932233D02*
X182352233Y-91547233D01*
X183152767Y-101327233D02*
X182880000Y-101600000D01*
D49*
X171196000Y-95885000D02*
X169967233Y-95885000D01*
X155682233Y-110187233D02*
X153142233Y-110187233D01*
D48*
X170287233Y-90144733D02*
X173990000Y-90144733D01*
D49*
X140526000Y-103886000D02*
X140477233Y-103837233D01*
D48*
X168910000Y-97790000D02*
X169967233Y-96732767D01*
X167017233Y-104279233D02*
X168617233Y-105879233D01*
X182352233Y-87522767D02*
X182667233Y-87207767D01*
D49*
X165211733Y-81153000D02*
X165100000Y-81264733D01*
X170757233Y-80587233D02*
X170497500Y-80327500D01*
D48*
X184785000Y-93980000D02*
X184785000Y-99695000D01*
D49*
X181991000Y-84455000D02*
X182667233Y-85131233D01*
D48*
X169967233Y-96732767D02*
X169967233Y-95885000D01*
X182352233Y-89932233D02*
X182352233Y-87522767D01*
X169287233Y-73357233D02*
X169287233Y-75897233D01*
D49*
X170497500Y-80327500D02*
X170688000Y-80137000D01*
D48*
X167640000Y-97790000D02*
X168910000Y-97790000D01*
X184785000Y-99695000D02*
X183152767Y-101327233D01*
X167017233Y-98412767D02*
X167640000Y-97790000D01*
D49*
X166751000Y-86868000D02*
X166014267Y-87604733D01*
D48*
X160020000Y-87604733D02*
X160020000Y-89281000D01*
D49*
X182667233Y-85131233D02*
X182667233Y-86057233D01*
D48*
X167017233Y-99537233D02*
X167017233Y-98412767D01*
D49*
X169287233Y-79117233D02*
X169287233Y-78437233D01*
D48*
X182352233Y-91547233D02*
X184785000Y-93980000D01*
X167017233Y-99537233D02*
X167017233Y-104279233D01*
X160020000Y-89281000D02*
X160909000Y-90170000D01*
D49*
X170497500Y-80327500D02*
X169287233Y-79117233D01*
X166014267Y-87604733D02*
X165100000Y-87604733D01*
X167767000Y-81153000D02*
X165211733Y-81153000D01*
X142748000Y-103886000D02*
X140526000Y-103886000D01*
D48*
X160909000Y-90170000D02*
X165100000Y-90170000D01*
X181922767Y-103827233D02*
X180717233Y-103827233D01*
X165100000Y-87604733D02*
X165100000Y-90170000D01*
X182880000Y-102870000D02*
X181922767Y-103827233D01*
X182667233Y-87207767D02*
X182667233Y-86057233D01*
D49*
X153142233Y-110187233D02*
X150602233Y-112727233D01*
D48*
X182880000Y-101600000D02*
X182880000Y-102870000D01*
X168617233Y-105879233D02*
X168617233Y-108137233D01*
D49*
X177165000Y-91694000D02*
X177165000Y-90144733D01*
%TO.N,Net-(C4-Pad2)*%
X163609733Y-77802233D02*
X160989733Y-77802233D01*
X154042233Y-84119733D02*
X154004733Y-84082233D01*
X154004733Y-84082233D02*
X154677767Y-84082233D01*
X161027233Y-74627233D02*
X161027233Y-77764733D01*
X154042233Y-86622233D02*
X154042233Y-84119733D01*
X161027233Y-77764733D02*
X160989733Y-77802233D01*
X160020000Y-79375000D02*
X160989733Y-78405267D01*
X160989733Y-78405267D02*
X160989733Y-77802233D01*
X159385000Y-79375000D02*
X160020000Y-79375000D01*
X154677767Y-84082233D02*
X159385000Y-79375000D01*
%TO.N,Net-(C6-Pad1)*%
X165522233Y-74627233D02*
X165522233Y-74717233D01*
X165522233Y-74717233D02*
X167640000Y-76835000D01*
X170257233Y-81357233D02*
X170257233Y-81594733D01*
X167640000Y-79375000D02*
X168275000Y-80010000D01*
X168275000Y-80010000D02*
X168910000Y-80010000D01*
X168910000Y-80010000D02*
X170257233Y-81357233D01*
X167640000Y-76835000D02*
X167640000Y-79375000D01*
D46*
%TO.N,+12V*%
X124968000Y-98298000D02*
X137160000Y-98298000D01*
X137160000Y-98806000D02*
X136637233Y-99328767D01*
D47*
X149400767Y-77802233D02*
X150617233Y-77802233D01*
D46*
X136637233Y-102527233D02*
X135327233Y-103837233D01*
D48*
X159127233Y-74627233D02*
X159127233Y-76196233D01*
D46*
X137160000Y-98298000D02*
X137160000Y-98806000D01*
D47*
X148844000Y-77216000D02*
X148844000Y-78359000D01*
D48*
X150617233Y-75188767D02*
X150617233Y-76532233D01*
D49*
X172481733Y-86375733D02*
X172257233Y-86151233D01*
D48*
X124820250Y-99949000D02*
X124820250Y-98445750D01*
D46*
X136637233Y-100967233D02*
X136637233Y-102527233D01*
D48*
X153142233Y-73357233D02*
X152448767Y-73357233D01*
X152448767Y-73357233D02*
X150617233Y-75188767D01*
X124820250Y-98445750D02*
X124968000Y-98298000D01*
D49*
X172257233Y-86151233D02*
X172257233Y-85469733D01*
D47*
X150617233Y-76532233D02*
X149527767Y-76532233D01*
D46*
X145842233Y-93091000D02*
X145842233Y-94695767D01*
X136637233Y-99328767D02*
X136637233Y-100967233D01*
X141952233Y-91967233D02*
X143087233Y-91967233D01*
X124108000Y-98298000D02*
X124968000Y-98298000D01*
X116312233Y-90502233D02*
X124108000Y-98298000D01*
D48*
X150617233Y-76532233D02*
X150617233Y-77802233D01*
D46*
X142240000Y-98298000D02*
X137160000Y-98298000D01*
D48*
X159127233Y-76196233D02*
X159131000Y-76200000D01*
D47*
X148844000Y-78359000D02*
X149400767Y-77802233D01*
D48*
X153142233Y-73357233D02*
X157857233Y-73357233D01*
D47*
X149527767Y-76532233D02*
X148844000Y-77216000D01*
D49*
X172481733Y-86741000D02*
X172481733Y-86375733D01*
D46*
X145842233Y-94695767D02*
X142240000Y-98298000D01*
D48*
X157857233Y-73357233D02*
X159127233Y-74627233D01*
D49*
%TO.N,Net-(C10-Pad1)*%
X146157233Y-78491000D02*
X146152233Y-78486000D01*
X146157233Y-81626000D02*
X146157233Y-78491000D01*
D46*
%TO.N,+170VDC*%
X123857233Y-82882233D02*
X121079767Y-82882233D01*
X124567233Y-83592233D02*
X125485000Y-82674466D01*
D49*
X137663500Y-73472000D02*
X138176000Y-72959500D01*
X129356000Y-73472000D02*
X125485000Y-77343000D01*
D46*
X121158000Y-79502000D02*
X121158000Y-82804000D01*
X121079767Y-82882233D02*
X116312233Y-82882233D01*
D49*
X135128000Y-73472000D02*
X129356000Y-73472000D01*
X135128000Y-73472000D02*
X137663500Y-73472000D01*
D46*
X124567233Y-83592233D02*
X123857233Y-82882233D01*
X121158000Y-82804000D02*
X121079767Y-82882233D01*
X125485000Y-82674466D02*
X125485000Y-77343000D01*
D49*
%TO.N,FB*%
X145522000Y-75418000D02*
X147574000Y-77470000D01*
X144493500Y-75884500D02*
X144960000Y-75418000D01*
X144887233Y-85744767D02*
X144887233Y-86776000D01*
X147574000Y-83058000D02*
X144887233Y-85744767D01*
X144960000Y-75418000D02*
X145522000Y-75418000D01*
X138176000Y-75884500D02*
X144493500Y-75884500D01*
X147574000Y-77470000D02*
X147574000Y-83058000D01*
X135128000Y-75372000D02*
X137663500Y-75372000D01*
X137663500Y-75372000D02*
X138176000Y-75884500D01*
%TO.N,HOUR_SET*%
X173317233Y-105837233D02*
X175467767Y-105837233D01*
X178274733Y-102577233D02*
X177907233Y-102209733D01*
X180717233Y-102577233D02*
X178274733Y-102577233D01*
X175467767Y-105837233D02*
X177907233Y-103397767D01*
X177907233Y-103397767D02*
X177907233Y-102209733D01*
%TO.N,MINUTE_SET*%
X173317233Y-106637233D02*
X177809733Y-106637233D01*
X177907233Y-106734733D02*
X179564733Y-105077233D01*
X177809733Y-106637233D02*
X177907233Y-106734733D01*
X179564733Y-105077233D02*
X180717233Y-105077233D01*
%TO.N,MOSI*%
X157800767Y-108137233D02*
X166217233Y-108137233D01*
X155682233Y-112727233D02*
X156972000Y-111437466D01*
X156972000Y-108966000D02*
X157800767Y-108137233D01*
X156972000Y-111437466D02*
X156972000Y-108966000D01*
%TO.N,CLK*%
X167817233Y-109296767D02*
X167817233Y-108137233D01*
X167513000Y-109601000D02*
X167817233Y-109296767D01*
X167513000Y-109982000D02*
X167513000Y-109601000D01*
%TO.N,MISO*%
X165726386Y-110744000D02*
X167017233Y-109453153D01*
X158222233Y-110187233D02*
X159697466Y-108712000D01*
X163703000Y-110744000D02*
X165726386Y-110744000D01*
X161671000Y-108712000D02*
X163703000Y-110744000D01*
X159697466Y-108712000D02*
X161671000Y-108712000D01*
X167017233Y-109453153D02*
X167017233Y-108137233D01*
%TO.N,RESET*%
X171323000Y-101219000D02*
X171831000Y-100711000D01*
X171323000Y-101600000D02*
X171323000Y-101219000D01*
X171817233Y-100697233D02*
X171817233Y-99537233D01*
X171831000Y-100711000D02*
X171817233Y-100697233D01*
X160762233Y-112727233D02*
X165564733Y-112727233D01*
%TO.N,DATA_IN_COND*%
X116312233Y-100662233D02*
X117172233Y-100662233D01*
X126697233Y-110187233D02*
X135327233Y-110187233D01*
X117172233Y-100662233D02*
X126697233Y-110187233D01*
%TO.N,SHIFT_CLK_COND*%
X125886000Y-105156000D02*
X116312233Y-95582233D01*
X140477233Y-107647233D02*
X139524233Y-107647233D01*
X139524233Y-107647233D02*
X138557000Y-106680000D01*
X133096000Y-105156000D02*
X125886000Y-105156000D01*
%TO.N,LATCH_EN_COND*%
X116664233Y-98122233D02*
X124919233Y-106377233D01*
X124919233Y-106377233D02*
X135327233Y-106377233D01*
X116312233Y-98122233D02*
X116664233Y-98122233D01*
%TO.N,BLANKING_COND*%
X137287000Y-114173000D02*
X140002767Y-111457233D01*
X117934233Y-103202233D02*
X128905000Y-114173000D01*
X116312233Y-103202233D02*
X117934233Y-103202233D01*
X128905000Y-114173000D02*
X137287000Y-114173000D01*
X140002767Y-111457233D02*
X140477233Y-111457233D01*
%TO.N,CONFIG*%
X169926000Y-101346000D02*
X171017233Y-100254767D01*
X171017233Y-100254767D02*
X171017233Y-99537233D01*
%TO.N,POLARITY_COND*%
X126645250Y-99949000D02*
X129900250Y-99949000D01*
X126645250Y-101446750D02*
X126645250Y-99949000D01*
X116312233Y-93325233D02*
X124714000Y-101727000D01*
X126365000Y-101727000D02*
X126645250Y-101446750D01*
X116312233Y-93042233D02*
X116312233Y-93325233D01*
X124714000Y-101727000D02*
X126365000Y-101727000D01*
%TO.N,Net-(Q1-Pad1)*%
X153972767Y-77802233D02*
X153670000Y-78105000D01*
X155567233Y-77802233D02*
X153972767Y-77802233D01*
X153670000Y-78105000D02*
X153670000Y-80010000D01*
X154002233Y-80342233D02*
X155567233Y-80342233D01*
X153670000Y-80010000D02*
X154002233Y-80342233D01*
%TO.N,Net-(Q1-Pad2)*%
X159164733Y-77802233D02*
X157894733Y-76532233D01*
X157894733Y-76532233D02*
X155567233Y-76532233D01*
X157894733Y-79072233D02*
X159164733Y-77802233D01*
X155567233Y-79072233D02*
X157894733Y-79072233D01*
D46*
%TO.N,Net-(Q2-Pad3)*%
X138897233Y-78630267D02*
X139041500Y-78486000D01*
X142347233Y-81626000D02*
X139172233Y-81626000D01*
X139172233Y-81626000D02*
X138897233Y-81901000D01*
X138897233Y-81901000D02*
X138897233Y-78630267D01*
D49*
%TO.N,/VBUS_MAX*%
X166370000Y-84455000D02*
X168042767Y-82782233D01*
X160020000Y-84455000D02*
X166370000Y-84455000D01*
X160020000Y-83089733D02*
X160020000Y-84455000D01*
X160020000Y-84455000D02*
X160020000Y-85779733D01*
X168042767Y-82782233D02*
X169569733Y-82782233D01*
%TO.N,/VBUS_MIN*%
X165907500Y-82282233D02*
X169569733Y-82282233D01*
X162560000Y-83089733D02*
X165100000Y-83089733D01*
X165100000Y-83089733D02*
X165907500Y-82282233D01*
%TO.N,/ISNK_COURSE*%
X165100000Y-85779733D02*
X167612405Y-85779733D01*
X162560000Y-85779733D02*
X165100000Y-85779733D01*
X167612405Y-85779733D02*
X169109905Y-84282233D01*
X169109905Y-84282233D02*
X169569733Y-84282233D01*
%TO.N,/VBUS_FET_EN*%
X166370000Y-78737500D02*
X165434733Y-77802233D01*
X166370000Y-79375000D02*
X166370000Y-78737500D01*
X168812767Y-83282233D02*
X168275000Y-83820000D01*
X169569733Y-83282233D02*
X168812767Y-83282233D01*
%TO.N,SDA*%
X180975000Y-98425000D02*
X182352233Y-97047767D01*
X182352233Y-93960233D02*
X182352233Y-94882233D01*
X176911000Y-92583000D02*
X180975000Y-92583000D01*
X175641000Y-91313000D02*
X176911000Y-92583000D01*
X174362767Y-105037233D02*
X176530000Y-102870000D01*
X173990000Y-86995000D02*
X173990000Y-88319733D01*
X172757233Y-85469733D02*
X172757233Y-85762233D01*
X182352233Y-97047767D02*
X182352233Y-94882233D01*
X176530000Y-99695000D02*
X177800000Y-98425000D01*
X176530000Y-102870000D02*
X176530000Y-99695000D01*
X177800000Y-98425000D02*
X180975000Y-98425000D01*
X175641000Y-89281000D02*
X175641000Y-91313000D01*
X173990000Y-88319733D02*
X174679733Y-88319733D01*
X172757233Y-85762233D02*
X173990000Y-86995000D01*
X174679733Y-88319733D02*
X175641000Y-89281000D01*
X180975000Y-92583000D02*
X182352233Y-93960233D01*
X173317233Y-105037233D02*
X174362767Y-105037233D01*
%TO.N,SCL*%
X174527049Y-104237233D02*
X175259641Y-103504641D01*
X178435000Y-91186000D02*
X179324000Y-92075000D01*
X177165000Y-88319733D02*
X178435000Y-89589733D01*
X183515000Y-94989466D02*
X183622233Y-94882233D01*
X178435000Y-89589733D02*
X178435000Y-91186000D01*
X183622233Y-93960233D02*
X183622233Y-94882233D01*
X175259641Y-103504641D02*
X175260000Y-103504282D01*
X179324000Y-92075000D02*
X181737000Y-92075000D01*
X183515000Y-97155000D02*
X183515000Y-94989466D01*
X177165000Y-87630000D02*
X177165000Y-88319733D01*
X173444733Y-84782233D02*
X174317233Y-84782233D01*
X181737000Y-92075000D02*
X183622233Y-93960233D01*
X173317233Y-104237233D02*
X174527049Y-104237233D01*
X174317233Y-84782233D02*
X177165000Y-87630000D01*
X175260000Y-103504282D02*
X175260000Y-102235000D01*
%TO.N,SHDN*%
X171069000Y-106807000D02*
X171017233Y-106858767D01*
X160987233Y-97487233D02*
X161036000Y-97536000D01*
X152784733Y-97285733D02*
X152784733Y-97487233D01*
X171017233Y-106858767D02*
X171017233Y-108137233D01*
X171196000Y-106172000D02*
X171069000Y-106299000D01*
X149352000Y-93853000D02*
X152784733Y-97285733D01*
X171069000Y-106299000D02*
X171069000Y-106807000D01*
X149352000Y-88392000D02*
X149352000Y-93853000D01*
X152784733Y-97487233D02*
X160987233Y-97487233D01*
X149352000Y-88392000D02*
X147736000Y-86776000D01*
X147736000Y-86776000D02*
X146157233Y-86776000D01*
%TO.N,Net-(R21-Pad1)*%
X143744000Y-72918000D02*
X144960000Y-72918000D01*
X147166000Y-72918000D02*
X147654000Y-73406000D01*
X142494000Y-74168000D02*
X143744000Y-72918000D01*
X144960000Y-72918000D02*
X147166000Y-72918000D01*
X142060000Y-74168000D02*
X142494000Y-74168000D01*
%TO.N,/CC1*%
X176530000Y-83185000D02*
X175932767Y-83782233D01*
X179657233Y-75952233D02*
X179657233Y-82597767D01*
X179657233Y-82597767D02*
X179070000Y-83185000D01*
X175932767Y-83782233D02*
X173444733Y-83782233D01*
%TO.N,/CC2*%
X178657233Y-75952233D02*
X178657233Y-82327767D01*
X176702767Y-84282233D02*
X173444733Y-84282233D01*
X178657233Y-82327767D02*
X176702767Y-84282233D01*
%TO.N,LATCH_EN*%
X137033000Y-106807000D02*
X136192767Y-107647233D01*
X164717233Y-103437233D02*
X146236233Y-103437233D01*
X136192767Y-107647233D02*
X135327233Y-107647233D01*
X138684000Y-102616000D02*
X137033000Y-104267000D01*
X146236233Y-103437233D02*
X145415000Y-102616000D01*
X137033000Y-104267000D02*
X137033000Y-106807000D01*
X145415000Y-102616000D02*
X138684000Y-102616000D01*
%TO.N,OE*%
X164717233Y-104237233D02*
X146206767Y-104237233D01*
X145336767Y-105107233D02*
X140477233Y-105107233D01*
X146206767Y-104237233D02*
X145336767Y-105107233D01*
%TO.N,SHIFT_CLK*%
X149527767Y-108917233D02*
X140477233Y-108917233D01*
X164717233Y-105037233D02*
X153407767Y-105037233D01*
X153407767Y-105037233D02*
X149527767Y-108917233D01*
%TO.N,BLANKING*%
X149654767Y-110187233D02*
X140477233Y-110187233D01*
X164717233Y-105837233D02*
X154004767Y-105837233D01*
X154004767Y-105837233D02*
X149654767Y-110187233D01*
%TO.N,DATA_IN*%
X137668000Y-110236000D02*
X136349233Y-108917233D01*
X136349233Y-108917233D02*
X135327233Y-108917233D01*
X154474767Y-106637233D02*
X154432000Y-106680000D01*
X164717233Y-106637233D02*
X154474767Y-106637233D01*
D46*
%TO.N,/VBUS*%
X152146000Y-86626000D02*
X152142233Y-86622233D01*
D49*
X176587233Y-80587767D02*
X176587233Y-79637233D01*
D46*
X177637233Y-75092767D02*
X178435000Y-74295000D01*
D49*
X174892767Y-82282233D02*
X173444733Y-82282233D01*
X174892767Y-82282233D02*
X176587233Y-80587767D01*
D46*
X178435000Y-74295000D02*
X180049022Y-74295000D01*
X177637233Y-75952233D02*
X177637233Y-75092767D01*
X152179733Y-86584733D02*
X152142233Y-86622233D01*
X177637233Y-78587233D02*
X176587233Y-79637233D01*
X180677233Y-74923211D02*
X180677233Y-75952233D01*
D47*
X152146000Y-87757000D02*
X152146000Y-86626000D01*
D46*
X180677233Y-75952233D02*
X180677233Y-78667233D01*
X180049022Y-74295000D02*
X180677233Y-74923211D01*
D47*
X150617233Y-79072233D02*
X150617233Y-80342233D01*
X152179733Y-84082233D02*
X152179733Y-86584733D01*
D46*
X176587233Y-78289233D02*
X176530000Y-78232000D01*
D47*
X150617233Y-82519733D02*
X152179733Y-84082233D01*
X152654000Y-88265000D02*
X152146000Y-87757000D01*
X150617233Y-80342233D02*
X150617233Y-82519733D01*
D46*
X177637233Y-75952233D02*
X177637233Y-78587233D01*
D47*
X176587233Y-79637233D02*
X176587233Y-78289233D01*
D46*
X180677233Y-78667233D02*
X182987233Y-80977233D01*
D49*
%TO.N,/XTAL1*%
X163212233Y-100347233D02*
X163902233Y-101037233D01*
X163902233Y-101037233D02*
X164717233Y-101037233D01*
X163212233Y-93042233D02*
X163212233Y-100347233D01*
X163212233Y-93042233D02*
X168067233Y-93042233D01*
%TO.N,/XTAL2*%
X152822233Y-93042233D02*
X158332233Y-93042233D01*
X163432233Y-101837233D02*
X162560000Y-100965000D01*
X162560000Y-94615000D02*
X160987233Y-93042233D01*
X160987233Y-93042233D02*
X158332233Y-93042233D01*
X162560000Y-100965000D02*
X162560000Y-94615000D01*
X164717233Y-101837233D02*
X163432233Y-101837233D01*
%TO.N,/FLIP*%
X170287233Y-88319733D02*
X171757233Y-86849733D01*
X171757233Y-86849733D02*
X171757233Y-85469733D01*
%TD*%
%TA.AperFunction,Conductor*%
%TO.N,Net-(Q2-Pad1)*%
G36*
X142817436Y-85618002D02*
G01*
X142863929Y-85671658D01*
X142874033Y-85741932D01*
X142864951Y-85774044D01*
X142862127Y-85780570D01*
X142858088Y-85787399D01*
X142811671Y-85947169D01*
X142808733Y-85984498D01*
X142808733Y-87567502D01*
X142811671Y-87604831D01*
X142858088Y-87764601D01*
X142891362Y-87820863D01*
X142908820Y-87889677D01*
X142886303Y-87957008D01*
X142830959Y-88001478D01*
X142782907Y-88011000D01*
X137413000Y-88011000D01*
X137344879Y-87990998D01*
X137298386Y-87937342D01*
X137287000Y-87885000D01*
X137287000Y-85724000D01*
X137307002Y-85655879D01*
X137360658Y-85609386D01*
X137413000Y-85598000D01*
X142749315Y-85598000D01*
X142817436Y-85618002D01*
G37*
%TD.AperFunction*%
%TD*%
%TA.AperFunction,Conductor*%
%TO.N,Net-(D1-Pad2)*%
G36*
X134481746Y-82280674D02*
G01*
X134493000Y-82332726D01*
X134493000Y-90873767D01*
X136091810Y-90873767D01*
X136159931Y-90893769D01*
X136180905Y-90910672D01*
X136361095Y-91090862D01*
X136395121Y-91153174D01*
X136398000Y-91179957D01*
X136398000Y-95393577D01*
X136377998Y-95461698D01*
X136361095Y-95482672D01*
X136180905Y-95662862D01*
X136118593Y-95696888D01*
X136091810Y-95699767D01*
X131444000Y-95699767D01*
X131375879Y-95679765D01*
X131329386Y-95626109D01*
X131318000Y-95573767D01*
X131318000Y-82237767D01*
X134444756Y-82237767D01*
X134481746Y-82280674D01*
G37*
%TD.AperFunction*%
%TD*%
%TA.AperFunction,Conductor*%
%TO.N,Net-(D1-Pad2)*%
G36*
X131260121Y-75839002D02*
G01*
X131306614Y-75892658D01*
X131318000Y-75945000D01*
X131318000Y-78613000D01*
X134442799Y-82237767D01*
X134482401Y-82283706D01*
X134485060Y-82296000D01*
X131318000Y-82296000D01*
X128175012Y-78775853D01*
X128144563Y-78711717D01*
X128143000Y-78691935D01*
X128143000Y-75945000D01*
X128163002Y-75876879D01*
X128216658Y-75830386D01*
X128269000Y-75819000D01*
X131192000Y-75819000D01*
X131260121Y-75839002D01*
G37*
%TD.AperFunction*%
%TD*%
%TA.AperFunction,Conductor*%
%TO.N,+12V*%
G36*
X144008531Y-88462802D02*
G01*
X144029505Y-88479705D01*
X144983200Y-89433400D01*
X146559000Y-89433400D01*
X146627121Y-89453402D01*
X146673614Y-89507058D01*
X146685000Y-89559400D01*
X146685000Y-93790000D01*
X146664998Y-93858121D01*
X146634600Y-93890800D01*
X146177548Y-94233589D01*
X146176460Y-94234396D01*
X144305263Y-95606607D01*
X144238501Y-95630761D01*
X144230751Y-95631000D01*
X139572000Y-95631000D01*
X139503879Y-95610998D01*
X139457386Y-95557342D01*
X139446000Y-95505000D01*
X139446000Y-90804000D01*
X139466002Y-90735879D01*
X139519658Y-90689386D01*
X139572000Y-90678000D01*
X143383000Y-90678000D01*
X143383000Y-88568800D01*
X143403002Y-88500679D01*
X143456658Y-88454186D01*
X143509000Y-88442800D01*
X143940410Y-88442800D01*
X144008531Y-88462802D01*
G37*
%TD.AperFunction*%
%TD*%
M02*
