%TF.GenerationSoftware,KiCad,Pcbnew,(6.0.2)*%
%TF.CreationDate,2023-05-21T11:07:31+01:00*%
%TF.ProjectId,Nixie Tube Interface Board,4e697869-6520-4547-9562-6520496e7465,rev?*%
%TF.SameCoordinates,Original*%
%TF.FileFunction,Copper,L1,Top*%
%TF.FilePolarity,Positive*%
%FSLAX46Y46*%
G04 Gerber Fmt 4.6, Leading zero omitted, Abs format (unit mm)*
G04 Created by KiCad (PCBNEW (6.0.2)) date 2023-05-21 11:07:31*
%MOMM*%
%LPD*%
G01*
G04 APERTURE LIST*
%TA.AperFunction,ComponentPad*%
%ADD10C,1.346200*%
%TD*%
%TA.AperFunction,ComponentPad*%
%ADD11C,1.107440*%
%TD*%
%TA.AperFunction,ComponentPad*%
%ADD12R,1.700000X1.700000*%
%TD*%
%TA.AperFunction,ComponentPad*%
%ADD13O,1.700000X1.700000*%
%TD*%
%TA.AperFunction,ViaPad*%
%ADD14C,0.800000*%
%TD*%
%TA.AperFunction,Conductor*%
%ADD15C,0.500000*%
%TD*%
%TA.AperFunction,Conductor*%
%ADD16C,0.250000*%
%TD*%
G04 APERTURE END LIST*
D10*
%TO.P,N1,0,0*%
%TO.N,unconnected-(N1-Pad0)*%
X111092700Y-88984640D03*
%TO.P,N1,1,1*%
%TO.N,N1_1*%
X100907300Y-88984640D03*
%TO.P,N1,2,2*%
%TO.N,N1_2*%
X99855740Y-91755780D03*
%TO.P,N1,3,3*%
%TO.N,unconnected-(N1-Pad3)*%
X100213880Y-94694560D03*
%TO.P,N1,4,4*%
%TO.N,unconnected-(N1-Pad4)*%
X101895360Y-97132960D03*
%TO.P,N1,5,5*%
%TO.N,unconnected-(N1-Pad5)*%
X104519180Y-98509640D03*
%TO.P,N1,6,6*%
%TO.N,unconnected-(N1-Pad6)*%
X107480820Y-98509640D03*
%TO.P,N1,7,7*%
%TO.N,unconnected-(N1-Pad7)*%
X110104640Y-97132960D03*
%TO.P,N1,8,8*%
%TO.N,unconnected-(N1-Pad8)*%
X111786120Y-94694560D03*
%TO.P,N1,9,9*%
%TO.N,unconnected-(N1-Pad9)*%
X112144260Y-91755780D03*
%TO.P,N1,A,A*%
%TO.N,Net-(N1-PadA)*%
X106000000Y-86312560D03*
%TO.P,N1,LHDP,LHDP*%
%TO.N,unconnected-(N1-PadLHDP)*%
X103124720Y-87021220D03*
%TO.P,N1,RHDP,RHDP*%
%TO.N,unconnected-(N1-PadRHDP)*%
X108875280Y-87021220D03*
%TD*%
%TO.P,N3,0,0*%
%TO.N,N3_0*%
X168092700Y-88984640D03*
%TO.P,N3,1,1*%
%TO.N,N3_5*%
X157907300Y-88984640D03*
%TO.P,N3,2,2*%
%TO.N,N3_4*%
X156855740Y-91755780D03*
%TO.P,N3,3,3*%
%TO.N,N3_3*%
X157213880Y-94694560D03*
%TO.P,N3,4,4*%
%TO.N,N3_2*%
X158895360Y-97132960D03*
%TO.P,N3,5,5*%
%TO.N,N3_1*%
X161519180Y-98509640D03*
%TO.P,N3,6,6*%
%TO.N,N3_6*%
X164480820Y-98509640D03*
%TO.P,N3,7,7*%
%TO.N,N3_7*%
X167104640Y-97132960D03*
%TO.P,N3,8,8*%
%TO.N,N3_8*%
X168786120Y-94694560D03*
%TO.P,N3,9,9*%
%TO.N,N3_9*%
X169144260Y-91755780D03*
%TO.P,N3,A,A*%
%TO.N,Net-(N3-PadA)*%
X163000000Y-86312560D03*
%TO.P,N3,LHDP,LHDP*%
%TO.N,unconnected-(N3-PadLHDP)*%
X160124720Y-87021220D03*
%TO.P,N3,RHDP,RHDP*%
%TO.N,unconnected-(N3-PadRHDP)*%
X165875280Y-87021220D03*
%TD*%
%TO.P,N4,0,0*%
%TO.N,N4_0*%
X191092700Y-88984640D03*
%TO.P,N4,1,1*%
%TO.N,N4_1*%
X180907300Y-88984640D03*
%TO.P,N4,2,2*%
%TO.N,N4_2*%
X179855740Y-91755780D03*
%TO.P,N4,3,3*%
%TO.N,N4_3*%
X180213880Y-94694560D03*
%TO.P,N4,4,4*%
%TO.N,N4_4*%
X181895360Y-97132960D03*
%TO.P,N4,5,5*%
%TO.N,N4_5*%
X184519180Y-98509640D03*
%TO.P,N4,6,6*%
%TO.N,N4_6*%
X187480820Y-98509640D03*
%TO.P,N4,7,7*%
%TO.N,N4_7*%
X190104640Y-97132960D03*
%TO.P,N4,8,8*%
%TO.N,N4_8*%
X191786120Y-94694560D03*
%TO.P,N4,9,9*%
%TO.N,N4_9*%
X192144260Y-91755780D03*
%TO.P,N4,A,A*%
%TO.N,Net-(N4-PadA)*%
X186000000Y-86312560D03*
%TO.P,N4,LHDP,LHDP*%
%TO.N,unconnected-(N4-PadLHDP)*%
X183124720Y-87021220D03*
%TO.P,N4,RHDP,RHDP*%
%TO.N,unconnected-(N4-PadRHDP)*%
X188875280Y-87021220D03*
%TD*%
D11*
%TO.P,N6,A,A*%
%TO.N,Net-(N6-PadA)*%
X147587500Y-96000000D03*
%TO.P,N6,K,K*%
%TO.N,GND*%
X144412500Y-96000000D03*
%TD*%
D10*
%TO.P,N2,0,0*%
%TO.N,N2_0*%
X134092700Y-88984640D03*
%TO.P,N2,1,1*%
%TO.N,N2_1*%
X123907300Y-88984640D03*
%TO.P,N2,2,2*%
%TO.N,N2_2*%
X122855740Y-91755780D03*
%TO.P,N2,3,3*%
%TO.N,N2_3*%
X123213880Y-94694560D03*
%TO.P,N2,4,4*%
%TO.N,N2_4*%
X124895360Y-97132960D03*
%TO.P,N2,5,5*%
%TO.N,N2_5*%
X127519180Y-98509640D03*
%TO.P,N2,6,6*%
%TO.N,N2_6*%
X130480820Y-98509640D03*
%TO.P,N2,7,7*%
%TO.N,N2_7*%
X133104640Y-97132960D03*
%TO.P,N2,8,8*%
%TO.N,N2_8*%
X134786120Y-94694560D03*
%TO.P,N2,9,9*%
%TO.N,N2_9*%
X135144260Y-91755780D03*
%TO.P,N2,A,A*%
%TO.N,Net-(N2-PadA)*%
X129000000Y-86312560D03*
%TO.P,N2,LHDP,LHDP*%
%TO.N,unconnected-(N2-PadLHDP)*%
X126124720Y-87021220D03*
%TO.P,N2,RHDP,RHDP*%
%TO.N,unconnected-(N2-PadRHDP)*%
X131875280Y-87021220D03*
%TD*%
D11*
%TO.P,N5,A,A*%
%TO.N,Net-(N5-PadA)*%
X147587500Y-87500000D03*
%TO.P,N5,K,K*%
%TO.N,GND*%
X144412500Y-87500000D03*
%TD*%
D12*
%TO.P,J1,1,Pin_1*%
%TO.N,+170VDC*%
X83660000Y-82215000D03*
D13*
%TO.P,J1,2,Pin_2*%
%TO.N,GND*%
X83660000Y-84755000D03*
%TO.P,J1,3,Pin_3*%
%TO.N,Net-(J1-Pad3)*%
X83660000Y-87295000D03*
%TO.P,J1,4,Pin_4*%
%TO.N,+12V*%
X83660000Y-89835000D03*
%TO.P,J1,5,Pin_5*%
%TO.N,Net-(J1-Pad5)*%
X83660000Y-92375000D03*
%TO.P,J1,6,Pin_6*%
%TO.N,Net-(J1-Pad6)*%
X83660000Y-94915000D03*
%TO.P,J1,7,Pin_7*%
%TO.N,Net-(J1-Pad7)*%
X83660000Y-97455000D03*
%TO.P,J1,8,Pin_8*%
%TO.N,Net-(J1-Pad8)*%
X83660000Y-99995000D03*
%TO.P,J1,9,Pin_9*%
%TO.N,Net-(J1-Pad9)*%
X83660000Y-102535000D03*
%TO.P,J1,10,Pin_10*%
%TO.N,GND*%
X83660000Y-105075000D03*
%TD*%
D14*
%TO.N,+170VDC*%
X111125000Y-81915000D03*
X123825000Y-81915000D03*
X145415000Y-80010000D03*
X160020000Y-80010000D03*
X182880000Y-80010000D03*
%TO.N,GND*%
X87630000Y-81915000D03*
%TO.N,+12V*%
X90805000Y-107315000D03*
%TO.N,Net-(J1-Pad5)*%
X93345000Y-105410000D03*
%TO.N,Net-(J1-Pad6)*%
X92075000Y-105410000D03*
%TO.N,Net-(J1-Pad7)*%
X90805000Y-105410000D03*
%TO.N,Net-(J1-Pad8)*%
X89535000Y-105410000D03*
%TD*%
D15*
%TO.N,+170VDC*%
X111760000Y-81280000D02*
X111125000Y-81915000D01*
X111760000Y-78105000D02*
X111760000Y-81280000D01*
X111125000Y-78105000D02*
X123190000Y-78105000D01*
X87630000Y-78105000D02*
X111125000Y-78105000D01*
X123190000Y-81280000D02*
X123825000Y-81915000D01*
X123190000Y-78105000D02*
X123190000Y-81280000D01*
X123190000Y-78105000D02*
X145415000Y-78105000D01*
X145415000Y-78105000D02*
X145415000Y-80010000D01*
X145415000Y-78105000D02*
X160020000Y-78105000D01*
X160020000Y-78105000D02*
X160020000Y-80010000D01*
X160020000Y-78105000D02*
X180975000Y-78105000D01*
X182245000Y-79375000D02*
X182880000Y-80010000D01*
X180975000Y-78105000D02*
X182245000Y-79375000D01*
X83660000Y-82075000D02*
X87630000Y-78105000D01*
X83660000Y-82215000D02*
X83660000Y-82075000D01*
D16*
%TO.N,Net-(J1-Pad7)*%
X90805000Y-104140000D02*
X90805000Y-105410000D01*
X84120000Y-97455000D02*
X90805000Y-104140000D01*
X83660000Y-97455000D02*
X84120000Y-97455000D01*
%TO.N,Net-(J1-Pad8)*%
X84120000Y-99995000D02*
X89535000Y-105410000D01*
X83660000Y-99995000D02*
X84120000Y-99995000D01*
D15*
%TO.N,+12V*%
X94615000Y-105164614D02*
X92464614Y-107315000D01*
X94615000Y-102870000D02*
X94615000Y-105164614D01*
X94615000Y-100790000D02*
X94615000Y-102870000D01*
X92464614Y-107315000D02*
X90805000Y-107315000D01*
X83660000Y-89835000D02*
X94615000Y-100790000D01*
D16*
%TO.N,Net-(J1-Pad5)*%
X93345000Y-103505000D02*
X93345000Y-105410000D01*
X93345000Y-102060000D02*
X93345000Y-103505000D01*
X83660000Y-92375000D02*
X93345000Y-102060000D01*
%TO.N,Net-(J1-Pad6)*%
X92075000Y-103330000D02*
X92075000Y-104140000D01*
X92075000Y-104140000D02*
X92075000Y-105410000D01*
X83660000Y-94915000D02*
X92075000Y-103330000D01*
%TD*%
%TA.AperFunction,Conductor*%
%TO.N,GND*%
G36*
X207683931Y-70528002D02*
G01*
X207704905Y-70544905D01*
X208368557Y-71208557D01*
X208402583Y-71270869D01*
X208397518Y-71341684D01*
X208354971Y-71398520D01*
X208288451Y-71423331D01*
X208220504Y-71409006D01*
X208207375Y-71402055D01*
X208072385Y-71352656D01*
X207941425Y-71304731D01*
X207941423Y-71304730D01*
X207937394Y-71303256D01*
X207656503Y-71242012D01*
X207625452Y-71239568D01*
X207433485Y-71224460D01*
X207433476Y-71224460D01*
X207431028Y-71224267D01*
X207275496Y-71224267D01*
X207273360Y-71224413D01*
X207273349Y-71224413D01*
X207065219Y-71238602D01*
X207065213Y-71238603D01*
X207060942Y-71238894D01*
X207056747Y-71239763D01*
X207056745Y-71239763D01*
X206920184Y-71268043D01*
X206779425Y-71297193D01*
X206508424Y-71393160D01*
X206252955Y-71525017D01*
X206249454Y-71527478D01*
X206249450Y-71527480D01*
X206135350Y-71607671D01*
X206017744Y-71690326D01*
X205807145Y-71886027D01*
X205625054Y-72108499D01*
X205474840Y-72353625D01*
X205473114Y-72357558D01*
X205473113Y-72357559D01*
X205464472Y-72377243D01*
X205359284Y-72616869D01*
X205280523Y-72893361D01*
X205240016Y-73177983D01*
X205239994Y-73182272D01*
X205239993Y-73182279D01*
X205238532Y-73461184D01*
X205238510Y-73465470D01*
X205276035Y-73750501D01*
X205351896Y-74027803D01*
X205464690Y-74292243D01*
X205612328Y-74538928D01*
X205792080Y-74763295D01*
X206000618Y-74961190D01*
X206234084Y-75128953D01*
X206237879Y-75130962D01*
X206237880Y-75130963D01*
X206259636Y-75142482D01*
X206488159Y-75263479D01*
X206758140Y-75362278D01*
X207039031Y-75423522D01*
X207067608Y-75425771D01*
X207262049Y-75441074D01*
X207262058Y-75441074D01*
X207264506Y-75441267D01*
X207420038Y-75441267D01*
X207422174Y-75441121D01*
X207422185Y-75441121D01*
X207630315Y-75426932D01*
X207630321Y-75426931D01*
X207634592Y-75426640D01*
X207638787Y-75425771D01*
X207638789Y-75425771D01*
X207775350Y-75397491D01*
X207916109Y-75368341D01*
X208187110Y-75272374D01*
X208442579Y-75140517D01*
X208446080Y-75138056D01*
X208446084Y-75138054D01*
X208560185Y-75057862D01*
X208677790Y-74975208D01*
X208888389Y-74779507D01*
X209070480Y-74557035D01*
X209220694Y-74311909D01*
X209336250Y-74048665D01*
X209415011Y-73772173D01*
X209455518Y-73487551D01*
X209455612Y-73469718D01*
X209457002Y-73204350D01*
X209457002Y-73204343D01*
X209457024Y-73200064D01*
X209419499Y-72915033D01*
X209343638Y-72637731D01*
X209333062Y-72612937D01*
X209261396Y-72444918D01*
X209253067Y-72374411D01*
X209284180Y-72310595D01*
X209344855Y-72273730D01*
X209415829Y-72275521D01*
X209466388Y-72306388D01*
X210455095Y-73295095D01*
X210489121Y-73357407D01*
X210492000Y-73384190D01*
X210492000Y-112035810D01*
X210471998Y-112103931D01*
X210455095Y-112124905D01*
X208316905Y-114263095D01*
X208254593Y-114297121D01*
X208227810Y-114300000D01*
X83237190Y-114300000D01*
X83169069Y-114279998D01*
X83148095Y-114263095D01*
X81550161Y-112665161D01*
X81516135Y-112602849D01*
X81513526Y-112584308D01*
X81510974Y-112545377D01*
X81512147Y-112522218D01*
X81511829Y-112522189D01*
X81512264Y-112517333D01*
X81513071Y-112512539D01*
X81513224Y-112500000D01*
X81509273Y-112472412D01*
X81508000Y-112454549D01*
X81508000Y-111465470D01*
X82238510Y-111465470D01*
X82276035Y-111750501D01*
X82351896Y-112027803D01*
X82353580Y-112031751D01*
X82384368Y-112103931D01*
X82464690Y-112292243D01*
X82476460Y-112311909D01*
X82607413Y-112530715D01*
X82612328Y-112538928D01*
X82792080Y-112763295D01*
X83000618Y-112961190D01*
X83234084Y-113128953D01*
X83237879Y-113130962D01*
X83237880Y-113130963D01*
X83259636Y-113142482D01*
X83488159Y-113263479D01*
X83758140Y-113362278D01*
X84039031Y-113423522D01*
X84067608Y-113425771D01*
X84262049Y-113441074D01*
X84262058Y-113441074D01*
X84264506Y-113441267D01*
X84420038Y-113441267D01*
X84422174Y-113441121D01*
X84422185Y-113441121D01*
X84630315Y-113426932D01*
X84630321Y-113426931D01*
X84634592Y-113426640D01*
X84638787Y-113425771D01*
X84638789Y-113425771D01*
X84775351Y-113397490D01*
X84916109Y-113368341D01*
X85187110Y-113272374D01*
X85442579Y-113140517D01*
X85446080Y-113138056D01*
X85446084Y-113138054D01*
X85560185Y-113057862D01*
X85677790Y-112975208D01*
X85756170Y-112902373D01*
X85885246Y-112782428D01*
X85885248Y-112782425D01*
X85888389Y-112779507D01*
X86070480Y-112557035D01*
X86220694Y-112311909D01*
X86336250Y-112048665D01*
X86415011Y-111772173D01*
X86455518Y-111487551D01*
X86455612Y-111469718D01*
X86455634Y-111465470D01*
X205238510Y-111465470D01*
X205276035Y-111750501D01*
X205351896Y-112027803D01*
X205353580Y-112031751D01*
X205384368Y-112103931D01*
X205464690Y-112292243D01*
X205476460Y-112311909D01*
X205607413Y-112530715D01*
X205612328Y-112538928D01*
X205792080Y-112763295D01*
X206000618Y-112961190D01*
X206234084Y-113128953D01*
X206237879Y-113130962D01*
X206237880Y-113130963D01*
X206259636Y-113142482D01*
X206488159Y-113263479D01*
X206758140Y-113362278D01*
X207039031Y-113423522D01*
X207067608Y-113425771D01*
X207262049Y-113441074D01*
X207262058Y-113441074D01*
X207264506Y-113441267D01*
X207420038Y-113441267D01*
X207422174Y-113441121D01*
X207422185Y-113441121D01*
X207630315Y-113426932D01*
X207630321Y-113426931D01*
X207634592Y-113426640D01*
X207638787Y-113425771D01*
X207638789Y-113425771D01*
X207775351Y-113397490D01*
X207916109Y-113368341D01*
X208187110Y-113272374D01*
X208442579Y-113140517D01*
X208446080Y-113138056D01*
X208446084Y-113138054D01*
X208560185Y-113057862D01*
X208677790Y-112975208D01*
X208756170Y-112902373D01*
X208885246Y-112782428D01*
X208885248Y-112782425D01*
X208888389Y-112779507D01*
X209070480Y-112557035D01*
X209220694Y-112311909D01*
X209336250Y-112048665D01*
X209415011Y-111772173D01*
X209455518Y-111487551D01*
X209455612Y-111469718D01*
X209457002Y-111204350D01*
X209457002Y-111204343D01*
X209457024Y-111200064D01*
X209419499Y-110915033D01*
X209343638Y-110637731D01*
X209230844Y-110373291D01*
X209083206Y-110126606D01*
X208903454Y-109902239D01*
X208694916Y-109704344D01*
X208461450Y-109536581D01*
X208439610Y-109525017D01*
X208416421Y-109512739D01*
X208207375Y-109402055D01*
X207937394Y-109303256D01*
X207656503Y-109242012D01*
X207625452Y-109239568D01*
X207433485Y-109224460D01*
X207433476Y-109224460D01*
X207431028Y-109224267D01*
X207275496Y-109224267D01*
X207273360Y-109224413D01*
X207273349Y-109224413D01*
X207065219Y-109238602D01*
X207065213Y-109238603D01*
X207060942Y-109238894D01*
X207056747Y-109239763D01*
X207056745Y-109239763D01*
X206920184Y-109268043D01*
X206779425Y-109297193D01*
X206508424Y-109393160D01*
X206252955Y-109525017D01*
X206249454Y-109527478D01*
X206249450Y-109527480D01*
X206239361Y-109534571D01*
X206017744Y-109690326D01*
X205807145Y-109886027D01*
X205625054Y-110108499D01*
X205474840Y-110353625D01*
X205359284Y-110616869D01*
X205280523Y-110893361D01*
X205240016Y-111177983D01*
X205239994Y-111182272D01*
X205239993Y-111182279D01*
X205238532Y-111461184D01*
X205238510Y-111465470D01*
X86455634Y-111465470D01*
X86457002Y-111204350D01*
X86457002Y-111204343D01*
X86457024Y-111200064D01*
X86419499Y-110915033D01*
X86343638Y-110637731D01*
X86230844Y-110373291D01*
X86083206Y-110126606D01*
X85903454Y-109902239D01*
X85694916Y-109704344D01*
X85461450Y-109536581D01*
X85439610Y-109525017D01*
X85416421Y-109512739D01*
X85207375Y-109402055D01*
X84937394Y-109303256D01*
X84656503Y-109242012D01*
X84625452Y-109239568D01*
X84433485Y-109224460D01*
X84433476Y-109224460D01*
X84431028Y-109224267D01*
X84275496Y-109224267D01*
X84273360Y-109224413D01*
X84273349Y-109224413D01*
X84065219Y-109238602D01*
X84065213Y-109238603D01*
X84060942Y-109238894D01*
X84056747Y-109239763D01*
X84056745Y-109239763D01*
X83920184Y-109268043D01*
X83779425Y-109297193D01*
X83508424Y-109393160D01*
X83252955Y-109525017D01*
X83249454Y-109527478D01*
X83249450Y-109527480D01*
X83239361Y-109534571D01*
X83017744Y-109690326D01*
X82807145Y-109886027D01*
X82625054Y-110108499D01*
X82474840Y-110353625D01*
X82359284Y-110616869D01*
X82280523Y-110893361D01*
X82240016Y-111177983D01*
X82239994Y-111182272D01*
X82239993Y-111182279D01*
X82238532Y-111461184D01*
X82238510Y-111465470D01*
X81508000Y-111465470D01*
X81508000Y-105342966D01*
X82328257Y-105342966D01*
X82358565Y-105477446D01*
X82361645Y-105487275D01*
X82441770Y-105684603D01*
X82446413Y-105693794D01*
X82557694Y-105875388D01*
X82563777Y-105883699D01*
X82703213Y-106044667D01*
X82710580Y-106051883D01*
X82874434Y-106187916D01*
X82882881Y-106193831D01*
X83066756Y-106301279D01*
X83076042Y-106305729D01*
X83275001Y-106381703D01*
X83284899Y-106384579D01*
X83388250Y-106405606D01*
X83402299Y-106404410D01*
X83406000Y-106394065D01*
X83406000Y-106393517D01*
X83914000Y-106393517D01*
X83918064Y-106407359D01*
X83931478Y-106409393D01*
X83938184Y-106408534D01*
X83948262Y-106406392D01*
X84152255Y-106345191D01*
X84161842Y-106341433D01*
X84353095Y-106247739D01*
X84361945Y-106242464D01*
X84535328Y-106118792D01*
X84543200Y-106112139D01*
X84694052Y-105961812D01*
X84700730Y-105953965D01*
X84825003Y-105781020D01*
X84830313Y-105772183D01*
X84924670Y-105581267D01*
X84928469Y-105571672D01*
X84990377Y-105367910D01*
X84992555Y-105357837D01*
X84993986Y-105346962D01*
X84991775Y-105332778D01*
X84978617Y-105329000D01*
X83932115Y-105329000D01*
X83916876Y-105333475D01*
X83915671Y-105334865D01*
X83914000Y-105342548D01*
X83914000Y-106393517D01*
X83406000Y-106393517D01*
X83406000Y-105347115D01*
X83401525Y-105331876D01*
X83400135Y-105330671D01*
X83392452Y-105329000D01*
X82343225Y-105329000D01*
X82329694Y-105332973D01*
X82328257Y-105342966D01*
X81508000Y-105342966D01*
X81508000Y-102501695D01*
X82297251Y-102501695D01*
X82297548Y-102506848D01*
X82297548Y-102506851D01*
X82303011Y-102601590D01*
X82310110Y-102724715D01*
X82311247Y-102729761D01*
X82311248Y-102729767D01*
X82331119Y-102817939D01*
X82359222Y-102942639D01*
X82443266Y-103149616D01*
X82559987Y-103340088D01*
X82706250Y-103508938D01*
X82878126Y-103651632D01*
X82911139Y-103670923D01*
X82951955Y-103694774D01*
X83000679Y-103746412D01*
X83013750Y-103816195D01*
X82987019Y-103881967D01*
X82946562Y-103915327D01*
X82938457Y-103919546D01*
X82929738Y-103925036D01*
X82759433Y-104052905D01*
X82751726Y-104059748D01*
X82604590Y-104213717D01*
X82598104Y-104221727D01*
X82478098Y-104397649D01*
X82473000Y-104406623D01*
X82383338Y-104599783D01*
X82379775Y-104609470D01*
X82324389Y-104809183D01*
X82325912Y-104817607D01*
X82338292Y-104821000D01*
X84978344Y-104821000D01*
X84991875Y-104817027D01*
X84993180Y-104807947D01*
X84951214Y-104640875D01*
X84947894Y-104631124D01*
X84862972Y-104435814D01*
X84858105Y-104426739D01*
X84742426Y-104247926D01*
X84736136Y-104239757D01*
X84592806Y-104082240D01*
X84585273Y-104075215D01*
X84418139Y-103943222D01*
X84409556Y-103937520D01*
X84372602Y-103917120D01*
X84322631Y-103866687D01*
X84307859Y-103797245D01*
X84332975Y-103730839D01*
X84360327Y-103704232D01*
X84383797Y-103687491D01*
X84539860Y-103576173D01*
X84698096Y-103418489D01*
X84757594Y-103335689D01*
X84825435Y-103241277D01*
X84828453Y-103237077D01*
X84831897Y-103230110D01*
X84925136Y-103041453D01*
X84925137Y-103041451D01*
X84927430Y-103036811D01*
X84992370Y-102823069D01*
X85021529Y-102601590D01*
X85023156Y-102535000D01*
X85004852Y-102312361D01*
X84950431Y-102095702D01*
X84927054Y-102041938D01*
X84918234Y-101971494D01*
X84948901Y-101907462D01*
X85009317Y-101870174D01*
X85080302Y-101871470D01*
X85131699Y-101902603D01*
X88587878Y-105358782D01*
X88621904Y-105421094D01*
X88624093Y-105434707D01*
X88639497Y-105581267D01*
X88641458Y-105599928D01*
X88700473Y-105781556D01*
X88795960Y-105946944D01*
X88923747Y-106088866D01*
X89078248Y-106201118D01*
X89084276Y-106203802D01*
X89084278Y-106203803D01*
X89182961Y-106247739D01*
X89252712Y-106278794D01*
X89330799Y-106295392D01*
X89433056Y-106317128D01*
X89433061Y-106317128D01*
X89439513Y-106318500D01*
X89630487Y-106318500D01*
X89636939Y-106317128D01*
X89636944Y-106317128D01*
X89739201Y-106295392D01*
X89817288Y-106278794D01*
X89887039Y-106247739D01*
X89985722Y-106203803D01*
X89985724Y-106203802D01*
X89991752Y-106201118D01*
X90095940Y-106125421D01*
X90162806Y-106101563D01*
X90231958Y-106117643D01*
X90244056Y-106125418D01*
X90348248Y-106201118D01*
X90354276Y-106203802D01*
X90354278Y-106203803D01*
X90452184Y-106247393D01*
X90506279Y-106293373D01*
X90526929Y-106361300D01*
X90507577Y-106429608D01*
X90452184Y-106477607D01*
X90354278Y-106521197D01*
X90354276Y-106521198D01*
X90348248Y-106523882D01*
X90342907Y-106527762D01*
X90342906Y-106527763D01*
X90338440Y-106531008D01*
X90193747Y-106636134D01*
X90065960Y-106778056D01*
X89970473Y-106943444D01*
X89911458Y-107125072D01*
X89891496Y-107315000D01*
X89911458Y-107504928D01*
X89970473Y-107686556D01*
X90065960Y-107851944D01*
X90070378Y-107856851D01*
X90070379Y-107856852D01*
X90161286Y-107957814D01*
X90193747Y-107993866D01*
X90246025Y-108031848D01*
X90342904Y-108102235D01*
X90348248Y-108106118D01*
X90354276Y-108108802D01*
X90354278Y-108108803D01*
X90516681Y-108181109D01*
X90522712Y-108183794D01*
X90616112Y-108203647D01*
X90703056Y-108222128D01*
X90703061Y-108222128D01*
X90709513Y-108223500D01*
X90900487Y-108223500D01*
X90906939Y-108222128D01*
X90906944Y-108222128D01*
X90993888Y-108203647D01*
X91087288Y-108183794D01*
X91093319Y-108181109D01*
X91255722Y-108108803D01*
X91255724Y-108108802D01*
X91261752Y-108106118D01*
X91267091Y-108102239D01*
X91267098Y-108102235D01*
X91273528Y-108097563D01*
X91347587Y-108073500D01*
X92397544Y-108073500D01*
X92416494Y-108074933D01*
X92430729Y-108077099D01*
X92430733Y-108077099D01*
X92437963Y-108078199D01*
X92445255Y-108077606D01*
X92445258Y-108077606D01*
X92490632Y-108073915D01*
X92500847Y-108073500D01*
X92508907Y-108073500D01*
X92522197Y-108071951D01*
X92537121Y-108070211D01*
X92541496Y-108069778D01*
X92606953Y-108064454D01*
X92606956Y-108064453D01*
X92614251Y-108063860D01*
X92621215Y-108061604D01*
X92627174Y-108060413D01*
X92633029Y-108059029D01*
X92640295Y-108058182D01*
X92708941Y-108033265D01*
X92713069Y-108031848D01*
X92775550Y-108011607D01*
X92775552Y-108011606D01*
X92782513Y-108009351D01*
X92788768Y-108005555D01*
X92794242Y-108003049D01*
X92799672Y-108000330D01*
X92806551Y-107997833D01*
X92867590Y-107957814D01*
X92871294Y-107955477D01*
X92933721Y-107917595D01*
X92942098Y-107910197D01*
X92942122Y-107910224D01*
X92945114Y-107907571D01*
X92948347Y-107904868D01*
X92954466Y-107900856D01*
X93007742Y-107844617D01*
X93010120Y-107842175D01*
X95103911Y-105748384D01*
X95118323Y-105735998D01*
X95129918Y-105727465D01*
X95129923Y-105727460D01*
X95135818Y-105723122D01*
X95140557Y-105717544D01*
X95140560Y-105717541D01*
X95170035Y-105682846D01*
X95176965Y-105675330D01*
X95182660Y-105669635D01*
X95200281Y-105647363D01*
X95203072Y-105643959D01*
X95245591Y-105593911D01*
X95245592Y-105593909D01*
X95250333Y-105588329D01*
X95253661Y-105581813D01*
X95257028Y-105576764D01*
X95260195Y-105571635D01*
X95264734Y-105565898D01*
X95295655Y-105499739D01*
X95297561Y-105495839D01*
X95306953Y-105477446D01*
X95330769Y-105430806D01*
X95332508Y-105423698D01*
X95334607Y-105418055D01*
X95336524Y-105412292D01*
X95339622Y-105405664D01*
X95354487Y-105334197D01*
X95355457Y-105329913D01*
X95371473Y-105264459D01*
X95372808Y-105259004D01*
X95373500Y-105247850D01*
X95373536Y-105247852D01*
X95373775Y-105243859D01*
X95374149Y-105239667D01*
X95375640Y-105232499D01*
X95373546Y-105155093D01*
X95373500Y-105151686D01*
X95373500Y-100857070D01*
X95374933Y-100838120D01*
X95377099Y-100823885D01*
X95377099Y-100823881D01*
X95378199Y-100816651D01*
X95373915Y-100763982D01*
X95373500Y-100753767D01*
X95373500Y-100745707D01*
X95370209Y-100717480D01*
X95369778Y-100713121D01*
X95364454Y-100647662D01*
X95364453Y-100647659D01*
X95363860Y-100640364D01*
X95361604Y-100633400D01*
X95360417Y-100627461D01*
X95359030Y-100621590D01*
X95358182Y-100614319D01*
X95355686Y-100607443D01*
X95355684Y-100607434D01*
X95333275Y-100545702D01*
X95331865Y-100541598D01*
X95309352Y-100472101D01*
X95305556Y-100465846D01*
X95303057Y-100460387D01*
X95300329Y-100454939D01*
X95297833Y-100448063D01*
X95257805Y-100387010D01*
X95255481Y-100383327D01*
X95220500Y-100325680D01*
X95220499Y-100325679D01*
X95217595Y-100320893D01*
X95210198Y-100312517D01*
X95210225Y-100312493D01*
X95207570Y-100309499D01*
X95204868Y-100306268D01*
X95200856Y-100300148D01*
X95144617Y-100246872D01*
X95142175Y-100244494D01*
X93376258Y-98478577D01*
X103332925Y-98478577D01*
X103347128Y-98695275D01*
X103400583Y-98905756D01*
X103491501Y-99102971D01*
X103616835Y-99280315D01*
X103772389Y-99431850D01*
X103777185Y-99435055D01*
X103777188Y-99435057D01*
X103903732Y-99519610D01*
X103952954Y-99552499D01*
X103958257Y-99554777D01*
X103958260Y-99554779D01*
X104053199Y-99595568D01*
X104152481Y-99638223D01*
X104229801Y-99655719D01*
X104358653Y-99684875D01*
X104358658Y-99684876D01*
X104364290Y-99686150D01*
X104370061Y-99686377D01*
X104370063Y-99686377D01*
X104435413Y-99688945D01*
X104581285Y-99694676D01*
X104688743Y-99679095D01*
X104790487Y-99664343D01*
X104790492Y-99664342D01*
X104796201Y-99663514D01*
X104801665Y-99661659D01*
X104801670Y-99661658D01*
X104996367Y-99595568D01*
X104996372Y-99595566D01*
X105001839Y-99593710D01*
X105069707Y-99555702D01*
X105186266Y-99490426D01*
X105186270Y-99490423D01*
X105191313Y-99487599D01*
X105358277Y-99348737D01*
X105497139Y-99181773D01*
X105499963Y-99176730D01*
X105499966Y-99176726D01*
X105600426Y-98997342D01*
X105600427Y-98997340D01*
X105603250Y-98992299D01*
X105605106Y-98986832D01*
X105605108Y-98986827D01*
X105671198Y-98792130D01*
X105671199Y-98792125D01*
X105673054Y-98786661D01*
X105678133Y-98751638D01*
X105703683Y-98575419D01*
X105704216Y-98571745D01*
X105705842Y-98509640D01*
X105702988Y-98478577D01*
X106294565Y-98478577D01*
X106308768Y-98695275D01*
X106362223Y-98905756D01*
X106453141Y-99102971D01*
X106578475Y-99280315D01*
X106734029Y-99431850D01*
X106738825Y-99435055D01*
X106738828Y-99435057D01*
X106865372Y-99519610D01*
X106914594Y-99552499D01*
X106919897Y-99554777D01*
X106919900Y-99554779D01*
X107014839Y-99595568D01*
X107114121Y-99638223D01*
X107191441Y-99655719D01*
X107320293Y-99684875D01*
X107320298Y-99684876D01*
X107325930Y-99686150D01*
X107331701Y-99686377D01*
X107331703Y-99686377D01*
X107397053Y-99688945D01*
X107542925Y-99694676D01*
X107650383Y-99679095D01*
X107752127Y-99664343D01*
X107752132Y-99664342D01*
X107757841Y-99663514D01*
X107763305Y-99661659D01*
X107763310Y-99661658D01*
X107958007Y-99595568D01*
X107958012Y-99595566D01*
X107963479Y-99593710D01*
X108031347Y-99555702D01*
X108147906Y-99490426D01*
X108147910Y-99490423D01*
X108152953Y-99487599D01*
X108319917Y-99348737D01*
X108458779Y-99181773D01*
X108461603Y-99176730D01*
X108461606Y-99176726D01*
X108562066Y-98997342D01*
X108562067Y-98997340D01*
X108564890Y-98992299D01*
X108566746Y-98986832D01*
X108566748Y-98986827D01*
X108632838Y-98792130D01*
X108632839Y-98792125D01*
X108634694Y-98786661D01*
X108639773Y-98751638D01*
X108665323Y-98575419D01*
X108665856Y-98571745D01*
X108667482Y-98509640D01*
X108664628Y-98478577D01*
X126332925Y-98478577D01*
X126347128Y-98695275D01*
X126400583Y-98905756D01*
X126491501Y-99102971D01*
X126616835Y-99280315D01*
X126772389Y-99431850D01*
X126777185Y-99435055D01*
X126777188Y-99435057D01*
X126903732Y-99519610D01*
X126952954Y-99552499D01*
X126958257Y-99554777D01*
X126958260Y-99554779D01*
X127053199Y-99595568D01*
X127152481Y-99638223D01*
X127229801Y-99655719D01*
X127358653Y-99684875D01*
X127358658Y-99684876D01*
X127364290Y-99686150D01*
X127370061Y-99686377D01*
X127370063Y-99686377D01*
X127435413Y-99688945D01*
X127581285Y-99694676D01*
X127688743Y-99679095D01*
X127790487Y-99664343D01*
X127790492Y-99664342D01*
X127796201Y-99663514D01*
X127801665Y-99661659D01*
X127801670Y-99661658D01*
X127996367Y-99595568D01*
X127996372Y-99595566D01*
X128001839Y-99593710D01*
X128069707Y-99555702D01*
X128186266Y-99490426D01*
X128186270Y-99490423D01*
X128191313Y-99487599D01*
X128358277Y-99348737D01*
X128497139Y-99181773D01*
X128499963Y-99176730D01*
X128499966Y-99176726D01*
X128600426Y-98997342D01*
X128600427Y-98997340D01*
X128603250Y-98992299D01*
X128605106Y-98986832D01*
X128605108Y-98986827D01*
X128671198Y-98792130D01*
X128671199Y-98792125D01*
X128673054Y-98786661D01*
X128678133Y-98751638D01*
X128703683Y-98575419D01*
X128704216Y-98571745D01*
X128705842Y-98509640D01*
X128702988Y-98478577D01*
X129294565Y-98478577D01*
X129308768Y-98695275D01*
X129362223Y-98905756D01*
X129453141Y-99102971D01*
X129578475Y-99280315D01*
X129734029Y-99431850D01*
X129738825Y-99435055D01*
X129738828Y-99435057D01*
X129865372Y-99519610D01*
X129914594Y-99552499D01*
X129919897Y-99554777D01*
X129919900Y-99554779D01*
X130014839Y-99595568D01*
X130114121Y-99638223D01*
X130191441Y-99655719D01*
X130320293Y-99684875D01*
X130320298Y-99684876D01*
X130325930Y-99686150D01*
X130331701Y-99686377D01*
X130331703Y-99686377D01*
X130397053Y-99688945D01*
X130542925Y-99694676D01*
X130650383Y-99679095D01*
X130752127Y-99664343D01*
X130752132Y-99664342D01*
X130757841Y-99663514D01*
X130763305Y-99661659D01*
X130763310Y-99661658D01*
X130958007Y-99595568D01*
X130958012Y-99595566D01*
X130963479Y-99593710D01*
X131031347Y-99555702D01*
X131147906Y-99490426D01*
X131147910Y-99490423D01*
X131152953Y-99487599D01*
X131319917Y-99348737D01*
X131458779Y-99181773D01*
X131461603Y-99176730D01*
X131461606Y-99176726D01*
X131562066Y-98997342D01*
X131562067Y-98997340D01*
X131564890Y-98992299D01*
X131566746Y-98986832D01*
X131566748Y-98986827D01*
X131632838Y-98792130D01*
X131632839Y-98792125D01*
X131634694Y-98786661D01*
X131639773Y-98751638D01*
X131665323Y-98575419D01*
X131665856Y-98571745D01*
X131667482Y-98509640D01*
X131664628Y-98478577D01*
X160332925Y-98478577D01*
X160347128Y-98695275D01*
X160400583Y-98905756D01*
X160491501Y-99102971D01*
X160616835Y-99280315D01*
X160772389Y-99431850D01*
X160777185Y-99435055D01*
X160777188Y-99435057D01*
X160903732Y-99519610D01*
X160952954Y-99552499D01*
X160958257Y-99554777D01*
X160958260Y-99554779D01*
X161053199Y-99595568D01*
X161152481Y-99638223D01*
X161229801Y-99655719D01*
X161358653Y-99684875D01*
X161358658Y-99684876D01*
X161364290Y-99686150D01*
X161370061Y-99686377D01*
X161370063Y-99686377D01*
X161435413Y-99688945D01*
X161581285Y-99694676D01*
X161688743Y-99679095D01*
X161790487Y-99664343D01*
X161790492Y-99664342D01*
X161796201Y-99663514D01*
X161801665Y-99661659D01*
X161801670Y-99661658D01*
X161996367Y-99595568D01*
X161996372Y-99595566D01*
X162001839Y-99593710D01*
X162069707Y-99555702D01*
X162186266Y-99490426D01*
X162186270Y-99490423D01*
X162191313Y-99487599D01*
X162358277Y-99348737D01*
X162497139Y-99181773D01*
X162499963Y-99176730D01*
X162499966Y-99176726D01*
X162600426Y-98997342D01*
X162600427Y-98997340D01*
X162603250Y-98992299D01*
X162605106Y-98986832D01*
X162605108Y-98986827D01*
X162671198Y-98792130D01*
X162671199Y-98792125D01*
X162673054Y-98786661D01*
X162678133Y-98751638D01*
X162703683Y-98575419D01*
X162704216Y-98571745D01*
X162705842Y-98509640D01*
X162702988Y-98478577D01*
X163294565Y-98478577D01*
X163308768Y-98695275D01*
X163362223Y-98905756D01*
X163453141Y-99102971D01*
X163578475Y-99280315D01*
X163734029Y-99431850D01*
X163738825Y-99435055D01*
X163738828Y-99435057D01*
X163865372Y-99519610D01*
X163914594Y-99552499D01*
X163919897Y-99554777D01*
X163919900Y-99554779D01*
X164014839Y-99595568D01*
X164114121Y-99638223D01*
X164191441Y-99655719D01*
X164320293Y-99684875D01*
X164320298Y-99684876D01*
X164325930Y-99686150D01*
X164331701Y-99686377D01*
X164331703Y-99686377D01*
X164397053Y-99688945D01*
X164542925Y-99694676D01*
X164650383Y-99679095D01*
X164752127Y-99664343D01*
X164752132Y-99664342D01*
X164757841Y-99663514D01*
X164763305Y-99661659D01*
X164763310Y-99661658D01*
X164958007Y-99595568D01*
X164958012Y-99595566D01*
X164963479Y-99593710D01*
X165031347Y-99555702D01*
X165147906Y-99490426D01*
X165147910Y-99490423D01*
X165152953Y-99487599D01*
X165319917Y-99348737D01*
X165458779Y-99181773D01*
X165461603Y-99176730D01*
X165461606Y-99176726D01*
X165562066Y-98997342D01*
X165562067Y-98997340D01*
X165564890Y-98992299D01*
X165566746Y-98986832D01*
X165566748Y-98986827D01*
X165632838Y-98792130D01*
X165632839Y-98792125D01*
X165634694Y-98786661D01*
X165639773Y-98751638D01*
X165665323Y-98575419D01*
X165665856Y-98571745D01*
X165667482Y-98509640D01*
X165664628Y-98478577D01*
X183332925Y-98478577D01*
X183347128Y-98695275D01*
X183400583Y-98905756D01*
X183491501Y-99102971D01*
X183616835Y-99280315D01*
X183772389Y-99431850D01*
X183777185Y-99435055D01*
X183777188Y-99435057D01*
X183903732Y-99519610D01*
X183952954Y-99552499D01*
X183958257Y-99554777D01*
X183958260Y-99554779D01*
X184053199Y-99595568D01*
X184152481Y-99638223D01*
X184229801Y-99655719D01*
X184358653Y-99684875D01*
X184358658Y-99684876D01*
X184364290Y-99686150D01*
X184370061Y-99686377D01*
X184370063Y-99686377D01*
X184435413Y-99688945D01*
X184581285Y-99694676D01*
X184688743Y-99679095D01*
X184790487Y-99664343D01*
X184790492Y-99664342D01*
X184796201Y-99663514D01*
X184801665Y-99661659D01*
X184801670Y-99661658D01*
X184996367Y-99595568D01*
X184996372Y-99595566D01*
X185001839Y-99593710D01*
X185069707Y-99555702D01*
X185186266Y-99490426D01*
X185186270Y-99490423D01*
X185191313Y-99487599D01*
X185358277Y-99348737D01*
X185497139Y-99181773D01*
X185499963Y-99176730D01*
X185499966Y-99176726D01*
X185600426Y-98997342D01*
X185600427Y-98997340D01*
X185603250Y-98992299D01*
X185605106Y-98986832D01*
X185605108Y-98986827D01*
X185671198Y-98792130D01*
X185671199Y-98792125D01*
X185673054Y-98786661D01*
X185678133Y-98751638D01*
X185703683Y-98575419D01*
X185704216Y-98571745D01*
X185705842Y-98509640D01*
X185702988Y-98478577D01*
X186294565Y-98478577D01*
X186308768Y-98695275D01*
X186362223Y-98905756D01*
X186453141Y-99102971D01*
X186578475Y-99280315D01*
X186734029Y-99431850D01*
X186738825Y-99435055D01*
X186738828Y-99435057D01*
X186865372Y-99519610D01*
X186914594Y-99552499D01*
X186919897Y-99554777D01*
X186919900Y-99554779D01*
X187014839Y-99595568D01*
X187114121Y-99638223D01*
X187191441Y-99655719D01*
X187320293Y-99684875D01*
X187320298Y-99684876D01*
X187325930Y-99686150D01*
X187331701Y-99686377D01*
X187331703Y-99686377D01*
X187397053Y-99688945D01*
X187542925Y-99694676D01*
X187650383Y-99679095D01*
X187752127Y-99664343D01*
X187752132Y-99664342D01*
X187757841Y-99663514D01*
X187763305Y-99661659D01*
X187763310Y-99661658D01*
X187958007Y-99595568D01*
X187958012Y-99595566D01*
X187963479Y-99593710D01*
X188031347Y-99555702D01*
X188147906Y-99490426D01*
X188147910Y-99490423D01*
X188152953Y-99487599D01*
X188319917Y-99348737D01*
X188458779Y-99181773D01*
X188461603Y-99176730D01*
X188461606Y-99176726D01*
X188562066Y-98997342D01*
X188562067Y-98997340D01*
X188564890Y-98992299D01*
X188566746Y-98986832D01*
X188566748Y-98986827D01*
X188632838Y-98792130D01*
X188632839Y-98792125D01*
X188634694Y-98786661D01*
X188639773Y-98751638D01*
X188665323Y-98575419D01*
X188665856Y-98571745D01*
X188667482Y-98509640D01*
X188649872Y-98317996D01*
X188648140Y-98299142D01*
X188648139Y-98299139D01*
X188647611Y-98293388D01*
X188645997Y-98287663D01*
X188590232Y-98089937D01*
X188590231Y-98089935D01*
X188588664Y-98084378D01*
X188581385Y-98069616D01*
X188495171Y-97894792D01*
X188492616Y-97889611D01*
X188432824Y-97809539D01*
X188366135Y-97720232D01*
X188366134Y-97720231D01*
X188362682Y-97715608D01*
X188333886Y-97688989D01*
X188207455Y-97572118D01*
X188207453Y-97572116D01*
X188203214Y-97568198D01*
X188019553Y-97452316D01*
X187817850Y-97371845D01*
X187812190Y-97370719D01*
X187812186Y-97370718D01*
X187610528Y-97330606D01*
X187610523Y-97330606D01*
X187604860Y-97329479D01*
X187599085Y-97329403D01*
X187599081Y-97329403D01*
X187489935Y-97327974D01*
X187387716Y-97326636D01*
X187382019Y-97327615D01*
X187382018Y-97327615D01*
X187179379Y-97362435D01*
X187179376Y-97362436D01*
X187173689Y-97363413D01*
X186969949Y-97438576D01*
X186942343Y-97455000D01*
X186788286Y-97546654D01*
X186788283Y-97546656D01*
X186783318Y-97549610D01*
X186778978Y-97553416D01*
X186778974Y-97553419D01*
X186674872Y-97644715D01*
X186620046Y-97692796D01*
X186616471Y-97697331D01*
X186616470Y-97697332D01*
X186598417Y-97720232D01*
X186485602Y-97863338D01*
X186482913Y-97868449D01*
X186482911Y-97868452D01*
X186387179Y-98050406D01*
X186387176Y-98050413D01*
X186384487Y-98055524D01*
X186320089Y-98262919D01*
X186294565Y-98478577D01*
X185702988Y-98478577D01*
X185688232Y-98317996D01*
X185686500Y-98299142D01*
X185686499Y-98299139D01*
X185685971Y-98293388D01*
X185684357Y-98287663D01*
X185628592Y-98089937D01*
X185628591Y-98089935D01*
X185627024Y-98084378D01*
X185619745Y-98069616D01*
X185533531Y-97894792D01*
X185530976Y-97889611D01*
X185471184Y-97809539D01*
X185404495Y-97720232D01*
X185404494Y-97720231D01*
X185401042Y-97715608D01*
X185372246Y-97688989D01*
X185245815Y-97572118D01*
X185245813Y-97572116D01*
X185241574Y-97568198D01*
X185057913Y-97452316D01*
X184856210Y-97371845D01*
X184850550Y-97370719D01*
X184850546Y-97370718D01*
X184648888Y-97330606D01*
X184648883Y-97330606D01*
X184643220Y-97329479D01*
X184637445Y-97329403D01*
X184637441Y-97329403D01*
X184528295Y-97327974D01*
X184426076Y-97326636D01*
X184420379Y-97327615D01*
X184420378Y-97327615D01*
X184217739Y-97362435D01*
X184217736Y-97362436D01*
X184212049Y-97363413D01*
X184008309Y-97438576D01*
X183980703Y-97455000D01*
X183826646Y-97546654D01*
X183826643Y-97546656D01*
X183821678Y-97549610D01*
X183817338Y-97553416D01*
X183817334Y-97553419D01*
X183713232Y-97644715D01*
X183658406Y-97692796D01*
X183654831Y-97697331D01*
X183654830Y-97697332D01*
X183636777Y-97720232D01*
X183523962Y-97863338D01*
X183521273Y-97868449D01*
X183521271Y-97868452D01*
X183425539Y-98050406D01*
X183425536Y-98050413D01*
X183422847Y-98055524D01*
X183358449Y-98262919D01*
X183332925Y-98478577D01*
X165664628Y-98478577D01*
X165649872Y-98317996D01*
X165648140Y-98299142D01*
X165648139Y-98299139D01*
X165647611Y-98293388D01*
X165645997Y-98287663D01*
X165590232Y-98089937D01*
X165590231Y-98089935D01*
X165588664Y-98084378D01*
X165581385Y-98069616D01*
X165495171Y-97894792D01*
X165492616Y-97889611D01*
X165432824Y-97809539D01*
X165366135Y-97720232D01*
X165366134Y-97720231D01*
X165362682Y-97715608D01*
X165333886Y-97688989D01*
X165207455Y-97572118D01*
X165207453Y-97572116D01*
X165203214Y-97568198D01*
X165019553Y-97452316D01*
X164817850Y-97371845D01*
X164812190Y-97370719D01*
X164812186Y-97370718D01*
X164610528Y-97330606D01*
X164610523Y-97330606D01*
X164604860Y-97329479D01*
X164599085Y-97329403D01*
X164599081Y-97329403D01*
X164489935Y-97327974D01*
X164387716Y-97326636D01*
X164382019Y-97327615D01*
X164382018Y-97327615D01*
X164179379Y-97362435D01*
X164179376Y-97362436D01*
X164173689Y-97363413D01*
X163969949Y-97438576D01*
X163942343Y-97455000D01*
X163788286Y-97546654D01*
X163788283Y-97546656D01*
X163783318Y-97549610D01*
X163778978Y-97553416D01*
X163778974Y-97553419D01*
X163674872Y-97644715D01*
X163620046Y-97692796D01*
X163616471Y-97697331D01*
X163616470Y-97697332D01*
X163598417Y-97720232D01*
X163485602Y-97863338D01*
X163482913Y-97868449D01*
X163482911Y-97868452D01*
X163387179Y-98050406D01*
X163387176Y-98050413D01*
X163384487Y-98055524D01*
X163320089Y-98262919D01*
X163294565Y-98478577D01*
X162702988Y-98478577D01*
X162688232Y-98317996D01*
X162686500Y-98299142D01*
X162686499Y-98299139D01*
X162685971Y-98293388D01*
X162684357Y-98287663D01*
X162628592Y-98089937D01*
X162628591Y-98089935D01*
X162627024Y-98084378D01*
X162619745Y-98069616D01*
X162533531Y-97894792D01*
X162530976Y-97889611D01*
X162471184Y-97809539D01*
X162404495Y-97720232D01*
X162404494Y-97720231D01*
X162401042Y-97715608D01*
X162372246Y-97688989D01*
X162245815Y-97572118D01*
X162245813Y-97572116D01*
X162241574Y-97568198D01*
X162057913Y-97452316D01*
X161856210Y-97371845D01*
X161850550Y-97370719D01*
X161850546Y-97370718D01*
X161648888Y-97330606D01*
X161648883Y-97330606D01*
X161643220Y-97329479D01*
X161637445Y-97329403D01*
X161637441Y-97329403D01*
X161528295Y-97327974D01*
X161426076Y-97326636D01*
X161420379Y-97327615D01*
X161420378Y-97327615D01*
X161217739Y-97362435D01*
X161217736Y-97362436D01*
X161212049Y-97363413D01*
X161008309Y-97438576D01*
X160980703Y-97455000D01*
X160826646Y-97546654D01*
X160826643Y-97546656D01*
X160821678Y-97549610D01*
X160817338Y-97553416D01*
X160817334Y-97553419D01*
X160713232Y-97644715D01*
X160658406Y-97692796D01*
X160654831Y-97697331D01*
X160654830Y-97697332D01*
X160636777Y-97720232D01*
X160523962Y-97863338D01*
X160521273Y-97868449D01*
X160521271Y-97868452D01*
X160425539Y-98050406D01*
X160425536Y-98050413D01*
X160422847Y-98055524D01*
X160358449Y-98262919D01*
X160332925Y-98478577D01*
X131664628Y-98478577D01*
X131649872Y-98317996D01*
X131648140Y-98299142D01*
X131648139Y-98299139D01*
X131647611Y-98293388D01*
X131645997Y-98287663D01*
X131590232Y-98089937D01*
X131590231Y-98089935D01*
X131588664Y-98084378D01*
X131581385Y-98069616D01*
X131495171Y-97894792D01*
X131492616Y-97889611D01*
X131432824Y-97809539D01*
X131366135Y-97720232D01*
X131366134Y-97720231D01*
X131362682Y-97715608D01*
X131333886Y-97688989D01*
X131207455Y-97572118D01*
X131207453Y-97572116D01*
X131203214Y-97568198D01*
X131019553Y-97452316D01*
X130817850Y-97371845D01*
X130812190Y-97370719D01*
X130812186Y-97370718D01*
X130610528Y-97330606D01*
X130610523Y-97330606D01*
X130604860Y-97329479D01*
X130599085Y-97329403D01*
X130599081Y-97329403D01*
X130489935Y-97327974D01*
X130387716Y-97326636D01*
X130382019Y-97327615D01*
X130382018Y-97327615D01*
X130179379Y-97362435D01*
X130179376Y-97362436D01*
X130173689Y-97363413D01*
X129969949Y-97438576D01*
X129942343Y-97455000D01*
X129788286Y-97546654D01*
X129788283Y-97546656D01*
X129783318Y-97549610D01*
X129778978Y-97553416D01*
X129778974Y-97553419D01*
X129674872Y-97644715D01*
X129620046Y-97692796D01*
X129616471Y-97697331D01*
X129616470Y-97697332D01*
X129598417Y-97720232D01*
X129485602Y-97863338D01*
X129482913Y-97868449D01*
X129482911Y-97868452D01*
X129387179Y-98050406D01*
X129387176Y-98050413D01*
X129384487Y-98055524D01*
X129320089Y-98262919D01*
X129294565Y-98478577D01*
X128702988Y-98478577D01*
X128688232Y-98317996D01*
X128686500Y-98299142D01*
X128686499Y-98299139D01*
X128685971Y-98293388D01*
X128684357Y-98287663D01*
X128628592Y-98089937D01*
X128628591Y-98089935D01*
X128627024Y-98084378D01*
X128619745Y-98069616D01*
X128533531Y-97894792D01*
X128530976Y-97889611D01*
X128471184Y-97809539D01*
X128404495Y-97720232D01*
X128404494Y-97720231D01*
X128401042Y-97715608D01*
X128372246Y-97688989D01*
X128245815Y-97572118D01*
X128245813Y-97572116D01*
X128241574Y-97568198D01*
X128057913Y-97452316D01*
X127856210Y-97371845D01*
X127850550Y-97370719D01*
X127850546Y-97370718D01*
X127648888Y-97330606D01*
X127648883Y-97330606D01*
X127643220Y-97329479D01*
X127637445Y-97329403D01*
X127637441Y-97329403D01*
X127528295Y-97327974D01*
X127426076Y-97326636D01*
X127420379Y-97327615D01*
X127420378Y-97327615D01*
X127217739Y-97362435D01*
X127217736Y-97362436D01*
X127212049Y-97363413D01*
X127008309Y-97438576D01*
X126980703Y-97455000D01*
X126826646Y-97546654D01*
X126826643Y-97546656D01*
X126821678Y-97549610D01*
X126817338Y-97553416D01*
X126817334Y-97553419D01*
X126713232Y-97644715D01*
X126658406Y-97692796D01*
X126654831Y-97697331D01*
X126654830Y-97697332D01*
X126636777Y-97720232D01*
X126523962Y-97863338D01*
X126521273Y-97868449D01*
X126521271Y-97868452D01*
X126425539Y-98050406D01*
X126425536Y-98050413D01*
X126422847Y-98055524D01*
X126358449Y-98262919D01*
X126332925Y-98478577D01*
X108664628Y-98478577D01*
X108649872Y-98317996D01*
X108648140Y-98299142D01*
X108648139Y-98299139D01*
X108647611Y-98293388D01*
X108645997Y-98287663D01*
X108590232Y-98089937D01*
X108590231Y-98089935D01*
X108588664Y-98084378D01*
X108581385Y-98069616D01*
X108495171Y-97894792D01*
X108492616Y-97889611D01*
X108432824Y-97809539D01*
X108366135Y-97720232D01*
X108366134Y-97720231D01*
X108362682Y-97715608D01*
X108333886Y-97688989D01*
X108207455Y-97572118D01*
X108207453Y-97572116D01*
X108203214Y-97568198D01*
X108019553Y-97452316D01*
X107817850Y-97371845D01*
X107812190Y-97370719D01*
X107812186Y-97370718D01*
X107610528Y-97330606D01*
X107610523Y-97330606D01*
X107604860Y-97329479D01*
X107599085Y-97329403D01*
X107599081Y-97329403D01*
X107489935Y-97327974D01*
X107387716Y-97326636D01*
X107382019Y-97327615D01*
X107382018Y-97327615D01*
X107179379Y-97362435D01*
X107179376Y-97362436D01*
X107173689Y-97363413D01*
X106969949Y-97438576D01*
X106942343Y-97455000D01*
X106788286Y-97546654D01*
X106788283Y-97546656D01*
X106783318Y-97549610D01*
X106778978Y-97553416D01*
X106778974Y-97553419D01*
X106674872Y-97644715D01*
X106620046Y-97692796D01*
X106616471Y-97697331D01*
X106616470Y-97697332D01*
X106598417Y-97720232D01*
X106485602Y-97863338D01*
X106482913Y-97868449D01*
X106482911Y-97868452D01*
X106387179Y-98050406D01*
X106387176Y-98050413D01*
X106384487Y-98055524D01*
X106320089Y-98262919D01*
X106294565Y-98478577D01*
X105702988Y-98478577D01*
X105688232Y-98317996D01*
X105686500Y-98299142D01*
X105686499Y-98299139D01*
X105685971Y-98293388D01*
X105684357Y-98287663D01*
X105628592Y-98089937D01*
X105628591Y-98089935D01*
X105627024Y-98084378D01*
X105619745Y-98069616D01*
X105533531Y-97894792D01*
X105530976Y-97889611D01*
X105471184Y-97809539D01*
X105404495Y-97720232D01*
X105404494Y-97720231D01*
X105401042Y-97715608D01*
X105372246Y-97688989D01*
X105245815Y-97572118D01*
X105245813Y-97572116D01*
X105241574Y-97568198D01*
X105057913Y-97452316D01*
X104856210Y-97371845D01*
X104850550Y-97370719D01*
X104850546Y-97370718D01*
X104648888Y-97330606D01*
X104648883Y-97330606D01*
X104643220Y-97329479D01*
X104637445Y-97329403D01*
X104637441Y-97329403D01*
X104528295Y-97327974D01*
X104426076Y-97326636D01*
X104420379Y-97327615D01*
X104420378Y-97327615D01*
X104217739Y-97362435D01*
X104217736Y-97362436D01*
X104212049Y-97363413D01*
X104008309Y-97438576D01*
X103980703Y-97455000D01*
X103826646Y-97546654D01*
X103826643Y-97546656D01*
X103821678Y-97549610D01*
X103817338Y-97553416D01*
X103817334Y-97553419D01*
X103713232Y-97644715D01*
X103658406Y-97692796D01*
X103654831Y-97697331D01*
X103654830Y-97697332D01*
X103636777Y-97720232D01*
X103523962Y-97863338D01*
X103521273Y-97868449D01*
X103521271Y-97868452D01*
X103425539Y-98050406D01*
X103425536Y-98050413D01*
X103422847Y-98055524D01*
X103358449Y-98262919D01*
X103332925Y-98478577D01*
X93376258Y-98478577D01*
X91999578Y-97101897D01*
X100709105Y-97101897D01*
X100723308Y-97318595D01*
X100776763Y-97529076D01*
X100867681Y-97726291D01*
X100993015Y-97903635D01*
X101148569Y-98055170D01*
X101153365Y-98058375D01*
X101153368Y-98058377D01*
X101295266Y-98153189D01*
X101329134Y-98175819D01*
X101334437Y-98178097D01*
X101334440Y-98178099D01*
X101523354Y-98259263D01*
X101528661Y-98261543D01*
X101605981Y-98279039D01*
X101734833Y-98308195D01*
X101734838Y-98308196D01*
X101740470Y-98309470D01*
X101746241Y-98309697D01*
X101746243Y-98309697D01*
X101811593Y-98312265D01*
X101957465Y-98317996D01*
X102064923Y-98302415D01*
X102166667Y-98287663D01*
X102166672Y-98287662D01*
X102172381Y-98286834D01*
X102177845Y-98284979D01*
X102177850Y-98284978D01*
X102372547Y-98218888D01*
X102372552Y-98218886D01*
X102378019Y-98217030D01*
X102383062Y-98214206D01*
X102562446Y-98113746D01*
X102562450Y-98113743D01*
X102567493Y-98110919D01*
X102734457Y-97972057D01*
X102873319Y-97805093D01*
X102876143Y-97800050D01*
X102876146Y-97800046D01*
X102976606Y-97620662D01*
X102976607Y-97620660D01*
X102979430Y-97615619D01*
X102981286Y-97610152D01*
X102981288Y-97610147D01*
X103047378Y-97415450D01*
X103047379Y-97415445D01*
X103049234Y-97409981D01*
X103054454Y-97373985D01*
X103079863Y-97198739D01*
X103080396Y-97195065D01*
X103082022Y-97132960D01*
X103079168Y-97101897D01*
X108918385Y-97101897D01*
X108932588Y-97318595D01*
X108986043Y-97529076D01*
X109076961Y-97726291D01*
X109202295Y-97903635D01*
X109357849Y-98055170D01*
X109362645Y-98058375D01*
X109362648Y-98058377D01*
X109504546Y-98153189D01*
X109538414Y-98175819D01*
X109543717Y-98178097D01*
X109543720Y-98178099D01*
X109732634Y-98259263D01*
X109737941Y-98261543D01*
X109815261Y-98279039D01*
X109944113Y-98308195D01*
X109944118Y-98308196D01*
X109949750Y-98309470D01*
X109955521Y-98309697D01*
X109955523Y-98309697D01*
X110020873Y-98312265D01*
X110166745Y-98317996D01*
X110274203Y-98302415D01*
X110375947Y-98287663D01*
X110375952Y-98287662D01*
X110381661Y-98286834D01*
X110387125Y-98284979D01*
X110387130Y-98284978D01*
X110581827Y-98218888D01*
X110581832Y-98218886D01*
X110587299Y-98217030D01*
X110592342Y-98214206D01*
X110771726Y-98113746D01*
X110771730Y-98113743D01*
X110776773Y-98110919D01*
X110943737Y-97972057D01*
X111082599Y-97805093D01*
X111085423Y-97800050D01*
X111085426Y-97800046D01*
X111185886Y-97620662D01*
X111185887Y-97620660D01*
X111188710Y-97615619D01*
X111190566Y-97610152D01*
X111190568Y-97610147D01*
X111256658Y-97415450D01*
X111256659Y-97415445D01*
X111258514Y-97409981D01*
X111263734Y-97373985D01*
X111289143Y-97198739D01*
X111289676Y-97195065D01*
X111291302Y-97132960D01*
X111288448Y-97101897D01*
X123709105Y-97101897D01*
X123723308Y-97318595D01*
X123776763Y-97529076D01*
X123867681Y-97726291D01*
X123993015Y-97903635D01*
X124148569Y-98055170D01*
X124153365Y-98058375D01*
X124153368Y-98058377D01*
X124295266Y-98153189D01*
X124329134Y-98175819D01*
X124334437Y-98178097D01*
X124334440Y-98178099D01*
X124523354Y-98259263D01*
X124528661Y-98261543D01*
X124605981Y-98279039D01*
X124734833Y-98308195D01*
X124734838Y-98308196D01*
X124740470Y-98309470D01*
X124746241Y-98309697D01*
X124746243Y-98309697D01*
X124811593Y-98312265D01*
X124957465Y-98317996D01*
X125064923Y-98302415D01*
X125166667Y-98287663D01*
X125166672Y-98287662D01*
X125172381Y-98286834D01*
X125177845Y-98284979D01*
X125177850Y-98284978D01*
X125372547Y-98218888D01*
X125372552Y-98218886D01*
X125378019Y-98217030D01*
X125383062Y-98214206D01*
X125562446Y-98113746D01*
X125562450Y-98113743D01*
X125567493Y-98110919D01*
X125734457Y-97972057D01*
X125873319Y-97805093D01*
X125876143Y-97800050D01*
X125876146Y-97800046D01*
X125976606Y-97620662D01*
X125976607Y-97620660D01*
X125979430Y-97615619D01*
X125981286Y-97610152D01*
X125981288Y-97610147D01*
X126047378Y-97415450D01*
X126047379Y-97415445D01*
X126049234Y-97409981D01*
X126054454Y-97373985D01*
X126079863Y-97198739D01*
X126080396Y-97195065D01*
X126082022Y-97132960D01*
X126079168Y-97101897D01*
X131918385Y-97101897D01*
X131932588Y-97318595D01*
X131986043Y-97529076D01*
X132076961Y-97726291D01*
X132202295Y-97903635D01*
X132357849Y-98055170D01*
X132362645Y-98058375D01*
X132362648Y-98058377D01*
X132504546Y-98153189D01*
X132538414Y-98175819D01*
X132543717Y-98178097D01*
X132543720Y-98178099D01*
X132732634Y-98259263D01*
X132737941Y-98261543D01*
X132815261Y-98279039D01*
X132944113Y-98308195D01*
X132944118Y-98308196D01*
X132949750Y-98309470D01*
X132955521Y-98309697D01*
X132955523Y-98309697D01*
X133020873Y-98312265D01*
X133166745Y-98317996D01*
X133274203Y-98302415D01*
X133375947Y-98287663D01*
X133375952Y-98287662D01*
X133381661Y-98286834D01*
X133387125Y-98284979D01*
X133387130Y-98284978D01*
X133581827Y-98218888D01*
X133581832Y-98218886D01*
X133587299Y-98217030D01*
X133592342Y-98214206D01*
X133771726Y-98113746D01*
X133771730Y-98113743D01*
X133776773Y-98110919D01*
X133943737Y-97972057D01*
X134082599Y-97805093D01*
X134085423Y-97800050D01*
X134085426Y-97800046D01*
X134185886Y-97620662D01*
X134185887Y-97620660D01*
X134188710Y-97615619D01*
X134190566Y-97610152D01*
X134190568Y-97610147D01*
X134256658Y-97415450D01*
X134256659Y-97415445D01*
X134258514Y-97409981D01*
X134263734Y-97373985D01*
X134289143Y-97198739D01*
X134289676Y-97195065D01*
X134291302Y-97132960D01*
X134288448Y-97101897D01*
X157709105Y-97101897D01*
X157723308Y-97318595D01*
X157776763Y-97529076D01*
X157867681Y-97726291D01*
X157993015Y-97903635D01*
X158148569Y-98055170D01*
X158153365Y-98058375D01*
X158153368Y-98058377D01*
X158295266Y-98153189D01*
X158329134Y-98175819D01*
X158334437Y-98178097D01*
X158334440Y-98178099D01*
X158523354Y-98259263D01*
X158528661Y-98261543D01*
X158605981Y-98279039D01*
X158734833Y-98308195D01*
X158734838Y-98308196D01*
X158740470Y-98309470D01*
X158746241Y-98309697D01*
X158746243Y-98309697D01*
X158811593Y-98312265D01*
X158957465Y-98317996D01*
X159064923Y-98302415D01*
X159166667Y-98287663D01*
X159166672Y-98287662D01*
X159172381Y-98286834D01*
X159177845Y-98284979D01*
X159177850Y-98284978D01*
X159372547Y-98218888D01*
X159372552Y-98218886D01*
X159378019Y-98217030D01*
X159383062Y-98214206D01*
X159562446Y-98113746D01*
X159562450Y-98113743D01*
X159567493Y-98110919D01*
X159734457Y-97972057D01*
X159873319Y-97805093D01*
X159876143Y-97800050D01*
X159876146Y-97800046D01*
X159976606Y-97620662D01*
X159976607Y-97620660D01*
X159979430Y-97615619D01*
X159981286Y-97610152D01*
X159981288Y-97610147D01*
X160047378Y-97415450D01*
X160047379Y-97415445D01*
X160049234Y-97409981D01*
X160054454Y-97373985D01*
X160079863Y-97198739D01*
X160080396Y-97195065D01*
X160082022Y-97132960D01*
X160079168Y-97101897D01*
X165918385Y-97101897D01*
X165932588Y-97318595D01*
X165986043Y-97529076D01*
X166076961Y-97726291D01*
X166202295Y-97903635D01*
X166357849Y-98055170D01*
X166362645Y-98058375D01*
X166362648Y-98058377D01*
X166504546Y-98153189D01*
X166538414Y-98175819D01*
X166543717Y-98178097D01*
X166543720Y-98178099D01*
X166732634Y-98259263D01*
X166737941Y-98261543D01*
X166815261Y-98279039D01*
X166944113Y-98308195D01*
X166944118Y-98308196D01*
X166949750Y-98309470D01*
X166955521Y-98309697D01*
X166955523Y-98309697D01*
X167020873Y-98312265D01*
X167166745Y-98317996D01*
X167274203Y-98302415D01*
X167375947Y-98287663D01*
X167375952Y-98287662D01*
X167381661Y-98286834D01*
X167387125Y-98284979D01*
X167387130Y-98284978D01*
X167581827Y-98218888D01*
X167581832Y-98218886D01*
X167587299Y-98217030D01*
X167592342Y-98214206D01*
X167771726Y-98113746D01*
X167771730Y-98113743D01*
X167776773Y-98110919D01*
X167943737Y-97972057D01*
X168082599Y-97805093D01*
X168085423Y-97800050D01*
X168085426Y-97800046D01*
X168185886Y-97620662D01*
X168185887Y-97620660D01*
X168188710Y-97615619D01*
X168190566Y-97610152D01*
X168190568Y-97610147D01*
X168256658Y-97415450D01*
X168256659Y-97415445D01*
X168258514Y-97409981D01*
X168263734Y-97373985D01*
X168289143Y-97198739D01*
X168289676Y-97195065D01*
X168291302Y-97132960D01*
X168288448Y-97101897D01*
X180709105Y-97101897D01*
X180723308Y-97318595D01*
X180776763Y-97529076D01*
X180867681Y-97726291D01*
X180993015Y-97903635D01*
X181148569Y-98055170D01*
X181153365Y-98058375D01*
X181153368Y-98058377D01*
X181295266Y-98153189D01*
X181329134Y-98175819D01*
X181334437Y-98178097D01*
X181334440Y-98178099D01*
X181523354Y-98259263D01*
X181528661Y-98261543D01*
X181605981Y-98279039D01*
X181734833Y-98308195D01*
X181734838Y-98308196D01*
X181740470Y-98309470D01*
X181746241Y-98309697D01*
X181746243Y-98309697D01*
X181811593Y-98312265D01*
X181957465Y-98317996D01*
X182064923Y-98302415D01*
X182166667Y-98287663D01*
X182166672Y-98287662D01*
X182172381Y-98286834D01*
X182177845Y-98284979D01*
X182177850Y-98284978D01*
X182372547Y-98218888D01*
X182372552Y-98218886D01*
X182378019Y-98217030D01*
X182383062Y-98214206D01*
X182562446Y-98113746D01*
X182562450Y-98113743D01*
X182567493Y-98110919D01*
X182734457Y-97972057D01*
X182873319Y-97805093D01*
X182876143Y-97800050D01*
X182876146Y-97800046D01*
X182976606Y-97620662D01*
X182976607Y-97620660D01*
X182979430Y-97615619D01*
X182981286Y-97610152D01*
X182981288Y-97610147D01*
X183047378Y-97415450D01*
X183047379Y-97415445D01*
X183049234Y-97409981D01*
X183054454Y-97373985D01*
X183079863Y-97198739D01*
X183080396Y-97195065D01*
X183082022Y-97132960D01*
X183079168Y-97101897D01*
X188918385Y-97101897D01*
X188932588Y-97318595D01*
X188986043Y-97529076D01*
X189076961Y-97726291D01*
X189202295Y-97903635D01*
X189357849Y-98055170D01*
X189362645Y-98058375D01*
X189362648Y-98058377D01*
X189504546Y-98153189D01*
X189538414Y-98175819D01*
X189543717Y-98178097D01*
X189543720Y-98178099D01*
X189732634Y-98259263D01*
X189737941Y-98261543D01*
X189815261Y-98279039D01*
X189944113Y-98308195D01*
X189944118Y-98308196D01*
X189949750Y-98309470D01*
X189955521Y-98309697D01*
X189955523Y-98309697D01*
X190020873Y-98312265D01*
X190166745Y-98317996D01*
X190274203Y-98302415D01*
X190375947Y-98287663D01*
X190375952Y-98287662D01*
X190381661Y-98286834D01*
X190387125Y-98284979D01*
X190387130Y-98284978D01*
X190581827Y-98218888D01*
X190581832Y-98218886D01*
X190587299Y-98217030D01*
X190592342Y-98214206D01*
X190771726Y-98113746D01*
X190771730Y-98113743D01*
X190776773Y-98110919D01*
X190943737Y-97972057D01*
X191082599Y-97805093D01*
X191085423Y-97800050D01*
X191085426Y-97800046D01*
X191185886Y-97620662D01*
X191185887Y-97620660D01*
X191188710Y-97615619D01*
X191190566Y-97610152D01*
X191190568Y-97610147D01*
X191256658Y-97415450D01*
X191256659Y-97415445D01*
X191258514Y-97409981D01*
X191263734Y-97373985D01*
X191289143Y-97198739D01*
X191289676Y-97195065D01*
X191291302Y-97132960D01*
X191271431Y-96916708D01*
X191269148Y-96908611D01*
X191214052Y-96713257D01*
X191214051Y-96713255D01*
X191212484Y-96707698D01*
X191200980Y-96684369D01*
X191118991Y-96518112D01*
X191116436Y-96512931D01*
X191058717Y-96435635D01*
X190989955Y-96343552D01*
X190989954Y-96343551D01*
X190986502Y-96338928D01*
X190939010Y-96295027D01*
X190831275Y-96195438D01*
X190831273Y-96195436D01*
X190827034Y-96191518D01*
X190752259Y-96144338D01*
X190648253Y-96078715D01*
X190648252Y-96078715D01*
X190643373Y-96075636D01*
X190441670Y-95995165D01*
X190436010Y-95994039D01*
X190436006Y-95994038D01*
X190234348Y-95953926D01*
X190234343Y-95953926D01*
X190228680Y-95952799D01*
X190222905Y-95952723D01*
X190222901Y-95952723D01*
X190113755Y-95951294D01*
X190011536Y-95949956D01*
X190005839Y-95950935D01*
X190005838Y-95950935D01*
X189803199Y-95985755D01*
X189803196Y-95985756D01*
X189797509Y-95986733D01*
X189593769Y-96061896D01*
X189565499Y-96078715D01*
X189412106Y-96169974D01*
X189412103Y-96169976D01*
X189407138Y-96172930D01*
X189402798Y-96176736D01*
X189402794Y-96176739D01*
X189267913Y-96295027D01*
X189243866Y-96316116D01*
X189240291Y-96320651D01*
X189240290Y-96320652D01*
X189222237Y-96343552D01*
X189109422Y-96486658D01*
X189106733Y-96491769D01*
X189106731Y-96491772D01*
X189010999Y-96673726D01*
X189010996Y-96673733D01*
X189008307Y-96678844D01*
X188943909Y-96886239D01*
X188918385Y-97101897D01*
X183079168Y-97101897D01*
X183062151Y-96916708D01*
X183059868Y-96908611D01*
X183004772Y-96713257D01*
X183004771Y-96713255D01*
X183003204Y-96707698D01*
X182991700Y-96684369D01*
X182909711Y-96518112D01*
X182907156Y-96512931D01*
X182849437Y-96435635D01*
X182780675Y-96343552D01*
X182780674Y-96343551D01*
X182777222Y-96338928D01*
X182729730Y-96295027D01*
X182621995Y-96195438D01*
X182621993Y-96195436D01*
X182617754Y-96191518D01*
X182542979Y-96144338D01*
X182438973Y-96078715D01*
X182438972Y-96078715D01*
X182434093Y-96075636D01*
X182232390Y-95995165D01*
X182226730Y-95994039D01*
X182226726Y-95994038D01*
X182025068Y-95953926D01*
X182025063Y-95953926D01*
X182019400Y-95952799D01*
X182013625Y-95952723D01*
X182013621Y-95952723D01*
X181904475Y-95951294D01*
X181802256Y-95949956D01*
X181796559Y-95950935D01*
X181796558Y-95950935D01*
X181593919Y-95985755D01*
X181593916Y-95985756D01*
X181588229Y-95986733D01*
X181384489Y-96061896D01*
X181356219Y-96078715D01*
X181202826Y-96169974D01*
X181202823Y-96169976D01*
X181197858Y-96172930D01*
X181193518Y-96176736D01*
X181193514Y-96176739D01*
X181058633Y-96295027D01*
X181034586Y-96316116D01*
X181031011Y-96320651D01*
X181031010Y-96320652D01*
X181012957Y-96343552D01*
X180900142Y-96486658D01*
X180897453Y-96491769D01*
X180897451Y-96491772D01*
X180801719Y-96673726D01*
X180801716Y-96673733D01*
X180799027Y-96678844D01*
X180734629Y-96886239D01*
X180709105Y-97101897D01*
X168288448Y-97101897D01*
X168271431Y-96916708D01*
X168269148Y-96908611D01*
X168214052Y-96713257D01*
X168214051Y-96713255D01*
X168212484Y-96707698D01*
X168200980Y-96684369D01*
X168118991Y-96518112D01*
X168116436Y-96512931D01*
X168058717Y-96435635D01*
X167989955Y-96343552D01*
X167989954Y-96343551D01*
X167986502Y-96338928D01*
X167939010Y-96295027D01*
X167831275Y-96195438D01*
X167831273Y-96195436D01*
X167827034Y-96191518D01*
X167752259Y-96144338D01*
X167648253Y-96078715D01*
X167648252Y-96078715D01*
X167643373Y-96075636D01*
X167441670Y-95995165D01*
X167436010Y-95994039D01*
X167436006Y-95994038D01*
X167234348Y-95953926D01*
X167234343Y-95953926D01*
X167228680Y-95952799D01*
X167222905Y-95952723D01*
X167222901Y-95952723D01*
X167113755Y-95951294D01*
X167011536Y-95949956D01*
X167005839Y-95950935D01*
X167005838Y-95950935D01*
X166803199Y-95985755D01*
X166803196Y-95985756D01*
X166797509Y-95986733D01*
X166593769Y-96061896D01*
X166565499Y-96078715D01*
X166412106Y-96169974D01*
X166412103Y-96169976D01*
X166407138Y-96172930D01*
X166402798Y-96176736D01*
X166402794Y-96176739D01*
X166267913Y-96295027D01*
X166243866Y-96316116D01*
X166240291Y-96320651D01*
X166240290Y-96320652D01*
X166222237Y-96343552D01*
X166109422Y-96486658D01*
X166106733Y-96491769D01*
X166106731Y-96491772D01*
X166010999Y-96673726D01*
X166010996Y-96673733D01*
X166008307Y-96678844D01*
X165943909Y-96886239D01*
X165918385Y-97101897D01*
X160079168Y-97101897D01*
X160062151Y-96916708D01*
X160059868Y-96908611D01*
X160004772Y-96713257D01*
X160004771Y-96713255D01*
X160003204Y-96707698D01*
X159991700Y-96684369D01*
X159909711Y-96518112D01*
X159907156Y-96512931D01*
X159849437Y-96435635D01*
X159780675Y-96343552D01*
X159780674Y-96343551D01*
X159777222Y-96338928D01*
X159729730Y-96295027D01*
X159621995Y-96195438D01*
X159621993Y-96195436D01*
X159617754Y-96191518D01*
X159542979Y-96144338D01*
X159438973Y-96078715D01*
X159438972Y-96078715D01*
X159434093Y-96075636D01*
X159232390Y-95995165D01*
X159226730Y-95994039D01*
X159226726Y-95994038D01*
X159025068Y-95953926D01*
X159025063Y-95953926D01*
X159019400Y-95952799D01*
X159013625Y-95952723D01*
X159013621Y-95952723D01*
X158904475Y-95951294D01*
X158802256Y-95949956D01*
X158796559Y-95950935D01*
X158796558Y-95950935D01*
X158593919Y-95985755D01*
X158593916Y-95985756D01*
X158588229Y-95986733D01*
X158384489Y-96061896D01*
X158356219Y-96078715D01*
X158202826Y-96169974D01*
X158202823Y-96169976D01*
X158197858Y-96172930D01*
X158193518Y-96176736D01*
X158193514Y-96176739D01*
X158058633Y-96295027D01*
X158034586Y-96316116D01*
X158031011Y-96320651D01*
X158031010Y-96320652D01*
X158012957Y-96343552D01*
X157900142Y-96486658D01*
X157897453Y-96491769D01*
X157897451Y-96491772D01*
X157801719Y-96673726D01*
X157801716Y-96673733D01*
X157799027Y-96678844D01*
X157734629Y-96886239D01*
X157709105Y-97101897D01*
X134288448Y-97101897D01*
X134271431Y-96916708D01*
X134269148Y-96908611D01*
X143868719Y-96908611D01*
X143873628Y-96915169D01*
X143980006Y-96974622D01*
X143991246Y-96979532D01*
X144177549Y-97040066D01*
X144189523Y-97042699D01*
X144384045Y-97065894D01*
X144396294Y-97066151D01*
X144591616Y-97051122D01*
X144603696Y-97048991D01*
X144792366Y-96996313D01*
X144803799Y-96991879D01*
X144947995Y-96919040D01*
X144958279Y-96909395D01*
X144956041Y-96902751D01*
X144425312Y-96372022D01*
X144411368Y-96364408D01*
X144409535Y-96364539D01*
X144402920Y-96368790D01*
X143875479Y-96896231D01*
X143868719Y-96908611D01*
X134269148Y-96908611D01*
X134214052Y-96713257D01*
X134214051Y-96713255D01*
X134212484Y-96707698D01*
X134200980Y-96684369D01*
X134118991Y-96518112D01*
X134116436Y-96512931D01*
X134058717Y-96435635D01*
X133989955Y-96343552D01*
X133989954Y-96343551D01*
X133986502Y-96338928D01*
X133939010Y-96295027D01*
X133831275Y-96195438D01*
X133831273Y-96195436D01*
X133827034Y-96191518D01*
X133752259Y-96144338D01*
X133648253Y-96078715D01*
X133648252Y-96078715D01*
X133643373Y-96075636D01*
X133441670Y-95995165D01*
X133436010Y-95994039D01*
X133436006Y-95994038D01*
X133421980Y-95991248D01*
X143346263Y-95991248D01*
X143362654Y-96186447D01*
X143364869Y-96198512D01*
X143418862Y-96386810D01*
X143423380Y-96398222D01*
X143493749Y-96535144D01*
X143503470Y-96545365D01*
X143510269Y-96543021D01*
X144040478Y-96012812D01*
X144046856Y-96001132D01*
X144776908Y-96001132D01*
X144777039Y-96002965D01*
X144781290Y-96009580D01*
X145308563Y-96536853D01*
X145320943Y-96543613D01*
X145327677Y-96538572D01*
X145384075Y-96439293D01*
X145389069Y-96428077D01*
X145450898Y-96242213D01*
X145453618Y-96230242D01*
X145478498Y-96033292D01*
X145478990Y-96026263D01*
X145479308Y-96003505D01*
X145479015Y-95996512D01*
X145477896Y-95985097D01*
X146520244Y-95985097D01*
X146521744Y-96002965D01*
X146537152Y-96186447D01*
X146537675Y-96192679D01*
X146539373Y-96198599D01*
X146593342Y-96386810D01*
X146595094Y-96392921D01*
X146597909Y-96398398D01*
X146672235Y-96543021D01*
X146690313Y-96578198D01*
X146694138Y-96583024D01*
X146694140Y-96583027D01*
X146815876Y-96736621D01*
X146815881Y-96736626D01*
X146819705Y-96741451D01*
X146978343Y-96876462D01*
X146983721Y-96879468D01*
X146983723Y-96879469D01*
X147040404Y-96911147D01*
X147160183Y-96978089D01*
X147358300Y-97042461D01*
X147565147Y-97067126D01*
X147571282Y-97066654D01*
X147571284Y-97066654D01*
X147766704Y-97051617D01*
X147766709Y-97051616D01*
X147772845Y-97051144D01*
X147778775Y-97049488D01*
X147778777Y-97049488D01*
X147967556Y-96996780D01*
X147967555Y-96996780D01*
X147973484Y-96995125D01*
X147978973Y-96992352D01*
X147978979Y-96992350D01*
X148139732Y-96911147D01*
X148159420Y-96901202D01*
X148306392Y-96786375D01*
X148318716Y-96776746D01*
X148323572Y-96772952D01*
X148459688Y-96615261D01*
X148462731Y-96609904D01*
X148462734Y-96609900D01*
X148532744Y-96486658D01*
X148562582Y-96434134D01*
X148628335Y-96236472D01*
X148654444Y-96029802D01*
X148654860Y-96000000D01*
X148634532Y-95792682D01*
X148632004Y-95784307D01*
X148599106Y-95675346D01*
X148574323Y-95593261D01*
X148476527Y-95409332D01*
X148472632Y-95404556D01*
X148348762Y-95252677D01*
X148348759Y-95252674D01*
X148344867Y-95247902D01*
X148332173Y-95237400D01*
X148189109Y-95119047D01*
X148184360Y-95115118D01*
X148001119Y-95016040D01*
X147839035Y-94965867D01*
X147808010Y-94956263D01*
X147808007Y-94956262D01*
X147802123Y-94954441D01*
X147795998Y-94953797D01*
X147795997Y-94953797D01*
X147601080Y-94933310D01*
X147601079Y-94933310D01*
X147594952Y-94932666D01*
X147508416Y-94940541D01*
X147393636Y-94950987D01*
X147393633Y-94950988D01*
X147387497Y-94951546D01*
X147381591Y-94953284D01*
X147381587Y-94953285D01*
X147274142Y-94984908D01*
X147187660Y-95010361D01*
X147003053Y-95106871D01*
X146840707Y-95237400D01*
X146706807Y-95396977D01*
X146703843Y-95402369D01*
X146703840Y-95402373D01*
X146631467Y-95534020D01*
X146606452Y-95579522D01*
X146604591Y-95585389D01*
X146604590Y-95585391D01*
X146594636Y-95616770D01*
X146543464Y-95778083D01*
X146520244Y-95985097D01*
X145477896Y-95985097D01*
X145459640Y-95798913D01*
X145457257Y-95786878D01*
X145400639Y-95599352D01*
X145395965Y-95588011D01*
X145330785Y-95465425D01*
X145320925Y-95455344D01*
X145313798Y-95457912D01*
X144784522Y-95987188D01*
X144776908Y-96001132D01*
X144046856Y-96001132D01*
X144048092Y-95998868D01*
X144047961Y-95997035D01*
X144043710Y-95990420D01*
X143516062Y-95462772D01*
X143503682Y-95456012D01*
X143497294Y-95460794D01*
X143434880Y-95574325D01*
X143430052Y-95585589D01*
X143370818Y-95772318D01*
X143368270Y-95784307D01*
X143346434Y-95978979D01*
X143346263Y-95991248D01*
X133421980Y-95991248D01*
X133234348Y-95953926D01*
X133234343Y-95953926D01*
X133228680Y-95952799D01*
X133222905Y-95952723D01*
X133222901Y-95952723D01*
X133113755Y-95951294D01*
X133011536Y-95949956D01*
X133005839Y-95950935D01*
X133005838Y-95950935D01*
X132803199Y-95985755D01*
X132803196Y-95985756D01*
X132797509Y-95986733D01*
X132593769Y-96061896D01*
X132565499Y-96078715D01*
X132412106Y-96169974D01*
X132412103Y-96169976D01*
X132407138Y-96172930D01*
X132402798Y-96176736D01*
X132402794Y-96176739D01*
X132267913Y-96295027D01*
X132243866Y-96316116D01*
X132240291Y-96320651D01*
X132240290Y-96320652D01*
X132222237Y-96343552D01*
X132109422Y-96486658D01*
X132106733Y-96491769D01*
X132106731Y-96491772D01*
X132010999Y-96673726D01*
X132010996Y-96673733D01*
X132008307Y-96678844D01*
X131943909Y-96886239D01*
X131918385Y-97101897D01*
X126079168Y-97101897D01*
X126062151Y-96916708D01*
X126059868Y-96908611D01*
X126004772Y-96713257D01*
X126004771Y-96713255D01*
X126003204Y-96707698D01*
X125991700Y-96684369D01*
X125909711Y-96518112D01*
X125907156Y-96512931D01*
X125849437Y-96435635D01*
X125780675Y-96343552D01*
X125780674Y-96343551D01*
X125777222Y-96338928D01*
X125729730Y-96295027D01*
X125621995Y-96195438D01*
X125621993Y-96195436D01*
X125617754Y-96191518D01*
X125542979Y-96144338D01*
X125438973Y-96078715D01*
X125438972Y-96078715D01*
X125434093Y-96075636D01*
X125232390Y-95995165D01*
X125226730Y-95994039D01*
X125226726Y-95994038D01*
X125025068Y-95953926D01*
X125025063Y-95953926D01*
X125019400Y-95952799D01*
X125013625Y-95952723D01*
X125013621Y-95952723D01*
X124904475Y-95951294D01*
X124802256Y-95949956D01*
X124796559Y-95950935D01*
X124796558Y-95950935D01*
X124593919Y-95985755D01*
X124593916Y-95985756D01*
X124588229Y-95986733D01*
X124384489Y-96061896D01*
X124356219Y-96078715D01*
X124202826Y-96169974D01*
X124202823Y-96169976D01*
X124197858Y-96172930D01*
X124193518Y-96176736D01*
X124193514Y-96176739D01*
X124058633Y-96295027D01*
X124034586Y-96316116D01*
X124031011Y-96320651D01*
X124031010Y-96320652D01*
X124012957Y-96343552D01*
X123900142Y-96486658D01*
X123897453Y-96491769D01*
X123897451Y-96491772D01*
X123801719Y-96673726D01*
X123801716Y-96673733D01*
X123799027Y-96678844D01*
X123734629Y-96886239D01*
X123709105Y-97101897D01*
X111288448Y-97101897D01*
X111271431Y-96916708D01*
X111269148Y-96908611D01*
X111214052Y-96713257D01*
X111214051Y-96713255D01*
X111212484Y-96707698D01*
X111200980Y-96684369D01*
X111118991Y-96518112D01*
X111116436Y-96512931D01*
X111058717Y-96435635D01*
X110989955Y-96343552D01*
X110989954Y-96343551D01*
X110986502Y-96338928D01*
X110939010Y-96295027D01*
X110831275Y-96195438D01*
X110831273Y-96195436D01*
X110827034Y-96191518D01*
X110752259Y-96144338D01*
X110648253Y-96078715D01*
X110648252Y-96078715D01*
X110643373Y-96075636D01*
X110441670Y-95995165D01*
X110436010Y-95994039D01*
X110436006Y-95994038D01*
X110234348Y-95953926D01*
X110234343Y-95953926D01*
X110228680Y-95952799D01*
X110222905Y-95952723D01*
X110222901Y-95952723D01*
X110113755Y-95951294D01*
X110011536Y-95949956D01*
X110005839Y-95950935D01*
X110005838Y-95950935D01*
X109803199Y-95985755D01*
X109803196Y-95985756D01*
X109797509Y-95986733D01*
X109593769Y-96061896D01*
X109565499Y-96078715D01*
X109412106Y-96169974D01*
X109412103Y-96169976D01*
X109407138Y-96172930D01*
X109402798Y-96176736D01*
X109402794Y-96176739D01*
X109267913Y-96295027D01*
X109243866Y-96316116D01*
X109240291Y-96320651D01*
X109240290Y-96320652D01*
X109222237Y-96343552D01*
X109109422Y-96486658D01*
X109106733Y-96491769D01*
X109106731Y-96491772D01*
X109010999Y-96673726D01*
X109010996Y-96673733D01*
X109008307Y-96678844D01*
X108943909Y-96886239D01*
X108918385Y-97101897D01*
X103079168Y-97101897D01*
X103062151Y-96916708D01*
X103059868Y-96908611D01*
X103004772Y-96713257D01*
X103004771Y-96713255D01*
X103003204Y-96707698D01*
X102991700Y-96684369D01*
X102909711Y-96518112D01*
X102907156Y-96512931D01*
X102849437Y-96435635D01*
X102780675Y-96343552D01*
X102780674Y-96343551D01*
X102777222Y-96338928D01*
X102729730Y-96295027D01*
X102621995Y-96195438D01*
X102621993Y-96195436D01*
X102617754Y-96191518D01*
X102542979Y-96144338D01*
X102438973Y-96078715D01*
X102438972Y-96078715D01*
X102434093Y-96075636D01*
X102232390Y-95995165D01*
X102226730Y-95994039D01*
X102226726Y-95994038D01*
X102025068Y-95953926D01*
X102025063Y-95953926D01*
X102019400Y-95952799D01*
X102013625Y-95952723D01*
X102013621Y-95952723D01*
X101904475Y-95951294D01*
X101802256Y-95949956D01*
X101796559Y-95950935D01*
X101796558Y-95950935D01*
X101593919Y-95985755D01*
X101593916Y-95985756D01*
X101588229Y-95986733D01*
X101384489Y-96061896D01*
X101356219Y-96078715D01*
X101202826Y-96169974D01*
X101202823Y-96169976D01*
X101197858Y-96172930D01*
X101193518Y-96176736D01*
X101193514Y-96176739D01*
X101058633Y-96295027D01*
X101034586Y-96316116D01*
X101031011Y-96320651D01*
X101031010Y-96320652D01*
X101012957Y-96343552D01*
X100900142Y-96486658D01*
X100897453Y-96491769D01*
X100897451Y-96491772D01*
X100801719Y-96673726D01*
X100801716Y-96673733D01*
X100799027Y-96678844D01*
X100734629Y-96886239D01*
X100709105Y-97101897D01*
X91999578Y-97101897D01*
X89561178Y-94663497D01*
X99027625Y-94663497D01*
X99041828Y-94880195D01*
X99095283Y-95090676D01*
X99186201Y-95287891D01*
X99311535Y-95465235D01*
X99467089Y-95616770D01*
X99471885Y-95619975D01*
X99471888Y-95619977D01*
X99613786Y-95714789D01*
X99647654Y-95737419D01*
X99652957Y-95739697D01*
X99652960Y-95739699D01*
X99790784Y-95798913D01*
X99847181Y-95823143D01*
X99924501Y-95840639D01*
X100053353Y-95869795D01*
X100053358Y-95869796D01*
X100058990Y-95871070D01*
X100064761Y-95871297D01*
X100064763Y-95871297D01*
X100130113Y-95873865D01*
X100275985Y-95879596D01*
X100383443Y-95864015D01*
X100485187Y-95849263D01*
X100485192Y-95849262D01*
X100490901Y-95848434D01*
X100496365Y-95846579D01*
X100496370Y-95846578D01*
X100691067Y-95780488D01*
X100691072Y-95780486D01*
X100696539Y-95778630D01*
X100707996Y-95772214D01*
X100880966Y-95675346D01*
X100880970Y-95675343D01*
X100886013Y-95672519D01*
X101052977Y-95533657D01*
X101191839Y-95366693D01*
X101194663Y-95361650D01*
X101194666Y-95361646D01*
X101295126Y-95182262D01*
X101295127Y-95182260D01*
X101297950Y-95177219D01*
X101299806Y-95171752D01*
X101299808Y-95171747D01*
X101365898Y-94977050D01*
X101365899Y-94977045D01*
X101367754Y-94971581D01*
X101369976Y-94956263D01*
X101398383Y-94760339D01*
X101398916Y-94756665D01*
X101400542Y-94694560D01*
X101397688Y-94663497D01*
X110599865Y-94663497D01*
X110614068Y-94880195D01*
X110667523Y-95090676D01*
X110758441Y-95287891D01*
X110883775Y-95465235D01*
X111039329Y-95616770D01*
X111044125Y-95619975D01*
X111044128Y-95619977D01*
X111186026Y-95714789D01*
X111219894Y-95737419D01*
X111225197Y-95739697D01*
X111225200Y-95739699D01*
X111363024Y-95798913D01*
X111419421Y-95823143D01*
X111496741Y-95840639D01*
X111625593Y-95869795D01*
X111625598Y-95869796D01*
X111631230Y-95871070D01*
X111637001Y-95871297D01*
X111637003Y-95871297D01*
X111702353Y-95873865D01*
X111848225Y-95879596D01*
X111955683Y-95864015D01*
X112057427Y-95849263D01*
X112057432Y-95849262D01*
X112063141Y-95848434D01*
X112068605Y-95846579D01*
X112068610Y-95846578D01*
X112263307Y-95780488D01*
X112263312Y-95780486D01*
X112268779Y-95778630D01*
X112280236Y-95772214D01*
X112453206Y-95675346D01*
X112453210Y-95675343D01*
X112458253Y-95672519D01*
X112625217Y-95533657D01*
X112764079Y-95366693D01*
X112766903Y-95361650D01*
X112766906Y-95361646D01*
X112867366Y-95182262D01*
X112867367Y-95182260D01*
X112870190Y-95177219D01*
X112872046Y-95171752D01*
X112872048Y-95171747D01*
X112938138Y-94977050D01*
X112938139Y-94977045D01*
X112939994Y-94971581D01*
X112942216Y-94956263D01*
X112970623Y-94760339D01*
X112971156Y-94756665D01*
X112972782Y-94694560D01*
X112969928Y-94663497D01*
X122027625Y-94663497D01*
X122041828Y-94880195D01*
X122095283Y-95090676D01*
X122186201Y-95287891D01*
X122311535Y-95465235D01*
X122467089Y-95616770D01*
X122471885Y-95619975D01*
X122471888Y-95619977D01*
X122613786Y-95714789D01*
X122647654Y-95737419D01*
X122652957Y-95739697D01*
X122652960Y-95739699D01*
X122790784Y-95798913D01*
X122847181Y-95823143D01*
X122924501Y-95840639D01*
X123053353Y-95869795D01*
X123053358Y-95869796D01*
X123058990Y-95871070D01*
X123064761Y-95871297D01*
X123064763Y-95871297D01*
X123130113Y-95873865D01*
X123275985Y-95879596D01*
X123383443Y-95864015D01*
X123485187Y-95849263D01*
X123485192Y-95849262D01*
X123490901Y-95848434D01*
X123496365Y-95846579D01*
X123496370Y-95846578D01*
X123691067Y-95780488D01*
X123691072Y-95780486D01*
X123696539Y-95778630D01*
X123707996Y-95772214D01*
X123880966Y-95675346D01*
X123880970Y-95675343D01*
X123886013Y-95672519D01*
X124052977Y-95533657D01*
X124191839Y-95366693D01*
X124194663Y-95361650D01*
X124194666Y-95361646D01*
X124295126Y-95182262D01*
X124295127Y-95182260D01*
X124297950Y-95177219D01*
X124299806Y-95171752D01*
X124299808Y-95171747D01*
X124365898Y-94977050D01*
X124365899Y-94977045D01*
X124367754Y-94971581D01*
X124369976Y-94956263D01*
X124398383Y-94760339D01*
X124398916Y-94756665D01*
X124400542Y-94694560D01*
X124397688Y-94663497D01*
X133599865Y-94663497D01*
X133614068Y-94880195D01*
X133667523Y-95090676D01*
X133758441Y-95287891D01*
X133883775Y-95465235D01*
X134039329Y-95616770D01*
X134044125Y-95619975D01*
X134044128Y-95619977D01*
X134186026Y-95714789D01*
X134219894Y-95737419D01*
X134225197Y-95739697D01*
X134225200Y-95739699D01*
X134363024Y-95798913D01*
X134419421Y-95823143D01*
X134496741Y-95840639D01*
X134625593Y-95869795D01*
X134625598Y-95869796D01*
X134631230Y-95871070D01*
X134637001Y-95871297D01*
X134637003Y-95871297D01*
X134702353Y-95873865D01*
X134848225Y-95879596D01*
X134955683Y-95864015D01*
X135057427Y-95849263D01*
X135057432Y-95849262D01*
X135063141Y-95848434D01*
X135068605Y-95846579D01*
X135068610Y-95846578D01*
X135263307Y-95780488D01*
X135263312Y-95780486D01*
X135268779Y-95778630D01*
X135280236Y-95772214D01*
X135453206Y-95675346D01*
X135453210Y-95675343D01*
X135458253Y-95672519D01*
X135625217Y-95533657D01*
X135764079Y-95366693D01*
X135766903Y-95361650D01*
X135766906Y-95361646D01*
X135867366Y-95182262D01*
X135867367Y-95182260D01*
X135870190Y-95177219D01*
X135872046Y-95171752D01*
X135872048Y-95171747D01*
X135899359Y-95091290D01*
X143867509Y-95091290D01*
X143869964Y-95098254D01*
X144399688Y-95627978D01*
X144413632Y-95635592D01*
X144415465Y-95635461D01*
X144422080Y-95631210D01*
X144949974Y-95103316D01*
X144956734Y-95090936D01*
X144952075Y-95084713D01*
X144831344Y-95019435D01*
X144820037Y-95014682D01*
X144632906Y-94956755D01*
X144620895Y-94954289D01*
X144426077Y-94933813D01*
X144413808Y-94933728D01*
X144218730Y-94951481D01*
X144206681Y-94953779D01*
X144018757Y-95009088D01*
X144007389Y-95013681D01*
X143877658Y-95081503D01*
X143867509Y-95091290D01*
X135899359Y-95091290D01*
X135938138Y-94977050D01*
X135938139Y-94977045D01*
X135939994Y-94971581D01*
X135942216Y-94956263D01*
X135970623Y-94760339D01*
X135971156Y-94756665D01*
X135972782Y-94694560D01*
X135969928Y-94663497D01*
X156027625Y-94663497D01*
X156041828Y-94880195D01*
X156095283Y-95090676D01*
X156186201Y-95287891D01*
X156311535Y-95465235D01*
X156467089Y-95616770D01*
X156471885Y-95619975D01*
X156471888Y-95619977D01*
X156613786Y-95714789D01*
X156647654Y-95737419D01*
X156652957Y-95739697D01*
X156652960Y-95739699D01*
X156790784Y-95798913D01*
X156847181Y-95823143D01*
X156924501Y-95840639D01*
X157053353Y-95869795D01*
X157053358Y-95869796D01*
X157058990Y-95871070D01*
X157064761Y-95871297D01*
X157064763Y-95871297D01*
X157130113Y-95873865D01*
X157275985Y-95879596D01*
X157383443Y-95864015D01*
X157485187Y-95849263D01*
X157485192Y-95849262D01*
X157490901Y-95848434D01*
X157496365Y-95846579D01*
X157496370Y-95846578D01*
X157691067Y-95780488D01*
X157691072Y-95780486D01*
X157696539Y-95778630D01*
X157707996Y-95772214D01*
X157880966Y-95675346D01*
X157880970Y-95675343D01*
X157886013Y-95672519D01*
X158052977Y-95533657D01*
X158191839Y-95366693D01*
X158194663Y-95361650D01*
X158194666Y-95361646D01*
X158295126Y-95182262D01*
X158295127Y-95182260D01*
X158297950Y-95177219D01*
X158299806Y-95171752D01*
X158299808Y-95171747D01*
X158365898Y-94977050D01*
X158365899Y-94977045D01*
X158367754Y-94971581D01*
X158369976Y-94956263D01*
X158398383Y-94760339D01*
X158398916Y-94756665D01*
X158400542Y-94694560D01*
X158397688Y-94663497D01*
X167599865Y-94663497D01*
X167614068Y-94880195D01*
X167667523Y-95090676D01*
X167758441Y-95287891D01*
X167883775Y-95465235D01*
X168039329Y-95616770D01*
X168044125Y-95619975D01*
X168044128Y-95619977D01*
X168186026Y-95714789D01*
X168219894Y-95737419D01*
X168225197Y-95739697D01*
X168225200Y-95739699D01*
X168363024Y-95798913D01*
X168419421Y-95823143D01*
X168496741Y-95840639D01*
X168625593Y-95869795D01*
X168625598Y-95869796D01*
X168631230Y-95871070D01*
X168637001Y-95871297D01*
X168637003Y-95871297D01*
X168702353Y-95873865D01*
X168848225Y-95879596D01*
X168955683Y-95864015D01*
X169057427Y-95849263D01*
X169057432Y-95849262D01*
X169063141Y-95848434D01*
X169068605Y-95846579D01*
X169068610Y-95846578D01*
X169263307Y-95780488D01*
X169263312Y-95780486D01*
X169268779Y-95778630D01*
X169280236Y-95772214D01*
X169453206Y-95675346D01*
X169453210Y-95675343D01*
X169458253Y-95672519D01*
X169625217Y-95533657D01*
X169764079Y-95366693D01*
X169766903Y-95361650D01*
X169766906Y-95361646D01*
X169867366Y-95182262D01*
X169867367Y-95182260D01*
X169870190Y-95177219D01*
X169872046Y-95171752D01*
X169872048Y-95171747D01*
X169938138Y-94977050D01*
X169938139Y-94977045D01*
X169939994Y-94971581D01*
X169942216Y-94956263D01*
X169970623Y-94760339D01*
X169971156Y-94756665D01*
X169972782Y-94694560D01*
X169969928Y-94663497D01*
X179027625Y-94663497D01*
X179041828Y-94880195D01*
X179095283Y-95090676D01*
X179186201Y-95287891D01*
X179311535Y-95465235D01*
X179467089Y-95616770D01*
X179471885Y-95619975D01*
X179471888Y-95619977D01*
X179613786Y-95714789D01*
X179647654Y-95737419D01*
X179652957Y-95739697D01*
X179652960Y-95739699D01*
X179790784Y-95798913D01*
X179847181Y-95823143D01*
X179924501Y-95840639D01*
X180053353Y-95869795D01*
X180053358Y-95869796D01*
X180058990Y-95871070D01*
X180064761Y-95871297D01*
X180064763Y-95871297D01*
X180130113Y-95873865D01*
X180275985Y-95879596D01*
X180383443Y-95864015D01*
X180485187Y-95849263D01*
X180485192Y-95849262D01*
X180490901Y-95848434D01*
X180496365Y-95846579D01*
X180496370Y-95846578D01*
X180691067Y-95780488D01*
X180691072Y-95780486D01*
X180696539Y-95778630D01*
X180707996Y-95772214D01*
X180880966Y-95675346D01*
X180880970Y-95675343D01*
X180886013Y-95672519D01*
X181052977Y-95533657D01*
X181191839Y-95366693D01*
X181194663Y-95361650D01*
X181194666Y-95361646D01*
X181295126Y-95182262D01*
X181295127Y-95182260D01*
X181297950Y-95177219D01*
X181299806Y-95171752D01*
X181299808Y-95171747D01*
X181365898Y-94977050D01*
X181365899Y-94977045D01*
X181367754Y-94971581D01*
X181369976Y-94956263D01*
X181398383Y-94760339D01*
X181398916Y-94756665D01*
X181400542Y-94694560D01*
X181397688Y-94663497D01*
X190599865Y-94663497D01*
X190614068Y-94880195D01*
X190667523Y-95090676D01*
X190758441Y-95287891D01*
X190883775Y-95465235D01*
X191039329Y-95616770D01*
X191044125Y-95619975D01*
X191044128Y-95619977D01*
X191186026Y-95714789D01*
X191219894Y-95737419D01*
X191225197Y-95739697D01*
X191225200Y-95739699D01*
X191363024Y-95798913D01*
X191419421Y-95823143D01*
X191496741Y-95840639D01*
X191625593Y-95869795D01*
X191625598Y-95869796D01*
X191631230Y-95871070D01*
X191637001Y-95871297D01*
X191637003Y-95871297D01*
X191702353Y-95873865D01*
X191848225Y-95879596D01*
X191955683Y-95864015D01*
X192057427Y-95849263D01*
X192057432Y-95849262D01*
X192063141Y-95848434D01*
X192068605Y-95846579D01*
X192068610Y-95846578D01*
X192263307Y-95780488D01*
X192263312Y-95780486D01*
X192268779Y-95778630D01*
X192280236Y-95772214D01*
X192453206Y-95675346D01*
X192453210Y-95675343D01*
X192458253Y-95672519D01*
X192625217Y-95533657D01*
X192764079Y-95366693D01*
X192766903Y-95361650D01*
X192766906Y-95361646D01*
X192867366Y-95182262D01*
X192867367Y-95182260D01*
X192870190Y-95177219D01*
X192872046Y-95171752D01*
X192872048Y-95171747D01*
X192938138Y-94977050D01*
X192938139Y-94977045D01*
X192939994Y-94971581D01*
X192942216Y-94956263D01*
X192970623Y-94760339D01*
X192971156Y-94756665D01*
X192972782Y-94694560D01*
X192952911Y-94478308D01*
X192945937Y-94453578D01*
X192895532Y-94274857D01*
X192895531Y-94274855D01*
X192893964Y-94269298D01*
X192882460Y-94245969D01*
X192800471Y-94079712D01*
X192797916Y-94074531D01*
X192667982Y-93900528D01*
X192639186Y-93873909D01*
X192512755Y-93757038D01*
X192512753Y-93757036D01*
X192508514Y-93753118D01*
X192354429Y-93655897D01*
X192329733Y-93640315D01*
X192329732Y-93640315D01*
X192324853Y-93637236D01*
X192123150Y-93556765D01*
X192117490Y-93555639D01*
X192117486Y-93555638D01*
X191915828Y-93515526D01*
X191915823Y-93515526D01*
X191910160Y-93514399D01*
X191904385Y-93514323D01*
X191904381Y-93514323D01*
X191795235Y-93512894D01*
X191693016Y-93511556D01*
X191687319Y-93512535D01*
X191687318Y-93512535D01*
X191484679Y-93547355D01*
X191484676Y-93547356D01*
X191478989Y-93548333D01*
X191275249Y-93623496D01*
X191246979Y-93640315D01*
X191093586Y-93731574D01*
X191093583Y-93731576D01*
X191088618Y-93734530D01*
X191084278Y-93738336D01*
X191084274Y-93738339D01*
X191054316Y-93764612D01*
X190925346Y-93877716D01*
X190921771Y-93882251D01*
X190921770Y-93882252D01*
X190903717Y-93905152D01*
X190790902Y-94048258D01*
X190788213Y-94053369D01*
X190788211Y-94053372D01*
X190692479Y-94235326D01*
X190692476Y-94235333D01*
X190689787Y-94240444D01*
X190625389Y-94447839D01*
X190599865Y-94663497D01*
X181397688Y-94663497D01*
X181380671Y-94478308D01*
X181373697Y-94453578D01*
X181323292Y-94274857D01*
X181323291Y-94274855D01*
X181321724Y-94269298D01*
X181310220Y-94245969D01*
X181228231Y-94079712D01*
X181225676Y-94074531D01*
X181095742Y-93900528D01*
X181066946Y-93873909D01*
X180940515Y-93757038D01*
X180940513Y-93757036D01*
X180936274Y-93753118D01*
X180782189Y-93655897D01*
X180757493Y-93640315D01*
X180757492Y-93640315D01*
X180752613Y-93637236D01*
X180550910Y-93556765D01*
X180545250Y-93555639D01*
X180545246Y-93555638D01*
X180343588Y-93515526D01*
X180343583Y-93515526D01*
X180337920Y-93514399D01*
X180332145Y-93514323D01*
X180332141Y-93514323D01*
X180222995Y-93512894D01*
X180120776Y-93511556D01*
X180115079Y-93512535D01*
X180115078Y-93512535D01*
X179912439Y-93547355D01*
X179912436Y-93547356D01*
X179906749Y-93548333D01*
X179703009Y-93623496D01*
X179674739Y-93640315D01*
X179521346Y-93731574D01*
X179521343Y-93731576D01*
X179516378Y-93734530D01*
X179512038Y-93738336D01*
X179512034Y-93738339D01*
X179482076Y-93764612D01*
X179353106Y-93877716D01*
X179349531Y-93882251D01*
X179349530Y-93882252D01*
X179331477Y-93905152D01*
X179218662Y-94048258D01*
X179215973Y-94053369D01*
X179215971Y-94053372D01*
X179120239Y-94235326D01*
X179120236Y-94235333D01*
X179117547Y-94240444D01*
X179053149Y-94447839D01*
X179027625Y-94663497D01*
X169969928Y-94663497D01*
X169952911Y-94478308D01*
X169945937Y-94453578D01*
X169895532Y-94274857D01*
X169895531Y-94274855D01*
X169893964Y-94269298D01*
X169882460Y-94245969D01*
X169800471Y-94079712D01*
X169797916Y-94074531D01*
X169667982Y-93900528D01*
X169639186Y-93873909D01*
X169512755Y-93757038D01*
X169512753Y-93757036D01*
X169508514Y-93753118D01*
X169354429Y-93655897D01*
X169329733Y-93640315D01*
X169329732Y-93640315D01*
X169324853Y-93637236D01*
X169123150Y-93556765D01*
X169117490Y-93555639D01*
X169117486Y-93555638D01*
X168915828Y-93515526D01*
X168915823Y-93515526D01*
X168910160Y-93514399D01*
X168904385Y-93514323D01*
X168904381Y-93514323D01*
X168795235Y-93512894D01*
X168693016Y-93511556D01*
X168687319Y-93512535D01*
X168687318Y-93512535D01*
X168484679Y-93547355D01*
X168484676Y-93547356D01*
X168478989Y-93548333D01*
X168275249Y-93623496D01*
X168246979Y-93640315D01*
X168093586Y-93731574D01*
X168093583Y-93731576D01*
X168088618Y-93734530D01*
X168084278Y-93738336D01*
X168084274Y-93738339D01*
X168054316Y-93764612D01*
X167925346Y-93877716D01*
X167921771Y-93882251D01*
X167921770Y-93882252D01*
X167903717Y-93905152D01*
X167790902Y-94048258D01*
X167788213Y-94053369D01*
X167788211Y-94053372D01*
X167692479Y-94235326D01*
X167692476Y-94235333D01*
X167689787Y-94240444D01*
X167625389Y-94447839D01*
X167599865Y-94663497D01*
X158397688Y-94663497D01*
X158380671Y-94478308D01*
X158373697Y-94453578D01*
X158323292Y-94274857D01*
X158323291Y-94274855D01*
X158321724Y-94269298D01*
X158310220Y-94245969D01*
X158228231Y-94079712D01*
X158225676Y-94074531D01*
X158095742Y-93900528D01*
X158066946Y-93873909D01*
X157940515Y-93757038D01*
X157940513Y-93757036D01*
X157936274Y-93753118D01*
X157782189Y-93655897D01*
X157757493Y-93640315D01*
X157757492Y-93640315D01*
X157752613Y-93637236D01*
X157550910Y-93556765D01*
X157545250Y-93555639D01*
X157545246Y-93555638D01*
X157343588Y-93515526D01*
X157343583Y-93515526D01*
X157337920Y-93514399D01*
X157332145Y-93514323D01*
X157332141Y-93514323D01*
X157222995Y-93512894D01*
X157120776Y-93511556D01*
X157115079Y-93512535D01*
X157115078Y-93512535D01*
X156912439Y-93547355D01*
X156912436Y-93547356D01*
X156906749Y-93548333D01*
X156703009Y-93623496D01*
X156674739Y-93640315D01*
X156521346Y-93731574D01*
X156521343Y-93731576D01*
X156516378Y-93734530D01*
X156512038Y-93738336D01*
X156512034Y-93738339D01*
X156482076Y-93764612D01*
X156353106Y-93877716D01*
X156349531Y-93882251D01*
X156349530Y-93882252D01*
X156331477Y-93905152D01*
X156218662Y-94048258D01*
X156215973Y-94053369D01*
X156215971Y-94053372D01*
X156120239Y-94235326D01*
X156120236Y-94235333D01*
X156117547Y-94240444D01*
X156053149Y-94447839D01*
X156027625Y-94663497D01*
X135969928Y-94663497D01*
X135952911Y-94478308D01*
X135945937Y-94453578D01*
X135895532Y-94274857D01*
X135895531Y-94274855D01*
X135893964Y-94269298D01*
X135882460Y-94245969D01*
X135800471Y-94079712D01*
X135797916Y-94074531D01*
X135667982Y-93900528D01*
X135639186Y-93873909D01*
X135512755Y-93757038D01*
X135512753Y-93757036D01*
X135508514Y-93753118D01*
X135354429Y-93655897D01*
X135329733Y-93640315D01*
X135329732Y-93640315D01*
X135324853Y-93637236D01*
X135123150Y-93556765D01*
X135117490Y-93555639D01*
X135117486Y-93555638D01*
X134915828Y-93515526D01*
X134915823Y-93515526D01*
X134910160Y-93514399D01*
X134904385Y-93514323D01*
X134904381Y-93514323D01*
X134795235Y-93512894D01*
X134693016Y-93511556D01*
X134687319Y-93512535D01*
X134687318Y-93512535D01*
X134484679Y-93547355D01*
X134484676Y-93547356D01*
X134478989Y-93548333D01*
X134275249Y-93623496D01*
X134246979Y-93640315D01*
X134093586Y-93731574D01*
X134093583Y-93731576D01*
X134088618Y-93734530D01*
X134084278Y-93738336D01*
X134084274Y-93738339D01*
X134054316Y-93764612D01*
X133925346Y-93877716D01*
X133921771Y-93882251D01*
X133921770Y-93882252D01*
X133903717Y-93905152D01*
X133790902Y-94048258D01*
X133788213Y-94053369D01*
X133788211Y-94053372D01*
X133692479Y-94235326D01*
X133692476Y-94235333D01*
X133689787Y-94240444D01*
X133625389Y-94447839D01*
X133599865Y-94663497D01*
X124397688Y-94663497D01*
X124380671Y-94478308D01*
X124373697Y-94453578D01*
X124323292Y-94274857D01*
X124323291Y-94274855D01*
X124321724Y-94269298D01*
X124310220Y-94245969D01*
X124228231Y-94079712D01*
X124225676Y-94074531D01*
X124095742Y-93900528D01*
X124066946Y-93873909D01*
X123940515Y-93757038D01*
X123940513Y-93757036D01*
X123936274Y-93753118D01*
X123782189Y-93655897D01*
X123757493Y-93640315D01*
X123757492Y-93640315D01*
X123752613Y-93637236D01*
X123550910Y-93556765D01*
X123545250Y-93555639D01*
X123545246Y-93555638D01*
X123343588Y-93515526D01*
X123343583Y-93515526D01*
X123337920Y-93514399D01*
X123332145Y-93514323D01*
X123332141Y-93514323D01*
X123222995Y-93512894D01*
X123120776Y-93511556D01*
X123115079Y-93512535D01*
X123115078Y-93512535D01*
X122912439Y-93547355D01*
X122912436Y-93547356D01*
X122906749Y-93548333D01*
X122703009Y-93623496D01*
X122674739Y-93640315D01*
X122521346Y-93731574D01*
X122521343Y-93731576D01*
X122516378Y-93734530D01*
X122512038Y-93738336D01*
X122512034Y-93738339D01*
X122482076Y-93764612D01*
X122353106Y-93877716D01*
X122349531Y-93882251D01*
X122349530Y-93882252D01*
X122331477Y-93905152D01*
X122218662Y-94048258D01*
X122215973Y-94053369D01*
X122215971Y-94053372D01*
X122120239Y-94235326D01*
X122120236Y-94235333D01*
X122117547Y-94240444D01*
X122053149Y-94447839D01*
X122027625Y-94663497D01*
X112969928Y-94663497D01*
X112952911Y-94478308D01*
X112945937Y-94453578D01*
X112895532Y-94274857D01*
X112895531Y-94274855D01*
X112893964Y-94269298D01*
X112882460Y-94245969D01*
X112800471Y-94079712D01*
X112797916Y-94074531D01*
X112667982Y-93900528D01*
X112639186Y-93873909D01*
X112512755Y-93757038D01*
X112512753Y-93757036D01*
X112508514Y-93753118D01*
X112354429Y-93655897D01*
X112329733Y-93640315D01*
X112329732Y-93640315D01*
X112324853Y-93637236D01*
X112123150Y-93556765D01*
X112117490Y-93555639D01*
X112117486Y-93555638D01*
X111915828Y-93515526D01*
X111915823Y-93515526D01*
X111910160Y-93514399D01*
X111904385Y-93514323D01*
X111904381Y-93514323D01*
X111795235Y-93512894D01*
X111693016Y-93511556D01*
X111687319Y-93512535D01*
X111687318Y-93512535D01*
X111484679Y-93547355D01*
X111484676Y-93547356D01*
X111478989Y-93548333D01*
X111275249Y-93623496D01*
X111246979Y-93640315D01*
X111093586Y-93731574D01*
X111093583Y-93731576D01*
X111088618Y-93734530D01*
X111084278Y-93738336D01*
X111084274Y-93738339D01*
X111054316Y-93764612D01*
X110925346Y-93877716D01*
X110921771Y-93882251D01*
X110921770Y-93882252D01*
X110903717Y-93905152D01*
X110790902Y-94048258D01*
X110788213Y-94053369D01*
X110788211Y-94053372D01*
X110692479Y-94235326D01*
X110692476Y-94235333D01*
X110689787Y-94240444D01*
X110625389Y-94447839D01*
X110599865Y-94663497D01*
X101397688Y-94663497D01*
X101380671Y-94478308D01*
X101373697Y-94453578D01*
X101323292Y-94274857D01*
X101323291Y-94274855D01*
X101321724Y-94269298D01*
X101310220Y-94245969D01*
X101228231Y-94079712D01*
X101225676Y-94074531D01*
X101095742Y-93900528D01*
X101066946Y-93873909D01*
X100940515Y-93757038D01*
X100940513Y-93757036D01*
X100936274Y-93753118D01*
X100782189Y-93655897D01*
X100757493Y-93640315D01*
X100757492Y-93640315D01*
X100752613Y-93637236D01*
X100550910Y-93556765D01*
X100545250Y-93555639D01*
X100545246Y-93555638D01*
X100343588Y-93515526D01*
X100343583Y-93515526D01*
X100337920Y-93514399D01*
X100332145Y-93514323D01*
X100332141Y-93514323D01*
X100222995Y-93512894D01*
X100120776Y-93511556D01*
X100115079Y-93512535D01*
X100115078Y-93512535D01*
X99912439Y-93547355D01*
X99912436Y-93547356D01*
X99906749Y-93548333D01*
X99703009Y-93623496D01*
X99674739Y-93640315D01*
X99521346Y-93731574D01*
X99521343Y-93731576D01*
X99516378Y-93734530D01*
X99512038Y-93738336D01*
X99512034Y-93738339D01*
X99482076Y-93764612D01*
X99353106Y-93877716D01*
X99349531Y-93882251D01*
X99349530Y-93882252D01*
X99331477Y-93905152D01*
X99218662Y-94048258D01*
X99215973Y-94053369D01*
X99215971Y-94053372D01*
X99120239Y-94235326D01*
X99120236Y-94235333D01*
X99117547Y-94240444D01*
X99053149Y-94447839D01*
X99027625Y-94663497D01*
X89561178Y-94663497D01*
X86622398Y-91724717D01*
X98669485Y-91724717D01*
X98683688Y-91941415D01*
X98737143Y-92151896D01*
X98828061Y-92349111D01*
X98953395Y-92526455D01*
X99108949Y-92677990D01*
X99113745Y-92681195D01*
X99113748Y-92681197D01*
X99243661Y-92768001D01*
X99289514Y-92798639D01*
X99294817Y-92800917D01*
X99294820Y-92800919D01*
X99389759Y-92841708D01*
X99489041Y-92884363D01*
X99566361Y-92901859D01*
X99695213Y-92931015D01*
X99695218Y-92931016D01*
X99700850Y-92932290D01*
X99706621Y-92932517D01*
X99706623Y-92932517D01*
X99771973Y-92935085D01*
X99917845Y-92940816D01*
X100025303Y-92925235D01*
X100127047Y-92910483D01*
X100127052Y-92910482D01*
X100132761Y-92909654D01*
X100138225Y-92907799D01*
X100138230Y-92907798D01*
X100332927Y-92841708D01*
X100332932Y-92841706D01*
X100338399Y-92839850D01*
X100343442Y-92837026D01*
X100522826Y-92736566D01*
X100522830Y-92736563D01*
X100527873Y-92733739D01*
X100694837Y-92594877D01*
X100833699Y-92427913D01*
X100836523Y-92422870D01*
X100836526Y-92422866D01*
X100936986Y-92243482D01*
X100936987Y-92243480D01*
X100939810Y-92238439D01*
X100941666Y-92232972D01*
X100941668Y-92232967D01*
X101007758Y-92038270D01*
X101007759Y-92038265D01*
X101009614Y-92032801D01*
X101022053Y-91947017D01*
X101040243Y-91821559D01*
X101040776Y-91817885D01*
X101042402Y-91755780D01*
X101039548Y-91724717D01*
X110958005Y-91724717D01*
X110972208Y-91941415D01*
X111025663Y-92151896D01*
X111116581Y-92349111D01*
X111241915Y-92526455D01*
X111397469Y-92677990D01*
X111402265Y-92681195D01*
X111402268Y-92681197D01*
X111532181Y-92768001D01*
X111578034Y-92798639D01*
X111583337Y-92800917D01*
X111583340Y-92800919D01*
X111678279Y-92841708D01*
X111777561Y-92884363D01*
X111854881Y-92901859D01*
X111983733Y-92931015D01*
X111983738Y-92931016D01*
X111989370Y-92932290D01*
X111995141Y-92932517D01*
X111995143Y-92932517D01*
X112060493Y-92935085D01*
X112206365Y-92940816D01*
X112313823Y-92925235D01*
X112415567Y-92910483D01*
X112415572Y-92910482D01*
X112421281Y-92909654D01*
X112426745Y-92907799D01*
X112426750Y-92907798D01*
X112621447Y-92841708D01*
X112621452Y-92841706D01*
X112626919Y-92839850D01*
X112631962Y-92837026D01*
X112811346Y-92736566D01*
X112811350Y-92736563D01*
X112816393Y-92733739D01*
X112983357Y-92594877D01*
X113122219Y-92427913D01*
X113125043Y-92422870D01*
X113125046Y-92422866D01*
X113225506Y-92243482D01*
X113225507Y-92243480D01*
X113228330Y-92238439D01*
X113230186Y-92232972D01*
X113230188Y-92232967D01*
X113296278Y-92038270D01*
X113296279Y-92038265D01*
X113298134Y-92032801D01*
X113310573Y-91947017D01*
X113328763Y-91821559D01*
X113329296Y-91817885D01*
X113330922Y-91755780D01*
X113328068Y-91724717D01*
X121669485Y-91724717D01*
X121683688Y-91941415D01*
X121737143Y-92151896D01*
X121828061Y-92349111D01*
X121953395Y-92526455D01*
X122108949Y-92677990D01*
X122113745Y-92681195D01*
X122113748Y-92681197D01*
X122243661Y-92768001D01*
X122289514Y-92798639D01*
X122294817Y-92800917D01*
X122294820Y-92800919D01*
X122389759Y-92841708D01*
X122489041Y-92884363D01*
X122566361Y-92901859D01*
X122695213Y-92931015D01*
X122695218Y-92931016D01*
X122700850Y-92932290D01*
X122706621Y-92932517D01*
X122706623Y-92932517D01*
X122771973Y-92935085D01*
X122917845Y-92940816D01*
X123025303Y-92925235D01*
X123127047Y-92910483D01*
X123127052Y-92910482D01*
X123132761Y-92909654D01*
X123138225Y-92907799D01*
X123138230Y-92907798D01*
X123332927Y-92841708D01*
X123332932Y-92841706D01*
X123338399Y-92839850D01*
X123343442Y-92837026D01*
X123522826Y-92736566D01*
X123522830Y-92736563D01*
X123527873Y-92733739D01*
X123694837Y-92594877D01*
X123833699Y-92427913D01*
X123836523Y-92422870D01*
X123836526Y-92422866D01*
X123936986Y-92243482D01*
X123936987Y-92243480D01*
X123939810Y-92238439D01*
X123941666Y-92232972D01*
X123941668Y-92232967D01*
X124007758Y-92038270D01*
X124007759Y-92038265D01*
X124009614Y-92032801D01*
X124022053Y-91947017D01*
X124040243Y-91821559D01*
X124040776Y-91817885D01*
X124042402Y-91755780D01*
X124039548Y-91724717D01*
X133958005Y-91724717D01*
X133972208Y-91941415D01*
X134025663Y-92151896D01*
X134116581Y-92349111D01*
X134241915Y-92526455D01*
X134397469Y-92677990D01*
X134402265Y-92681195D01*
X134402268Y-92681197D01*
X134532181Y-92768001D01*
X134578034Y-92798639D01*
X134583337Y-92800917D01*
X134583340Y-92800919D01*
X134678279Y-92841708D01*
X134777561Y-92884363D01*
X134854881Y-92901859D01*
X134983733Y-92931015D01*
X134983738Y-92931016D01*
X134989370Y-92932290D01*
X134995141Y-92932517D01*
X134995143Y-92932517D01*
X135060493Y-92935085D01*
X135206365Y-92940816D01*
X135313823Y-92925235D01*
X135415567Y-92910483D01*
X135415572Y-92910482D01*
X135421281Y-92909654D01*
X135426745Y-92907799D01*
X135426750Y-92907798D01*
X135621447Y-92841708D01*
X135621452Y-92841706D01*
X135626919Y-92839850D01*
X135631962Y-92837026D01*
X135811346Y-92736566D01*
X135811350Y-92736563D01*
X135816393Y-92733739D01*
X135983357Y-92594877D01*
X136122219Y-92427913D01*
X136125043Y-92422870D01*
X136125046Y-92422866D01*
X136225506Y-92243482D01*
X136225507Y-92243480D01*
X136228330Y-92238439D01*
X136230186Y-92232972D01*
X136230188Y-92232967D01*
X136296278Y-92038270D01*
X136296279Y-92038265D01*
X136298134Y-92032801D01*
X136310573Y-91947017D01*
X136328763Y-91821559D01*
X136329296Y-91817885D01*
X136330922Y-91755780D01*
X136328068Y-91724717D01*
X155669485Y-91724717D01*
X155683688Y-91941415D01*
X155737143Y-92151896D01*
X155828061Y-92349111D01*
X155953395Y-92526455D01*
X156108949Y-92677990D01*
X156113745Y-92681195D01*
X156113748Y-92681197D01*
X156243661Y-92768001D01*
X156289514Y-92798639D01*
X156294817Y-92800917D01*
X156294820Y-92800919D01*
X156389759Y-92841708D01*
X156489041Y-92884363D01*
X156566361Y-92901859D01*
X156695213Y-92931015D01*
X156695218Y-92931016D01*
X156700850Y-92932290D01*
X156706621Y-92932517D01*
X156706623Y-92932517D01*
X156771973Y-92935085D01*
X156917845Y-92940816D01*
X157025303Y-92925235D01*
X157127047Y-92910483D01*
X157127052Y-92910482D01*
X157132761Y-92909654D01*
X157138225Y-92907799D01*
X157138230Y-92907798D01*
X157332927Y-92841708D01*
X157332932Y-92841706D01*
X157338399Y-92839850D01*
X157343442Y-92837026D01*
X157522826Y-92736566D01*
X157522830Y-92736563D01*
X157527873Y-92733739D01*
X157694837Y-92594877D01*
X157833699Y-92427913D01*
X157836523Y-92422870D01*
X157836526Y-92422866D01*
X157936986Y-92243482D01*
X157936987Y-92243480D01*
X157939810Y-92238439D01*
X157941666Y-92232972D01*
X157941668Y-92232967D01*
X158007758Y-92038270D01*
X158007759Y-92038265D01*
X158009614Y-92032801D01*
X158022053Y-91947017D01*
X158040243Y-91821559D01*
X158040776Y-91817885D01*
X158042402Y-91755780D01*
X158039548Y-91724717D01*
X167958005Y-91724717D01*
X167972208Y-91941415D01*
X168025663Y-92151896D01*
X168116581Y-92349111D01*
X168241915Y-92526455D01*
X168397469Y-92677990D01*
X168402265Y-92681195D01*
X168402268Y-92681197D01*
X168532181Y-92768001D01*
X168578034Y-92798639D01*
X168583337Y-92800917D01*
X168583340Y-92800919D01*
X168678279Y-92841708D01*
X168777561Y-92884363D01*
X168854881Y-92901859D01*
X168983733Y-92931015D01*
X168983738Y-92931016D01*
X168989370Y-92932290D01*
X168995141Y-92932517D01*
X168995143Y-92932517D01*
X169060493Y-92935085D01*
X169206365Y-92940816D01*
X169313823Y-92925235D01*
X169415567Y-92910483D01*
X169415572Y-92910482D01*
X169421281Y-92909654D01*
X169426745Y-92907799D01*
X169426750Y-92907798D01*
X169621447Y-92841708D01*
X169621452Y-92841706D01*
X169626919Y-92839850D01*
X169631962Y-92837026D01*
X169811346Y-92736566D01*
X169811350Y-92736563D01*
X169816393Y-92733739D01*
X169983357Y-92594877D01*
X170122219Y-92427913D01*
X170125043Y-92422870D01*
X170125046Y-92422866D01*
X170225506Y-92243482D01*
X170225507Y-92243480D01*
X170228330Y-92238439D01*
X170230186Y-92232972D01*
X170230188Y-92232967D01*
X170296278Y-92038270D01*
X170296279Y-92038265D01*
X170298134Y-92032801D01*
X170310573Y-91947017D01*
X170328763Y-91821559D01*
X170329296Y-91817885D01*
X170330922Y-91755780D01*
X170328068Y-91724717D01*
X178669485Y-91724717D01*
X178683688Y-91941415D01*
X178737143Y-92151896D01*
X178828061Y-92349111D01*
X178953395Y-92526455D01*
X179108949Y-92677990D01*
X179113745Y-92681195D01*
X179113748Y-92681197D01*
X179243661Y-92768001D01*
X179289514Y-92798639D01*
X179294817Y-92800917D01*
X179294820Y-92800919D01*
X179389759Y-92841708D01*
X179489041Y-92884363D01*
X179566361Y-92901859D01*
X179695213Y-92931015D01*
X179695218Y-92931016D01*
X179700850Y-92932290D01*
X179706621Y-92932517D01*
X179706623Y-92932517D01*
X179771973Y-92935085D01*
X179917845Y-92940816D01*
X180025303Y-92925235D01*
X180127047Y-92910483D01*
X180127052Y-92910482D01*
X180132761Y-92909654D01*
X180138225Y-92907799D01*
X180138230Y-92907798D01*
X180332927Y-92841708D01*
X180332932Y-92841706D01*
X180338399Y-92839850D01*
X180343442Y-92837026D01*
X180522826Y-92736566D01*
X180522830Y-92736563D01*
X180527873Y-92733739D01*
X180694837Y-92594877D01*
X180833699Y-92427913D01*
X180836523Y-92422870D01*
X180836526Y-92422866D01*
X180936986Y-92243482D01*
X180936987Y-92243480D01*
X180939810Y-92238439D01*
X180941666Y-92232972D01*
X180941668Y-92232967D01*
X181007758Y-92038270D01*
X181007759Y-92038265D01*
X181009614Y-92032801D01*
X181022053Y-91947017D01*
X181040243Y-91821559D01*
X181040776Y-91817885D01*
X181042402Y-91755780D01*
X181039548Y-91724717D01*
X190958005Y-91724717D01*
X190972208Y-91941415D01*
X191025663Y-92151896D01*
X191116581Y-92349111D01*
X191241915Y-92526455D01*
X191397469Y-92677990D01*
X191402265Y-92681195D01*
X191402268Y-92681197D01*
X191532181Y-92768001D01*
X191578034Y-92798639D01*
X191583337Y-92800917D01*
X191583340Y-92800919D01*
X191678279Y-92841708D01*
X191777561Y-92884363D01*
X191854881Y-92901859D01*
X191983733Y-92931015D01*
X191983738Y-92931016D01*
X191989370Y-92932290D01*
X191995141Y-92932517D01*
X191995143Y-92932517D01*
X192060493Y-92935085D01*
X192206365Y-92940816D01*
X192313823Y-92925235D01*
X192415567Y-92910483D01*
X192415572Y-92910482D01*
X192421281Y-92909654D01*
X192426745Y-92907799D01*
X192426750Y-92907798D01*
X192621447Y-92841708D01*
X192621452Y-92841706D01*
X192626919Y-92839850D01*
X192631962Y-92837026D01*
X192811346Y-92736566D01*
X192811350Y-92736563D01*
X192816393Y-92733739D01*
X192983357Y-92594877D01*
X193122219Y-92427913D01*
X193125043Y-92422870D01*
X193125046Y-92422866D01*
X193225506Y-92243482D01*
X193225507Y-92243480D01*
X193228330Y-92238439D01*
X193230186Y-92232972D01*
X193230188Y-92232967D01*
X193296278Y-92038270D01*
X193296279Y-92038265D01*
X193298134Y-92032801D01*
X193310573Y-91947017D01*
X193328763Y-91821559D01*
X193329296Y-91817885D01*
X193330922Y-91755780D01*
X193311051Y-91539528D01*
X193305942Y-91521411D01*
X193253672Y-91336077D01*
X193253671Y-91336075D01*
X193252104Y-91330518D01*
X193240600Y-91307189D01*
X193158611Y-91140932D01*
X193156056Y-91135751D01*
X193102730Y-91064338D01*
X193029575Y-90966372D01*
X193029574Y-90966371D01*
X193026122Y-90961748D01*
X193015179Y-90951632D01*
X192870895Y-90818258D01*
X192870893Y-90818256D01*
X192866654Y-90814338D01*
X192682993Y-90698456D01*
X192481290Y-90617985D01*
X192475630Y-90616859D01*
X192475626Y-90616858D01*
X192273968Y-90576746D01*
X192273963Y-90576746D01*
X192268300Y-90575619D01*
X192262525Y-90575543D01*
X192262521Y-90575543D01*
X192153375Y-90574114D01*
X192051156Y-90572776D01*
X192045459Y-90573755D01*
X192045458Y-90573755D01*
X191842819Y-90608575D01*
X191842816Y-90608576D01*
X191837129Y-90609553D01*
X191633389Y-90684716D01*
X191605119Y-90701535D01*
X191451726Y-90792794D01*
X191451723Y-90792796D01*
X191446758Y-90795750D01*
X191442418Y-90799556D01*
X191442414Y-90799559D01*
X191287827Y-90935129D01*
X191283486Y-90938936D01*
X191279911Y-90943471D01*
X191279910Y-90943472D01*
X191261857Y-90966372D01*
X191149042Y-91109478D01*
X191146353Y-91114589D01*
X191146351Y-91114592D01*
X191050619Y-91296546D01*
X191050616Y-91296553D01*
X191047927Y-91301664D01*
X190983529Y-91509059D01*
X190958005Y-91724717D01*
X181039548Y-91724717D01*
X181022531Y-91539528D01*
X181017422Y-91521411D01*
X180965152Y-91336077D01*
X180965151Y-91336075D01*
X180963584Y-91330518D01*
X180952080Y-91307189D01*
X180870091Y-91140932D01*
X180867536Y-91135751D01*
X180814210Y-91064338D01*
X180741055Y-90966372D01*
X180741054Y-90966371D01*
X180737602Y-90961748D01*
X180726659Y-90951632D01*
X180582375Y-90818258D01*
X180582373Y-90818256D01*
X180578134Y-90814338D01*
X180394473Y-90698456D01*
X180192770Y-90617985D01*
X180187110Y-90616859D01*
X180187106Y-90616858D01*
X179985448Y-90576746D01*
X179985443Y-90576746D01*
X179979780Y-90575619D01*
X179974005Y-90575543D01*
X179974001Y-90575543D01*
X179864855Y-90574114D01*
X179762636Y-90572776D01*
X179756939Y-90573755D01*
X179756938Y-90573755D01*
X179554299Y-90608575D01*
X179554296Y-90608576D01*
X179548609Y-90609553D01*
X179344869Y-90684716D01*
X179316599Y-90701535D01*
X179163206Y-90792794D01*
X179163203Y-90792796D01*
X179158238Y-90795750D01*
X179153898Y-90799556D01*
X179153894Y-90799559D01*
X178999307Y-90935129D01*
X178994966Y-90938936D01*
X178991391Y-90943471D01*
X178991390Y-90943472D01*
X178973337Y-90966372D01*
X178860522Y-91109478D01*
X178857833Y-91114589D01*
X178857831Y-91114592D01*
X178762099Y-91296546D01*
X178762096Y-91296553D01*
X178759407Y-91301664D01*
X178695009Y-91509059D01*
X178669485Y-91724717D01*
X170328068Y-91724717D01*
X170311051Y-91539528D01*
X170305942Y-91521411D01*
X170253672Y-91336077D01*
X170253671Y-91336075D01*
X170252104Y-91330518D01*
X170240600Y-91307189D01*
X170158611Y-91140932D01*
X170156056Y-91135751D01*
X170102730Y-91064338D01*
X170029575Y-90966372D01*
X170029574Y-90966371D01*
X170026122Y-90961748D01*
X170015179Y-90951632D01*
X169870895Y-90818258D01*
X169870893Y-90818256D01*
X169866654Y-90814338D01*
X169682993Y-90698456D01*
X169481290Y-90617985D01*
X169475630Y-90616859D01*
X169475626Y-90616858D01*
X169273968Y-90576746D01*
X169273963Y-90576746D01*
X169268300Y-90575619D01*
X169262525Y-90575543D01*
X169262521Y-90575543D01*
X169153375Y-90574114D01*
X169051156Y-90572776D01*
X169045459Y-90573755D01*
X169045458Y-90573755D01*
X168842819Y-90608575D01*
X168842816Y-90608576D01*
X168837129Y-90609553D01*
X168633389Y-90684716D01*
X168605119Y-90701535D01*
X168451726Y-90792794D01*
X168451723Y-90792796D01*
X168446758Y-90795750D01*
X168442418Y-90799556D01*
X168442414Y-90799559D01*
X168287827Y-90935129D01*
X168283486Y-90938936D01*
X168279911Y-90943471D01*
X168279910Y-90943472D01*
X168261857Y-90966372D01*
X168149042Y-91109478D01*
X168146353Y-91114589D01*
X168146351Y-91114592D01*
X168050619Y-91296546D01*
X168050616Y-91296553D01*
X168047927Y-91301664D01*
X167983529Y-91509059D01*
X167958005Y-91724717D01*
X158039548Y-91724717D01*
X158022531Y-91539528D01*
X158017422Y-91521411D01*
X157965152Y-91336077D01*
X157965151Y-91336075D01*
X157963584Y-91330518D01*
X157952080Y-91307189D01*
X157870091Y-91140932D01*
X157867536Y-91135751D01*
X157814210Y-91064338D01*
X157741055Y-90966372D01*
X157741054Y-90966371D01*
X157737602Y-90961748D01*
X157726659Y-90951632D01*
X157582375Y-90818258D01*
X157582373Y-90818256D01*
X157578134Y-90814338D01*
X157394473Y-90698456D01*
X157192770Y-90617985D01*
X157187110Y-90616859D01*
X157187106Y-90616858D01*
X156985448Y-90576746D01*
X156985443Y-90576746D01*
X156979780Y-90575619D01*
X156974005Y-90575543D01*
X156974001Y-90575543D01*
X156864855Y-90574114D01*
X156762636Y-90572776D01*
X156756939Y-90573755D01*
X156756938Y-90573755D01*
X156554299Y-90608575D01*
X156554296Y-90608576D01*
X156548609Y-90609553D01*
X156344869Y-90684716D01*
X156316599Y-90701535D01*
X156163206Y-90792794D01*
X156163203Y-90792796D01*
X156158238Y-90795750D01*
X156153898Y-90799556D01*
X156153894Y-90799559D01*
X155999307Y-90935129D01*
X155994966Y-90938936D01*
X155991391Y-90943471D01*
X155991390Y-90943472D01*
X155973337Y-90966372D01*
X155860522Y-91109478D01*
X155857833Y-91114589D01*
X155857831Y-91114592D01*
X155762099Y-91296546D01*
X155762096Y-91296553D01*
X155759407Y-91301664D01*
X155695009Y-91509059D01*
X155669485Y-91724717D01*
X136328068Y-91724717D01*
X136311051Y-91539528D01*
X136305942Y-91521411D01*
X136253672Y-91336077D01*
X136253671Y-91336075D01*
X136252104Y-91330518D01*
X136240600Y-91307189D01*
X136158611Y-91140932D01*
X136156056Y-91135751D01*
X136102730Y-91064338D01*
X136029575Y-90966372D01*
X136029574Y-90966371D01*
X136026122Y-90961748D01*
X136015179Y-90951632D01*
X135870895Y-90818258D01*
X135870893Y-90818256D01*
X135866654Y-90814338D01*
X135682993Y-90698456D01*
X135481290Y-90617985D01*
X135475630Y-90616859D01*
X135475626Y-90616858D01*
X135273968Y-90576746D01*
X135273963Y-90576746D01*
X135268300Y-90575619D01*
X135262525Y-90575543D01*
X135262521Y-90575543D01*
X135153375Y-90574114D01*
X135051156Y-90572776D01*
X135045459Y-90573755D01*
X135045458Y-90573755D01*
X134842819Y-90608575D01*
X134842816Y-90608576D01*
X134837129Y-90609553D01*
X134633389Y-90684716D01*
X134605119Y-90701535D01*
X134451726Y-90792794D01*
X134451723Y-90792796D01*
X134446758Y-90795750D01*
X134442418Y-90799556D01*
X134442414Y-90799559D01*
X134287827Y-90935129D01*
X134283486Y-90938936D01*
X134279911Y-90943471D01*
X134279910Y-90943472D01*
X134261857Y-90966372D01*
X134149042Y-91109478D01*
X134146353Y-91114589D01*
X134146351Y-91114592D01*
X134050619Y-91296546D01*
X134050616Y-91296553D01*
X134047927Y-91301664D01*
X133983529Y-91509059D01*
X133958005Y-91724717D01*
X124039548Y-91724717D01*
X124022531Y-91539528D01*
X124017422Y-91521411D01*
X123965152Y-91336077D01*
X123965151Y-91336075D01*
X123963584Y-91330518D01*
X123952080Y-91307189D01*
X123870091Y-91140932D01*
X123867536Y-91135751D01*
X123814210Y-91064338D01*
X123741055Y-90966372D01*
X123741054Y-90966371D01*
X123737602Y-90961748D01*
X123726659Y-90951632D01*
X123582375Y-90818258D01*
X123582373Y-90818256D01*
X123578134Y-90814338D01*
X123394473Y-90698456D01*
X123192770Y-90617985D01*
X123187110Y-90616859D01*
X123187106Y-90616858D01*
X122985448Y-90576746D01*
X122985443Y-90576746D01*
X122979780Y-90575619D01*
X122974005Y-90575543D01*
X122974001Y-90575543D01*
X122864855Y-90574114D01*
X122762636Y-90572776D01*
X122756939Y-90573755D01*
X122756938Y-90573755D01*
X122554299Y-90608575D01*
X122554296Y-90608576D01*
X122548609Y-90609553D01*
X122344869Y-90684716D01*
X122316599Y-90701535D01*
X122163206Y-90792794D01*
X122163203Y-90792796D01*
X122158238Y-90795750D01*
X122153898Y-90799556D01*
X122153894Y-90799559D01*
X121999307Y-90935129D01*
X121994966Y-90938936D01*
X121991391Y-90943471D01*
X121991390Y-90943472D01*
X121973337Y-90966372D01*
X121860522Y-91109478D01*
X121857833Y-91114589D01*
X121857831Y-91114592D01*
X121762099Y-91296546D01*
X121762096Y-91296553D01*
X121759407Y-91301664D01*
X121695009Y-91509059D01*
X121669485Y-91724717D01*
X113328068Y-91724717D01*
X113311051Y-91539528D01*
X113305942Y-91521411D01*
X113253672Y-91336077D01*
X113253671Y-91336075D01*
X113252104Y-91330518D01*
X113240600Y-91307189D01*
X113158611Y-91140932D01*
X113156056Y-91135751D01*
X113102730Y-91064338D01*
X113029575Y-90966372D01*
X113029574Y-90966371D01*
X113026122Y-90961748D01*
X113015179Y-90951632D01*
X112870895Y-90818258D01*
X112870893Y-90818256D01*
X112866654Y-90814338D01*
X112682993Y-90698456D01*
X112481290Y-90617985D01*
X112475630Y-90616859D01*
X112475626Y-90616858D01*
X112273968Y-90576746D01*
X112273963Y-90576746D01*
X112268300Y-90575619D01*
X112262525Y-90575543D01*
X112262521Y-90575543D01*
X112153375Y-90574114D01*
X112051156Y-90572776D01*
X112045459Y-90573755D01*
X112045458Y-90573755D01*
X111842819Y-90608575D01*
X111842816Y-90608576D01*
X111837129Y-90609553D01*
X111633389Y-90684716D01*
X111605119Y-90701535D01*
X111451726Y-90792794D01*
X111451723Y-90792796D01*
X111446758Y-90795750D01*
X111442418Y-90799556D01*
X111442414Y-90799559D01*
X111287827Y-90935129D01*
X111283486Y-90938936D01*
X111279911Y-90943471D01*
X111279910Y-90943472D01*
X111261857Y-90966372D01*
X111149042Y-91109478D01*
X111146353Y-91114589D01*
X111146351Y-91114592D01*
X111050619Y-91296546D01*
X111050616Y-91296553D01*
X111047927Y-91301664D01*
X110983529Y-91509059D01*
X110958005Y-91724717D01*
X101039548Y-91724717D01*
X101022531Y-91539528D01*
X101017422Y-91521411D01*
X100965152Y-91336077D01*
X100965151Y-91336075D01*
X100963584Y-91330518D01*
X100952080Y-91307189D01*
X100870091Y-91140932D01*
X100867536Y-91135751D01*
X100814210Y-91064338D01*
X100741055Y-90966372D01*
X100741054Y-90966371D01*
X100737602Y-90961748D01*
X100726659Y-90951632D01*
X100582375Y-90818258D01*
X100582373Y-90818256D01*
X100578134Y-90814338D01*
X100394473Y-90698456D01*
X100192770Y-90617985D01*
X100187110Y-90616859D01*
X100187106Y-90616858D01*
X99985448Y-90576746D01*
X99985443Y-90576746D01*
X99979780Y-90575619D01*
X99974005Y-90575543D01*
X99974001Y-90575543D01*
X99864855Y-90574114D01*
X99762636Y-90572776D01*
X99756939Y-90573755D01*
X99756938Y-90573755D01*
X99554299Y-90608575D01*
X99554296Y-90608576D01*
X99548609Y-90609553D01*
X99344869Y-90684716D01*
X99316599Y-90701535D01*
X99163206Y-90792794D01*
X99163203Y-90792796D01*
X99158238Y-90795750D01*
X99153898Y-90799556D01*
X99153894Y-90799559D01*
X98999307Y-90935129D01*
X98994966Y-90938936D01*
X98991391Y-90943471D01*
X98991390Y-90943472D01*
X98973337Y-90966372D01*
X98860522Y-91109478D01*
X98857833Y-91114589D01*
X98857831Y-91114592D01*
X98762099Y-91296546D01*
X98762096Y-91296553D01*
X98759407Y-91301664D01*
X98695009Y-91509059D01*
X98669485Y-91724717D01*
X86622398Y-91724717D01*
X85039609Y-90141928D01*
X85005583Y-90079616D01*
X85003782Y-90036389D01*
X85021529Y-89901590D01*
X85023156Y-89835000D01*
X85004852Y-89612361D01*
X84950431Y-89395702D01*
X84861354Y-89190840D01*
X84740014Y-89003277D01*
X84694791Y-88953577D01*
X99721045Y-88953577D01*
X99735248Y-89170275D01*
X99788703Y-89380756D01*
X99879621Y-89577971D01*
X100004955Y-89755315D01*
X100160509Y-89906850D01*
X100165305Y-89910055D01*
X100165308Y-89910057D01*
X100307206Y-90004869D01*
X100341074Y-90027499D01*
X100346377Y-90029777D01*
X100346380Y-90029779D01*
X100535294Y-90110943D01*
X100540601Y-90113223D01*
X100617921Y-90130719D01*
X100746773Y-90159875D01*
X100746778Y-90159876D01*
X100752410Y-90161150D01*
X100758181Y-90161377D01*
X100758183Y-90161377D01*
X100823533Y-90163945D01*
X100969405Y-90169676D01*
X101076863Y-90154095D01*
X101178607Y-90139343D01*
X101178612Y-90139342D01*
X101184321Y-90138514D01*
X101189785Y-90136659D01*
X101189790Y-90136658D01*
X101384487Y-90070568D01*
X101384492Y-90070566D01*
X101389959Y-90068710D01*
X101395002Y-90065886D01*
X101574386Y-89965426D01*
X101574390Y-89965423D01*
X101579433Y-89962599D01*
X101746397Y-89823737D01*
X101885259Y-89656773D01*
X101888083Y-89651730D01*
X101888086Y-89651726D01*
X101988546Y-89472342D01*
X101988547Y-89472340D01*
X101991370Y-89467299D01*
X101993226Y-89461832D01*
X101993228Y-89461827D01*
X102059318Y-89267130D01*
X102059319Y-89267125D01*
X102061174Y-89261661D01*
X102073613Y-89175877D01*
X102091803Y-89050419D01*
X102092336Y-89046745D01*
X102093962Y-88984640D01*
X102091108Y-88953577D01*
X109906445Y-88953577D01*
X109920648Y-89170275D01*
X109974103Y-89380756D01*
X110065021Y-89577971D01*
X110190355Y-89755315D01*
X110345909Y-89906850D01*
X110350705Y-89910055D01*
X110350708Y-89910057D01*
X110492606Y-90004869D01*
X110526474Y-90027499D01*
X110531777Y-90029777D01*
X110531780Y-90029779D01*
X110720694Y-90110943D01*
X110726001Y-90113223D01*
X110803321Y-90130719D01*
X110932173Y-90159875D01*
X110932178Y-90159876D01*
X110937810Y-90161150D01*
X110943581Y-90161377D01*
X110943583Y-90161377D01*
X111008933Y-90163945D01*
X111154805Y-90169676D01*
X111262263Y-90154095D01*
X111364007Y-90139343D01*
X111364012Y-90139342D01*
X111369721Y-90138514D01*
X111375185Y-90136659D01*
X111375190Y-90136658D01*
X111569887Y-90070568D01*
X111569892Y-90070566D01*
X111575359Y-90068710D01*
X111580402Y-90065886D01*
X111759786Y-89965426D01*
X111759790Y-89965423D01*
X111764833Y-89962599D01*
X111931797Y-89823737D01*
X112070659Y-89656773D01*
X112073483Y-89651730D01*
X112073486Y-89651726D01*
X112173946Y-89472342D01*
X112173947Y-89472340D01*
X112176770Y-89467299D01*
X112178626Y-89461832D01*
X112178628Y-89461827D01*
X112244718Y-89267130D01*
X112244719Y-89267125D01*
X112246574Y-89261661D01*
X112259013Y-89175877D01*
X112277203Y-89050419D01*
X112277736Y-89046745D01*
X112279362Y-88984640D01*
X112276508Y-88953577D01*
X122721045Y-88953577D01*
X122735248Y-89170275D01*
X122788703Y-89380756D01*
X122879621Y-89577971D01*
X123004955Y-89755315D01*
X123160509Y-89906850D01*
X123165305Y-89910055D01*
X123165308Y-89910057D01*
X123307206Y-90004869D01*
X123341074Y-90027499D01*
X123346377Y-90029777D01*
X123346380Y-90029779D01*
X123535294Y-90110943D01*
X123540601Y-90113223D01*
X123617921Y-90130719D01*
X123746773Y-90159875D01*
X123746778Y-90159876D01*
X123752410Y-90161150D01*
X123758181Y-90161377D01*
X123758183Y-90161377D01*
X123823533Y-90163945D01*
X123969405Y-90169676D01*
X124076863Y-90154095D01*
X124178607Y-90139343D01*
X124178612Y-90139342D01*
X124184321Y-90138514D01*
X124189785Y-90136659D01*
X124189790Y-90136658D01*
X124384487Y-90070568D01*
X124384492Y-90070566D01*
X124389959Y-90068710D01*
X124395002Y-90065886D01*
X124574386Y-89965426D01*
X124574390Y-89965423D01*
X124579433Y-89962599D01*
X124746397Y-89823737D01*
X124885259Y-89656773D01*
X124888083Y-89651730D01*
X124888086Y-89651726D01*
X124988546Y-89472342D01*
X124988547Y-89472340D01*
X124991370Y-89467299D01*
X124993226Y-89461832D01*
X124993228Y-89461827D01*
X125059318Y-89267130D01*
X125059319Y-89267125D01*
X125061174Y-89261661D01*
X125073613Y-89175877D01*
X125091803Y-89050419D01*
X125092336Y-89046745D01*
X125093962Y-88984640D01*
X125091108Y-88953577D01*
X132906445Y-88953577D01*
X132920648Y-89170275D01*
X132974103Y-89380756D01*
X133065021Y-89577971D01*
X133190355Y-89755315D01*
X133345909Y-89906850D01*
X133350705Y-89910055D01*
X133350708Y-89910057D01*
X133492606Y-90004869D01*
X133526474Y-90027499D01*
X133531777Y-90029777D01*
X133531780Y-90029779D01*
X133720694Y-90110943D01*
X133726001Y-90113223D01*
X133803321Y-90130719D01*
X133932173Y-90159875D01*
X133932178Y-90159876D01*
X133937810Y-90161150D01*
X133943581Y-90161377D01*
X133943583Y-90161377D01*
X134008933Y-90163945D01*
X134154805Y-90169676D01*
X134262263Y-90154095D01*
X134364007Y-90139343D01*
X134364012Y-90139342D01*
X134369721Y-90138514D01*
X134375185Y-90136659D01*
X134375190Y-90136658D01*
X134569887Y-90070568D01*
X134569892Y-90070566D01*
X134575359Y-90068710D01*
X134580402Y-90065886D01*
X134759786Y-89965426D01*
X134759790Y-89965423D01*
X134764833Y-89962599D01*
X134931797Y-89823737D01*
X135070659Y-89656773D01*
X135073483Y-89651730D01*
X135073486Y-89651726D01*
X135173946Y-89472342D01*
X135173947Y-89472340D01*
X135176770Y-89467299D01*
X135178626Y-89461832D01*
X135178628Y-89461827D01*
X135244718Y-89267130D01*
X135244719Y-89267125D01*
X135246574Y-89261661D01*
X135259013Y-89175877D01*
X135277203Y-89050419D01*
X135277736Y-89046745D01*
X135279362Y-88984640D01*
X135276508Y-88953577D01*
X156721045Y-88953577D01*
X156735248Y-89170275D01*
X156788703Y-89380756D01*
X156879621Y-89577971D01*
X157004955Y-89755315D01*
X157160509Y-89906850D01*
X157165305Y-89910055D01*
X157165308Y-89910057D01*
X157307206Y-90004869D01*
X157341074Y-90027499D01*
X157346377Y-90029777D01*
X157346380Y-90029779D01*
X157535294Y-90110943D01*
X157540601Y-90113223D01*
X157617921Y-90130719D01*
X157746773Y-90159875D01*
X157746778Y-90159876D01*
X157752410Y-90161150D01*
X157758181Y-90161377D01*
X157758183Y-90161377D01*
X157823533Y-90163945D01*
X157969405Y-90169676D01*
X158076863Y-90154095D01*
X158178607Y-90139343D01*
X158178612Y-90139342D01*
X158184321Y-90138514D01*
X158189785Y-90136659D01*
X158189790Y-90136658D01*
X158384487Y-90070568D01*
X158384492Y-90070566D01*
X158389959Y-90068710D01*
X158395002Y-90065886D01*
X158574386Y-89965426D01*
X158574390Y-89965423D01*
X158579433Y-89962599D01*
X158746397Y-89823737D01*
X158885259Y-89656773D01*
X158888083Y-89651730D01*
X158888086Y-89651726D01*
X158988546Y-89472342D01*
X158988547Y-89472340D01*
X158991370Y-89467299D01*
X158993226Y-89461832D01*
X158993228Y-89461827D01*
X159059318Y-89267130D01*
X159059319Y-89267125D01*
X159061174Y-89261661D01*
X159073613Y-89175877D01*
X159091803Y-89050419D01*
X159092336Y-89046745D01*
X159093962Y-88984640D01*
X159091108Y-88953577D01*
X166906445Y-88953577D01*
X166920648Y-89170275D01*
X166974103Y-89380756D01*
X167065021Y-89577971D01*
X167190355Y-89755315D01*
X167345909Y-89906850D01*
X167350705Y-89910055D01*
X167350708Y-89910057D01*
X167492606Y-90004869D01*
X167526474Y-90027499D01*
X167531777Y-90029777D01*
X167531780Y-90029779D01*
X167720694Y-90110943D01*
X167726001Y-90113223D01*
X167803321Y-90130719D01*
X167932173Y-90159875D01*
X167932178Y-90159876D01*
X167937810Y-90161150D01*
X167943581Y-90161377D01*
X167943583Y-90161377D01*
X168008933Y-90163945D01*
X168154805Y-90169676D01*
X168262263Y-90154095D01*
X168364007Y-90139343D01*
X168364012Y-90139342D01*
X168369721Y-90138514D01*
X168375185Y-90136659D01*
X168375190Y-90136658D01*
X168569887Y-90070568D01*
X168569892Y-90070566D01*
X168575359Y-90068710D01*
X168580402Y-90065886D01*
X168759786Y-89965426D01*
X168759790Y-89965423D01*
X168764833Y-89962599D01*
X168931797Y-89823737D01*
X169070659Y-89656773D01*
X169073483Y-89651730D01*
X169073486Y-89651726D01*
X169173946Y-89472342D01*
X169173947Y-89472340D01*
X169176770Y-89467299D01*
X169178626Y-89461832D01*
X169178628Y-89461827D01*
X169244718Y-89267130D01*
X169244719Y-89267125D01*
X169246574Y-89261661D01*
X169259013Y-89175877D01*
X169277203Y-89050419D01*
X169277736Y-89046745D01*
X169279362Y-88984640D01*
X169276508Y-88953577D01*
X179721045Y-88953577D01*
X179735248Y-89170275D01*
X179788703Y-89380756D01*
X179879621Y-89577971D01*
X180004955Y-89755315D01*
X180160509Y-89906850D01*
X180165305Y-89910055D01*
X180165308Y-89910057D01*
X180307206Y-90004869D01*
X180341074Y-90027499D01*
X180346377Y-90029777D01*
X180346380Y-90029779D01*
X180535294Y-90110943D01*
X180540601Y-90113223D01*
X180617921Y-90130719D01*
X180746773Y-90159875D01*
X180746778Y-90159876D01*
X180752410Y-90161150D01*
X180758181Y-90161377D01*
X180758183Y-90161377D01*
X180823533Y-90163945D01*
X180969405Y-90169676D01*
X181076863Y-90154095D01*
X181178607Y-90139343D01*
X181178612Y-90139342D01*
X181184321Y-90138514D01*
X181189785Y-90136659D01*
X181189790Y-90136658D01*
X181384487Y-90070568D01*
X181384492Y-90070566D01*
X181389959Y-90068710D01*
X181395002Y-90065886D01*
X181574386Y-89965426D01*
X181574390Y-89965423D01*
X181579433Y-89962599D01*
X181746397Y-89823737D01*
X181885259Y-89656773D01*
X181888083Y-89651730D01*
X181888086Y-89651726D01*
X181988546Y-89472342D01*
X181988547Y-89472340D01*
X181991370Y-89467299D01*
X181993226Y-89461832D01*
X181993228Y-89461827D01*
X182059318Y-89267130D01*
X182059319Y-89267125D01*
X182061174Y-89261661D01*
X182073613Y-89175877D01*
X182091803Y-89050419D01*
X182092336Y-89046745D01*
X182093962Y-88984640D01*
X182091108Y-88953577D01*
X189906445Y-88953577D01*
X189920648Y-89170275D01*
X189974103Y-89380756D01*
X190065021Y-89577971D01*
X190190355Y-89755315D01*
X190345909Y-89906850D01*
X190350705Y-89910055D01*
X190350708Y-89910057D01*
X190492606Y-90004869D01*
X190526474Y-90027499D01*
X190531777Y-90029777D01*
X190531780Y-90029779D01*
X190720694Y-90110943D01*
X190726001Y-90113223D01*
X190803321Y-90130719D01*
X190932173Y-90159875D01*
X190932178Y-90159876D01*
X190937810Y-90161150D01*
X190943581Y-90161377D01*
X190943583Y-90161377D01*
X191008933Y-90163945D01*
X191154805Y-90169676D01*
X191262263Y-90154095D01*
X191364007Y-90139343D01*
X191364012Y-90139342D01*
X191369721Y-90138514D01*
X191375185Y-90136659D01*
X191375190Y-90136658D01*
X191569887Y-90070568D01*
X191569892Y-90070566D01*
X191575359Y-90068710D01*
X191580402Y-90065886D01*
X191759786Y-89965426D01*
X191759790Y-89965423D01*
X191764833Y-89962599D01*
X191931797Y-89823737D01*
X192070659Y-89656773D01*
X192073483Y-89651730D01*
X192073486Y-89651726D01*
X192173946Y-89472342D01*
X192173947Y-89472340D01*
X192176770Y-89467299D01*
X192178626Y-89461832D01*
X192178628Y-89461827D01*
X192244718Y-89267130D01*
X192244719Y-89267125D01*
X192246574Y-89261661D01*
X192259013Y-89175877D01*
X192277203Y-89050419D01*
X192277736Y-89046745D01*
X192279362Y-88984640D01*
X192264176Y-88819373D01*
X192260020Y-88774142D01*
X192260019Y-88774139D01*
X192259491Y-88768388D01*
X192252517Y-88743658D01*
X192202112Y-88564937D01*
X192202111Y-88564935D01*
X192200544Y-88559378D01*
X192196484Y-88551144D01*
X192107051Y-88369792D01*
X192104496Y-88364611D01*
X192083261Y-88336173D01*
X191978015Y-88195232D01*
X191978014Y-88195231D01*
X191974562Y-88190608D01*
X191957779Y-88175094D01*
X191819335Y-88047118D01*
X191819333Y-88047116D01*
X191815094Y-88043198D01*
X191748654Y-88001277D01*
X191636313Y-87930395D01*
X191636312Y-87930395D01*
X191631433Y-87927316D01*
X191429730Y-87846845D01*
X191424070Y-87845719D01*
X191424066Y-87845718D01*
X191222408Y-87805606D01*
X191222403Y-87805606D01*
X191216740Y-87804479D01*
X191210965Y-87804403D01*
X191210961Y-87804403D01*
X191101815Y-87802974D01*
X190999596Y-87801636D01*
X190993899Y-87802615D01*
X190993898Y-87802615D01*
X190791259Y-87837435D01*
X190791256Y-87837436D01*
X190785569Y-87838413D01*
X190581829Y-87913576D01*
X190538603Y-87939293D01*
X190400166Y-88021654D01*
X190400163Y-88021656D01*
X190395198Y-88024610D01*
X190390858Y-88028416D01*
X190390854Y-88028419D01*
X190286510Y-88119927D01*
X190231926Y-88167796D01*
X190228351Y-88172331D01*
X190228350Y-88172332D01*
X190210297Y-88195232D01*
X190097482Y-88338338D01*
X190094793Y-88343449D01*
X190094791Y-88343452D01*
X189999059Y-88525406D01*
X189999056Y-88525413D01*
X189996367Y-88530524D01*
X189931969Y-88737919D01*
X189906445Y-88953577D01*
X182091108Y-88953577D01*
X182078776Y-88819373D01*
X182074620Y-88774142D01*
X182074619Y-88774139D01*
X182074091Y-88768388D01*
X182067117Y-88743658D01*
X182016712Y-88564937D01*
X182016711Y-88564935D01*
X182015144Y-88559378D01*
X182011084Y-88551144D01*
X181921651Y-88369792D01*
X181919096Y-88364611D01*
X181897861Y-88336173D01*
X181792615Y-88195232D01*
X181792614Y-88195231D01*
X181789162Y-88190608D01*
X181772379Y-88175094D01*
X181633935Y-88047118D01*
X181633933Y-88047116D01*
X181629694Y-88043198D01*
X181563254Y-88001277D01*
X181450913Y-87930395D01*
X181450912Y-87930395D01*
X181446033Y-87927316D01*
X181244330Y-87846845D01*
X181238670Y-87845719D01*
X181238666Y-87845718D01*
X181037008Y-87805606D01*
X181037003Y-87805606D01*
X181031340Y-87804479D01*
X181025565Y-87804403D01*
X181025561Y-87804403D01*
X180916415Y-87802974D01*
X180814196Y-87801636D01*
X180808499Y-87802615D01*
X180808498Y-87802615D01*
X180605859Y-87837435D01*
X180605856Y-87837436D01*
X180600169Y-87838413D01*
X180396429Y-87913576D01*
X180353203Y-87939293D01*
X180214766Y-88021654D01*
X180214763Y-88021656D01*
X180209798Y-88024610D01*
X180205458Y-88028416D01*
X180205454Y-88028419D01*
X180101110Y-88119927D01*
X180046526Y-88167796D01*
X180042951Y-88172331D01*
X180042950Y-88172332D01*
X180024897Y-88195232D01*
X179912082Y-88338338D01*
X179909393Y-88343449D01*
X179909391Y-88343452D01*
X179813659Y-88525406D01*
X179813656Y-88525413D01*
X179810967Y-88530524D01*
X179746569Y-88737919D01*
X179721045Y-88953577D01*
X169276508Y-88953577D01*
X169264176Y-88819373D01*
X169260020Y-88774142D01*
X169260019Y-88774139D01*
X169259491Y-88768388D01*
X169252517Y-88743658D01*
X169202112Y-88564937D01*
X169202111Y-88564935D01*
X169200544Y-88559378D01*
X169196484Y-88551144D01*
X169107051Y-88369792D01*
X169104496Y-88364611D01*
X169083261Y-88336173D01*
X168978015Y-88195232D01*
X168978014Y-88195231D01*
X168974562Y-88190608D01*
X168957779Y-88175094D01*
X168819335Y-88047118D01*
X168819333Y-88047116D01*
X168815094Y-88043198D01*
X168748654Y-88001277D01*
X168636313Y-87930395D01*
X168636312Y-87930395D01*
X168631433Y-87927316D01*
X168429730Y-87846845D01*
X168424070Y-87845719D01*
X168424066Y-87845718D01*
X168222408Y-87805606D01*
X168222403Y-87805606D01*
X168216740Y-87804479D01*
X168210965Y-87804403D01*
X168210961Y-87804403D01*
X168101815Y-87802974D01*
X167999596Y-87801636D01*
X167993899Y-87802615D01*
X167993898Y-87802615D01*
X167791259Y-87837435D01*
X167791256Y-87837436D01*
X167785569Y-87838413D01*
X167581829Y-87913576D01*
X167538603Y-87939293D01*
X167400166Y-88021654D01*
X167400163Y-88021656D01*
X167395198Y-88024610D01*
X167390858Y-88028416D01*
X167390854Y-88028419D01*
X167286510Y-88119927D01*
X167231926Y-88167796D01*
X167228351Y-88172331D01*
X167228350Y-88172332D01*
X167210297Y-88195232D01*
X167097482Y-88338338D01*
X167094793Y-88343449D01*
X167094791Y-88343452D01*
X166999059Y-88525406D01*
X166999056Y-88525413D01*
X166996367Y-88530524D01*
X166931969Y-88737919D01*
X166906445Y-88953577D01*
X159091108Y-88953577D01*
X159078776Y-88819373D01*
X159074620Y-88774142D01*
X159074619Y-88774139D01*
X159074091Y-88768388D01*
X159067117Y-88743658D01*
X159016712Y-88564937D01*
X159016711Y-88564935D01*
X159015144Y-88559378D01*
X159011084Y-88551144D01*
X158921651Y-88369792D01*
X158919096Y-88364611D01*
X158897861Y-88336173D01*
X158792615Y-88195232D01*
X158792614Y-88195231D01*
X158789162Y-88190608D01*
X158772379Y-88175094D01*
X158633935Y-88047118D01*
X158633933Y-88047116D01*
X158629694Y-88043198D01*
X158563254Y-88001277D01*
X158450913Y-87930395D01*
X158450912Y-87930395D01*
X158446033Y-87927316D01*
X158244330Y-87846845D01*
X158238670Y-87845719D01*
X158238666Y-87845718D01*
X158037008Y-87805606D01*
X158037003Y-87805606D01*
X158031340Y-87804479D01*
X158025565Y-87804403D01*
X158025561Y-87804403D01*
X157916415Y-87802974D01*
X157814196Y-87801636D01*
X157808499Y-87802615D01*
X157808498Y-87802615D01*
X157605859Y-87837435D01*
X157605856Y-87837436D01*
X157600169Y-87838413D01*
X157396429Y-87913576D01*
X157353203Y-87939293D01*
X157214766Y-88021654D01*
X157214763Y-88021656D01*
X157209798Y-88024610D01*
X157205458Y-88028416D01*
X157205454Y-88028419D01*
X157101110Y-88119927D01*
X157046526Y-88167796D01*
X157042951Y-88172331D01*
X157042950Y-88172332D01*
X157024897Y-88195232D01*
X156912082Y-88338338D01*
X156909393Y-88343449D01*
X156909391Y-88343452D01*
X156813659Y-88525406D01*
X156813656Y-88525413D01*
X156810967Y-88530524D01*
X156746569Y-88737919D01*
X156721045Y-88953577D01*
X135276508Y-88953577D01*
X135264176Y-88819373D01*
X135260020Y-88774142D01*
X135260019Y-88774139D01*
X135259491Y-88768388D01*
X135252517Y-88743658D01*
X135202112Y-88564937D01*
X135202111Y-88564935D01*
X135200544Y-88559378D01*
X135196484Y-88551144D01*
X135126194Y-88408611D01*
X143868719Y-88408611D01*
X143873628Y-88415169D01*
X143980006Y-88474622D01*
X143991246Y-88479532D01*
X144177549Y-88540066D01*
X144189523Y-88542699D01*
X144384045Y-88565894D01*
X144396294Y-88566151D01*
X144591616Y-88551122D01*
X144603696Y-88548991D01*
X144792366Y-88496313D01*
X144803799Y-88491879D01*
X144947995Y-88419040D01*
X144958279Y-88409395D01*
X144956041Y-88402751D01*
X144425312Y-87872022D01*
X144411368Y-87864408D01*
X144409535Y-87864539D01*
X144402920Y-87868790D01*
X143875479Y-88396231D01*
X143868719Y-88408611D01*
X135126194Y-88408611D01*
X135107051Y-88369792D01*
X135104496Y-88364611D01*
X135083261Y-88336173D01*
X134978015Y-88195232D01*
X134978014Y-88195231D01*
X134974562Y-88190608D01*
X134957779Y-88175094D01*
X134819335Y-88047118D01*
X134819333Y-88047116D01*
X134815094Y-88043198D01*
X134748654Y-88001277D01*
X134636313Y-87930395D01*
X134636312Y-87930395D01*
X134631433Y-87927316D01*
X134429730Y-87846845D01*
X134424070Y-87845719D01*
X134424066Y-87845718D01*
X134222408Y-87805606D01*
X134222403Y-87805606D01*
X134216740Y-87804479D01*
X134210965Y-87804403D01*
X134210961Y-87804403D01*
X134101815Y-87802974D01*
X133999596Y-87801636D01*
X133993899Y-87802615D01*
X133993898Y-87802615D01*
X133791259Y-87837435D01*
X133791256Y-87837436D01*
X133785569Y-87838413D01*
X133581829Y-87913576D01*
X133538603Y-87939293D01*
X133400166Y-88021654D01*
X133400163Y-88021656D01*
X133395198Y-88024610D01*
X133390858Y-88028416D01*
X133390854Y-88028419D01*
X133286510Y-88119927D01*
X133231926Y-88167796D01*
X133228351Y-88172331D01*
X133228350Y-88172332D01*
X133210297Y-88195232D01*
X133097482Y-88338338D01*
X133094793Y-88343449D01*
X133094791Y-88343452D01*
X132999059Y-88525406D01*
X132999056Y-88525413D01*
X132996367Y-88530524D01*
X132931969Y-88737919D01*
X132906445Y-88953577D01*
X125091108Y-88953577D01*
X125078776Y-88819373D01*
X125074620Y-88774142D01*
X125074619Y-88774139D01*
X125074091Y-88768388D01*
X125067117Y-88743658D01*
X125016712Y-88564937D01*
X125016711Y-88564935D01*
X125015144Y-88559378D01*
X125011084Y-88551144D01*
X124921651Y-88369792D01*
X124919096Y-88364611D01*
X124897861Y-88336173D01*
X124792615Y-88195232D01*
X124792614Y-88195231D01*
X124789162Y-88190608D01*
X124772379Y-88175094D01*
X124633935Y-88047118D01*
X124633933Y-88047116D01*
X124629694Y-88043198D01*
X124563254Y-88001277D01*
X124450913Y-87930395D01*
X124450912Y-87930395D01*
X124446033Y-87927316D01*
X124244330Y-87846845D01*
X124238670Y-87845719D01*
X124238666Y-87845718D01*
X124037008Y-87805606D01*
X124037003Y-87805606D01*
X124031340Y-87804479D01*
X124025565Y-87804403D01*
X124025561Y-87804403D01*
X123916415Y-87802974D01*
X123814196Y-87801636D01*
X123808499Y-87802615D01*
X123808498Y-87802615D01*
X123605859Y-87837435D01*
X123605856Y-87837436D01*
X123600169Y-87838413D01*
X123396429Y-87913576D01*
X123353203Y-87939293D01*
X123214766Y-88021654D01*
X123214763Y-88021656D01*
X123209798Y-88024610D01*
X123205458Y-88028416D01*
X123205454Y-88028419D01*
X123101110Y-88119927D01*
X123046526Y-88167796D01*
X123042951Y-88172331D01*
X123042950Y-88172332D01*
X123024897Y-88195232D01*
X122912082Y-88338338D01*
X122909393Y-88343449D01*
X122909391Y-88343452D01*
X122813659Y-88525406D01*
X122813656Y-88525413D01*
X122810967Y-88530524D01*
X122746569Y-88737919D01*
X122721045Y-88953577D01*
X112276508Y-88953577D01*
X112264176Y-88819373D01*
X112260020Y-88774142D01*
X112260019Y-88774139D01*
X112259491Y-88768388D01*
X112252517Y-88743658D01*
X112202112Y-88564937D01*
X112202111Y-88564935D01*
X112200544Y-88559378D01*
X112196484Y-88551144D01*
X112107051Y-88369792D01*
X112104496Y-88364611D01*
X112083261Y-88336173D01*
X111978015Y-88195232D01*
X111978014Y-88195231D01*
X111974562Y-88190608D01*
X111957779Y-88175094D01*
X111819335Y-88047118D01*
X111819333Y-88047116D01*
X111815094Y-88043198D01*
X111748654Y-88001277D01*
X111636313Y-87930395D01*
X111636312Y-87930395D01*
X111631433Y-87927316D01*
X111429730Y-87846845D01*
X111424070Y-87845719D01*
X111424066Y-87845718D01*
X111222408Y-87805606D01*
X111222403Y-87805606D01*
X111216740Y-87804479D01*
X111210965Y-87804403D01*
X111210961Y-87804403D01*
X111101815Y-87802974D01*
X110999596Y-87801636D01*
X110993899Y-87802615D01*
X110993898Y-87802615D01*
X110791259Y-87837435D01*
X110791256Y-87837436D01*
X110785569Y-87838413D01*
X110581829Y-87913576D01*
X110538603Y-87939293D01*
X110400166Y-88021654D01*
X110400163Y-88021656D01*
X110395198Y-88024610D01*
X110390858Y-88028416D01*
X110390854Y-88028419D01*
X110286510Y-88119927D01*
X110231926Y-88167796D01*
X110228351Y-88172331D01*
X110228350Y-88172332D01*
X110210297Y-88195232D01*
X110097482Y-88338338D01*
X110094793Y-88343449D01*
X110094791Y-88343452D01*
X109999059Y-88525406D01*
X109999056Y-88525413D01*
X109996367Y-88530524D01*
X109931969Y-88737919D01*
X109906445Y-88953577D01*
X102091108Y-88953577D01*
X102078776Y-88819373D01*
X102074620Y-88774142D01*
X102074619Y-88774139D01*
X102074091Y-88768388D01*
X102067117Y-88743658D01*
X102016712Y-88564937D01*
X102016711Y-88564935D01*
X102015144Y-88559378D01*
X102011084Y-88551144D01*
X101921651Y-88369792D01*
X101919096Y-88364611D01*
X101897861Y-88336173D01*
X101792615Y-88195232D01*
X101792614Y-88195231D01*
X101789162Y-88190608D01*
X101772379Y-88175094D01*
X101633935Y-88047118D01*
X101633933Y-88047116D01*
X101629694Y-88043198D01*
X101563254Y-88001277D01*
X101450913Y-87930395D01*
X101450912Y-87930395D01*
X101446033Y-87927316D01*
X101244330Y-87846845D01*
X101238670Y-87845719D01*
X101238666Y-87845718D01*
X101037008Y-87805606D01*
X101037003Y-87805606D01*
X101031340Y-87804479D01*
X101025565Y-87804403D01*
X101025561Y-87804403D01*
X100916415Y-87802974D01*
X100814196Y-87801636D01*
X100808499Y-87802615D01*
X100808498Y-87802615D01*
X100605859Y-87837435D01*
X100605856Y-87837436D01*
X100600169Y-87838413D01*
X100396429Y-87913576D01*
X100353203Y-87939293D01*
X100214766Y-88021654D01*
X100214763Y-88021656D01*
X100209798Y-88024610D01*
X100205458Y-88028416D01*
X100205454Y-88028419D01*
X100101110Y-88119927D01*
X100046526Y-88167796D01*
X100042951Y-88172331D01*
X100042950Y-88172332D01*
X100024897Y-88195232D01*
X99912082Y-88338338D01*
X99909393Y-88343449D01*
X99909391Y-88343452D01*
X99813659Y-88525406D01*
X99813656Y-88525413D01*
X99810967Y-88530524D01*
X99746569Y-88737919D01*
X99721045Y-88953577D01*
X84694791Y-88953577D01*
X84589670Y-88838051D01*
X84585619Y-88834852D01*
X84585615Y-88834848D01*
X84418414Y-88702800D01*
X84418410Y-88702798D01*
X84414359Y-88699598D01*
X84373053Y-88676796D01*
X84323084Y-88626364D01*
X84308312Y-88556921D01*
X84333428Y-88490516D01*
X84360780Y-88463909D01*
X84429111Y-88415169D01*
X84539860Y-88336173D01*
X84698096Y-88178489D01*
X84749360Y-88107148D01*
X84825435Y-88001277D01*
X84828453Y-87997077D01*
X84857012Y-87939293D01*
X84925136Y-87801453D01*
X84925137Y-87801451D01*
X84927430Y-87796811D01*
X84992370Y-87583069D01*
X85021529Y-87361590D01*
X85022943Y-87303710D01*
X85023074Y-87298365D01*
X85023074Y-87298361D01*
X85023156Y-87295000D01*
X85004852Y-87072361D01*
X84984204Y-86990157D01*
X101938465Y-86990157D01*
X101952668Y-87206855D01*
X102006123Y-87417336D01*
X102097041Y-87614551D01*
X102222375Y-87791895D01*
X102377929Y-87943430D01*
X102382725Y-87946635D01*
X102382728Y-87946637D01*
X102495000Y-88021654D01*
X102558494Y-88064079D01*
X102563797Y-88066357D01*
X102563800Y-88066359D01*
X102688483Y-88119927D01*
X102758021Y-88149803D01*
X102820715Y-88163989D01*
X102964193Y-88196455D01*
X102964198Y-88196456D01*
X102969830Y-88197730D01*
X102975601Y-88197957D01*
X102975603Y-88197957D01*
X103040953Y-88200525D01*
X103186825Y-88206256D01*
X103294745Y-88190608D01*
X103396027Y-88175923D01*
X103396032Y-88175922D01*
X103401741Y-88175094D01*
X103407205Y-88173239D01*
X103407210Y-88173238D01*
X103601907Y-88107148D01*
X103601912Y-88107146D01*
X103607379Y-88105290D01*
X103624523Y-88095689D01*
X103791806Y-88002006D01*
X103791810Y-88002003D01*
X103796853Y-87999179D01*
X103963817Y-87860317D01*
X104102679Y-87693353D01*
X104105503Y-87688310D01*
X104105506Y-87688306D01*
X104205966Y-87508922D01*
X104205967Y-87508920D01*
X104208790Y-87503879D01*
X104210646Y-87498412D01*
X104210648Y-87498407D01*
X104276738Y-87303710D01*
X104276739Y-87303705D01*
X104278594Y-87298241D01*
X104279551Y-87291646D01*
X104308315Y-87093261D01*
X104309756Y-87083325D01*
X104311382Y-87021220D01*
X104293288Y-86824305D01*
X104292040Y-86810722D01*
X104292039Y-86810719D01*
X104291511Y-86804968D01*
X104288762Y-86795219D01*
X104234132Y-86601517D01*
X104234131Y-86601515D01*
X104232564Y-86595958D01*
X104229420Y-86589581D01*
X104139071Y-86406372D01*
X104136516Y-86401191D01*
X104113939Y-86370956D01*
X104047137Y-86281497D01*
X104813745Y-86281497D01*
X104827948Y-86498195D01*
X104881403Y-86708676D01*
X104972321Y-86905891D01*
X105097655Y-87083235D01*
X105253209Y-87234770D01*
X105258005Y-87237975D01*
X105258008Y-87237977D01*
X105399906Y-87332789D01*
X105433774Y-87355419D01*
X105439077Y-87357697D01*
X105439080Y-87357699D01*
X105577889Y-87417336D01*
X105633301Y-87441143D01*
X105710621Y-87458639D01*
X105839473Y-87487795D01*
X105839478Y-87487796D01*
X105845110Y-87489070D01*
X105850881Y-87489297D01*
X105850883Y-87489297D01*
X105916233Y-87491865D01*
X106062105Y-87497596D01*
X106169563Y-87482015D01*
X106271307Y-87467263D01*
X106271312Y-87467262D01*
X106277021Y-87466434D01*
X106282485Y-87464579D01*
X106282490Y-87464578D01*
X106477187Y-87398488D01*
X106477192Y-87398486D01*
X106482659Y-87396630D01*
X106487702Y-87393806D01*
X106667086Y-87293346D01*
X106667090Y-87293343D01*
X106672133Y-87290519D01*
X106839097Y-87151657D01*
X106973415Y-86990157D01*
X107689025Y-86990157D01*
X107703228Y-87206855D01*
X107756683Y-87417336D01*
X107847601Y-87614551D01*
X107972935Y-87791895D01*
X108128489Y-87943430D01*
X108133285Y-87946635D01*
X108133288Y-87946637D01*
X108245560Y-88021654D01*
X108309054Y-88064079D01*
X108314357Y-88066357D01*
X108314360Y-88066359D01*
X108439043Y-88119927D01*
X108508581Y-88149803D01*
X108571275Y-88163989D01*
X108714753Y-88196455D01*
X108714758Y-88196456D01*
X108720390Y-88197730D01*
X108726161Y-88197957D01*
X108726163Y-88197957D01*
X108791513Y-88200525D01*
X108937385Y-88206256D01*
X109045305Y-88190608D01*
X109146587Y-88175923D01*
X109146592Y-88175922D01*
X109152301Y-88175094D01*
X109157765Y-88173239D01*
X109157770Y-88173238D01*
X109352467Y-88107148D01*
X109352472Y-88107146D01*
X109357939Y-88105290D01*
X109375083Y-88095689D01*
X109542366Y-88002006D01*
X109542370Y-88002003D01*
X109547413Y-87999179D01*
X109714377Y-87860317D01*
X109853239Y-87693353D01*
X109856063Y-87688310D01*
X109856066Y-87688306D01*
X109956526Y-87508922D01*
X109956527Y-87508920D01*
X109959350Y-87503879D01*
X109961206Y-87498412D01*
X109961208Y-87498407D01*
X110027298Y-87303710D01*
X110027299Y-87303705D01*
X110029154Y-87298241D01*
X110030111Y-87291646D01*
X110058875Y-87093261D01*
X110060316Y-87083325D01*
X110061942Y-87021220D01*
X110059088Y-86990157D01*
X124938465Y-86990157D01*
X124952668Y-87206855D01*
X125006123Y-87417336D01*
X125097041Y-87614551D01*
X125222375Y-87791895D01*
X125377929Y-87943430D01*
X125382725Y-87946635D01*
X125382728Y-87946637D01*
X125495000Y-88021654D01*
X125558494Y-88064079D01*
X125563797Y-88066357D01*
X125563800Y-88066359D01*
X125688483Y-88119927D01*
X125758021Y-88149803D01*
X125820715Y-88163989D01*
X125964193Y-88196455D01*
X125964198Y-88196456D01*
X125969830Y-88197730D01*
X125975601Y-88197957D01*
X125975603Y-88197957D01*
X126040953Y-88200525D01*
X126186825Y-88206256D01*
X126294745Y-88190608D01*
X126396027Y-88175923D01*
X126396032Y-88175922D01*
X126401741Y-88175094D01*
X126407205Y-88173239D01*
X126407210Y-88173238D01*
X126601907Y-88107148D01*
X126601912Y-88107146D01*
X126607379Y-88105290D01*
X126624523Y-88095689D01*
X126791806Y-88002006D01*
X126791810Y-88002003D01*
X126796853Y-87999179D01*
X126963817Y-87860317D01*
X127102679Y-87693353D01*
X127105503Y-87688310D01*
X127105506Y-87688306D01*
X127205966Y-87508922D01*
X127205967Y-87508920D01*
X127208790Y-87503879D01*
X127210646Y-87498412D01*
X127210648Y-87498407D01*
X127276738Y-87303710D01*
X127276739Y-87303705D01*
X127278594Y-87298241D01*
X127279551Y-87291646D01*
X127308315Y-87093261D01*
X127309756Y-87083325D01*
X127311382Y-87021220D01*
X127293288Y-86824305D01*
X127292040Y-86810722D01*
X127292039Y-86810719D01*
X127291511Y-86804968D01*
X127288762Y-86795219D01*
X127234132Y-86601517D01*
X127234131Y-86601515D01*
X127232564Y-86595958D01*
X127229420Y-86589581D01*
X127139071Y-86406372D01*
X127136516Y-86401191D01*
X127113939Y-86370956D01*
X127047137Y-86281497D01*
X127813745Y-86281497D01*
X127827948Y-86498195D01*
X127881403Y-86708676D01*
X127972321Y-86905891D01*
X128097655Y-87083235D01*
X128253209Y-87234770D01*
X128258005Y-87237975D01*
X128258008Y-87237977D01*
X128399906Y-87332789D01*
X128433774Y-87355419D01*
X128439077Y-87357697D01*
X128439080Y-87357699D01*
X128577889Y-87417336D01*
X128633301Y-87441143D01*
X128710621Y-87458639D01*
X128839473Y-87487795D01*
X128839478Y-87487796D01*
X128845110Y-87489070D01*
X128850881Y-87489297D01*
X128850883Y-87489297D01*
X128916233Y-87491865D01*
X129062105Y-87497596D01*
X129169563Y-87482015D01*
X129271307Y-87467263D01*
X129271312Y-87467262D01*
X129277021Y-87466434D01*
X129282485Y-87464579D01*
X129282490Y-87464578D01*
X129477187Y-87398488D01*
X129477192Y-87398486D01*
X129482659Y-87396630D01*
X129487702Y-87393806D01*
X129667086Y-87293346D01*
X129667090Y-87293343D01*
X129672133Y-87290519D01*
X129839097Y-87151657D01*
X129973415Y-86990157D01*
X130689025Y-86990157D01*
X130703228Y-87206855D01*
X130756683Y-87417336D01*
X130847601Y-87614551D01*
X130972935Y-87791895D01*
X131128489Y-87943430D01*
X131133285Y-87946635D01*
X131133288Y-87946637D01*
X131245560Y-88021654D01*
X131309054Y-88064079D01*
X131314357Y-88066357D01*
X131314360Y-88066359D01*
X131439043Y-88119927D01*
X131508581Y-88149803D01*
X131571275Y-88163989D01*
X131714753Y-88196455D01*
X131714758Y-88196456D01*
X131720390Y-88197730D01*
X131726161Y-88197957D01*
X131726163Y-88197957D01*
X131791513Y-88200525D01*
X131937385Y-88206256D01*
X132045305Y-88190608D01*
X132146587Y-88175923D01*
X132146592Y-88175922D01*
X132152301Y-88175094D01*
X132157765Y-88173239D01*
X132157770Y-88173238D01*
X132352467Y-88107148D01*
X132352472Y-88107146D01*
X132357939Y-88105290D01*
X132375083Y-88095689D01*
X132542366Y-88002006D01*
X132542370Y-88002003D01*
X132547413Y-87999179D01*
X132714377Y-87860317D01*
X132853239Y-87693353D01*
X132856063Y-87688310D01*
X132856066Y-87688306D01*
X132956526Y-87508922D01*
X132956527Y-87508920D01*
X132959350Y-87503879D01*
X132961206Y-87498412D01*
X132961208Y-87498407D01*
X132963638Y-87491248D01*
X143346263Y-87491248D01*
X143362654Y-87686447D01*
X143364869Y-87698512D01*
X143418862Y-87886810D01*
X143423380Y-87898222D01*
X143493749Y-88035144D01*
X143503470Y-88045365D01*
X143510269Y-88043021D01*
X144040478Y-87512812D01*
X144046856Y-87501132D01*
X144776908Y-87501132D01*
X144777039Y-87502965D01*
X144781290Y-87509580D01*
X145308563Y-88036853D01*
X145320943Y-88043613D01*
X145327677Y-88038572D01*
X145384075Y-87939293D01*
X145389069Y-87928077D01*
X145450898Y-87742213D01*
X145453618Y-87730242D01*
X145478498Y-87533292D01*
X145478990Y-87526263D01*
X145479308Y-87503505D01*
X145479015Y-87496512D01*
X145477896Y-87485097D01*
X146520244Y-87485097D01*
X146521744Y-87502965D01*
X146537152Y-87686447D01*
X146537675Y-87692679D01*
X146548446Y-87730242D01*
X146593342Y-87886810D01*
X146595094Y-87892921D01*
X146619030Y-87939495D01*
X146684229Y-88066359D01*
X146690313Y-88078198D01*
X146694138Y-88083024D01*
X146694140Y-88083027D01*
X146815876Y-88236621D01*
X146815881Y-88236626D01*
X146819705Y-88241451D01*
X146978343Y-88376462D01*
X146983721Y-88379468D01*
X146983723Y-88379469D01*
X147041272Y-88411632D01*
X147160183Y-88478089D01*
X147358300Y-88542461D01*
X147565147Y-88567126D01*
X147571282Y-88566654D01*
X147571284Y-88566654D01*
X147766704Y-88551617D01*
X147766709Y-88551616D01*
X147772845Y-88551144D01*
X147778775Y-88549488D01*
X147778777Y-88549488D01*
X147904946Y-88514261D01*
X147973484Y-88495125D01*
X147978973Y-88492352D01*
X147978979Y-88492350D01*
X148138772Y-88411632D01*
X148159420Y-88401202D01*
X148212177Y-88359984D01*
X148318716Y-88276746D01*
X148323572Y-88272952D01*
X148459688Y-88115261D01*
X148462731Y-88109904D01*
X148462734Y-88109900D01*
X148512864Y-88021654D01*
X148562582Y-87934134D01*
X148568439Y-87916529D01*
X148605712Y-87804479D01*
X148628335Y-87736472D01*
X148654444Y-87529802D01*
X148654726Y-87509580D01*
X148654811Y-87503523D01*
X148654811Y-87503520D01*
X148654860Y-87500000D01*
X148634532Y-87292682D01*
X148632004Y-87284307D01*
X148590614Y-87147219D01*
X148574323Y-87093261D01*
X148519502Y-86990157D01*
X158938465Y-86990157D01*
X158952668Y-87206855D01*
X159006123Y-87417336D01*
X159097041Y-87614551D01*
X159222375Y-87791895D01*
X159377929Y-87943430D01*
X159382725Y-87946635D01*
X159382728Y-87946637D01*
X159495000Y-88021654D01*
X159558494Y-88064079D01*
X159563797Y-88066357D01*
X159563800Y-88066359D01*
X159688483Y-88119927D01*
X159758021Y-88149803D01*
X159820715Y-88163989D01*
X159964193Y-88196455D01*
X159964198Y-88196456D01*
X159969830Y-88197730D01*
X159975601Y-88197957D01*
X159975603Y-88197957D01*
X160040953Y-88200525D01*
X160186825Y-88206256D01*
X160294745Y-88190608D01*
X160396027Y-88175923D01*
X160396032Y-88175922D01*
X160401741Y-88175094D01*
X160407205Y-88173239D01*
X160407210Y-88173238D01*
X160601907Y-88107148D01*
X160601912Y-88107146D01*
X160607379Y-88105290D01*
X160624523Y-88095689D01*
X160791806Y-88002006D01*
X160791810Y-88002003D01*
X160796853Y-87999179D01*
X160963817Y-87860317D01*
X161102679Y-87693353D01*
X161105503Y-87688310D01*
X161105506Y-87688306D01*
X161205966Y-87508922D01*
X161205967Y-87508920D01*
X161208790Y-87503879D01*
X161210646Y-87498412D01*
X161210648Y-87498407D01*
X161276738Y-87303710D01*
X161276739Y-87303705D01*
X161278594Y-87298241D01*
X161279551Y-87291646D01*
X161308315Y-87093261D01*
X161309756Y-87083325D01*
X161311382Y-87021220D01*
X161293288Y-86824305D01*
X161292040Y-86810722D01*
X161292039Y-86810719D01*
X161291511Y-86804968D01*
X161288762Y-86795219D01*
X161234132Y-86601517D01*
X161234131Y-86601515D01*
X161232564Y-86595958D01*
X161229420Y-86589581D01*
X161139071Y-86406372D01*
X161136516Y-86401191D01*
X161113939Y-86370956D01*
X161047137Y-86281497D01*
X161813745Y-86281497D01*
X161827948Y-86498195D01*
X161881403Y-86708676D01*
X161972321Y-86905891D01*
X162097655Y-87083235D01*
X162253209Y-87234770D01*
X162258005Y-87237975D01*
X162258008Y-87237977D01*
X162399906Y-87332789D01*
X162433774Y-87355419D01*
X162439077Y-87357697D01*
X162439080Y-87357699D01*
X162577889Y-87417336D01*
X162633301Y-87441143D01*
X162710621Y-87458639D01*
X162839473Y-87487795D01*
X162839478Y-87487796D01*
X162845110Y-87489070D01*
X162850881Y-87489297D01*
X162850883Y-87489297D01*
X162916233Y-87491865D01*
X163062105Y-87497596D01*
X163169563Y-87482015D01*
X163271307Y-87467263D01*
X163271312Y-87467262D01*
X163277021Y-87466434D01*
X163282485Y-87464579D01*
X163282490Y-87464578D01*
X163477187Y-87398488D01*
X163477192Y-87398486D01*
X163482659Y-87396630D01*
X163487702Y-87393806D01*
X163667086Y-87293346D01*
X163667090Y-87293343D01*
X163672133Y-87290519D01*
X163839097Y-87151657D01*
X163973415Y-86990157D01*
X164689025Y-86990157D01*
X164703228Y-87206855D01*
X164756683Y-87417336D01*
X164847601Y-87614551D01*
X164972935Y-87791895D01*
X165128489Y-87943430D01*
X165133285Y-87946635D01*
X165133288Y-87946637D01*
X165245560Y-88021654D01*
X165309054Y-88064079D01*
X165314357Y-88066357D01*
X165314360Y-88066359D01*
X165439043Y-88119927D01*
X165508581Y-88149803D01*
X165571275Y-88163989D01*
X165714753Y-88196455D01*
X165714758Y-88196456D01*
X165720390Y-88197730D01*
X165726161Y-88197957D01*
X165726163Y-88197957D01*
X165791513Y-88200525D01*
X165937385Y-88206256D01*
X166045305Y-88190608D01*
X166146587Y-88175923D01*
X166146592Y-88175922D01*
X166152301Y-88175094D01*
X166157765Y-88173239D01*
X166157770Y-88173238D01*
X166352467Y-88107148D01*
X166352472Y-88107146D01*
X166357939Y-88105290D01*
X166375083Y-88095689D01*
X166542366Y-88002006D01*
X166542370Y-88002003D01*
X166547413Y-87999179D01*
X166714377Y-87860317D01*
X166853239Y-87693353D01*
X166856063Y-87688310D01*
X166856066Y-87688306D01*
X166956526Y-87508922D01*
X166956527Y-87508920D01*
X166959350Y-87503879D01*
X166961206Y-87498412D01*
X166961208Y-87498407D01*
X167027298Y-87303710D01*
X167027299Y-87303705D01*
X167029154Y-87298241D01*
X167030111Y-87291646D01*
X167058875Y-87093261D01*
X167060316Y-87083325D01*
X167061942Y-87021220D01*
X167059088Y-86990157D01*
X181938465Y-86990157D01*
X181952668Y-87206855D01*
X182006123Y-87417336D01*
X182097041Y-87614551D01*
X182222375Y-87791895D01*
X182377929Y-87943430D01*
X182382725Y-87946635D01*
X182382728Y-87946637D01*
X182495000Y-88021654D01*
X182558494Y-88064079D01*
X182563797Y-88066357D01*
X182563800Y-88066359D01*
X182688483Y-88119927D01*
X182758021Y-88149803D01*
X182820715Y-88163989D01*
X182964193Y-88196455D01*
X182964198Y-88196456D01*
X182969830Y-88197730D01*
X182975601Y-88197957D01*
X182975603Y-88197957D01*
X183040953Y-88200525D01*
X183186825Y-88206256D01*
X183294745Y-88190608D01*
X183396027Y-88175923D01*
X183396032Y-88175922D01*
X183401741Y-88175094D01*
X183407205Y-88173239D01*
X183407210Y-88173238D01*
X183601907Y-88107148D01*
X183601912Y-88107146D01*
X183607379Y-88105290D01*
X183624523Y-88095689D01*
X183791806Y-88002006D01*
X183791810Y-88002003D01*
X183796853Y-87999179D01*
X183963817Y-87860317D01*
X184102679Y-87693353D01*
X184105503Y-87688310D01*
X184105506Y-87688306D01*
X184205966Y-87508922D01*
X184205967Y-87508920D01*
X184208790Y-87503879D01*
X184210646Y-87498412D01*
X184210648Y-87498407D01*
X184276738Y-87303710D01*
X184276739Y-87303705D01*
X184278594Y-87298241D01*
X184279551Y-87291646D01*
X184308315Y-87093261D01*
X184309756Y-87083325D01*
X184311382Y-87021220D01*
X184293288Y-86824305D01*
X184292040Y-86810722D01*
X184292039Y-86810719D01*
X184291511Y-86804968D01*
X184288762Y-86795219D01*
X184234132Y-86601517D01*
X184234131Y-86601515D01*
X184232564Y-86595958D01*
X184229420Y-86589581D01*
X184139071Y-86406372D01*
X184136516Y-86401191D01*
X184113939Y-86370956D01*
X184047137Y-86281497D01*
X184813745Y-86281497D01*
X184827948Y-86498195D01*
X184881403Y-86708676D01*
X184972321Y-86905891D01*
X185097655Y-87083235D01*
X185253209Y-87234770D01*
X185258005Y-87237975D01*
X185258008Y-87237977D01*
X185399906Y-87332789D01*
X185433774Y-87355419D01*
X185439077Y-87357697D01*
X185439080Y-87357699D01*
X185577889Y-87417336D01*
X185633301Y-87441143D01*
X185710621Y-87458639D01*
X185839473Y-87487795D01*
X185839478Y-87487796D01*
X185845110Y-87489070D01*
X185850881Y-87489297D01*
X185850883Y-87489297D01*
X185916233Y-87491865D01*
X186062105Y-87497596D01*
X186169563Y-87482015D01*
X186271307Y-87467263D01*
X186271312Y-87467262D01*
X186277021Y-87466434D01*
X186282485Y-87464579D01*
X186282490Y-87464578D01*
X186477187Y-87398488D01*
X186477192Y-87398486D01*
X186482659Y-87396630D01*
X186487702Y-87393806D01*
X186667086Y-87293346D01*
X186667090Y-87293343D01*
X186672133Y-87290519D01*
X186839097Y-87151657D01*
X186973415Y-86990157D01*
X187689025Y-86990157D01*
X187703228Y-87206855D01*
X187756683Y-87417336D01*
X187847601Y-87614551D01*
X187972935Y-87791895D01*
X188128489Y-87943430D01*
X188133285Y-87946635D01*
X188133288Y-87946637D01*
X188245560Y-88021654D01*
X188309054Y-88064079D01*
X188314357Y-88066357D01*
X188314360Y-88066359D01*
X188439043Y-88119927D01*
X188508581Y-88149803D01*
X188571275Y-88163989D01*
X188714753Y-88196455D01*
X188714758Y-88196456D01*
X188720390Y-88197730D01*
X188726161Y-88197957D01*
X188726163Y-88197957D01*
X188791513Y-88200525D01*
X188937385Y-88206256D01*
X189045305Y-88190608D01*
X189146587Y-88175923D01*
X189146592Y-88175922D01*
X189152301Y-88175094D01*
X189157765Y-88173239D01*
X189157770Y-88173238D01*
X189352467Y-88107148D01*
X189352472Y-88107146D01*
X189357939Y-88105290D01*
X189375083Y-88095689D01*
X189542366Y-88002006D01*
X189542370Y-88002003D01*
X189547413Y-87999179D01*
X189714377Y-87860317D01*
X189853239Y-87693353D01*
X189856063Y-87688310D01*
X189856066Y-87688306D01*
X189956526Y-87508922D01*
X189956527Y-87508920D01*
X189959350Y-87503879D01*
X189961206Y-87498412D01*
X189961208Y-87498407D01*
X190027298Y-87303710D01*
X190027299Y-87303705D01*
X190029154Y-87298241D01*
X190030111Y-87291646D01*
X190058875Y-87093261D01*
X190060316Y-87083325D01*
X190061942Y-87021220D01*
X190043848Y-86824305D01*
X190042600Y-86810722D01*
X190042599Y-86810719D01*
X190042071Y-86804968D01*
X190039322Y-86795219D01*
X189984692Y-86601517D01*
X189984691Y-86601515D01*
X189983124Y-86595958D01*
X189979980Y-86589581D01*
X189889631Y-86406372D01*
X189887076Y-86401191D01*
X189864499Y-86370956D01*
X189760595Y-86231812D01*
X189760594Y-86231811D01*
X189757142Y-86227188D01*
X189687487Y-86162800D01*
X189601915Y-86083698D01*
X189601913Y-86083696D01*
X189597674Y-86079778D01*
X189414013Y-85963896D01*
X189212310Y-85883425D01*
X189206650Y-85882299D01*
X189206646Y-85882298D01*
X189004988Y-85842186D01*
X189004983Y-85842186D01*
X188999320Y-85841059D01*
X188993545Y-85840983D01*
X188993541Y-85840983D01*
X188884395Y-85839554D01*
X188782176Y-85838216D01*
X188776479Y-85839195D01*
X188776478Y-85839195D01*
X188573839Y-85874015D01*
X188573836Y-85874016D01*
X188568149Y-85874993D01*
X188364409Y-85950156D01*
X188274463Y-86003668D01*
X188182746Y-86058234D01*
X188182743Y-86058236D01*
X188177778Y-86061190D01*
X188173438Y-86064996D01*
X188173434Y-86064999D01*
X188065565Y-86159598D01*
X188014506Y-86204376D01*
X188010931Y-86208911D01*
X188010930Y-86208912D01*
X187992877Y-86231812D01*
X187880062Y-86374918D01*
X187877373Y-86380029D01*
X187877371Y-86380032D01*
X187781639Y-86561986D01*
X187781636Y-86561993D01*
X187778947Y-86567104D01*
X187714549Y-86774499D01*
X187689025Y-86990157D01*
X186973415Y-86990157D01*
X186977959Y-86984693D01*
X186980783Y-86979650D01*
X186980786Y-86979646D01*
X187081246Y-86800262D01*
X187081247Y-86800260D01*
X187084070Y-86795219D01*
X187085926Y-86789752D01*
X187085928Y-86789747D01*
X187152018Y-86595050D01*
X187152019Y-86595045D01*
X187153874Y-86589581D01*
X187155046Y-86581503D01*
X187176472Y-86433728D01*
X187185036Y-86374665D01*
X187186662Y-86312560D01*
X187166791Y-86096308D01*
X187163912Y-86086097D01*
X187109412Y-85892857D01*
X187109411Y-85892855D01*
X187107844Y-85887298D01*
X187096340Y-85863969D01*
X187014351Y-85697712D01*
X187011796Y-85692531D01*
X186973923Y-85641812D01*
X186885315Y-85523152D01*
X186885314Y-85523151D01*
X186881862Y-85518528D01*
X186722394Y-85371118D01*
X186538733Y-85255236D01*
X186337030Y-85174765D01*
X186331370Y-85173639D01*
X186331366Y-85173638D01*
X186129708Y-85133526D01*
X186129703Y-85133526D01*
X186124040Y-85132399D01*
X186118265Y-85132323D01*
X186118261Y-85132323D01*
X186009115Y-85130894D01*
X185906896Y-85129556D01*
X185901199Y-85130535D01*
X185901198Y-85130535D01*
X185698559Y-85165355D01*
X185698556Y-85165356D01*
X185692869Y-85166333D01*
X185489129Y-85241496D01*
X185460859Y-85258315D01*
X185307466Y-85349574D01*
X185307463Y-85349576D01*
X185302498Y-85352530D01*
X185298158Y-85356336D01*
X185298154Y-85356339D01*
X185188866Y-85452183D01*
X185139226Y-85495716D01*
X185135651Y-85500251D01*
X185135650Y-85500252D01*
X185117597Y-85523152D01*
X185004782Y-85666258D01*
X185002093Y-85671369D01*
X185002091Y-85671372D01*
X184906359Y-85853326D01*
X184906356Y-85853333D01*
X184903667Y-85858444D01*
X184839269Y-86065839D01*
X184813745Y-86281497D01*
X184047137Y-86281497D01*
X184010035Y-86231812D01*
X184010034Y-86231811D01*
X184006582Y-86227188D01*
X183936927Y-86162800D01*
X183851355Y-86083698D01*
X183851353Y-86083696D01*
X183847114Y-86079778D01*
X183663453Y-85963896D01*
X183461750Y-85883425D01*
X183456090Y-85882299D01*
X183456086Y-85882298D01*
X183254428Y-85842186D01*
X183254423Y-85842186D01*
X183248760Y-85841059D01*
X183242985Y-85840983D01*
X183242981Y-85840983D01*
X183133835Y-85839554D01*
X183031616Y-85838216D01*
X183025919Y-85839195D01*
X183025918Y-85839195D01*
X182823279Y-85874015D01*
X182823276Y-85874016D01*
X182817589Y-85874993D01*
X182613849Y-85950156D01*
X182523903Y-86003668D01*
X182432186Y-86058234D01*
X182432183Y-86058236D01*
X182427218Y-86061190D01*
X182422878Y-86064996D01*
X182422874Y-86064999D01*
X182315005Y-86159598D01*
X182263946Y-86204376D01*
X182260371Y-86208911D01*
X182260370Y-86208912D01*
X182242317Y-86231812D01*
X182129502Y-86374918D01*
X182126813Y-86380029D01*
X182126811Y-86380032D01*
X182031079Y-86561986D01*
X182031076Y-86561993D01*
X182028387Y-86567104D01*
X181963989Y-86774499D01*
X181938465Y-86990157D01*
X167059088Y-86990157D01*
X167043848Y-86824305D01*
X167042600Y-86810722D01*
X167042599Y-86810719D01*
X167042071Y-86804968D01*
X167039322Y-86795219D01*
X166984692Y-86601517D01*
X166984691Y-86601515D01*
X166983124Y-86595958D01*
X166979980Y-86589581D01*
X166889631Y-86406372D01*
X166887076Y-86401191D01*
X166864499Y-86370956D01*
X166760595Y-86231812D01*
X166760594Y-86231811D01*
X166757142Y-86227188D01*
X166687487Y-86162800D01*
X166601915Y-86083698D01*
X166601913Y-86083696D01*
X166597674Y-86079778D01*
X166414013Y-85963896D01*
X166212310Y-85883425D01*
X166206650Y-85882299D01*
X166206646Y-85882298D01*
X166004988Y-85842186D01*
X166004983Y-85842186D01*
X165999320Y-85841059D01*
X165993545Y-85840983D01*
X165993541Y-85840983D01*
X165884395Y-85839554D01*
X165782176Y-85838216D01*
X165776479Y-85839195D01*
X165776478Y-85839195D01*
X165573839Y-85874015D01*
X165573836Y-85874016D01*
X165568149Y-85874993D01*
X165364409Y-85950156D01*
X165274463Y-86003668D01*
X165182746Y-86058234D01*
X165182743Y-86058236D01*
X165177778Y-86061190D01*
X165173438Y-86064996D01*
X165173434Y-86064999D01*
X165065565Y-86159598D01*
X165014506Y-86204376D01*
X165010931Y-86208911D01*
X165010930Y-86208912D01*
X164992877Y-86231812D01*
X164880062Y-86374918D01*
X164877373Y-86380029D01*
X164877371Y-86380032D01*
X164781639Y-86561986D01*
X164781636Y-86561993D01*
X164778947Y-86567104D01*
X164714549Y-86774499D01*
X164689025Y-86990157D01*
X163973415Y-86990157D01*
X163977959Y-86984693D01*
X163980783Y-86979650D01*
X163980786Y-86979646D01*
X164081246Y-86800262D01*
X164081247Y-86800260D01*
X164084070Y-86795219D01*
X164085926Y-86789752D01*
X164085928Y-86789747D01*
X164152018Y-86595050D01*
X164152019Y-86595045D01*
X164153874Y-86589581D01*
X164155046Y-86581503D01*
X164176472Y-86433728D01*
X164185036Y-86374665D01*
X164186662Y-86312560D01*
X164166791Y-86096308D01*
X164163912Y-86086097D01*
X164109412Y-85892857D01*
X164109411Y-85892855D01*
X164107844Y-85887298D01*
X164096340Y-85863969D01*
X164014351Y-85697712D01*
X164011796Y-85692531D01*
X163973923Y-85641812D01*
X163885315Y-85523152D01*
X163885314Y-85523151D01*
X163881862Y-85518528D01*
X163722394Y-85371118D01*
X163538733Y-85255236D01*
X163337030Y-85174765D01*
X163331370Y-85173639D01*
X163331366Y-85173638D01*
X163129708Y-85133526D01*
X163129703Y-85133526D01*
X163124040Y-85132399D01*
X163118265Y-85132323D01*
X163118261Y-85132323D01*
X163009115Y-85130894D01*
X162906896Y-85129556D01*
X162901199Y-85130535D01*
X162901198Y-85130535D01*
X162698559Y-85165355D01*
X162698556Y-85165356D01*
X162692869Y-85166333D01*
X162489129Y-85241496D01*
X162460859Y-85258315D01*
X162307466Y-85349574D01*
X162307463Y-85349576D01*
X162302498Y-85352530D01*
X162298158Y-85356336D01*
X162298154Y-85356339D01*
X162188866Y-85452183D01*
X162139226Y-85495716D01*
X162135651Y-85500251D01*
X162135650Y-85500252D01*
X162117597Y-85523152D01*
X162004782Y-85666258D01*
X162002093Y-85671369D01*
X162002091Y-85671372D01*
X161906359Y-85853326D01*
X161906356Y-85853333D01*
X161903667Y-85858444D01*
X161839269Y-86065839D01*
X161813745Y-86281497D01*
X161047137Y-86281497D01*
X161010035Y-86231812D01*
X161010034Y-86231811D01*
X161006582Y-86227188D01*
X160936927Y-86162800D01*
X160851355Y-86083698D01*
X160851353Y-86083696D01*
X160847114Y-86079778D01*
X160663453Y-85963896D01*
X160461750Y-85883425D01*
X160456090Y-85882299D01*
X160456086Y-85882298D01*
X160254428Y-85842186D01*
X160254423Y-85842186D01*
X160248760Y-85841059D01*
X160242985Y-85840983D01*
X160242981Y-85840983D01*
X160133835Y-85839554D01*
X160031616Y-85838216D01*
X160025919Y-85839195D01*
X160025918Y-85839195D01*
X159823279Y-85874015D01*
X159823276Y-85874016D01*
X159817589Y-85874993D01*
X159613849Y-85950156D01*
X159523903Y-86003668D01*
X159432186Y-86058234D01*
X159432183Y-86058236D01*
X159427218Y-86061190D01*
X159422878Y-86064996D01*
X159422874Y-86064999D01*
X159315005Y-86159598D01*
X159263946Y-86204376D01*
X159260371Y-86208911D01*
X159260370Y-86208912D01*
X159242317Y-86231812D01*
X159129502Y-86374918D01*
X159126813Y-86380029D01*
X159126811Y-86380032D01*
X159031079Y-86561986D01*
X159031076Y-86561993D01*
X159028387Y-86567104D01*
X158963989Y-86774499D01*
X158938465Y-86990157D01*
X148519502Y-86990157D01*
X148476527Y-86909332D01*
X148472632Y-86904556D01*
X148348762Y-86752677D01*
X148348759Y-86752674D01*
X148344867Y-86747902D01*
X148332173Y-86737400D01*
X148189109Y-86619047D01*
X148184360Y-86615118D01*
X148001119Y-86516040D01*
X147901621Y-86485241D01*
X147808010Y-86456263D01*
X147808007Y-86456262D01*
X147802123Y-86454441D01*
X147795998Y-86453797D01*
X147795997Y-86453797D01*
X147601080Y-86433310D01*
X147601079Y-86433310D01*
X147594952Y-86432666D01*
X147508416Y-86440541D01*
X147393636Y-86450987D01*
X147393633Y-86450988D01*
X147387497Y-86451546D01*
X147381591Y-86453284D01*
X147381587Y-86453285D01*
X147248595Y-86492427D01*
X147187660Y-86510361D01*
X147003053Y-86606871D01*
X146840707Y-86737400D01*
X146706807Y-86896977D01*
X146703843Y-86902369D01*
X146703840Y-86902373D01*
X146609418Y-87074126D01*
X146606452Y-87079522D01*
X146604591Y-87085389D01*
X146604590Y-87085391D01*
X146600222Y-87099161D01*
X146543464Y-87278083D01*
X146520244Y-87485097D01*
X145477896Y-87485097D01*
X145459640Y-87298913D01*
X145457257Y-87286878D01*
X145400639Y-87099352D01*
X145395965Y-87088011D01*
X145330785Y-86965425D01*
X145320925Y-86955344D01*
X145313798Y-86957912D01*
X144784522Y-87487188D01*
X144776908Y-87501132D01*
X144046856Y-87501132D01*
X144048092Y-87498868D01*
X144047961Y-87497035D01*
X144043710Y-87490420D01*
X143516062Y-86962772D01*
X143503682Y-86956012D01*
X143497294Y-86960794D01*
X143434880Y-87074325D01*
X143430052Y-87085589D01*
X143370818Y-87272318D01*
X143368270Y-87284307D01*
X143346434Y-87478979D01*
X143346263Y-87491248D01*
X132963638Y-87491248D01*
X133027298Y-87303710D01*
X133027299Y-87303705D01*
X133029154Y-87298241D01*
X133030111Y-87291646D01*
X133058875Y-87093261D01*
X133060316Y-87083325D01*
X133061942Y-87021220D01*
X133043848Y-86824305D01*
X133042600Y-86810722D01*
X133042599Y-86810719D01*
X133042071Y-86804968D01*
X133039322Y-86795219D01*
X132984692Y-86601517D01*
X132984691Y-86601515D01*
X132983124Y-86595958D01*
X132980823Y-86591290D01*
X143867509Y-86591290D01*
X143869964Y-86598254D01*
X144399688Y-87127978D01*
X144413632Y-87135592D01*
X144415465Y-87135461D01*
X144422080Y-87131210D01*
X144949974Y-86603316D01*
X144956734Y-86590936D01*
X144952075Y-86584713D01*
X144831344Y-86519435D01*
X144820037Y-86514682D01*
X144632906Y-86456755D01*
X144620895Y-86454289D01*
X144426077Y-86433813D01*
X144413808Y-86433728D01*
X144218730Y-86451481D01*
X144206681Y-86453779D01*
X144018757Y-86509088D01*
X144007389Y-86513681D01*
X143877658Y-86581503D01*
X143867509Y-86591290D01*
X132980823Y-86591290D01*
X132979980Y-86589581D01*
X132889631Y-86406372D01*
X132887076Y-86401191D01*
X132864499Y-86370956D01*
X132760595Y-86231812D01*
X132760594Y-86231811D01*
X132757142Y-86227188D01*
X132687487Y-86162800D01*
X132601915Y-86083698D01*
X132601913Y-86083696D01*
X132597674Y-86079778D01*
X132414013Y-85963896D01*
X132212310Y-85883425D01*
X132206650Y-85882299D01*
X132206646Y-85882298D01*
X132004988Y-85842186D01*
X132004983Y-85842186D01*
X131999320Y-85841059D01*
X131993545Y-85840983D01*
X131993541Y-85840983D01*
X131884395Y-85839554D01*
X131782176Y-85838216D01*
X131776479Y-85839195D01*
X131776478Y-85839195D01*
X131573839Y-85874015D01*
X131573836Y-85874016D01*
X131568149Y-85874993D01*
X131364409Y-85950156D01*
X131274463Y-86003668D01*
X131182746Y-86058234D01*
X131182743Y-86058236D01*
X131177778Y-86061190D01*
X131173438Y-86064996D01*
X131173434Y-86064999D01*
X131065565Y-86159598D01*
X131014506Y-86204376D01*
X131010931Y-86208911D01*
X131010930Y-86208912D01*
X130992877Y-86231812D01*
X130880062Y-86374918D01*
X130877373Y-86380029D01*
X130877371Y-86380032D01*
X130781639Y-86561986D01*
X130781636Y-86561993D01*
X130778947Y-86567104D01*
X130714549Y-86774499D01*
X130689025Y-86990157D01*
X129973415Y-86990157D01*
X129977959Y-86984693D01*
X129980783Y-86979650D01*
X129980786Y-86979646D01*
X130081246Y-86800262D01*
X130081247Y-86800260D01*
X130084070Y-86795219D01*
X130085926Y-86789752D01*
X130085928Y-86789747D01*
X130152018Y-86595050D01*
X130152019Y-86595045D01*
X130153874Y-86589581D01*
X130155046Y-86581503D01*
X130176472Y-86433728D01*
X130185036Y-86374665D01*
X130186662Y-86312560D01*
X130166791Y-86096308D01*
X130163912Y-86086097D01*
X130109412Y-85892857D01*
X130109411Y-85892855D01*
X130107844Y-85887298D01*
X130096340Y-85863969D01*
X130014351Y-85697712D01*
X130011796Y-85692531D01*
X129973923Y-85641812D01*
X129885315Y-85523152D01*
X129885314Y-85523151D01*
X129881862Y-85518528D01*
X129722394Y-85371118D01*
X129538733Y-85255236D01*
X129337030Y-85174765D01*
X129331370Y-85173639D01*
X129331366Y-85173638D01*
X129129708Y-85133526D01*
X129129703Y-85133526D01*
X129124040Y-85132399D01*
X129118265Y-85132323D01*
X129118261Y-85132323D01*
X129009115Y-85130894D01*
X128906896Y-85129556D01*
X128901199Y-85130535D01*
X128901198Y-85130535D01*
X128698559Y-85165355D01*
X128698556Y-85165356D01*
X128692869Y-85166333D01*
X128489129Y-85241496D01*
X128460859Y-85258315D01*
X128307466Y-85349574D01*
X128307463Y-85349576D01*
X128302498Y-85352530D01*
X128298158Y-85356336D01*
X128298154Y-85356339D01*
X128188866Y-85452183D01*
X128139226Y-85495716D01*
X128135651Y-85500251D01*
X128135650Y-85500252D01*
X128117597Y-85523152D01*
X128004782Y-85666258D01*
X128002093Y-85671369D01*
X128002091Y-85671372D01*
X127906359Y-85853326D01*
X127906356Y-85853333D01*
X127903667Y-85858444D01*
X127839269Y-86065839D01*
X127813745Y-86281497D01*
X127047137Y-86281497D01*
X127010035Y-86231812D01*
X127010034Y-86231811D01*
X127006582Y-86227188D01*
X126936927Y-86162800D01*
X126851355Y-86083698D01*
X126851353Y-86083696D01*
X126847114Y-86079778D01*
X126663453Y-85963896D01*
X126461750Y-85883425D01*
X126456090Y-85882299D01*
X126456086Y-85882298D01*
X126254428Y-85842186D01*
X126254423Y-85842186D01*
X126248760Y-85841059D01*
X126242985Y-85840983D01*
X126242981Y-85840983D01*
X126133835Y-85839554D01*
X126031616Y-85838216D01*
X126025919Y-85839195D01*
X126025918Y-85839195D01*
X125823279Y-85874015D01*
X125823276Y-85874016D01*
X125817589Y-85874993D01*
X125613849Y-85950156D01*
X125523903Y-86003668D01*
X125432186Y-86058234D01*
X125432183Y-86058236D01*
X125427218Y-86061190D01*
X125422878Y-86064996D01*
X125422874Y-86064999D01*
X125315005Y-86159598D01*
X125263946Y-86204376D01*
X125260371Y-86208911D01*
X125260370Y-86208912D01*
X125242317Y-86231812D01*
X125129502Y-86374918D01*
X125126813Y-86380029D01*
X125126811Y-86380032D01*
X125031079Y-86561986D01*
X125031076Y-86561993D01*
X125028387Y-86567104D01*
X124963989Y-86774499D01*
X124938465Y-86990157D01*
X110059088Y-86990157D01*
X110043848Y-86824305D01*
X110042600Y-86810722D01*
X110042599Y-86810719D01*
X110042071Y-86804968D01*
X110039322Y-86795219D01*
X109984692Y-86601517D01*
X109984691Y-86601515D01*
X109983124Y-86595958D01*
X109979980Y-86589581D01*
X109889631Y-86406372D01*
X109887076Y-86401191D01*
X109864499Y-86370956D01*
X109760595Y-86231812D01*
X109760594Y-86231811D01*
X109757142Y-86227188D01*
X109687487Y-86162800D01*
X109601915Y-86083698D01*
X109601913Y-86083696D01*
X109597674Y-86079778D01*
X109414013Y-85963896D01*
X109212310Y-85883425D01*
X109206650Y-85882299D01*
X109206646Y-85882298D01*
X109004988Y-85842186D01*
X109004983Y-85842186D01*
X108999320Y-85841059D01*
X108993545Y-85840983D01*
X108993541Y-85840983D01*
X108884395Y-85839554D01*
X108782176Y-85838216D01*
X108776479Y-85839195D01*
X108776478Y-85839195D01*
X108573839Y-85874015D01*
X108573836Y-85874016D01*
X108568149Y-85874993D01*
X108364409Y-85950156D01*
X108274463Y-86003668D01*
X108182746Y-86058234D01*
X108182743Y-86058236D01*
X108177778Y-86061190D01*
X108173438Y-86064996D01*
X108173434Y-86064999D01*
X108065565Y-86159598D01*
X108014506Y-86204376D01*
X108010931Y-86208911D01*
X108010930Y-86208912D01*
X107992877Y-86231812D01*
X107880062Y-86374918D01*
X107877373Y-86380029D01*
X107877371Y-86380032D01*
X107781639Y-86561986D01*
X107781636Y-86561993D01*
X107778947Y-86567104D01*
X107714549Y-86774499D01*
X107689025Y-86990157D01*
X106973415Y-86990157D01*
X106977959Y-86984693D01*
X106980783Y-86979650D01*
X106980786Y-86979646D01*
X107081246Y-86800262D01*
X107081247Y-86800260D01*
X107084070Y-86795219D01*
X107085926Y-86789752D01*
X107085928Y-86789747D01*
X107152018Y-86595050D01*
X107152019Y-86595045D01*
X107153874Y-86589581D01*
X107155046Y-86581503D01*
X107176472Y-86433728D01*
X107185036Y-86374665D01*
X107186662Y-86312560D01*
X107166791Y-86096308D01*
X107163912Y-86086097D01*
X107109412Y-85892857D01*
X107109411Y-85892855D01*
X107107844Y-85887298D01*
X107096340Y-85863969D01*
X107014351Y-85697712D01*
X107011796Y-85692531D01*
X106973923Y-85641812D01*
X106885315Y-85523152D01*
X106885314Y-85523151D01*
X106881862Y-85518528D01*
X106722394Y-85371118D01*
X106538733Y-85255236D01*
X106337030Y-85174765D01*
X106331370Y-85173639D01*
X106331366Y-85173638D01*
X106129708Y-85133526D01*
X106129703Y-85133526D01*
X106124040Y-85132399D01*
X106118265Y-85132323D01*
X106118261Y-85132323D01*
X106009115Y-85130894D01*
X105906896Y-85129556D01*
X105901199Y-85130535D01*
X105901198Y-85130535D01*
X105698559Y-85165355D01*
X105698556Y-85165356D01*
X105692869Y-85166333D01*
X105489129Y-85241496D01*
X105460859Y-85258315D01*
X105307466Y-85349574D01*
X105307463Y-85349576D01*
X105302498Y-85352530D01*
X105298158Y-85356336D01*
X105298154Y-85356339D01*
X105188866Y-85452183D01*
X105139226Y-85495716D01*
X105135651Y-85500251D01*
X105135650Y-85500252D01*
X105117597Y-85523152D01*
X105004782Y-85666258D01*
X105002093Y-85671369D01*
X105002091Y-85671372D01*
X104906359Y-85853326D01*
X104906356Y-85853333D01*
X104903667Y-85858444D01*
X104839269Y-86065839D01*
X104813745Y-86281497D01*
X104047137Y-86281497D01*
X104010035Y-86231812D01*
X104010034Y-86231811D01*
X104006582Y-86227188D01*
X103936927Y-86162800D01*
X103851355Y-86083698D01*
X103851353Y-86083696D01*
X103847114Y-86079778D01*
X103663453Y-85963896D01*
X103461750Y-85883425D01*
X103456090Y-85882299D01*
X103456086Y-85882298D01*
X103254428Y-85842186D01*
X103254423Y-85842186D01*
X103248760Y-85841059D01*
X103242985Y-85840983D01*
X103242981Y-85840983D01*
X103133835Y-85839554D01*
X103031616Y-85838216D01*
X103025919Y-85839195D01*
X103025918Y-85839195D01*
X102823279Y-85874015D01*
X102823276Y-85874016D01*
X102817589Y-85874993D01*
X102613849Y-85950156D01*
X102523903Y-86003668D01*
X102432186Y-86058234D01*
X102432183Y-86058236D01*
X102427218Y-86061190D01*
X102422878Y-86064996D01*
X102422874Y-86064999D01*
X102315005Y-86159598D01*
X102263946Y-86204376D01*
X102260371Y-86208911D01*
X102260370Y-86208912D01*
X102242317Y-86231812D01*
X102129502Y-86374918D01*
X102126813Y-86380029D01*
X102126811Y-86380032D01*
X102031079Y-86561986D01*
X102031076Y-86561993D01*
X102028387Y-86567104D01*
X101963989Y-86774499D01*
X101938465Y-86990157D01*
X84984204Y-86990157D01*
X84950431Y-86855702D01*
X84861354Y-86650840D01*
X84776344Y-86519435D01*
X84742822Y-86467617D01*
X84742820Y-86467614D01*
X84740014Y-86463277D01*
X84589670Y-86298051D01*
X84585619Y-86294852D01*
X84585615Y-86294848D01*
X84418414Y-86162800D01*
X84418410Y-86162798D01*
X84414359Y-86159598D01*
X84372569Y-86136529D01*
X84322598Y-86086097D01*
X84307826Y-86016654D01*
X84332942Y-85950248D01*
X84360294Y-85923641D01*
X84535328Y-85798792D01*
X84543200Y-85792139D01*
X84694052Y-85641812D01*
X84700730Y-85633965D01*
X84825003Y-85461020D01*
X84830313Y-85452183D01*
X84924670Y-85261267D01*
X84928469Y-85251672D01*
X84990377Y-85047910D01*
X84992555Y-85037837D01*
X84993986Y-85026962D01*
X84991775Y-85012778D01*
X84978617Y-85009000D01*
X82343225Y-85009000D01*
X82329694Y-85012973D01*
X82328257Y-85022966D01*
X82358565Y-85157446D01*
X82361645Y-85167275D01*
X82441770Y-85364603D01*
X82446413Y-85373794D01*
X82557694Y-85555388D01*
X82563777Y-85563699D01*
X82703213Y-85724667D01*
X82710580Y-85731883D01*
X82874434Y-85867916D01*
X82882881Y-85873831D01*
X82951969Y-85914203D01*
X83000693Y-85965842D01*
X83013764Y-86035625D01*
X82987033Y-86101396D01*
X82946584Y-86134752D01*
X82933607Y-86141507D01*
X82929474Y-86144610D01*
X82929471Y-86144612D01*
X82759100Y-86272530D01*
X82754965Y-86275635D01*
X82751393Y-86279373D01*
X82604903Y-86432666D01*
X82600629Y-86437138D01*
X82597715Y-86441410D01*
X82597714Y-86441411D01*
X82589614Y-86453285D01*
X82474743Y-86621680D01*
X82380688Y-86824305D01*
X82320989Y-87039570D01*
X82297251Y-87261695D01*
X82297548Y-87266848D01*
X82297548Y-87266851D01*
X82307466Y-87438863D01*
X82310110Y-87484715D01*
X82311247Y-87489761D01*
X82311248Y-87489767D01*
X82320271Y-87529802D01*
X82359222Y-87702639D01*
X82420673Y-87853976D01*
X82434006Y-87886810D01*
X82443266Y-87909616D01*
X82494019Y-87992438D01*
X82535954Y-88060869D01*
X82559987Y-88100088D01*
X82706250Y-88268938D01*
X82878126Y-88411632D01*
X82948595Y-88452811D01*
X82951445Y-88454476D01*
X83000169Y-88506114D01*
X83013240Y-88575897D01*
X82986509Y-88641669D01*
X82946055Y-88675027D01*
X82933607Y-88681507D01*
X82929474Y-88684610D01*
X82929471Y-88684612D01*
X82759100Y-88812530D01*
X82754965Y-88815635D01*
X82600629Y-88977138D01*
X82474743Y-89161680D01*
X82380688Y-89364305D01*
X82320989Y-89579570D01*
X82297251Y-89801695D01*
X82297548Y-89806848D01*
X82297548Y-89806851D01*
X82303011Y-89901590D01*
X82310110Y-90024715D01*
X82311247Y-90029761D01*
X82311248Y-90029767D01*
X82330056Y-90113223D01*
X82359222Y-90242639D01*
X82443266Y-90449616D01*
X82445965Y-90454020D01*
X82547754Y-90620125D01*
X82559987Y-90640088D01*
X82706250Y-90808938D01*
X82878126Y-90951632D01*
X82895438Y-90961748D01*
X82951445Y-90994476D01*
X83000169Y-91046114D01*
X83013240Y-91115897D01*
X82986509Y-91181669D01*
X82946055Y-91215027D01*
X82933607Y-91221507D01*
X82929474Y-91224610D01*
X82929471Y-91224612D01*
X82759100Y-91352530D01*
X82754965Y-91355635D01*
X82600629Y-91517138D01*
X82597715Y-91521410D01*
X82597714Y-91521411D01*
X82581430Y-91545282D01*
X82474743Y-91701680D01*
X82380688Y-91904305D01*
X82320989Y-92119570D01*
X82297251Y-92341695D01*
X82297548Y-92346848D01*
X82297548Y-92346851D01*
X82302787Y-92437716D01*
X82310110Y-92564715D01*
X82311247Y-92569761D01*
X82311248Y-92569767D01*
X82315907Y-92590439D01*
X82359222Y-92782639D01*
X82410797Y-92909654D01*
X82423451Y-92940816D01*
X82443266Y-92989616D01*
X82559987Y-93180088D01*
X82706250Y-93348938D01*
X82878126Y-93491632D01*
X82916957Y-93514323D01*
X82951445Y-93534476D01*
X83000169Y-93586114D01*
X83013240Y-93655897D01*
X82986509Y-93721669D01*
X82946055Y-93755027D01*
X82933607Y-93761507D01*
X82929474Y-93764610D01*
X82929471Y-93764612D01*
X82759100Y-93892530D01*
X82754965Y-93895635D01*
X82751393Y-93899373D01*
X82613451Y-94043721D01*
X82600629Y-94057138D01*
X82597715Y-94061410D01*
X82597714Y-94061411D01*
X82588764Y-94074531D01*
X82474743Y-94241680D01*
X82380688Y-94444305D01*
X82320989Y-94659570D01*
X82297251Y-94881695D01*
X82297548Y-94886848D01*
X82297548Y-94886851D01*
X82309336Y-95091290D01*
X82310110Y-95104715D01*
X82311247Y-95109761D01*
X82311248Y-95109767D01*
X82326450Y-95177219D01*
X82359222Y-95322639D01*
X82443266Y-95529616D01*
X82445965Y-95534020D01*
X82528571Y-95668821D01*
X82559987Y-95720088D01*
X82706250Y-95888938D01*
X82878126Y-96031632D01*
X82926496Y-96059897D01*
X82951445Y-96074476D01*
X83000169Y-96126114D01*
X83013240Y-96195897D01*
X82986509Y-96261669D01*
X82946055Y-96295027D01*
X82933607Y-96301507D01*
X82929474Y-96304610D01*
X82929471Y-96304612D01*
X82804560Y-96398398D01*
X82754965Y-96435635D01*
X82751393Y-96439373D01*
X82618729Y-96578198D01*
X82600629Y-96597138D01*
X82474743Y-96781680D01*
X82472564Y-96786375D01*
X82382904Y-96979532D01*
X82380688Y-96984305D01*
X82320989Y-97199570D01*
X82297251Y-97421695D01*
X82297548Y-97426848D01*
X82297548Y-97426851D01*
X82303442Y-97529076D01*
X82310110Y-97644715D01*
X82311247Y-97649761D01*
X82311248Y-97649767D01*
X82327129Y-97720232D01*
X82359222Y-97862639D01*
X82443266Y-98069616D01*
X82470309Y-98113746D01*
X82531871Y-98214206D01*
X82559987Y-98260088D01*
X82706250Y-98428938D01*
X82766041Y-98478577D01*
X82873795Y-98568036D01*
X82878126Y-98571632D01*
X82884607Y-98575419D01*
X82951445Y-98614476D01*
X83000169Y-98666114D01*
X83013240Y-98735897D01*
X82986509Y-98801669D01*
X82946055Y-98835027D01*
X82933607Y-98841507D01*
X82929474Y-98844610D01*
X82929471Y-98844612D01*
X82848035Y-98905756D01*
X82754965Y-98975635D01*
X82600629Y-99137138D01*
X82474743Y-99321680D01*
X82380688Y-99524305D01*
X82320989Y-99739570D01*
X82297251Y-99961695D01*
X82310110Y-100184715D01*
X82311247Y-100189761D01*
X82311248Y-100189767D01*
X82323582Y-100244494D01*
X82359222Y-100402639D01*
X82443266Y-100609616D01*
X82454302Y-100627625D01*
X82531602Y-100753767D01*
X82559987Y-100800088D01*
X82706250Y-100968938D01*
X82878126Y-101111632D01*
X82908854Y-101129588D01*
X82951445Y-101154476D01*
X83000169Y-101206114D01*
X83013240Y-101275897D01*
X82986509Y-101341669D01*
X82946055Y-101375027D01*
X82933607Y-101381507D01*
X82929474Y-101384610D01*
X82929471Y-101384612D01*
X82759100Y-101512530D01*
X82754965Y-101515635D01*
X82600629Y-101677138D01*
X82474743Y-101861680D01*
X82380688Y-102064305D01*
X82320989Y-102279570D01*
X82297251Y-102501695D01*
X81508000Y-102501695D01*
X81508000Y-83113134D01*
X82301500Y-83113134D01*
X82308255Y-83175316D01*
X82359385Y-83311705D01*
X82446739Y-83428261D01*
X82563295Y-83515615D01*
X82571704Y-83518767D01*
X82571705Y-83518768D01*
X82680960Y-83559726D01*
X82737725Y-83602367D01*
X82762425Y-83668929D01*
X82747218Y-83738278D01*
X82727825Y-83764759D01*
X82604590Y-83893717D01*
X82598104Y-83901727D01*
X82478098Y-84077649D01*
X82473000Y-84086623D01*
X82383338Y-84279783D01*
X82379775Y-84289470D01*
X82324389Y-84489183D01*
X82325912Y-84497607D01*
X82338292Y-84501000D01*
X84978344Y-84501000D01*
X84991875Y-84497027D01*
X84993180Y-84487947D01*
X84951214Y-84320875D01*
X84947894Y-84311124D01*
X84862972Y-84115814D01*
X84858105Y-84106739D01*
X84742426Y-83927926D01*
X84736136Y-83919757D01*
X84592293Y-83761677D01*
X84561241Y-83697831D01*
X84569635Y-83627333D01*
X84614812Y-83572564D01*
X84641256Y-83558895D01*
X84748297Y-83518767D01*
X84756705Y-83515615D01*
X84873261Y-83428261D01*
X84960615Y-83311705D01*
X85011745Y-83175316D01*
X85018500Y-83113134D01*
X85018500Y-81841371D01*
X85038502Y-81773250D01*
X85055405Y-81752276D01*
X87907276Y-78900405D01*
X87969588Y-78866379D01*
X87996371Y-78863500D01*
X110875500Y-78863500D01*
X110943621Y-78883502D01*
X110990114Y-78937158D01*
X111001500Y-78989500D01*
X111001500Y-80910421D01*
X110981498Y-80978542D01*
X110927842Y-81025035D01*
X110901698Y-81033667D01*
X110849176Y-81044831D01*
X110849167Y-81044834D01*
X110842712Y-81046206D01*
X110836682Y-81048891D01*
X110836681Y-81048891D01*
X110674278Y-81121197D01*
X110674276Y-81121198D01*
X110668248Y-81123882D01*
X110513747Y-81236134D01*
X110509326Y-81241044D01*
X110509325Y-81241045D01*
X110394308Y-81368785D01*
X110385960Y-81378056D01*
X110290473Y-81543444D01*
X110231458Y-81725072D01*
X110230768Y-81731633D01*
X110230768Y-81731635D01*
X110219235Y-81841371D01*
X110211496Y-81915000D01*
X110231458Y-82104928D01*
X110290473Y-82286556D01*
X110385960Y-82451944D01*
X110513747Y-82593866D01*
X110668248Y-82706118D01*
X110674276Y-82708802D01*
X110674278Y-82708803D01*
X110836681Y-82781109D01*
X110842712Y-82783794D01*
X110936112Y-82803647D01*
X111023056Y-82822128D01*
X111023061Y-82822128D01*
X111029513Y-82823500D01*
X111220487Y-82823500D01*
X111226939Y-82822128D01*
X111226944Y-82822128D01*
X111313888Y-82803647D01*
X111407288Y-82783794D01*
X111413319Y-82781109D01*
X111575722Y-82708803D01*
X111575724Y-82708802D01*
X111581752Y-82706118D01*
X111736253Y-82593866D01*
X111864040Y-82451944D01*
X111959527Y-82286556D01*
X112014387Y-82117714D01*
X112045125Y-82067556D01*
X112248911Y-81863770D01*
X112263323Y-81851384D01*
X112274918Y-81842851D01*
X112274923Y-81842846D01*
X112280818Y-81838508D01*
X112285557Y-81832930D01*
X112285560Y-81832927D01*
X112315035Y-81798232D01*
X112321965Y-81790716D01*
X112327661Y-81785020D01*
X112329924Y-81782159D01*
X112329929Y-81782154D01*
X112345285Y-81762744D01*
X112348074Y-81759342D01*
X112390596Y-81709291D01*
X112390597Y-81709290D01*
X112395333Y-81703715D01*
X112398661Y-81697198D01*
X112402027Y-81692150D01*
X112405190Y-81687028D01*
X112409735Y-81681284D01*
X112440664Y-81615105D01*
X112442563Y-81611221D01*
X112475769Y-81546192D01*
X112477510Y-81539077D01*
X112479613Y-81533422D01*
X112481522Y-81527683D01*
X112484622Y-81521050D01*
X112499491Y-81449565D01*
X112500461Y-81445282D01*
X112501172Y-81442376D01*
X112517808Y-81374390D01*
X112518500Y-81363236D01*
X112518535Y-81363238D01*
X112518775Y-81359266D01*
X112519152Y-81355045D01*
X112520641Y-81347885D01*
X112518546Y-81270458D01*
X112518500Y-81267050D01*
X112518500Y-78989500D01*
X112538502Y-78921379D01*
X112592158Y-78874886D01*
X112644500Y-78863500D01*
X122305500Y-78863500D01*
X122373621Y-78883502D01*
X122420114Y-78937158D01*
X122431500Y-78989500D01*
X122431500Y-81212930D01*
X122430067Y-81231880D01*
X122428673Y-81241045D01*
X122426801Y-81253349D01*
X122427394Y-81260641D01*
X122427394Y-81260644D01*
X122431085Y-81306018D01*
X122431500Y-81316233D01*
X122431500Y-81324293D01*
X122431925Y-81327937D01*
X122434789Y-81352507D01*
X122435222Y-81356882D01*
X122437410Y-81383774D01*
X122441140Y-81429637D01*
X122443396Y-81436601D01*
X122444587Y-81442560D01*
X122445971Y-81448415D01*
X122446818Y-81455681D01*
X122471735Y-81524327D01*
X122473152Y-81528455D01*
X122481011Y-81552713D01*
X122495649Y-81597899D01*
X122499445Y-81604154D01*
X122501951Y-81609628D01*
X122504670Y-81615058D01*
X122507167Y-81621937D01*
X122511180Y-81628057D01*
X122511180Y-81628058D01*
X122547186Y-81682976D01*
X122549523Y-81686680D01*
X122587405Y-81749107D01*
X122591121Y-81753315D01*
X122591122Y-81753316D01*
X122594803Y-81757484D01*
X122594776Y-81757508D01*
X122597429Y-81760500D01*
X122600132Y-81763733D01*
X122604144Y-81769852D01*
X122609456Y-81774884D01*
X122660383Y-81823128D01*
X122662825Y-81825506D01*
X122904875Y-82067556D01*
X122935613Y-82117714D01*
X122990473Y-82286556D01*
X123085960Y-82451944D01*
X123213747Y-82593866D01*
X123368248Y-82706118D01*
X123374276Y-82708802D01*
X123374278Y-82708803D01*
X123536681Y-82781109D01*
X123542712Y-82783794D01*
X123636112Y-82803647D01*
X123723056Y-82822128D01*
X123723061Y-82822128D01*
X123729513Y-82823500D01*
X123920487Y-82823500D01*
X123926939Y-82822128D01*
X123926944Y-82822128D01*
X124013888Y-82803647D01*
X124107288Y-82783794D01*
X124113319Y-82781109D01*
X124275722Y-82708803D01*
X124275724Y-82708802D01*
X124281752Y-82706118D01*
X124436253Y-82593866D01*
X124564040Y-82451944D01*
X124659527Y-82286556D01*
X124718542Y-82104928D01*
X124738504Y-81915000D01*
X124730765Y-81841371D01*
X124719232Y-81731635D01*
X124719232Y-81731633D01*
X124718542Y-81725072D01*
X124659527Y-81543444D01*
X124564040Y-81378056D01*
X124555693Y-81368785D01*
X124440675Y-81241045D01*
X124440674Y-81241044D01*
X124436253Y-81236134D01*
X124281752Y-81123882D01*
X124275724Y-81121198D01*
X124275722Y-81121197D01*
X124113319Y-81048891D01*
X124113318Y-81048891D01*
X124107288Y-81046206D01*
X124100833Y-81044834D01*
X124100824Y-81044831D01*
X124048302Y-81033667D01*
X123985829Y-80999939D01*
X123951508Y-80937789D01*
X123948500Y-80910421D01*
X123948500Y-78989500D01*
X123968502Y-78921379D01*
X124022158Y-78874886D01*
X124074500Y-78863500D01*
X144530500Y-78863500D01*
X144598621Y-78883502D01*
X144645114Y-78937158D01*
X144656500Y-78989500D01*
X144656500Y-79473001D01*
X144639619Y-79536000D01*
X144580473Y-79638444D01*
X144521458Y-79820072D01*
X144501496Y-80010000D01*
X144521458Y-80199928D01*
X144580473Y-80381556D01*
X144675960Y-80546944D01*
X144803747Y-80688866D01*
X144958248Y-80801118D01*
X144964276Y-80803802D01*
X144964278Y-80803803D01*
X145104041Y-80866029D01*
X145132712Y-80878794D01*
X145226112Y-80898647D01*
X145313056Y-80917128D01*
X145313061Y-80917128D01*
X145319513Y-80918500D01*
X145510487Y-80918500D01*
X145516939Y-80917128D01*
X145516944Y-80917128D01*
X145603888Y-80898647D01*
X145697288Y-80878794D01*
X145725959Y-80866029D01*
X145865722Y-80803803D01*
X145865724Y-80803802D01*
X145871752Y-80801118D01*
X146026253Y-80688866D01*
X146154040Y-80546944D01*
X146249527Y-80381556D01*
X146308542Y-80199928D01*
X146328504Y-80010000D01*
X146308542Y-79820072D01*
X146249527Y-79638444D01*
X146190381Y-79536000D01*
X146173500Y-79473001D01*
X146173500Y-78989500D01*
X146193502Y-78921379D01*
X146247158Y-78874886D01*
X146299500Y-78863500D01*
X159135500Y-78863500D01*
X159203621Y-78883502D01*
X159250114Y-78937158D01*
X159261500Y-78989500D01*
X159261500Y-79473001D01*
X159244619Y-79536000D01*
X159185473Y-79638444D01*
X159126458Y-79820072D01*
X159106496Y-80010000D01*
X159126458Y-80199928D01*
X159185473Y-80381556D01*
X159280960Y-80546944D01*
X159408747Y-80688866D01*
X159563248Y-80801118D01*
X159569276Y-80803802D01*
X159569278Y-80803803D01*
X159709041Y-80866029D01*
X159737712Y-80878794D01*
X159831112Y-80898647D01*
X159918056Y-80917128D01*
X159918061Y-80917128D01*
X159924513Y-80918500D01*
X160115487Y-80918500D01*
X160121939Y-80917128D01*
X160121944Y-80917128D01*
X160208888Y-80898647D01*
X160302288Y-80878794D01*
X160330959Y-80866029D01*
X160470722Y-80803803D01*
X160470724Y-80803802D01*
X160476752Y-80801118D01*
X160631253Y-80688866D01*
X160759040Y-80546944D01*
X160854527Y-80381556D01*
X160913542Y-80199928D01*
X160933504Y-80010000D01*
X160913542Y-79820072D01*
X160854527Y-79638444D01*
X160795381Y-79536000D01*
X160778500Y-79473001D01*
X160778500Y-78989500D01*
X160798502Y-78921379D01*
X160852158Y-78874886D01*
X160904500Y-78863500D01*
X180608629Y-78863500D01*
X180676750Y-78883502D01*
X180697724Y-78900405D01*
X181959875Y-80162556D01*
X181990613Y-80212714D01*
X182045473Y-80381556D01*
X182140960Y-80546944D01*
X182268747Y-80688866D01*
X182423248Y-80801118D01*
X182429276Y-80803802D01*
X182429278Y-80803803D01*
X182569041Y-80866029D01*
X182597712Y-80878794D01*
X182691112Y-80898647D01*
X182778056Y-80917128D01*
X182778061Y-80917128D01*
X182784513Y-80918500D01*
X182975487Y-80918500D01*
X182981939Y-80917128D01*
X182981944Y-80917128D01*
X183068888Y-80898647D01*
X183162288Y-80878794D01*
X183190959Y-80866029D01*
X183330722Y-80803803D01*
X183330724Y-80803802D01*
X183336752Y-80801118D01*
X183491253Y-80688866D01*
X183619040Y-80546944D01*
X183714527Y-80381556D01*
X183773542Y-80199928D01*
X183793504Y-80010000D01*
X183773542Y-79820072D01*
X183714527Y-79638444D01*
X183619040Y-79473056D01*
X183491253Y-79331134D01*
X183336752Y-79218882D01*
X183330724Y-79216198D01*
X183330722Y-79216197D01*
X183168319Y-79143891D01*
X183168318Y-79143891D01*
X183162288Y-79141206D01*
X183155833Y-79139834D01*
X183155824Y-79139831D01*
X183099228Y-79127801D01*
X183036331Y-79093650D01*
X181558770Y-77616089D01*
X181546384Y-77601677D01*
X181537851Y-77590082D01*
X181537846Y-77590077D01*
X181533508Y-77584182D01*
X181527930Y-77579443D01*
X181527927Y-77579440D01*
X181493232Y-77549965D01*
X181485716Y-77543035D01*
X181480021Y-77537340D01*
X181463736Y-77524456D01*
X181457749Y-77519719D01*
X181454345Y-77516928D01*
X181404297Y-77474409D01*
X181404295Y-77474408D01*
X181398715Y-77469667D01*
X181392199Y-77466339D01*
X181387150Y-77462972D01*
X181382021Y-77459805D01*
X181376284Y-77455266D01*
X181310125Y-77424345D01*
X181306225Y-77422439D01*
X181241192Y-77389231D01*
X181234084Y-77387492D01*
X181228441Y-77385393D01*
X181222678Y-77383476D01*
X181216050Y-77380378D01*
X181144583Y-77365513D01*
X181140299Y-77364543D01*
X181069390Y-77347192D01*
X181063788Y-77346844D01*
X181063785Y-77346844D01*
X181058236Y-77346500D01*
X181058238Y-77346464D01*
X181054245Y-77346225D01*
X181050053Y-77345851D01*
X181042885Y-77344360D01*
X180979120Y-77346085D01*
X180965479Y-77346454D01*
X180962072Y-77346500D01*
X160047835Y-77346500D01*
X160040033Y-77346258D01*
X160039501Y-77346225D01*
X159978702Y-77342453D01*
X159965740Y-77344680D01*
X159944404Y-77346500D01*
X145442835Y-77346500D01*
X145435033Y-77346258D01*
X145434501Y-77346225D01*
X145373702Y-77342453D01*
X145360740Y-77344680D01*
X145339404Y-77346500D01*
X123217835Y-77346500D01*
X123210033Y-77346258D01*
X123209501Y-77346225D01*
X123148702Y-77342453D01*
X123135740Y-77344680D01*
X123114404Y-77346500D01*
X111787835Y-77346500D01*
X111780033Y-77346258D01*
X111779501Y-77346225D01*
X111718702Y-77342453D01*
X111705740Y-77344680D01*
X111684404Y-77346500D01*
X87697070Y-77346500D01*
X87678120Y-77345067D01*
X87663885Y-77342901D01*
X87663881Y-77342901D01*
X87656651Y-77341801D01*
X87649359Y-77342394D01*
X87649356Y-77342394D01*
X87603982Y-77346085D01*
X87593767Y-77346500D01*
X87585707Y-77346500D01*
X87582073Y-77346924D01*
X87582067Y-77346924D01*
X87569042Y-77348443D01*
X87557480Y-77349791D01*
X87553132Y-77350221D01*
X87480364Y-77356140D01*
X87473403Y-77358395D01*
X87467463Y-77359582D01*
X87461588Y-77360971D01*
X87454319Y-77361818D01*
X87385670Y-77386736D01*
X87381542Y-77388153D01*
X87319064Y-77408393D01*
X87319062Y-77408394D01*
X87312101Y-77410649D01*
X87305846Y-77414445D01*
X87300372Y-77416951D01*
X87294942Y-77419670D01*
X87288063Y-77422167D01*
X87281943Y-77426180D01*
X87281942Y-77426180D01*
X87227024Y-77462186D01*
X87223320Y-77464523D01*
X87160893Y-77502405D01*
X87152516Y-77509803D01*
X87152492Y-77509776D01*
X87149500Y-77512429D01*
X87146267Y-77515132D01*
X87140148Y-77519144D01*
X87110951Y-77549965D01*
X87086872Y-77575383D01*
X87084494Y-77577825D01*
X83842724Y-80819595D01*
X83780412Y-80853621D01*
X83753629Y-80856500D01*
X82761866Y-80856500D01*
X82699684Y-80863255D01*
X82563295Y-80914385D01*
X82446739Y-81001739D01*
X82359385Y-81118295D01*
X82308255Y-81254684D01*
X82301500Y-81316866D01*
X82301500Y-83113134D01*
X81508000Y-83113134D01*
X81508000Y-73465470D01*
X82238510Y-73465470D01*
X82276035Y-73750501D01*
X82351896Y-74027803D01*
X82464690Y-74292243D01*
X82612328Y-74538928D01*
X82792080Y-74763295D01*
X83000618Y-74961190D01*
X83234084Y-75128953D01*
X83237879Y-75130962D01*
X83237880Y-75130963D01*
X83259636Y-75142482D01*
X83488159Y-75263479D01*
X83758140Y-75362278D01*
X84039031Y-75423522D01*
X84067608Y-75425771D01*
X84262049Y-75441074D01*
X84262058Y-75441074D01*
X84264506Y-75441267D01*
X84420038Y-75441267D01*
X84422174Y-75441121D01*
X84422185Y-75441121D01*
X84630315Y-75426932D01*
X84630321Y-75426931D01*
X84634592Y-75426640D01*
X84638787Y-75425771D01*
X84638789Y-75425771D01*
X84775350Y-75397491D01*
X84916109Y-75368341D01*
X85187110Y-75272374D01*
X85442579Y-75140517D01*
X85446080Y-75138056D01*
X85446084Y-75138054D01*
X85560184Y-75057863D01*
X85677790Y-74975208D01*
X85888389Y-74779507D01*
X86070480Y-74557035D01*
X86220694Y-74311909D01*
X86336250Y-74048665D01*
X86415011Y-73772173D01*
X86455518Y-73487551D01*
X86455612Y-73469718D01*
X86457002Y-73204350D01*
X86457002Y-73204343D01*
X86457024Y-73200064D01*
X86419499Y-72915033D01*
X86343638Y-72637731D01*
X86333062Y-72612937D01*
X86232530Y-72377243D01*
X86232528Y-72377239D01*
X86230844Y-72373291D01*
X86083206Y-72126606D01*
X85903454Y-71902239D01*
X85694916Y-71704344D01*
X85461450Y-71536581D01*
X85439610Y-71525017D01*
X85399915Y-71504000D01*
X85207375Y-71402055D01*
X85072385Y-71352656D01*
X84941425Y-71304731D01*
X84941423Y-71304730D01*
X84937394Y-71303256D01*
X84656503Y-71242012D01*
X84625452Y-71239568D01*
X84433485Y-71224460D01*
X84433476Y-71224460D01*
X84431028Y-71224267D01*
X84275496Y-71224267D01*
X84273360Y-71224413D01*
X84273349Y-71224413D01*
X84065219Y-71238602D01*
X84065213Y-71238603D01*
X84060942Y-71238894D01*
X84056747Y-71239763D01*
X84056745Y-71239763D01*
X83920183Y-71268044D01*
X83779425Y-71297193D01*
X83508424Y-71393160D01*
X83252955Y-71525017D01*
X83249454Y-71527478D01*
X83249450Y-71527480D01*
X83135350Y-71607671D01*
X83017744Y-71690326D01*
X82807145Y-71886027D01*
X82625054Y-72108499D01*
X82474840Y-72353625D01*
X82473114Y-72357558D01*
X82473113Y-72357559D01*
X82464472Y-72377243D01*
X82359284Y-72616869D01*
X82280523Y-72893361D01*
X82240016Y-73177983D01*
X82239994Y-73182272D01*
X82239993Y-73182279D01*
X82238532Y-73461184D01*
X82238510Y-73465470D01*
X81508000Y-73465470D01*
X81508000Y-72849190D01*
X81528002Y-72781069D01*
X81544905Y-72760095D01*
X83760095Y-70544905D01*
X83822407Y-70510879D01*
X83849190Y-70508000D01*
X207615810Y-70508000D01*
X207683931Y-70528002D01*
G37*
%TD.AperFunction*%
%TD*%
M02*
