%TF.GenerationSoftware,KiCad,Pcbnew,(6.0.2)*%
%TF.CreationDate,2023-05-21T11:07:31+01:00*%
%TF.ProjectId,Nixie Tube Interface Board,4e697869-6520-4547-9562-6520496e7465,rev?*%
%TF.SameCoordinates,Original*%
%TF.FileFunction,Legend,Top*%
%TF.FilePolarity,Positive*%
%FSLAX46Y46*%
G04 Gerber Fmt 4.6, Leading zero omitted, Abs format (unit mm)*
G04 Created by KiCad (PCBNEW (6.0.2)) date 2023-05-21 11:07:31*
%MOMM*%
%LPD*%
G01*
G04 APERTURE LIST*
%ADD10C,0.150000*%
%ADD11C,0.100000*%
%ADD12C,0.101600*%
%ADD13C,0.254000*%
G04 APERTURE END LIST*
D10*
X120667857Y-111212380D02*
X120905952Y-112212380D01*
X121096428Y-111498095D01*
X121286904Y-112212380D01*
X121525000Y-111212380D01*
X121858333Y-111926666D02*
X122334523Y-111926666D01*
X121763095Y-112212380D02*
X122096428Y-111212380D01*
X122429761Y-112212380D01*
X123334523Y-112212380D02*
X123001190Y-111736190D01*
X122763095Y-112212380D02*
X122763095Y-111212380D01*
X123144047Y-111212380D01*
X123239285Y-111260000D01*
X123286904Y-111307619D01*
X123334523Y-111402857D01*
X123334523Y-111545714D01*
X123286904Y-111640952D01*
X123239285Y-111688571D01*
X123144047Y-111736190D01*
X122763095Y-111736190D01*
X123763095Y-112212380D02*
X123763095Y-111212380D01*
X124334523Y-112212380D01*
X124334523Y-111212380D01*
X124810714Y-112212380D02*
X124810714Y-111212380D01*
X125286904Y-112212380D02*
X125286904Y-111212380D01*
X125858333Y-112212380D01*
X125858333Y-111212380D01*
X126858333Y-111260000D02*
X126763095Y-111212380D01*
X126620238Y-111212380D01*
X126477380Y-111260000D01*
X126382142Y-111355238D01*
X126334523Y-111450476D01*
X126286904Y-111640952D01*
X126286904Y-111783809D01*
X126334523Y-111974285D01*
X126382142Y-112069523D01*
X126477380Y-112164761D01*
X126620238Y-112212380D01*
X126715476Y-112212380D01*
X126858333Y-112164761D01*
X126905952Y-112117142D01*
X126905952Y-111783809D01*
X126715476Y-111783809D01*
X127334523Y-112117142D02*
X127382142Y-112164761D01*
X127334523Y-112212380D01*
X127286904Y-112164761D01*
X127334523Y-112117142D01*
X127334523Y-112212380D01*
X127334523Y-111593333D02*
X127382142Y-111640952D01*
X127334523Y-111688571D01*
X127286904Y-111640952D01*
X127334523Y-111593333D01*
X127334523Y-111688571D01*
X128572619Y-112212380D02*
X128572619Y-111212380D01*
X128572619Y-111688571D02*
X129144047Y-111688571D01*
X129144047Y-112212380D02*
X129144047Y-111212380D01*
X129620238Y-112212380D02*
X129620238Y-111545714D01*
X129620238Y-111212380D02*
X129572619Y-111260000D01*
X129620238Y-111307619D01*
X129667857Y-111260000D01*
X129620238Y-111212380D01*
X129620238Y-111307619D01*
X130525000Y-111545714D02*
X130525000Y-112355238D01*
X130477380Y-112450476D01*
X130429761Y-112498095D01*
X130334523Y-112545714D01*
X130191666Y-112545714D01*
X130096428Y-112498095D01*
X130525000Y-112164761D02*
X130429761Y-112212380D01*
X130239285Y-112212380D01*
X130144047Y-112164761D01*
X130096428Y-112117142D01*
X130048809Y-112021904D01*
X130048809Y-111736190D01*
X130096428Y-111640952D01*
X130144047Y-111593333D01*
X130239285Y-111545714D01*
X130429761Y-111545714D01*
X130525000Y-111593333D01*
X131001190Y-112212380D02*
X131001190Y-111212380D01*
X131429761Y-112212380D02*
X131429761Y-111688571D01*
X131382142Y-111593333D01*
X131286904Y-111545714D01*
X131144047Y-111545714D01*
X131048809Y-111593333D01*
X131001190Y-111640952D01*
X132572619Y-111545714D02*
X132810714Y-112212380D01*
X133048809Y-111545714D01*
X133572619Y-112212380D02*
X133477380Y-112164761D01*
X133429761Y-112117142D01*
X133382142Y-112021904D01*
X133382142Y-111736190D01*
X133429761Y-111640952D01*
X133477380Y-111593333D01*
X133572619Y-111545714D01*
X133715476Y-111545714D01*
X133810714Y-111593333D01*
X133858333Y-111640952D01*
X133905952Y-111736190D01*
X133905952Y-112021904D01*
X133858333Y-112117142D01*
X133810714Y-112164761D01*
X133715476Y-112212380D01*
X133572619Y-112212380D01*
X134477380Y-112212380D02*
X134382142Y-112164761D01*
X134334523Y-112069523D01*
X134334523Y-111212380D01*
X134715476Y-111545714D02*
X135096428Y-111545714D01*
X134858333Y-111212380D02*
X134858333Y-112069523D01*
X134905952Y-112164761D01*
X135001190Y-112212380D01*
X135096428Y-112212380D01*
X135858333Y-112212380D02*
X135858333Y-111688571D01*
X135810714Y-111593333D01*
X135715476Y-111545714D01*
X135525000Y-111545714D01*
X135429761Y-111593333D01*
X135858333Y-112164761D02*
X135763095Y-112212380D01*
X135525000Y-112212380D01*
X135429761Y-112164761D01*
X135382142Y-112069523D01*
X135382142Y-111974285D01*
X135429761Y-111879047D01*
X135525000Y-111831428D01*
X135763095Y-111831428D01*
X135858333Y-111783809D01*
X136763095Y-111545714D02*
X136763095Y-112355238D01*
X136715476Y-112450476D01*
X136667857Y-112498095D01*
X136572619Y-112545714D01*
X136429761Y-112545714D01*
X136334523Y-112498095D01*
X136763095Y-112164761D02*
X136667857Y-112212380D01*
X136477380Y-112212380D01*
X136382142Y-112164761D01*
X136334523Y-112117142D01*
X136286904Y-112021904D01*
X136286904Y-111736190D01*
X136334523Y-111640952D01*
X136382142Y-111593333D01*
X136477380Y-111545714D01*
X136667857Y-111545714D01*
X136763095Y-111593333D01*
X137620238Y-112164761D02*
X137525000Y-112212380D01*
X137334523Y-112212380D01*
X137239285Y-112164761D01*
X137191666Y-112069523D01*
X137191666Y-111688571D01*
X137239285Y-111593333D01*
X137334523Y-111545714D01*
X137525000Y-111545714D01*
X137620238Y-111593333D01*
X137667857Y-111688571D01*
X137667857Y-111783809D01*
X137191666Y-111879047D01*
X138048809Y-112164761D02*
X138144047Y-112212380D01*
X138334523Y-112212380D01*
X138429761Y-112164761D01*
X138477380Y-112069523D01*
X138477380Y-112021904D01*
X138429761Y-111926666D01*
X138334523Y-111879047D01*
X138191666Y-111879047D01*
X138096428Y-111831428D01*
X138048809Y-111736190D01*
X138048809Y-111688571D01*
X138096428Y-111593333D01*
X138191666Y-111545714D01*
X138334523Y-111545714D01*
X138429761Y-111593333D01*
X139667857Y-111545714D02*
X139667857Y-112545714D01*
X139667857Y-111593333D02*
X139763095Y-111545714D01*
X139953571Y-111545714D01*
X140048809Y-111593333D01*
X140096428Y-111640952D01*
X140144047Y-111736190D01*
X140144047Y-112021904D01*
X140096428Y-112117142D01*
X140048809Y-112164761D01*
X139953571Y-112212380D01*
X139763095Y-112212380D01*
X139667857Y-112164761D01*
X140572619Y-112212380D02*
X140572619Y-111545714D01*
X140572619Y-111736190D02*
X140620238Y-111640952D01*
X140667857Y-111593333D01*
X140763095Y-111545714D01*
X140858333Y-111545714D01*
X141572619Y-112164761D02*
X141477380Y-112212380D01*
X141286904Y-112212380D01*
X141191666Y-112164761D01*
X141144047Y-112069523D01*
X141144047Y-111688571D01*
X141191666Y-111593333D01*
X141286904Y-111545714D01*
X141477380Y-111545714D01*
X141572619Y-111593333D01*
X141620238Y-111688571D01*
X141620238Y-111783809D01*
X141144047Y-111879047D01*
X142001190Y-112164761D02*
X142096428Y-112212380D01*
X142286904Y-112212380D01*
X142382142Y-112164761D01*
X142429761Y-112069523D01*
X142429761Y-112021904D01*
X142382142Y-111926666D01*
X142286904Y-111879047D01*
X142144047Y-111879047D01*
X142048809Y-111831428D01*
X142001190Y-111736190D01*
X142001190Y-111688571D01*
X142048809Y-111593333D01*
X142144047Y-111545714D01*
X142286904Y-111545714D01*
X142382142Y-111593333D01*
X143239285Y-112164761D02*
X143144047Y-112212380D01*
X142953571Y-112212380D01*
X142858333Y-112164761D01*
X142810714Y-112069523D01*
X142810714Y-111688571D01*
X142858333Y-111593333D01*
X142953571Y-111545714D01*
X143144047Y-111545714D01*
X143239285Y-111593333D01*
X143286904Y-111688571D01*
X143286904Y-111783809D01*
X142810714Y-111879047D01*
X143715476Y-111545714D02*
X143715476Y-112212380D01*
X143715476Y-111640952D02*
X143763095Y-111593333D01*
X143858333Y-111545714D01*
X144001190Y-111545714D01*
X144096428Y-111593333D01*
X144144047Y-111688571D01*
X144144047Y-112212380D01*
X144477380Y-111545714D02*
X144858333Y-111545714D01*
X144620238Y-111212380D02*
X144620238Y-112069523D01*
X144667857Y-112164761D01*
X144763095Y-112212380D01*
X144858333Y-112212380D01*
X146096428Y-112212380D02*
X146001190Y-112164761D01*
X145953571Y-112117142D01*
X145905952Y-112021904D01*
X145905952Y-111736190D01*
X145953571Y-111640952D01*
X146001190Y-111593333D01*
X146096428Y-111545714D01*
X146239285Y-111545714D01*
X146334523Y-111593333D01*
X146382142Y-111640952D01*
X146429761Y-111736190D01*
X146429761Y-112021904D01*
X146382142Y-112117142D01*
X146334523Y-112164761D01*
X146239285Y-112212380D01*
X146096428Y-112212380D01*
X146858333Y-111545714D02*
X146858333Y-112212380D01*
X146858333Y-111640952D02*
X146905952Y-111593333D01*
X147001190Y-111545714D01*
X147144047Y-111545714D01*
X147239285Y-111593333D01*
X147286904Y-111688571D01*
X147286904Y-112212380D01*
X148525000Y-112212380D02*
X148525000Y-111212380D01*
X148525000Y-111593333D02*
X148620238Y-111545714D01*
X148810714Y-111545714D01*
X148905952Y-111593333D01*
X148953571Y-111640952D01*
X149001190Y-111736190D01*
X149001190Y-112021904D01*
X148953571Y-112117142D01*
X148905952Y-112164761D01*
X148810714Y-112212380D01*
X148620238Y-112212380D01*
X148525000Y-112164761D01*
X149572619Y-112212380D02*
X149477380Y-112164761D01*
X149429761Y-112117142D01*
X149382142Y-112021904D01*
X149382142Y-111736190D01*
X149429761Y-111640952D01*
X149477380Y-111593333D01*
X149572619Y-111545714D01*
X149715476Y-111545714D01*
X149810714Y-111593333D01*
X149858333Y-111640952D01*
X149905952Y-111736190D01*
X149905952Y-112021904D01*
X149858333Y-112117142D01*
X149810714Y-112164761D01*
X149715476Y-112212380D01*
X149572619Y-112212380D01*
X150763095Y-112212380D02*
X150763095Y-111688571D01*
X150715476Y-111593333D01*
X150620238Y-111545714D01*
X150429761Y-111545714D01*
X150334523Y-111593333D01*
X150763095Y-112164761D02*
X150667857Y-112212380D01*
X150429761Y-112212380D01*
X150334523Y-112164761D01*
X150286904Y-112069523D01*
X150286904Y-111974285D01*
X150334523Y-111879047D01*
X150429761Y-111831428D01*
X150667857Y-111831428D01*
X150763095Y-111783809D01*
X151239285Y-112212380D02*
X151239285Y-111545714D01*
X151239285Y-111736190D02*
X151286904Y-111640952D01*
X151334523Y-111593333D01*
X151429761Y-111545714D01*
X151525000Y-111545714D01*
X152286904Y-112212380D02*
X152286904Y-111212380D01*
X152286904Y-112164761D02*
X152191666Y-112212380D01*
X152001190Y-112212380D01*
X151905952Y-112164761D01*
X151858333Y-112117142D01*
X151810714Y-112021904D01*
X151810714Y-111736190D01*
X151858333Y-111640952D01*
X151905952Y-111593333D01*
X152001190Y-111545714D01*
X152191666Y-111545714D01*
X152286904Y-111593333D01*
X81280000Y-78105000D02*
X86360000Y-78105000D01*
X86360000Y-78105000D02*
X86360000Y-83185000D01*
X86360000Y-83185000D02*
X81280000Y-83185000D01*
X81280000Y-83185000D02*
X81280000Y-78105000D01*
D11*
X82248571Y-79079285D02*
X81820000Y-79079285D01*
X82034285Y-79079285D02*
X82034285Y-78329285D01*
X81962857Y-78436428D01*
X81891428Y-78507857D01*
X81820000Y-78543571D01*
X82498571Y-78329285D02*
X82998571Y-78329285D01*
X82677142Y-79079285D01*
X83427142Y-78329285D02*
X83498571Y-78329285D01*
X83570000Y-78365000D01*
X83605714Y-78400714D01*
X83641428Y-78472142D01*
X83677142Y-78615000D01*
X83677142Y-78793571D01*
X83641428Y-78936428D01*
X83605714Y-79007857D01*
X83570000Y-79043571D01*
X83498571Y-79079285D01*
X83427142Y-79079285D01*
X83355714Y-79043571D01*
X83320000Y-79007857D01*
X83284285Y-78936428D01*
X83248571Y-78793571D01*
X83248571Y-78615000D01*
X83284285Y-78472142D01*
X83320000Y-78400714D01*
X83355714Y-78365000D01*
X83427142Y-78329285D01*
X83891428Y-78329285D02*
X84141428Y-79079285D01*
X84391428Y-78329285D01*
X84641428Y-79079285D02*
X84641428Y-78329285D01*
X84820000Y-78329285D01*
X84927142Y-78365000D01*
X84998571Y-78436428D01*
X85034285Y-78507857D01*
X85070000Y-78650714D01*
X85070000Y-78757857D01*
X85034285Y-78900714D01*
X84998571Y-78972142D01*
X84927142Y-79043571D01*
X84820000Y-79079285D01*
X84641428Y-79079285D01*
X85820000Y-79007857D02*
X85784285Y-79043571D01*
X85677142Y-79079285D01*
X85605714Y-79079285D01*
X85498571Y-79043571D01*
X85427142Y-78972142D01*
X85391428Y-78900714D01*
X85355714Y-78757857D01*
X85355714Y-78650714D01*
X85391428Y-78507857D01*
X85427142Y-78436428D01*
X85498571Y-78365000D01*
X85605714Y-78329285D01*
X85677142Y-78329285D01*
X85784285Y-78365000D01*
X85820000Y-78400714D01*
X93779961Y-109474201D02*
X94158768Y-109853008D01*
X94209276Y-109954023D01*
X94209276Y-110055038D01*
X94158768Y-110156054D01*
X94108260Y-110206561D01*
X94815367Y-109499454D02*
X94562829Y-109751993D01*
X94032499Y-109221662D01*
X95244682Y-108969124D02*
X95244682Y-109019632D01*
X95194174Y-109120647D01*
X95143667Y-109171155D01*
X95042651Y-109221662D01*
X94941636Y-109221662D01*
X94865875Y-109196409D01*
X94739606Y-109120647D01*
X94663844Y-109044886D01*
X94588083Y-108918617D01*
X94562829Y-108842855D01*
X94562829Y-108741840D01*
X94613337Y-108640825D01*
X94663844Y-108590317D01*
X94764859Y-108539809D01*
X94815367Y-108539809D01*
X95143667Y-108110495D02*
X95522474Y-108489302D01*
X95572981Y-108590317D01*
X95572981Y-108691332D01*
X95522474Y-108792348D01*
X95471966Y-108842855D01*
X96179073Y-108135748D02*
X95926535Y-108388287D01*
X95396205Y-107857956D01*
X96608388Y-107605418D02*
X96608388Y-107655926D01*
X96557880Y-107756941D01*
X96507373Y-107807449D01*
X96406357Y-107857956D01*
X96305342Y-107857956D01*
X96229581Y-107832703D01*
X96103312Y-107756941D01*
X96027550Y-107681180D01*
X95951789Y-107554911D01*
X95926535Y-107479149D01*
X95926535Y-107378134D01*
X95977043Y-107277119D01*
X96027550Y-107226611D01*
X96128565Y-107176104D01*
X96179073Y-107176104D01*
X96507373Y-106746789D02*
X96886180Y-107125596D01*
X96936687Y-107226611D01*
X96936687Y-107327626D01*
X96886180Y-107428642D01*
X96835672Y-107479149D01*
X97542779Y-106772043D02*
X97290241Y-107024581D01*
X96759911Y-106494251D01*
X97972094Y-106241712D02*
X97972094Y-106292220D01*
X97921586Y-106393235D01*
X97871079Y-106443743D01*
X97770063Y-106494251D01*
X97669048Y-106494251D01*
X97593287Y-106468997D01*
X97467018Y-106393235D01*
X97391256Y-106317474D01*
X97315495Y-106191205D01*
X97290241Y-106115443D01*
X97290241Y-106014428D01*
X97340748Y-105913413D01*
X97391256Y-105862905D01*
X97492271Y-105812398D01*
X97542779Y-105812398D01*
X97871079Y-105383083D02*
X98249886Y-105761890D01*
X98300393Y-105862905D01*
X98300393Y-105963920D01*
X98249886Y-106064936D01*
X98199378Y-106115443D01*
X98906485Y-105408337D02*
X98653947Y-105660875D01*
X98123617Y-105130545D01*
X99335800Y-104878006D02*
X99335800Y-104928514D01*
X99285292Y-105029529D01*
X99234784Y-105080037D01*
X99133769Y-105130545D01*
X99032754Y-105130545D01*
X98956993Y-105105291D01*
X98830723Y-105029529D01*
X98754962Y-104953768D01*
X98679201Y-104827499D01*
X98653947Y-104751737D01*
X98653947Y-104650722D01*
X98704454Y-104549707D01*
X98754962Y-104499199D01*
X98855977Y-104448692D01*
X98906485Y-104448692D01*
D10*
X181206428Y-112212380D02*
X181206428Y-111212380D01*
X181777857Y-112212380D01*
X181777857Y-111212380D01*
X182254047Y-112212380D02*
X182254047Y-111545714D01*
X182254047Y-111212380D02*
X182206428Y-111260000D01*
X182254047Y-111307619D01*
X182301666Y-111260000D01*
X182254047Y-111212380D01*
X182254047Y-111307619D01*
X182635000Y-112212380D02*
X183158809Y-111545714D01*
X182635000Y-111545714D02*
X183158809Y-112212380D01*
X183539761Y-112212380D02*
X183539761Y-111545714D01*
X183539761Y-111212380D02*
X183492142Y-111260000D01*
X183539761Y-111307619D01*
X183587380Y-111260000D01*
X183539761Y-111212380D01*
X183539761Y-111307619D01*
X184396904Y-112164761D02*
X184301666Y-112212380D01*
X184111190Y-112212380D01*
X184015952Y-112164761D01*
X183968333Y-112069523D01*
X183968333Y-111688571D01*
X184015952Y-111593333D01*
X184111190Y-111545714D01*
X184301666Y-111545714D01*
X184396904Y-111593333D01*
X184444523Y-111688571D01*
X184444523Y-111783809D01*
X183968333Y-111879047D01*
X185492142Y-111212380D02*
X186063571Y-111212380D01*
X185777857Y-112212380D02*
X185777857Y-111212380D01*
X186825476Y-111545714D02*
X186825476Y-112212380D01*
X186396904Y-111545714D02*
X186396904Y-112069523D01*
X186444523Y-112164761D01*
X186539761Y-112212380D01*
X186682619Y-112212380D01*
X186777857Y-112164761D01*
X186825476Y-112117142D01*
X187301666Y-112212380D02*
X187301666Y-111212380D01*
X187301666Y-111593333D02*
X187396904Y-111545714D01*
X187587380Y-111545714D01*
X187682619Y-111593333D01*
X187730238Y-111640952D01*
X187777857Y-111736190D01*
X187777857Y-112021904D01*
X187730238Y-112117142D01*
X187682619Y-112164761D01*
X187587380Y-112212380D01*
X187396904Y-112212380D01*
X187301666Y-112164761D01*
X188587380Y-112164761D02*
X188492142Y-112212380D01*
X188301666Y-112212380D01*
X188206428Y-112164761D01*
X188158809Y-112069523D01*
X188158809Y-111688571D01*
X188206428Y-111593333D01*
X188301666Y-111545714D01*
X188492142Y-111545714D01*
X188587380Y-111593333D01*
X188635000Y-111688571D01*
X188635000Y-111783809D01*
X188158809Y-111879047D01*
X189825476Y-112212380D02*
X189825476Y-111212380D01*
X190301666Y-111545714D02*
X190301666Y-112212380D01*
X190301666Y-111640952D02*
X190349285Y-111593333D01*
X190444523Y-111545714D01*
X190587380Y-111545714D01*
X190682619Y-111593333D01*
X190730238Y-111688571D01*
X190730238Y-112212380D01*
X191063571Y-111545714D02*
X191444523Y-111545714D01*
X191206428Y-111212380D02*
X191206428Y-112069523D01*
X191254047Y-112164761D01*
X191349285Y-112212380D01*
X191444523Y-112212380D01*
X192158809Y-112164761D02*
X192063571Y-112212380D01*
X191873095Y-112212380D01*
X191777857Y-112164761D01*
X191730238Y-112069523D01*
X191730238Y-111688571D01*
X191777857Y-111593333D01*
X191873095Y-111545714D01*
X192063571Y-111545714D01*
X192158809Y-111593333D01*
X192206428Y-111688571D01*
X192206428Y-111783809D01*
X191730238Y-111879047D01*
X192635000Y-112212380D02*
X192635000Y-111545714D01*
X192635000Y-111736190D02*
X192682619Y-111640952D01*
X192730238Y-111593333D01*
X192825476Y-111545714D01*
X192920714Y-111545714D01*
X193111190Y-111545714D02*
X193492142Y-111545714D01*
X193254047Y-112212380D02*
X193254047Y-111355238D01*
X193301666Y-111260000D01*
X193396904Y-111212380D01*
X193492142Y-111212380D01*
X194254047Y-112212380D02*
X194254047Y-111688571D01*
X194206428Y-111593333D01*
X194111190Y-111545714D01*
X193920714Y-111545714D01*
X193825476Y-111593333D01*
X194254047Y-112164761D02*
X194158809Y-112212380D01*
X193920714Y-112212380D01*
X193825476Y-112164761D01*
X193777857Y-112069523D01*
X193777857Y-111974285D01*
X193825476Y-111879047D01*
X193920714Y-111831428D01*
X194158809Y-111831428D01*
X194254047Y-111783809D01*
X195158809Y-112164761D02*
X195063571Y-112212380D01*
X194873095Y-112212380D01*
X194777857Y-112164761D01*
X194730238Y-112117142D01*
X194682619Y-112021904D01*
X194682619Y-111736190D01*
X194730238Y-111640952D01*
X194777857Y-111593333D01*
X194873095Y-111545714D01*
X195063571Y-111545714D01*
X195158809Y-111593333D01*
X195968333Y-112164761D02*
X195873095Y-112212380D01*
X195682619Y-112212380D01*
X195587380Y-112164761D01*
X195539761Y-112069523D01*
X195539761Y-111688571D01*
X195587380Y-111593333D01*
X195682619Y-111545714D01*
X195873095Y-111545714D01*
X195968333Y-111593333D01*
X196015952Y-111688571D01*
X196015952Y-111783809D01*
X195539761Y-111879047D01*
X197539761Y-111688571D02*
X197682619Y-111736190D01*
X197730238Y-111783809D01*
X197777857Y-111879047D01*
X197777857Y-112021904D01*
X197730238Y-112117142D01*
X197682619Y-112164761D01*
X197587380Y-112212380D01*
X197206428Y-112212380D01*
X197206428Y-111212380D01*
X197539761Y-111212380D01*
X197635000Y-111260000D01*
X197682619Y-111307619D01*
X197730238Y-111402857D01*
X197730238Y-111498095D01*
X197682619Y-111593333D01*
X197635000Y-111640952D01*
X197539761Y-111688571D01*
X197206428Y-111688571D01*
X198349285Y-112212380D02*
X198254047Y-112164761D01*
X198206428Y-112117142D01*
X198158809Y-112021904D01*
X198158809Y-111736190D01*
X198206428Y-111640952D01*
X198254047Y-111593333D01*
X198349285Y-111545714D01*
X198492142Y-111545714D01*
X198587380Y-111593333D01*
X198635000Y-111640952D01*
X198682619Y-111736190D01*
X198682619Y-112021904D01*
X198635000Y-112117142D01*
X198587380Y-112164761D01*
X198492142Y-112212380D01*
X198349285Y-112212380D01*
X199539761Y-112212380D02*
X199539761Y-111688571D01*
X199492142Y-111593333D01*
X199396904Y-111545714D01*
X199206428Y-111545714D01*
X199111190Y-111593333D01*
X199539761Y-112164761D02*
X199444523Y-112212380D01*
X199206428Y-112212380D01*
X199111190Y-112164761D01*
X199063571Y-112069523D01*
X199063571Y-111974285D01*
X199111190Y-111879047D01*
X199206428Y-111831428D01*
X199444523Y-111831428D01*
X199539761Y-111783809D01*
X200015952Y-112212380D02*
X200015952Y-111545714D01*
X200015952Y-111736190D02*
X200063571Y-111640952D01*
X200111190Y-111593333D01*
X200206428Y-111545714D01*
X200301666Y-111545714D01*
X201063571Y-112212380D02*
X201063571Y-111212380D01*
X201063571Y-112164761D02*
X200968333Y-112212380D01*
X200777857Y-112212380D01*
X200682619Y-112164761D01*
X200635000Y-112117142D01*
X200587380Y-112021904D01*
X200587380Y-111736190D01*
X200635000Y-111640952D01*
X200682619Y-111593333D01*
X200777857Y-111545714D01*
X200968333Y-111545714D01*
X201063571Y-111593333D01*
D12*
%TO.C,N1*%
X105032380Y-103074523D02*
X105032380Y-101804523D01*
X105758095Y-103074523D01*
X105758095Y-101804523D01*
X107028095Y-103074523D02*
X106302380Y-103074523D01*
X106665238Y-103074523D02*
X106665238Y-101804523D01*
X106544285Y-101985952D01*
X106423333Y-102106904D01*
X106302380Y-102167380D01*
D10*
X103339047Y-93074523D02*
X103339047Y-91804523D01*
X103943809Y-93074523D02*
X103943809Y-91804523D01*
X104669523Y-93074523D01*
X104669523Y-91804523D01*
X105274285Y-92590714D02*
X106241904Y-92590714D01*
X107511904Y-93074523D02*
X106786190Y-93074523D01*
X107149047Y-93074523D02*
X107149047Y-91804523D01*
X107028095Y-91985952D01*
X106907142Y-92106904D01*
X106786190Y-92167380D01*
X108600476Y-92227857D02*
X108600476Y-93074523D01*
X108298095Y-91744047D02*
X107995714Y-92651190D01*
X108781904Y-92651190D01*
D12*
%TO.C,N3*%
X162032380Y-103074523D02*
X162032380Y-101804523D01*
X162758095Y-103074523D01*
X162758095Y-101804523D01*
X163241904Y-101804523D02*
X164028095Y-101804523D01*
X163604761Y-102288333D01*
X163786190Y-102288333D01*
X163907142Y-102348809D01*
X163967619Y-102409285D01*
X164028095Y-102530238D01*
X164028095Y-102832619D01*
X163967619Y-102953571D01*
X163907142Y-103014047D01*
X163786190Y-103074523D01*
X163423333Y-103074523D01*
X163302380Y-103014047D01*
X163241904Y-102953571D01*
D10*
X160339047Y-93074523D02*
X160339047Y-91804523D01*
X160943809Y-93074523D02*
X160943809Y-91804523D01*
X161669523Y-93074523D01*
X161669523Y-91804523D01*
X162274285Y-92590714D02*
X163241904Y-92590714D01*
X164511904Y-93074523D02*
X163786190Y-93074523D01*
X164149047Y-93074523D02*
X164149047Y-91804523D01*
X164028095Y-91985952D01*
X163907142Y-92106904D01*
X163786190Y-92167380D01*
X165600476Y-92227857D02*
X165600476Y-93074523D01*
X165298095Y-91744047D02*
X164995714Y-92651190D01*
X165781904Y-92651190D01*
D12*
%TO.C,N4*%
X185032380Y-103074523D02*
X185032380Y-101804523D01*
X185758095Y-103074523D01*
X185758095Y-101804523D01*
X186907142Y-102227857D02*
X186907142Y-103074523D01*
X186604761Y-101744047D02*
X186302380Y-102651190D01*
X187088571Y-102651190D01*
D10*
X183339047Y-93074523D02*
X183339047Y-91804523D01*
X183943809Y-93074523D02*
X183943809Y-91804523D01*
X184669523Y-93074523D01*
X184669523Y-91804523D01*
X185274285Y-92590714D02*
X186241904Y-92590714D01*
X187511904Y-93074523D02*
X186786190Y-93074523D01*
X187149047Y-93074523D02*
X187149047Y-91804523D01*
X187028095Y-91985952D01*
X186907142Y-92106904D01*
X186786190Y-92167380D01*
X188600476Y-92227857D02*
X188600476Y-93074523D01*
X188298095Y-91744047D02*
X187995714Y-92651190D01*
X188781904Y-92651190D01*
D12*
%TO.C,N6*%
X149532380Y-99574523D02*
X149532380Y-98304523D01*
X150258095Y-99574523D01*
X150258095Y-98304523D01*
X151407142Y-98304523D02*
X151165238Y-98304523D01*
X151044285Y-98365000D01*
X150983809Y-98425476D01*
X150862857Y-98606904D01*
X150802380Y-98848809D01*
X150802380Y-99332619D01*
X150862857Y-99453571D01*
X150923333Y-99514047D01*
X151044285Y-99574523D01*
X151286190Y-99574523D01*
X151407142Y-99514047D01*
X151467619Y-99453571D01*
X151528095Y-99332619D01*
X151528095Y-99030238D01*
X151467619Y-98909285D01*
X151407142Y-98848809D01*
X151286190Y-98788333D01*
X151044285Y-98788333D01*
X150923333Y-98848809D01*
X150862857Y-98909285D01*
X150802380Y-99030238D01*
%TO.C,N2*%
X128032380Y-103074523D02*
X128032380Y-101804523D01*
X128758095Y-103074523D01*
X128758095Y-101804523D01*
X129302380Y-101925476D02*
X129362857Y-101865000D01*
X129483809Y-101804523D01*
X129786190Y-101804523D01*
X129907142Y-101865000D01*
X129967619Y-101925476D01*
X130028095Y-102046428D01*
X130028095Y-102167380D01*
X129967619Y-102348809D01*
X129241904Y-103074523D01*
X130028095Y-103074523D01*
D10*
X126339047Y-93074523D02*
X126339047Y-91804523D01*
X126943809Y-93074523D02*
X126943809Y-91804523D01*
X127669523Y-93074523D01*
X127669523Y-91804523D01*
X128274285Y-92590714D02*
X129241904Y-92590714D01*
X130511904Y-93074523D02*
X129786190Y-93074523D01*
X130149047Y-93074523D02*
X130149047Y-91804523D01*
X130028095Y-91985952D01*
X129907142Y-92106904D01*
X129786190Y-92167380D01*
X131600476Y-92227857D02*
X131600476Y-93074523D01*
X131298095Y-91744047D02*
X130995714Y-92651190D01*
X131781904Y-92651190D01*
D12*
%TO.C,N5*%
X149532380Y-91074523D02*
X149532380Y-89804523D01*
X150258095Y-91074523D01*
X150258095Y-89804523D01*
X151467619Y-89804523D02*
X150862857Y-89804523D01*
X150802380Y-90409285D01*
X150862857Y-90348809D01*
X150983809Y-90288333D01*
X151286190Y-90288333D01*
X151407142Y-90348809D01*
X151467619Y-90409285D01*
X151528095Y-90530238D01*
X151528095Y-90832619D01*
X151467619Y-90953571D01*
X151407142Y-91014047D01*
X151286190Y-91074523D01*
X150983809Y-91074523D01*
X150862857Y-91014047D01*
X150802380Y-90953571D01*
D13*
%TO.C,N1*%
X98380000Y-92500000D02*
G75*
G03*
X113620000Y-92342520I7620000J78740D01*
G01*
X114872220Y-92500000D02*
G75*
G03*
X114872220Y-92500000I-8872220J0D01*
G01*
%TO.C,N3*%
X155380000Y-92500000D02*
G75*
G03*
X170620000Y-92342520I7620000J78740D01*
G01*
X171872220Y-92500000D02*
G75*
G03*
X171872220Y-92500000I-8872220J0D01*
G01*
%TO.C,N4*%
X178380000Y-92500000D02*
G75*
G03*
X193620000Y-92342520I7620000J78740D01*
G01*
X194872220Y-92500000D02*
G75*
G03*
X194872220Y-92500000I-8872220J0D01*
G01*
%TO.C,N6*%
X142190044Y-96002135D02*
G75*
G03*
X149810000Y-96000000I3809956J80875D01*
G01*
X148895600Y-96000000D02*
G75*
G03*
X148895600Y-96000000I-2895600J0D01*
G01*
%TO.C,N2*%
X121380000Y-92500000D02*
G75*
G03*
X136620000Y-92342520I7620000J78740D01*
G01*
X137872220Y-92500000D02*
G75*
G03*
X137872220Y-92500000I-8872220J0D01*
G01*
%TO.C,N5*%
X142190044Y-87502135D02*
G75*
G03*
X149810000Y-87500000I3809956J80875D01*
G01*
X148895600Y-87500000D02*
G75*
G03*
X148895600Y-87500000I-2895600J0D01*
G01*
%TD*%
M02*
