M48
; DRILL file {KiCad (6.0.2)} date Sun May 21 10:48:58 2023
; FORMAT={-:-/ absolute / inch / decimal}
; #@! TF.CreationDate,2023-05-21T10:48:58+01:00
; #@! TF.GenerationSoftware,Kicad,Pcbnew,(6.0.2)
; #@! TF.FileFunction,Plated,1,2,PTH
FMAT,2
INCH
; #@! TA.AperFunction,Plated,PTH,ViaDrill
T1C0.0157
; #@! TA.AperFunction,Plated,PTH,ComponentDrill
T2C0.0236
; #@! TA.AperFunction,Plated,PTH,ComponentDrill
T3C0.0330
; #@! TA.AperFunction,Plated,PTH,ComponentDrill
T4C0.0394
%
G90
G05
T1
X3.45Y-3.225
X3.525Y-4.15
X3.575Y-4.15
X3.575Y-4.225
X3.625Y-4.15
X3.675Y-4.15
X4.375Y-3.225
X4.875Y-3.225
X5.725Y-3.15
X6.3Y-3.15
X7.2Y-3.15
T2
X5.6855Y-3.4449
X5.6855Y-3.7795
X5.8105Y-3.4449
X5.8105Y-3.7795
T3
X3.9313Y-3.6124
X3.9454Y-3.7281
X3.9727Y-3.5033
X4.0116Y-3.8241
X4.06Y-3.426
X4.1149Y-3.8783
X4.1732Y-3.3981
X4.2315Y-3.8783
X4.2864Y-3.426
X4.3348Y-3.8241
X4.3737Y-3.5033
X4.401Y-3.7281
X4.4151Y-3.6124
X4.8368Y-3.6124
X4.8509Y-3.7281
X4.8782Y-3.5033
X4.9171Y-3.8241
X4.9655Y-3.426
X5.0204Y-3.8783
X5.0787Y-3.3981
X5.137Y-3.8783
X5.1919Y-3.426
X5.2403Y-3.8241
X5.2792Y-3.5033
X5.3065Y-3.7281
X5.3206Y-3.6124
X6.1754Y-3.6124
X6.1895Y-3.7281
X6.2168Y-3.5033
X6.2557Y-3.8241
X6.3041Y-3.426
X6.359Y-3.8783
X6.4173Y-3.3981
X6.4756Y-3.8783
X6.5305Y-3.426
X6.5789Y-3.8241
X6.6178Y-3.5033
X6.6451Y-3.7281
X6.6592Y-3.6124
X7.0809Y-3.6124
X7.095Y-3.7281
X7.1223Y-3.5033
X7.1612Y-3.8241
X7.2096Y-3.426
X7.2645Y-3.8783
X7.3228Y-3.3981
X7.3811Y-3.8783
X7.436Y-3.426
X7.4844Y-3.8241
X7.5233Y-3.5033
X7.5506Y-3.7281
X7.5647Y-3.6124
T4
X3.2937Y-3.2368
X3.2937Y-3.3368
X3.2937Y-3.4368
X3.2937Y-3.5368
X3.2937Y-3.6368
X3.2937Y-3.7368
X3.2937Y-3.8368
X3.2937Y-3.9368
X3.2937Y-4.0368
X3.2937Y-4.1368
T0
M30
