%TF.GenerationSoftware,KiCad,Pcbnew,(6.0.2)*%
%TF.CreationDate,2023-05-21T11:07:31+01:00*%
%TF.ProjectId,Nixie Tube Interface Board,4e697869-6520-4547-9562-6520496e7465,rev?*%
%TF.SameCoordinates,Original*%
%TF.FileFunction,Soldermask,Bot*%
%TF.FilePolarity,Negative*%
%FSLAX46Y46*%
G04 Gerber Fmt 4.6, Leading zero omitted, Abs format (unit mm)*
G04 Created by KiCad (PCBNEW (6.0.2)) date 2023-05-21 11:07:31*
%MOMM*%
%LPD*%
G01*
G04 APERTURE LIST*
G04 Aperture macros list*
%AMRoundRect*
0 Rectangle with rounded corners*
0 $1 Rounding radius*
0 $2 $3 $4 $5 $6 $7 $8 $9 X,Y pos of 4 corners*
0 Add a 4 corners polygon primitive as box body*
4,1,4,$2,$3,$4,$5,$6,$7,$8,$9,$2,$3,0*
0 Add four circle primitives for the rounded corners*
1,1,$1+$1,$2,$3*
1,1,$1+$1,$4,$5*
1,1,$1+$1,$6,$7*
1,1,$1+$1,$8,$9*
0 Add four rect primitives between the rounded corners*
20,1,$1+$1,$2,$3,$4,$5,0*
20,1,$1+$1,$4,$5,$6,$7,0*
20,1,$1+$1,$6,$7,$8,$9,0*
20,1,$1+$1,$8,$9,$2,$3,0*%
G04 Aperture macros list end*
%ADD10RoundRect,0.137500X0.327037X0.521491X-0.521491X-0.327037X-0.327037X-0.521491X0.521491X0.327037X0*%
%ADD11RoundRect,0.137500X-0.327037X0.521491X-0.521491X0.327037X0.327037X-0.521491X0.521491X-0.327037X0*%
%ADD12C,3.200000*%
%ADD13C,1.346200*%
%ADD14RoundRect,0.250000X0.400000X0.625000X-0.400000X0.625000X-0.400000X-0.625000X0.400000X-0.625000X0*%
%ADD15RoundRect,0.250000X-0.400000X-0.625000X0.400000X-0.625000X0.400000X0.625000X-0.400000X0.625000X0*%
%ADD16C,1.107440*%
%ADD17RoundRect,0.250000X0.625000X-0.400000X0.625000X0.400000X-0.625000X0.400000X-0.625000X-0.400000X0*%
%ADD18R,1.700000X1.700000*%
%ADD19O,1.700000X1.700000*%
G04 APERTURE END LIST*
D10*
%TO.C,U1*%
X95790565Y-98577581D03*
X96356250Y-99143266D03*
X96921936Y-99708952D03*
X97487621Y-100274637D03*
X98053307Y-100840322D03*
X98618992Y-101406008D03*
X99184678Y-101971693D03*
X99750363Y-102537379D03*
X100316048Y-103103064D03*
X100881734Y-103668750D03*
X101447419Y-104234435D03*
D11*
X101447419Y-106585565D03*
X100881734Y-107151250D03*
X100316048Y-107716936D03*
X99750363Y-108282621D03*
X99184678Y-108848307D03*
X98618992Y-109413992D03*
X98053307Y-109979678D03*
X97487621Y-110545363D03*
X96921936Y-111111048D03*
X96356250Y-111676734D03*
X95790565Y-112242419D03*
D10*
X93439435Y-112242419D03*
X92873750Y-111676734D03*
X92308064Y-111111048D03*
X91742379Y-110545363D03*
X91176693Y-109979678D03*
X90611008Y-109413992D03*
X90045322Y-108848307D03*
X89479637Y-108282621D03*
X88913952Y-107716936D03*
X88348266Y-107151250D03*
X87782581Y-106585565D03*
D11*
X87782581Y-104234435D03*
X88348266Y-103668750D03*
X88913952Y-103103064D03*
X89479637Y-102537379D03*
X90045322Y-101971693D03*
X90611008Y-101406008D03*
X91176693Y-100840322D03*
X91742379Y-100274637D03*
X92308064Y-99708952D03*
X92873750Y-99143266D03*
X93439435Y-98577581D03*
%TD*%
D12*
%TO.C,H3*%
X207347767Y-111332767D03*
%TD*%
D13*
%TO.C,N1*%
X111092700Y-88984640D03*
X100907300Y-88984640D03*
X99855740Y-91755780D03*
X100213880Y-94694560D03*
X101895360Y-97132960D03*
X104519180Y-98509640D03*
X107480820Y-98509640D03*
X110104640Y-97132960D03*
X111786120Y-94694560D03*
X112144260Y-91755780D03*
X106000000Y-86312560D03*
X103124720Y-87021220D03*
X108875280Y-87021220D03*
%TD*%
D14*
%TO.C,R7*%
X142875000Y-81915000D03*
X139775000Y-81915000D03*
%TD*%
D15*
%TO.C,R8*%
X145490000Y-81915000D03*
X148590000Y-81915000D03*
%TD*%
%TO.C,R5*%
X160095000Y-81915000D03*
X163195000Y-81915000D03*
%TD*%
D13*
%TO.C,N3*%
X168092700Y-88984640D03*
X157907300Y-88984640D03*
X156855740Y-91755780D03*
X157213880Y-94694560D03*
X158895360Y-97132960D03*
X161519180Y-98509640D03*
X164480820Y-98509640D03*
X167104640Y-97132960D03*
X168786120Y-94694560D03*
X169144260Y-91755780D03*
X163000000Y-86312560D03*
X160124720Y-87021220D03*
X165875280Y-87021220D03*
%TD*%
%TO.C,N4*%
X191092700Y-88984640D03*
X180907300Y-88984640D03*
X179855740Y-91755780D03*
X180213880Y-94694560D03*
X181895360Y-97132960D03*
X184519180Y-98509640D03*
X187480820Y-98509640D03*
X190104640Y-97132960D03*
X191786120Y-94694560D03*
X192144260Y-91755780D03*
X186000000Y-86312560D03*
X183124720Y-87021220D03*
X188875280Y-87021220D03*
%TD*%
D12*
%TO.C,H1*%
X84347767Y-73332767D03*
%TD*%
D16*
%TO.C,N6*%
X147587500Y-96000000D03*
X144412500Y-96000000D03*
%TD*%
D13*
%TO.C,N2*%
X134092700Y-88984640D03*
X123907300Y-88984640D03*
X122855740Y-91755780D03*
X123213880Y-94694560D03*
X124895360Y-97132960D03*
X127519180Y-98509640D03*
X130480820Y-98509640D03*
X133104640Y-97132960D03*
X134786120Y-94694560D03*
X135144260Y-91755780D03*
X129000000Y-86312560D03*
X126124720Y-87021220D03*
X131875280Y-87021220D03*
%TD*%
D14*
%TO.C,R3*%
X106045000Y-81915000D03*
X109145000Y-81915000D03*
%TD*%
D12*
%TO.C,H2*%
X207347767Y-73332767D03*
%TD*%
D16*
%TO.C,N5*%
X147587500Y-87500000D03*
X144412500Y-87500000D03*
%TD*%
D15*
%TO.C,R4*%
X128905000Y-81915000D03*
X125805000Y-81915000D03*
%TD*%
%TO.C,R6*%
X182955000Y-81915000D03*
X186055000Y-81915000D03*
%TD*%
D12*
%TO.C,H4*%
X84347767Y-111332767D03*
%TD*%
D17*
%TO.C,R1*%
X87630000Y-89180000D03*
X87630000Y-86080000D03*
%TD*%
%TO.C,R2*%
X87630000Y-83465000D03*
X87630000Y-80365000D03*
%TD*%
D18*
%TO.C,J1*%
X83660000Y-82215000D03*
D19*
X83660000Y-84755000D03*
X83660000Y-87295000D03*
X83660000Y-89835000D03*
X83660000Y-92375000D03*
X83660000Y-94915000D03*
X83660000Y-97455000D03*
X83660000Y-99995000D03*
X83660000Y-102535000D03*
X83660000Y-105075000D03*
%TD*%
M02*
