%TF.GenerationSoftware,KiCad,Pcbnew,(6.0.2)*%
%TF.CreationDate,2023-05-21T11:07:31+01:00*%
%TF.ProjectId,Nixie Tube Interface Board,4e697869-6520-4547-9562-6520496e7465,rev?*%
%TF.SameCoordinates,Original*%
%TF.FileFunction,Soldermask,Top*%
%TF.FilePolarity,Negative*%
%FSLAX46Y46*%
G04 Gerber Fmt 4.6, Leading zero omitted, Abs format (unit mm)*
G04 Created by KiCad (PCBNEW (6.0.2)) date 2023-05-21 11:07:31*
%MOMM*%
%LPD*%
G01*
G04 APERTURE LIST*
%ADD10C,3.200000*%
%ADD11C,1.346200*%
%ADD12C,1.107440*%
%ADD13R,1.700000X1.700000*%
%ADD14O,1.700000X1.700000*%
G04 APERTURE END LIST*
D10*
%TO.C,H3*%
X207347767Y-111332767D03*
%TD*%
D11*
%TO.C,N1*%
X111092700Y-88984640D03*
X100907300Y-88984640D03*
X99855740Y-91755780D03*
X100213880Y-94694560D03*
X101895360Y-97132960D03*
X104519180Y-98509640D03*
X107480820Y-98509640D03*
X110104640Y-97132960D03*
X111786120Y-94694560D03*
X112144260Y-91755780D03*
X106000000Y-86312560D03*
X103124720Y-87021220D03*
X108875280Y-87021220D03*
%TD*%
%TO.C,N3*%
X168092700Y-88984640D03*
X157907300Y-88984640D03*
X156855740Y-91755780D03*
X157213880Y-94694560D03*
X158895360Y-97132960D03*
X161519180Y-98509640D03*
X164480820Y-98509640D03*
X167104640Y-97132960D03*
X168786120Y-94694560D03*
X169144260Y-91755780D03*
X163000000Y-86312560D03*
X160124720Y-87021220D03*
X165875280Y-87021220D03*
%TD*%
%TO.C,N4*%
X191092700Y-88984640D03*
X180907300Y-88984640D03*
X179855740Y-91755780D03*
X180213880Y-94694560D03*
X181895360Y-97132960D03*
X184519180Y-98509640D03*
X187480820Y-98509640D03*
X190104640Y-97132960D03*
X191786120Y-94694560D03*
X192144260Y-91755780D03*
X186000000Y-86312560D03*
X183124720Y-87021220D03*
X188875280Y-87021220D03*
%TD*%
D10*
%TO.C,H1*%
X84347767Y-73332767D03*
%TD*%
D12*
%TO.C,N6*%
X147587500Y-96000000D03*
X144412500Y-96000000D03*
%TD*%
D11*
%TO.C,N2*%
X134092700Y-88984640D03*
X123907300Y-88984640D03*
X122855740Y-91755780D03*
X123213880Y-94694560D03*
X124895360Y-97132960D03*
X127519180Y-98509640D03*
X130480820Y-98509640D03*
X133104640Y-97132960D03*
X134786120Y-94694560D03*
X135144260Y-91755780D03*
X129000000Y-86312560D03*
X126124720Y-87021220D03*
X131875280Y-87021220D03*
%TD*%
D10*
%TO.C,H2*%
X207347767Y-73332767D03*
%TD*%
D12*
%TO.C,N5*%
X147587500Y-87500000D03*
X144412500Y-87500000D03*
%TD*%
D10*
%TO.C,H4*%
X84347767Y-111332767D03*
%TD*%
D13*
%TO.C,J1*%
X83660000Y-82215000D03*
D14*
X83660000Y-84755000D03*
X83660000Y-87295000D03*
X83660000Y-89835000D03*
X83660000Y-92375000D03*
X83660000Y-94915000D03*
X83660000Y-97455000D03*
X83660000Y-99995000D03*
X83660000Y-102535000D03*
X83660000Y-105075000D03*
%TD*%
M02*
